<svg width="102" height="22" viewBox="0 0 102 22" fill="none" xmlns="http://www.w3.org/2000/svg">
<g filter="url(#filter0_d_53_2266)">
<mask id="path-1-outside-1_53_2266" maskUnits="userSpaceOnUse" x="0" y="-1" width="102" height="22" fill="black">
<rect fill="white" y="-1" width="102" height="22"/>
<path d="M7.16 19.1C6.38667 19.1 5.51333 19.0333 4.54 18.9C4.00667 18.8333 3.64 18.6933 3.44 18.48C3.24 18.2667 3.15333 17.92 3.18 17.44C3.27333 16.12 3.49333 14.4933 3.84 12.56C4.18667 10.6133 4.60667 8.74 5.1 6.94C5.19333 6.60667 5.38 6.37333 5.66 6.24C5.94 6.10667 6.30667 6.04 6.76 6.04C7.57333 6.04 7.98 6.26667 7.98 6.72C7.98 6.90667 7.94 7.12 7.86 7.36C7.51333 8.42667 7.16667 9.86 6.82 11.66C6.47333 13.4467 6.22667 15.1533 6.08 16.78C6.48 16.82 6.93333 16.84 7.44 16.84C9.77333 16.84 11.5133 16.1333 12.66 14.72C13.82 13.3067 14.4 11.42 14.4 9.06C14.4 7.47333 13.9467 6.24667 13.04 5.38C12.1333 4.51333 10.8533 4.08 9.2 4.08C8.13333 4.08 7.07333 4.24667 6.02 4.58C4.98 4.91333 4.04 5.35333 3.2 5.9C3.02667 6.02 2.84 6.08 2.64 6.08C2.41333 6.08 2.23333 5.98667 2.1 5.8C1.96667 5.6 1.9 5.36 1.9 5.08C1.9 4.76 1.95333 4.5 2.06 4.3C2.16667 4.08667 2.34667 3.89333 2.6 3.72C3.52 3.09333 4.6 2.62 5.84 2.3C7.08 1.96667 8.27333 1.8 9.42 1.8C11.0467 1.8 12.4533 2.08667 13.64 2.66C14.8267 3.22 15.74 4.04667 16.38 5.14C17.02 6.23333 17.34 7.55333 17.34 9.1C17.34 11.1133 16.94 12.8733 16.14 14.38C15.34 15.8733 14.1733 17.0333 12.64 17.86C11.1067 18.6867 9.28 19.1 7.16 19.1ZM21.5481 19.1C20.7215 19.1 20.0615 18.8 19.5681 18.2C19.0748 17.6 18.8281 16.8133 18.8281 15.84C18.8281 14.7733 19.0748 13.7667 19.5681 12.82C20.0615 11.86 20.7148 11.0933 21.5281 10.52C22.3548 9.93333 23.2281 9.64 24.1481 9.64C24.4415 9.64 24.6348 9.7 24.7281 9.82C24.8348 9.92667 24.9215 10.1267 24.9881 10.42C25.2681 10.3667 25.5615 10.34 25.8681 10.34C26.5215 10.34 26.8481 10.5733 26.8481 11.04C26.8481 11.32 26.7481 11.9867 26.5481 13.04C26.2415 14.5733 26.0881 15.64 26.0881 16.24C26.0881 16.44 26.1348 16.6 26.2281 16.72C26.3348 16.84 26.4681 16.9 26.6281 16.9C26.8815 16.9 27.1881 16.74 27.5481 16.42C27.9081 16.0867 28.3948 15.5533 29.0081 14.82C29.1681 14.6333 29.3481 14.54 29.5481 14.54C29.7215 14.54 29.8548 14.62 29.9481 14.78C30.0548 14.94 30.1081 15.16 30.1081 15.44C30.1081 15.9733 29.9815 16.3867 29.7281 16.68C29.1815 17.36 28.6015 17.9333 27.9881 18.4C27.3748 18.8667 26.7815 19.1 26.2081 19.1C25.7681 19.1 25.3615 18.9533 24.9881 18.66C24.6281 18.3533 24.3548 17.94 24.1681 17.42C23.4748 18.54 22.6015 19.1 21.5481 19.1ZM22.2681 17.08C22.5615 17.08 22.8415 16.9067 23.1081 16.56C23.3748 16.2133 23.5681 15.7533 23.6881 15.18L24.4281 11.5C23.8681 11.5133 23.3481 11.7267 22.8681 12.14C22.4015 12.54 22.0281 13.0733 21.7481 13.74C21.4681 14.4067 21.3281 15.1133 21.3281 15.86C21.3281 16.2733 21.4081 16.58 21.5681 16.78C21.7415 16.98 21.9748 17.08 22.2681 17.08ZM30.7027 19.1C30.196 19.1 29.836 18.8333 29.6227 18.3C29.4227 17.7667 29.3227 16.9133 29.3227 15.74C29.3227 14.0067 29.5693 12.36 30.0627 10.8C30.1827 10.4133 30.376 10.1333 30.6427 9.96C30.9227 9.77333 31.3093 9.68 31.8027 9.68C32.0693 9.68 32.256 9.71333 32.3627 9.78C32.4693 9.84667 32.5227 9.97333 32.5227 10.16C32.5227 10.3733 32.4227 10.8533 32.2227 11.6C32.0893 12.1333 31.9827 12.6 31.9027 13C31.8227 13.4 31.756 13.8933 31.7027 14.48C32.1427 13.3333 32.636 12.4 33.1827 11.68C33.7293 10.96 34.2627 10.4467 34.7827 10.14C35.316 9.83333 35.8027 9.68 36.2427 9.68C37.1093 9.68 37.5427 10.1133 37.5427 10.98C37.5427 11.1533 37.4827 11.5733 37.3627 12.24C37.256 12.7733 37.2027 13.1067 37.2027 13.24C37.2027 13.7067 37.3693 13.94 37.7027 13.94C38.076 13.94 38.556 13.6467 39.1427 13.06C39.316 12.8867 39.496 12.8 39.6827 12.8C39.856 12.8 39.9893 12.88 40.0827 13.04C40.1893 13.1867 40.2427 13.3867 40.2427 13.64C40.2427 14.1333 40.1093 14.52 39.8427 14.8C39.4693 15.1867 39.0293 15.52 38.5227 15.8C38.0293 16.0667 37.5027 16.2 36.9427 16.2C36.236 16.2 35.696 16.02 35.3227 15.66C34.9627 15.3 34.7827 14.8133 34.7827 14.2C34.7827 14 34.8027 13.8 34.8427 13.6C34.8693 13.3333 34.8827 13.1533 34.8827 13.06C34.8827 12.8467 34.8093 12.74 34.6627 12.74C34.4627 12.74 34.196 12.9667 33.8627 13.42C33.5427 13.86 33.2227 14.4467 32.9027 15.18C32.5827 15.9133 32.3227 16.6867 32.1227 17.5C31.976 18.1267 31.8027 18.5533 31.6027 18.78C31.416 18.9933 31.116 19.1 30.7027 19.1ZM47.6842 16.92C48.2309 17.0267 48.5042 17.3267 48.5042 17.82C48.5042 18.1533 48.3509 18.4533 48.0442 18.72C47.7509 18.9733 47.3242 19.1 46.7642 19.1C45.8042 19.1 45.0176 18.8067 44.4042 18.22C43.8042 17.62 43.5042 16.84 43.5042 15.88C43.5042 15.36 43.7709 14.9867 44.3042 14.76C44.8909 14.5067 45.3109 14.24 45.5642 13.96C45.8176 13.6667 45.9442 13.3133 45.9442 12.9C45.9442 12.66 45.8909 12.48 45.7842 12.36C45.6909 12.24 45.5709 12.18 45.4242 12.18C45.0642 12.18 44.6642 12.44 44.2242 12.96C43.7976 13.48 43.3976 14.1533 43.0242 14.98C42.6509 15.7933 42.3576 16.6333 42.1442 17.5C41.9976 18.1267 41.8242 18.5533 41.6242 18.78C41.4376 18.9933 41.1376 19.1 40.7242 19.1C40.3109 19.1 40.0042 18.9533 39.8042 18.66C39.6176 18.3533 39.4909 17.8867 39.4242 17.26C39.3576 16.6333 39.3242 15.7133 39.3242 14.5C39.3242 12.4467 39.5309 10.3067 39.9442 8.08C40.3709 5.85333 40.9909 3.98667 41.8042 2.48C42.6309 0.959999 43.6176 0.199999 44.7642 0.199999C45.3776 0.199999 45.8709 0.466666 46.2442 0.999999C46.6309 1.52 46.8242 2.2 46.8242 3.04C46.8242 4.38667 46.4309 5.78667 45.6442 7.24C44.8576 8.68 43.5776 10.3667 41.8042 12.3C41.7642 12.9933 41.7442 13.7067 41.7442 14.44C42.3842 12.7733 43.1176 11.5667 43.9442 10.82C44.7709 10.06 45.5442 9.68 46.2642 9.68C46.9309 9.68 47.4642 9.90667 47.8642 10.36C48.2776 10.8133 48.4842 11.3733 48.4842 12.04C48.4842 12.7733 48.2976 13.4467 47.9242 14.06C47.5509 14.6733 46.9109 15.22 46.0042 15.7C46.0842 16.1 46.2442 16.38 46.4842 16.54C46.7376 16.6867 47.1376 16.8133 47.6842 16.92ZM44.3442 2.18C44.1042 2.18 43.8376 2.52667 43.5442 3.22C43.2509 3.9 42.9642 4.82667 42.6842 6C42.4176 7.16 42.1976 8.42667 42.0242 9.8C42.8509 8.82667 43.5309 7.76667 44.0642 6.62C44.6109 5.47333 44.8842 4.43333 44.8842 3.5C44.8842 3.07333 44.8376 2.74667 44.7442 2.52C44.6509 2.29333 44.5176 2.18 44.3442 2.18ZM57.9269 19.1C57.4202 19.1 57.0602 18.8333 56.8469 18.3C56.6469 17.7667 56.5469 16.9133 56.5469 15.74C56.5469 14.0067 56.7935 12.36 57.2869 10.8C57.4069 10.4133 57.6002 10.1333 57.8669 9.96C58.1469 9.77333 58.5335 9.68 59.0269 9.68C59.2935 9.68 59.4802 9.71333 59.5869 9.78C59.6935 9.84667 59.7469 9.97333 59.7469 10.16C59.7469 10.3733 59.6469 10.8533 59.4469 11.6C59.3135 12.1333 59.2069 12.6 59.1269 13C59.0469 13.3867 58.9802 13.8733 58.9269 14.46C59.2869 13.42 59.7135 12.54 60.2069 11.82C60.7135 11.1 61.2269 10.5667 61.7469 10.22C62.2802 9.86 62.7802 9.68 63.2469 9.68C63.7135 9.68 64.0402 9.78667 64.2269 10C64.4269 10.2133 64.5269 10.54 64.5269 10.98C64.5269 11.4067 64.4002 12.18 64.1469 13.3C64.0402 13.78 63.9669 14.14 63.9269 14.38C64.5935 12.74 65.3335 11.5467 66.1469 10.8C66.9602 10.0533 67.7202 9.68 68.4269 9.68C69.2935 9.68 69.7269 10.1133 69.7269 10.98C69.7269 11.5 69.5802 12.44 69.2869 13.8C69.0335 14.96 68.9069 15.7267 68.9069 16.1C68.9069 16.6333 69.1002 16.9 69.4869 16.9C69.7535 16.9 70.0669 16.74 70.4269 16.42C70.8002 16.0867 71.2935 15.5533 71.9069 14.82C72.0669 14.6333 72.2469 14.54 72.4469 14.54C72.6202 14.54 72.7535 14.62 72.8469 14.78C72.9535 14.94 73.0069 15.16 73.0069 15.44C73.0069 15.9733 72.8802 16.3867 72.6269 16.68C72.0535 17.3867 71.4335 17.9667 70.7669 18.42C70.1135 18.8733 69.3669 19.1 68.5269 19.1C67.8469 19.1 67.3335 18.9067 66.9869 18.52C66.6402 18.12 66.4669 17.5467 66.4669 16.8C66.4669 16.4267 66.5602 15.76 66.7469 14.8C66.9202 13.96 67.0069 13.38 67.0069 13.06C67.0069 12.8467 66.9335 12.74 66.7869 12.74C66.6135 12.74 66.3669 12.9667 66.0469 13.42C65.7269 13.86 65.4069 14.4467 65.0869 15.18C64.7669 15.9133 64.5069 16.6867 64.3069 17.5C64.1602 18.14 63.9869 18.5667 63.7869 18.78C63.6002 18.9933 63.2935 19.1 62.8669 19.1C62.4269 19.1 62.0935 18.8933 61.8669 18.48C61.6535 18.0533 61.5469 17.54 61.5469 16.94C61.5469 16.4333 61.6135 15.7 61.7469 14.74C61.8535 13.8867 61.9069 13.3267 61.9069 13.06C61.9069 12.8467 61.8335 12.74 61.6869 12.74C61.4869 12.74 61.2335 12.98 60.9269 13.46C60.6202 13.94 60.3202 14.5533 60.0269 15.3C59.7469 16.0467 59.5202 16.78 59.3469 17.5C59.2002 18.1267 59.0269 18.5533 58.8269 18.78C58.6402 18.9933 58.3402 19.1 57.9269 19.1ZM82.3897 12.86C82.563 12.86 82.6964 12.9467 82.7897 13.12C82.883 13.2933 82.9297 13.5133 82.9297 13.78C82.9297 14.42 82.7364 14.8 82.3497 14.92C81.5497 15.2 80.6697 15.36 79.7097 15.4C79.4564 16.52 78.9564 17.42 78.2097 18.1C77.463 18.7667 76.6164 19.1 75.6697 19.1C74.8697 19.1 74.183 18.9067 73.6097 18.52C73.0497 18.1333 72.623 17.62 72.3297 16.98C72.0364 16.34 71.8897 15.6467 71.8897 14.9C71.8897 13.8867 72.083 12.9867 72.4697 12.2C72.8564 11.4 73.3897 10.78 74.0697 10.34C74.7497 9.88667 75.503 9.66 76.3297 9.66C77.343 9.66 78.1564 10.0133 78.7697 10.72C79.3964 11.4133 79.763 12.2733 79.8697 13.3C80.4964 13.26 81.243 13.1267 82.1097 12.9C82.2164 12.8733 82.3097 12.86 82.3897 12.86ZM75.8297 16.98C76.2564 16.98 76.623 16.8067 76.9297 16.46C77.2497 16.1133 77.463 15.6133 77.5697 14.96C77.1564 14.68 76.8364 14.3133 76.6097 13.86C76.3964 13.4067 76.2897 12.9267 76.2897 12.42C76.2897 12.2067 76.3097 11.9933 76.3497 11.78H76.2497C75.7164 11.78 75.2697 12.04 74.9097 12.56C74.563 13.0667 74.3897 13.7867 74.3897 14.72C74.3897 15.4533 74.5297 16.0133 74.8097 16.4C75.103 16.7867 75.443 16.98 75.8297 16.98ZM93.3731 14.54C93.5465 14.54 93.6798 14.62 93.7731 14.78C93.8798 14.94 93.9331 15.16 93.9331 15.44C93.9331 15.9733 93.8065 16.3867 93.5531 16.68C93.0065 17.3467 92.4065 17.92 91.7531 18.4C91.0998 18.8667 90.4531 19.1 89.8131 19.1C88.7998 19.1 88.0265 18.5067 87.4931 17.32C86.9331 18.0267 86.4398 18.5 86.0131 18.74C85.5998 18.98 85.1131 19.1 84.5531 19.1C83.7398 19.1 83.0665 18.8 82.5331 18.2C82.0131 17.5867 81.7531 16.7933 81.7531 15.82C81.7531 14.7533 81.9798 13.7667 82.4331 12.86C82.8865 11.94 83.5065 11.1933 84.2931 10.62C85.0931 10.0333 85.9865 9.68667 86.9731 9.58C87.2265 6.99333 87.7065 4.78667 88.4131 2.96C89.1331 1.12 90.0731 0.199999 91.2331 0.199999C91.8065 0.199999 92.2798 0.459999 92.6531 0.98C93.0398 1.5 93.2331 2.28667 93.2331 3.34C93.2331 4.83333 92.8665 6.58 92.1331 8.58C91.3998 10.58 90.4198 12.6333 89.1931 14.74C89.2465 15.5133 89.3598 16.0667 89.5331 16.4C89.7198 16.7333 89.9531 16.9 90.2331 16.9C90.5931 16.9 90.9598 16.74 91.3331 16.42C91.7065 16.1 92.2065 15.5667 92.8331 14.82C92.9931 14.6333 93.1731 14.54 93.3731 14.54ZM91.0131 2.16C90.7598 2.16 90.5065 2.61333 90.2531 3.52C89.9998 4.41333 89.7798 5.58667 89.5931 7.04C89.4198 8.49333 89.2931 10.0133 89.2131 11.6C90.7065 8.34667 91.4531 5.73333 91.4531 3.76C91.4531 3.25333 91.4065 2.86 91.3131 2.58C91.2331 2.3 91.1331 2.16 91.0131 2.16ZM85.2531 17.08C85.5065 17.08 85.7598 16.98 86.0131 16.78C86.2665 16.5667 86.5865 16.18 86.9731 15.62C86.8398 14.9 86.7731 14.0933 86.7731 13.2C86.7731 12.88 86.7865 12.36 86.8131 11.64C86.0798 11.8667 85.4665 12.36 84.9731 13.12C84.4931 13.8667 84.2531 14.7 84.2531 15.62C84.2531 16.5933 84.5865 17.08 85.2531 17.08ZM100.266 15.14C100.439 15.14 100.573 15.22 100.666 15.38C100.773 15.54 100.826 15.76 100.826 16.04C100.826 16.52 100.713 16.9333 100.486 17.28C100.113 17.8533 99.6194 18.3 99.0061 18.62C98.4061 18.94 97.6861 19.1 96.8461 19.1C95.5661 19.1 94.5728 18.72 93.8661 17.96C93.1594 17.1867 92.8061 16.1467 92.8061 14.84C92.8061 13.92 92.9994 13.0667 93.3861 12.28C93.7728 11.48 94.3061 10.8467 94.9861 10.38C95.6794 9.91333 96.4594 9.68 97.3261 9.68C98.0994 9.68 98.7194 9.91333 99.1861 10.38C99.6528 10.8333 99.8861 11.4533 99.8861 12.24C99.8861 13.16 99.5528 13.9533 98.8861 14.62C98.2328 15.2733 97.1128 15.7933 95.5261 16.18C95.8461 16.7933 96.3861 17.1 97.1461 17.1C97.6928 17.1 98.1394 16.9733 98.4861 16.72C98.8461 16.4667 99.2594 16.04 99.7261 15.44C99.8861 15.24 100.066 15.14 100.266 15.14ZM96.9861 11.64C96.4928 11.64 96.0728 11.9267 95.7261 12.5C95.3928 13.0733 95.2261 13.7667 95.2261 14.58V14.62C96.0128 14.4333 96.6328 14.1533 97.0861 13.78C97.5394 13.4067 97.7661 12.9733 97.7661 12.48C97.7661 12.2267 97.6928 12.0267 97.5461 11.88C97.4128 11.72 97.2261 11.64 96.9861 11.64Z"/>
</mask>
<path d="M7.16 19.1C6.38667 19.1 5.51333 19.0333 4.54 18.9C4.00667 18.8333 3.64 18.6933 3.44 18.48C3.24 18.2667 3.15333 17.92 3.18 17.44C3.27333 16.12 3.49333 14.4933 3.84 12.56C4.18667 10.6133 4.60667 8.74 5.1 6.94C5.19333 6.60667 5.38 6.37333 5.66 6.24C5.94 6.10667 6.30667 6.04 6.76 6.04C7.57333 6.04 7.98 6.26667 7.98 6.72C7.98 6.90667 7.94 7.12 7.86 7.36C7.51333 8.42667 7.16667 9.86 6.82 11.66C6.47333 13.4467 6.22667 15.1533 6.08 16.78C6.48 16.82 6.93333 16.84 7.44 16.84C9.77333 16.84 11.5133 16.1333 12.66 14.72C13.82 13.3067 14.4 11.42 14.4 9.06C14.4 7.47333 13.9467 6.24667 13.04 5.38C12.1333 4.51333 10.8533 4.08 9.2 4.08C8.13333 4.08 7.07333 4.24667 6.02 4.58C4.98 4.91333 4.04 5.35333 3.2 5.9C3.02667 6.02 2.84 6.08 2.64 6.08C2.41333 6.08 2.23333 5.98667 2.1 5.8C1.96667 5.6 1.9 5.36 1.9 5.08C1.9 4.76 1.95333 4.5 2.06 4.3C2.16667 4.08667 2.34667 3.89333 2.6 3.72C3.52 3.09333 4.6 2.62 5.84 2.3C7.08 1.96667 8.27333 1.8 9.42 1.8C11.0467 1.8 12.4533 2.08667 13.64 2.66C14.8267 3.22 15.74 4.04667 16.38 5.14C17.02 6.23333 17.34 7.55333 17.34 9.1C17.34 11.1133 16.94 12.8733 16.14 14.38C15.34 15.8733 14.1733 17.0333 12.64 17.86C11.1067 18.6867 9.28 19.1 7.16 19.1ZM21.5481 19.1C20.7215 19.1 20.0615 18.8 19.5681 18.2C19.0748 17.6 18.8281 16.8133 18.8281 15.84C18.8281 14.7733 19.0748 13.7667 19.5681 12.82C20.0615 11.86 20.7148 11.0933 21.5281 10.52C22.3548 9.93333 23.2281 9.64 24.1481 9.64C24.4415 9.64 24.6348 9.7 24.7281 9.82C24.8348 9.92667 24.9215 10.1267 24.9881 10.42C25.2681 10.3667 25.5615 10.34 25.8681 10.34C26.5215 10.34 26.8481 10.5733 26.8481 11.04C26.8481 11.32 26.7481 11.9867 26.5481 13.04C26.2415 14.5733 26.0881 15.64 26.0881 16.24C26.0881 16.44 26.1348 16.6 26.2281 16.72C26.3348 16.84 26.4681 16.9 26.6281 16.9C26.8815 16.9 27.1881 16.74 27.5481 16.42C27.9081 16.0867 28.3948 15.5533 29.0081 14.82C29.1681 14.6333 29.3481 14.54 29.5481 14.54C29.7215 14.54 29.8548 14.62 29.9481 14.78C30.0548 14.94 30.1081 15.16 30.1081 15.44C30.1081 15.9733 29.9815 16.3867 29.7281 16.68C29.1815 17.36 28.6015 17.9333 27.9881 18.4C27.3748 18.8667 26.7815 19.1 26.2081 19.1C25.7681 19.1 25.3615 18.9533 24.9881 18.66C24.6281 18.3533 24.3548 17.94 24.1681 17.42C23.4748 18.54 22.6015 19.1 21.5481 19.1ZM22.2681 17.08C22.5615 17.08 22.8415 16.9067 23.1081 16.56C23.3748 16.2133 23.5681 15.7533 23.6881 15.18L24.4281 11.5C23.8681 11.5133 23.3481 11.7267 22.8681 12.14C22.4015 12.54 22.0281 13.0733 21.7481 13.74C21.4681 14.4067 21.3281 15.1133 21.3281 15.86C21.3281 16.2733 21.4081 16.58 21.5681 16.78C21.7415 16.98 21.9748 17.08 22.2681 17.08ZM30.7027 19.1C30.196 19.1 29.836 18.8333 29.6227 18.3C29.4227 17.7667 29.3227 16.9133 29.3227 15.74C29.3227 14.0067 29.5693 12.36 30.0627 10.8C30.1827 10.4133 30.376 10.1333 30.6427 9.96C30.9227 9.77333 31.3093 9.68 31.8027 9.68C32.0693 9.68 32.256 9.71333 32.3627 9.78C32.4693 9.84667 32.5227 9.97333 32.5227 10.16C32.5227 10.3733 32.4227 10.8533 32.2227 11.6C32.0893 12.1333 31.9827 12.6 31.9027 13C31.8227 13.4 31.756 13.8933 31.7027 14.48C32.1427 13.3333 32.636 12.4 33.1827 11.68C33.7293 10.96 34.2627 10.4467 34.7827 10.14C35.316 9.83333 35.8027 9.68 36.2427 9.68C37.1093 9.68 37.5427 10.1133 37.5427 10.98C37.5427 11.1533 37.4827 11.5733 37.3627 12.24C37.256 12.7733 37.2027 13.1067 37.2027 13.24C37.2027 13.7067 37.3693 13.94 37.7027 13.94C38.076 13.94 38.556 13.6467 39.1427 13.06C39.316 12.8867 39.496 12.8 39.6827 12.8C39.856 12.8 39.9893 12.88 40.0827 13.04C40.1893 13.1867 40.2427 13.3867 40.2427 13.64C40.2427 14.1333 40.1093 14.52 39.8427 14.8C39.4693 15.1867 39.0293 15.52 38.5227 15.8C38.0293 16.0667 37.5027 16.2 36.9427 16.2C36.236 16.2 35.696 16.02 35.3227 15.66C34.9627 15.3 34.7827 14.8133 34.7827 14.2C34.7827 14 34.8027 13.8 34.8427 13.6C34.8693 13.3333 34.8827 13.1533 34.8827 13.06C34.8827 12.8467 34.8093 12.74 34.6627 12.74C34.4627 12.74 34.196 12.9667 33.8627 13.42C33.5427 13.86 33.2227 14.4467 32.9027 15.18C32.5827 15.9133 32.3227 16.6867 32.1227 17.5C31.976 18.1267 31.8027 18.5533 31.6027 18.78C31.416 18.9933 31.116 19.1 30.7027 19.1ZM47.6842 16.92C48.2309 17.0267 48.5042 17.3267 48.5042 17.82C48.5042 18.1533 48.3509 18.4533 48.0442 18.72C47.7509 18.9733 47.3242 19.1 46.7642 19.1C45.8042 19.1 45.0176 18.8067 44.4042 18.22C43.8042 17.62 43.5042 16.84 43.5042 15.88C43.5042 15.36 43.7709 14.9867 44.3042 14.76C44.8909 14.5067 45.3109 14.24 45.5642 13.96C45.8176 13.6667 45.9442 13.3133 45.9442 12.9C45.9442 12.66 45.8909 12.48 45.7842 12.36C45.6909 12.24 45.5709 12.18 45.4242 12.18C45.0642 12.18 44.6642 12.44 44.2242 12.96C43.7976 13.48 43.3976 14.1533 43.0242 14.98C42.6509 15.7933 42.3576 16.6333 42.1442 17.5C41.9976 18.1267 41.8242 18.5533 41.6242 18.78C41.4376 18.9933 41.1376 19.1 40.7242 19.1C40.3109 19.1 40.0042 18.9533 39.8042 18.66C39.6176 18.3533 39.4909 17.8867 39.4242 17.26C39.3576 16.6333 39.3242 15.7133 39.3242 14.5C39.3242 12.4467 39.5309 10.3067 39.9442 8.08C40.3709 5.85333 40.9909 3.98667 41.8042 2.48C42.6309 0.959999 43.6176 0.199999 44.7642 0.199999C45.3776 0.199999 45.8709 0.466666 46.2442 0.999999C46.6309 1.52 46.8242 2.2 46.8242 3.04C46.8242 4.38667 46.4309 5.78667 45.6442 7.24C44.8576 8.68 43.5776 10.3667 41.8042 12.3C41.7642 12.9933 41.7442 13.7067 41.7442 14.44C42.3842 12.7733 43.1176 11.5667 43.9442 10.82C44.7709 10.06 45.5442 9.68 46.2642 9.68C46.9309 9.68 47.4642 9.90667 47.8642 10.36C48.2776 10.8133 48.4842 11.3733 48.4842 12.04C48.4842 12.7733 48.2976 13.4467 47.9242 14.06C47.5509 14.6733 46.9109 15.22 46.0042 15.7C46.0842 16.1 46.2442 16.38 46.4842 16.54C46.7376 16.6867 47.1376 16.8133 47.6842 16.92ZM44.3442 2.18C44.1042 2.18 43.8376 2.52667 43.5442 3.22C43.2509 3.9 42.9642 4.82667 42.6842 6C42.4176 7.16 42.1976 8.42667 42.0242 9.8C42.8509 8.82667 43.5309 7.76667 44.0642 6.62C44.6109 5.47333 44.8842 4.43333 44.8842 3.5C44.8842 3.07333 44.8376 2.74667 44.7442 2.52C44.6509 2.29333 44.5176 2.18 44.3442 2.18ZM57.9269 19.1C57.4202 19.1 57.0602 18.8333 56.8469 18.3C56.6469 17.7667 56.5469 16.9133 56.5469 15.74C56.5469 14.0067 56.7935 12.36 57.2869 10.8C57.4069 10.4133 57.6002 10.1333 57.8669 9.96C58.1469 9.77333 58.5335 9.68 59.0269 9.68C59.2935 9.68 59.4802 9.71333 59.5869 9.78C59.6935 9.84667 59.7469 9.97333 59.7469 10.16C59.7469 10.3733 59.6469 10.8533 59.4469 11.6C59.3135 12.1333 59.2069 12.6 59.1269 13C59.0469 13.3867 58.9802 13.8733 58.9269 14.46C59.2869 13.42 59.7135 12.54 60.2069 11.82C60.7135 11.1 61.2269 10.5667 61.7469 10.22C62.2802 9.86 62.7802 9.68 63.2469 9.68C63.7135 9.68 64.0402 9.78667 64.2269 10C64.4269 10.2133 64.5269 10.54 64.5269 10.98C64.5269 11.4067 64.4002 12.18 64.1469 13.3C64.0402 13.78 63.9669 14.14 63.9269 14.38C64.5935 12.74 65.3335 11.5467 66.1469 10.8C66.9602 10.0533 67.7202 9.68 68.4269 9.68C69.2935 9.68 69.7269 10.1133 69.7269 10.98C69.7269 11.5 69.5802 12.44 69.2869 13.8C69.0335 14.96 68.9069 15.7267 68.9069 16.1C68.9069 16.6333 69.1002 16.9 69.4869 16.9C69.7535 16.9 70.0669 16.74 70.4269 16.42C70.8002 16.0867 71.2935 15.5533 71.9069 14.82C72.0669 14.6333 72.2469 14.54 72.4469 14.54C72.6202 14.54 72.7535 14.62 72.8469 14.78C72.9535 14.94 73.0069 15.16 73.0069 15.44C73.0069 15.9733 72.8802 16.3867 72.6269 16.68C72.0535 17.3867 71.4335 17.9667 70.7669 18.42C70.1135 18.8733 69.3669 19.1 68.5269 19.1C67.8469 19.1 67.3335 18.9067 66.9869 18.52C66.6402 18.12 66.4669 17.5467 66.4669 16.8C66.4669 16.4267 66.5602 15.76 66.7469 14.8C66.9202 13.96 67.0069 13.38 67.0069 13.06C67.0069 12.8467 66.9335 12.74 66.7869 12.74C66.6135 12.74 66.3669 12.9667 66.0469 13.42C65.7269 13.86 65.4069 14.4467 65.0869 15.18C64.7669 15.9133 64.5069 16.6867 64.3069 17.5C64.1602 18.14 63.9869 18.5667 63.7869 18.78C63.6002 18.9933 63.2935 19.1 62.8669 19.1C62.4269 19.1 62.0935 18.8933 61.8669 18.48C61.6535 18.0533 61.5469 17.54 61.5469 16.94C61.5469 16.4333 61.6135 15.7 61.7469 14.74C61.8535 13.8867 61.9069 13.3267 61.9069 13.06C61.9069 12.8467 61.8335 12.74 61.6869 12.74C61.4869 12.74 61.2335 12.98 60.9269 13.46C60.6202 13.94 60.3202 14.5533 60.0269 15.3C59.7469 16.0467 59.5202 16.78 59.3469 17.5C59.2002 18.1267 59.0269 18.5533 58.8269 18.78C58.6402 18.9933 58.3402 19.1 57.9269 19.1ZM82.3897 12.86C82.563 12.86 82.6964 12.9467 82.7897 13.12C82.883 13.2933 82.9297 13.5133 82.9297 13.78C82.9297 14.42 82.7364 14.8 82.3497 14.92C81.5497 15.2 80.6697 15.36 79.7097 15.4C79.4564 16.52 78.9564 17.42 78.2097 18.1C77.463 18.7667 76.6164 19.1 75.6697 19.1C74.8697 19.1 74.183 18.9067 73.6097 18.52C73.0497 18.1333 72.623 17.62 72.3297 16.98C72.0364 16.34 71.8897 15.6467 71.8897 14.9C71.8897 13.8867 72.083 12.9867 72.4697 12.2C72.8564 11.4 73.3897 10.78 74.0697 10.34C74.7497 9.88667 75.503 9.66 76.3297 9.66C77.343 9.66 78.1564 10.0133 78.7697 10.72C79.3964 11.4133 79.763 12.2733 79.8697 13.3C80.4964 13.26 81.243 13.1267 82.1097 12.9C82.2164 12.8733 82.3097 12.86 82.3897 12.86ZM75.8297 16.98C76.2564 16.98 76.623 16.8067 76.9297 16.46C77.2497 16.1133 77.463 15.6133 77.5697 14.96C77.1564 14.68 76.8364 14.3133 76.6097 13.86C76.3964 13.4067 76.2897 12.9267 76.2897 12.42C76.2897 12.2067 76.3097 11.9933 76.3497 11.78H76.2497C75.7164 11.78 75.2697 12.04 74.9097 12.56C74.563 13.0667 74.3897 13.7867 74.3897 14.72C74.3897 15.4533 74.5297 16.0133 74.8097 16.4C75.103 16.7867 75.443 16.98 75.8297 16.98ZM93.3731 14.54C93.5465 14.54 93.6798 14.62 93.7731 14.78C93.8798 14.94 93.9331 15.16 93.9331 15.44C93.9331 15.9733 93.8065 16.3867 93.5531 16.68C93.0065 17.3467 92.4065 17.92 91.7531 18.4C91.0998 18.8667 90.4531 19.1 89.8131 19.1C88.7998 19.1 88.0265 18.5067 87.4931 17.32C86.9331 18.0267 86.4398 18.5 86.0131 18.74C85.5998 18.98 85.1131 19.1 84.5531 19.1C83.7398 19.1 83.0665 18.8 82.5331 18.2C82.0131 17.5867 81.7531 16.7933 81.7531 15.82C81.7531 14.7533 81.9798 13.7667 82.4331 12.86C82.8865 11.94 83.5065 11.1933 84.2931 10.62C85.0931 10.0333 85.9865 9.68667 86.9731 9.58C87.2265 6.99333 87.7065 4.78667 88.4131 2.96C89.1331 1.12 90.0731 0.199999 91.2331 0.199999C91.8065 0.199999 92.2798 0.459999 92.6531 0.98C93.0398 1.5 93.2331 2.28667 93.2331 3.34C93.2331 4.83333 92.8665 6.58 92.1331 8.58C91.3998 10.58 90.4198 12.6333 89.1931 14.74C89.2465 15.5133 89.3598 16.0667 89.5331 16.4C89.7198 16.7333 89.9531 16.9 90.2331 16.9C90.5931 16.9 90.9598 16.74 91.3331 16.42C91.7065 16.1 92.2065 15.5667 92.8331 14.82C92.9931 14.6333 93.1731 14.54 93.3731 14.54ZM91.0131 2.16C90.7598 2.16 90.5065 2.61333 90.2531 3.52C89.9998 4.41333 89.7798 5.58667 89.5931 7.04C89.4198 8.49333 89.2931 10.0133 89.2131 11.6C90.7065 8.34667 91.4531 5.73333 91.4531 3.76C91.4531 3.25333 91.4065 2.86 91.3131 2.58C91.2331 2.3 91.1331 2.16 91.0131 2.16ZM85.2531 17.08C85.5065 17.08 85.7598 16.98 86.0131 16.78C86.2665 16.5667 86.5865 16.18 86.9731 15.62C86.8398 14.9 86.7731 14.0933 86.7731 13.2C86.7731 12.88 86.7865 12.36 86.8131 11.64C86.0798 11.8667 85.4665 12.36 84.9731 13.12C84.4931 13.8667 84.2531 14.7 84.2531 15.62C84.2531 16.5933 84.5865 17.08 85.2531 17.08ZM100.266 15.14C100.439 15.14 100.573 15.22 100.666 15.38C100.773 15.54 100.826 15.76 100.826 16.04C100.826 16.52 100.713 16.9333 100.486 17.28C100.113 17.8533 99.6194 18.3 99.0061 18.62C98.4061 18.94 97.6861 19.1 96.8461 19.1C95.5661 19.1 94.5728 18.72 93.8661 17.96C93.1594 17.1867 92.8061 16.1467 92.8061 14.84C92.8061 13.92 92.9994 13.0667 93.3861 12.28C93.7728 11.48 94.3061 10.8467 94.9861 10.38C95.6794 9.91333 96.4594 9.68 97.3261 9.68C98.0994 9.68 98.7194 9.91333 99.1861 10.38C99.6528 10.8333 99.8861 11.4533 99.8861 12.24C99.8861 13.16 99.5528 13.9533 98.8861 14.62C98.2328 15.2733 97.1128 15.7933 95.5261 16.18C95.8461 16.7933 96.3861 17.1 97.1461 17.1C97.6928 17.1 98.1394 16.9733 98.4861 16.72C98.8461 16.4667 99.2594 16.04 99.7261 15.44C99.8861 15.24 100.066 15.14 100.266 15.14ZM96.9861 11.64C96.4928 11.64 96.0728 11.9267 95.7261 12.5C95.3928 13.0733 95.2261 13.7667 95.2261 14.58V14.62C96.0128 14.4333 96.6328 14.1533 97.0861 13.78C97.5394 13.4067 97.7661 12.9733 97.7661 12.48C97.7661 12.2267 97.6928 12.0267 97.5461 11.88C97.4128 11.72 97.2261 11.64 96.9861 11.64Z" fill="url(#paint0_linear_53_2266)"/>
<path d="M4.54 18.9L4.67573 17.9092L4.66403 17.9077L4.54 18.9ZM3.44 18.48L2.71046 19.1639H2.71046L3.44 18.48ZM3.18 17.44L2.18249 17.3695L2.18196 17.377L2.18154 17.3845L3.18 17.44ZM3.84 12.56L4.8243 12.7365L4.82451 12.7353L3.84 12.56ZM5.1 6.94L4.13702 6.67036L4.13557 6.67567L5.1 6.94ZM7.86 7.36L6.91129 7.04376L6.90897 7.05091L7.86 7.36ZM6.82 11.66L7.80169 11.8505L7.80195 11.8491L6.82 11.66ZM6.08 16.78L5.08404 16.6902L4.99511 17.6765L5.9805 17.775L6.08 16.78ZM12.66 14.72L11.887 14.0856L11.8834 14.09L12.66 14.72ZM13.04 5.38L13.731 4.65713H13.731L13.04 5.38ZM6.02 4.58L5.71829 3.62659L5.71478 3.62772L6.02 4.58ZM3.2 5.9L2.65454 5.06186L2.64255 5.06966L2.63079 5.07781L3.2 5.9ZM2.1 5.8L1.26795 6.3547L1.27689 6.36812L1.28627 6.38124L2.1 5.8ZM2.06 4.3L2.94235 4.77059L2.94854 4.75898L2.95443 4.74721L2.06 4.3ZM2.6 3.72L2.03703 2.89352L2.03532 2.89469L2.6 3.72ZM5.84 2.3L6.08989 3.26833L6.0996 3.26572L5.84 2.3ZM13.64 2.66L13.205 3.56045L13.2132 3.56436L13.64 2.66ZM16.38 5.14L17.243 4.63482V4.63482L16.38 5.14ZM16.14 14.38L17.0215 14.8522L17.0232 14.849L16.14 14.38ZM12.64 17.86L12.1654 16.9798L12.64 17.86ZM7.16 18.1C6.44227 18.1 5.61546 18.038 4.67572 17.9093L4.40428 19.8907C5.4112 20.0287 6.33107 20.1 7.16 20.1V18.1ZM4.66403 17.9077C4.44993 17.881 4.30831 17.8438 4.2217 17.8108C4.13387 17.7772 4.13666 17.761 4.16954 17.7961L2.71046 19.1639C3.15782 19.6411 3.82217 19.8181 4.41597 19.8923L4.66403 17.9077ZM4.16954 17.7961C4.20923 17.8384 4.20627 17.862 4.19514 17.8175C4.1829 17.7685 4.1689 17.6675 4.17846 17.4955L2.18154 17.3845C2.14907 17.9691 2.23322 18.6549 2.71046 19.1639L4.16954 17.7961ZM4.17751 17.5105C4.26744 16.2386 4.48123 14.6498 4.8243 12.7365L2.8557 12.3835C2.50544 14.3369 2.27922 16.0014 2.18249 17.3695L4.17751 17.5105ZM4.82451 12.7353C5.16616 10.8169 5.5796 8.97331 6.06443 7.20432L4.13557 6.67567C3.63373 8.50669 3.20718 10.4098 2.85549 12.3847L4.82451 12.7353ZM6.06296 7.20963C6.07909 7.15205 6.09371 7.13615 6.09087 7.13969C6.08991 7.1409 6.08779 7.14313 6.08532 7.14507C6.08297 7.14692 6.08367 7.14584 6.08993 7.14286L5.23007 5.33714C4.65719 5.60994 4.29813 6.09504 4.13704 6.67037L6.06296 7.20963ZM6.08993 7.14286C6.18827 7.09603 6.39211 7.04 6.76 7.04V5.04C6.22122 5.04 5.69173 5.1173 5.23007 5.33714L6.08993 7.14286ZM6.76 7.04C6.91976 7.04 7.03404 7.05136 7.11108 7.06568C7.19015 7.08036 7.20685 7.09391 7.18814 7.08348C7.16361 7.06981 7.09939 7.02585 7.04552 6.93576C6.99082 6.84431 6.98 6.76085 6.98 6.72H8.98C8.98 6.45249 8.91834 6.17069 8.76198 5.90924C8.60644 5.64915 8.38973 5.46353 8.16186 5.33652C7.73637 5.09936 7.22679 5.04 6.76 5.04V7.04ZM6.98 6.72C6.98 6.76862 6.96857 6.87202 6.91132 7.04377L8.80868 7.67623C8.91143 7.36798 8.98 7.04471 8.98 6.72H6.98ZM6.90897 7.05091C6.5441 8.17359 6.1883 9.65225 5.83805 11.4709L7.80195 11.8491C8.14503 10.0677 8.48257 8.67974 8.81103 7.66909L6.90897 7.05091ZM5.83831 11.4695C5.4859 13.2858 5.23407 15.0262 5.08404 16.6902L7.07596 16.8698C7.21926 15.2805 7.46077 13.6076 7.80169 11.8505L5.83831 11.4695ZM5.9805 17.775C6.42075 17.8191 6.90822 17.84 7.44 17.84V15.84C6.95845 15.84 6.53925 15.8209 6.1795 15.785L5.9805 17.775ZM7.44 17.84C9.98254 17.84 12.0487 17.0607 13.4366 15.35L11.8834 14.09C10.978 15.206 9.56413 15.84 7.44 15.84V17.84ZM13.433 15.3544C14.7779 13.7157 15.4 11.583 15.4 9.06H13.4C13.4 11.257 12.8621 12.8976 11.887 14.0856L13.433 15.3544ZM15.4 9.06C15.4 7.27697 14.8843 5.75959 13.731 4.65713L12.349 6.10287C13.009 6.73374 13.4 7.6697 13.4 9.06H15.4ZM13.731 4.65713C12.5851 3.56178 11.0264 3.08 9.2 3.08V5.08C10.6803 5.08 11.6816 5.46489 12.349 6.10287L13.731 4.65713ZM9.2 3.08C8.02734 3.08 6.86569 3.2635 5.71829 3.6266L6.32171 5.5334C7.28097 5.22984 8.23932 5.08 9.2 5.08V3.08ZM5.71478 3.62772C4.59751 3.98582 3.57554 4.46248 2.65454 5.06186L3.74546 6.73814C4.50446 6.24418 5.36249 5.84085 6.32522 5.53228L5.71478 3.62772ZM2.63079 5.07781C2.62453 5.08214 2.62101 5.08396 2.62029 5.08432C2.61962 5.08465 2.62093 5.08395 2.62399 5.08297C2.62708 5.08198 2.63062 5.08112 2.63416 5.08058C2.63768 5.08003 2.6398 5.08 2.64 5.08V7.08C3.05474 7.08 3.43821 6.95135 3.76921 6.72219L2.63079 5.07781ZM2.64 5.08C2.66773 5.08 2.72701 5.08682 2.79532 5.12224C2.8632 5.15744 2.90067 5.20047 2.91373 5.21876L1.28627 6.38124C1.60462 6.82693 2.08578 7.08 2.64 7.08V5.08ZM2.93205 5.2453C2.92536 5.23527 2.9 5.19591 2.9 5.08H0.9C0.9 5.52409 1.00797 5.96473 1.26795 6.3547L2.93205 5.2453ZM2.9 5.08C2.9 4.86053 2.93816 4.77846 2.94235 4.77059L1.17765 3.82941C0.968511 4.22154 0.9 4.65947 0.9 5.08H2.9ZM2.95443 4.74721C2.96633 4.7234 3.01235 4.64953 3.16468 4.54531L2.03532 2.89469C1.68098 3.13713 1.367 3.44993 1.16557 3.85279L2.95443 4.74721ZM3.16297 4.54648C3.97439 3.99377 4.94509 3.56371 6.08988 3.26828L5.59012 1.33172C4.25491 1.67629 3.06561 2.1929 2.03704 2.89352L3.16297 4.54648ZM6.0996 3.26572C7.26491 2.95246 8.37075 2.8 9.42 2.8V0.799999C8.17592 0.799999 6.89509 0.980872 5.5804 1.33428L6.0996 3.26572ZM9.42 2.8C10.9305 2.8 12.182 3.06615 13.205 3.56041L14.075 1.75958C12.7247 1.10718 11.1628 0.799999 9.42 0.799999V2.8ZM13.2132 3.56436C14.2245 4.04158 14.9826 4.73233 15.517 5.64518L17.243 4.63482C16.4974 3.36101 15.4289 2.39842 14.0668 1.75564L13.2132 3.56436ZM15.517 5.64518C16.0494 6.55473 16.34 7.69181 16.34 9.1H18.34C18.34 7.41485 17.9906 5.91194 17.243 4.63482L15.517 5.64518ZM16.34 9.1C16.34 10.9793 15.9674 12.5727 15.2568 13.911L17.0232 14.849C17.9126 13.1739 18.34 11.2474 18.34 9.1H16.34ZM15.2585 13.9078C14.5539 15.223 13.5312 16.2434 12.1654 16.9798L13.1146 18.7402C14.8155 17.8232 16.1261 16.5236 17.0215 14.8522L15.2585 13.9078ZM12.1654 16.9798C10.8064 17.7125 9.14996 18.1 7.16 18.1V20.1C9.41004 20.1 11.407 19.6608 13.1146 18.7402L12.1654 16.9798ZM19.5681 18.2L20.3405 17.5649L19.5681 18.2ZM19.5681 12.82L20.4549 13.2821L20.4576 13.2771L19.5681 12.82ZM21.5281 10.52L22.1043 11.3373L22.1069 11.3355L21.5281 10.52ZM24.7281 9.82L23.9388 10.4339L23.977 10.4831L24.021 10.5271L24.7281 9.82ZM24.9881 10.42L24.013 10.6416L24.2269 11.583L25.1752 11.4023L24.9881 10.42ZM26.5481 13.04L27.5288 13.2361L27.5306 13.2265L26.5481 13.04ZM26.2281 16.72L25.4388 17.3339L25.4589 17.3598L25.4807 17.3844L26.2281 16.72ZM27.5481 16.42L28.2125 17.1674L28.2201 17.1607L28.2275 17.1538L27.5481 16.42ZM29.0081 14.82L28.2488 14.1692L28.241 14.1784L29.0081 14.82ZM29.9481 14.78L29.0843 15.2839L29.0994 15.3098L29.1161 15.3347L29.9481 14.78ZM29.7281 16.68L28.9713 16.0264L28.9598 16.0397L28.9487 16.0534L29.7281 16.68ZM27.9881 18.4L28.5936 19.1958L27.9881 18.4ZM24.9881 18.66L24.3397 19.4212L24.3547 19.4341L24.3703 19.4463L24.9881 18.66ZM24.1681 17.42L25.1093 17.0821L24.409 15.1311L23.3179 16.8936L24.1681 17.42ZM23.1081 16.56L22.3155 15.9503L23.1081 16.56ZM23.6881 15.18L24.6669 15.3849L24.6685 15.3771L23.6881 15.18ZM24.4281 11.5L25.4085 11.6971L25.6552 10.4705L24.4043 10.5003L24.4281 11.5ZM22.8681 12.14L23.5189 12.8993L23.5206 12.8978L22.8681 12.14ZM21.7481 13.74L22.6701 14.1272L21.7481 13.74ZM21.5681 16.78L20.7873 17.4047L20.7995 17.4201L20.8124 17.4349L21.5681 16.78ZM21.5481 18.1C20.9985 18.1 20.6304 17.9174 20.3405 17.5649L18.7957 18.8351C19.4925 19.6826 20.4444 20.1 21.5481 20.1V18.1ZM20.3405 17.5649C20.0285 17.1854 19.8281 16.6418 19.8281 15.84H17.8281C17.8281 16.9849 18.1211 18.0146 18.7957 18.8351L20.3405 17.5649ZM19.8281 15.84C19.8281 14.9344 20.0359 14.0862 20.4549 13.2821L18.6813 12.3579C18.1137 13.4471 17.8281 14.6123 17.8281 15.84H19.8281ZM20.4576 13.2771C20.8835 12.4483 21.4339 11.8099 22.1043 11.3373L20.952 9.70266C19.9957 10.3768 19.2394 11.2717 18.6787 12.3629L20.4576 13.2771ZM22.1069 11.3355C22.7825 10.8561 23.4566 10.64 24.1481 10.64V8.64C22.9997 8.64 21.9271 9.01062 20.9494 9.70449L22.1069 11.3355ZM24.1481 10.64C24.2352 10.64 24.2485 10.6499 24.2167 10.6401C24.1819 10.6292 24.0532 10.5811 23.9388 10.4339L25.5175 9.20606C25.117 8.69114 24.4865 8.64 24.1481 8.64V10.64ZM24.021 10.5271C23.9858 10.4919 23.9663 10.4632 23.9585 10.4508C23.9505 10.4382 23.9503 10.4355 23.9556 10.4476C23.967 10.4741 23.9886 10.5343 24.013 10.6416L25.9633 10.1984C25.889 9.87164 25.7533 9.43098 25.4352 9.11289L24.021 10.5271ZM25.1752 11.4023C25.3891 11.3616 25.6195 11.34 25.8681 11.34V9.34C25.5034 9.34 25.1471 9.37173 24.801 9.43766L25.1752 11.4023ZM25.8681 11.34C25.9752 11.34 26.0372 11.3499 26.0653 11.3566C26.0929 11.3631 26.0684 11.362 26.0219 11.3287C25.9691 11.291 25.9156 11.2315 25.8807 11.1566C25.8648 11.1226 25.8565 11.0932 25.8522 11.0721C25.8502 11.0617 25.8491 11.0536 25.8486 11.0482C25.8484 11.0455 25.8482 11.0434 25.8482 11.042C25.8482 11.0414 25.8481 11.0409 25.8481 11.0405C25.8481 11.0403 25.8481 11.0402 25.8481 11.0401C25.8481 11.0401 25.8481 11.0401 25.8481 11.04C25.8481 11.0403 25.8481 11.0398 25.8481 11.04C25.8481 11.0402 25.8481 11.0398 25.8481 11.04H27.8481C27.8481 10.5438 27.6559 10.0381 27.1844 9.70127C26.7749 9.40876 26.2836 9.34 25.8681 9.34V11.34ZM25.8481 11.04C25.8481 11.2053 25.7718 11.768 25.5657 12.8535L27.5306 13.2265C27.7245 12.2053 27.8481 11.4347 27.8481 11.04H25.8481ZM25.5675 12.8439C25.2621 14.371 25.0881 15.5283 25.0881 16.24H27.0881C27.0881 15.7517 27.2208 14.7756 27.5287 13.2361L25.5675 12.8439ZM25.0881 16.24C25.0881 16.592 25.1712 16.99 25.4388 17.3339L27.0175 16.1061C27.0554 16.1548 27.0746 16.2006 27.0831 16.23C27.091 16.257 27.0881 16.2635 27.0881 16.24H25.0881ZM25.4807 17.3844C25.7764 17.717 26.1814 17.9 26.6281 17.9V15.9C26.6761 15.9 26.7444 15.9097 26.8185 15.9431C26.8925 15.9764 26.9445 16.0207 26.9755 16.0556L25.4807 17.3844ZM26.6281 17.9C27.2678 17.9 27.8138 17.5218 28.2125 17.1674L26.8838 15.6726C26.7431 15.7977 26.644 15.8629 26.5856 15.8934C26.5254 15.9248 26.5458 15.9 26.6281 15.9V17.9ZM28.2275 17.1538C28.6355 16.776 29.155 16.2031 29.7752 15.4616L28.241 14.1784C27.6346 14.9036 27.1807 15.3974 26.8687 15.6862L28.2275 17.1538ZM29.7674 15.4708C29.7812 15.4547 29.7688 15.4742 29.7234 15.4978C29.6733 15.5238 29.6106 15.54 29.5481 15.54V13.54C28.9904 13.54 28.5514 13.8163 28.2489 14.1692L29.7674 15.4708ZM29.5481 15.54C29.4749 15.54 29.3697 15.5211 29.2636 15.4575C29.1607 15.3957 29.1063 15.3215 29.0843 15.2839L30.8119 14.2761C30.5544 13.8346 30.1059 13.54 29.5481 13.54V15.54ZM29.1161 15.3347C29.0941 15.3018 29.0924 15.2846 29.0963 15.3006C29.1005 15.3178 29.1081 15.3615 29.1081 15.44H31.1081C31.1081 15.048 31.0357 14.6086 30.7802 14.2253L29.1161 15.3347ZM29.1081 15.44C29.1081 15.8236 29.0174 15.973 28.9713 16.0264L30.4849 17.3336C30.9455 16.8004 31.1081 16.1231 31.1081 15.44H29.1081ZM28.9487 16.0534C28.4464 16.6783 27.9235 17.1926 27.3826 17.6042L28.5936 19.1958C29.2794 18.674 29.9165 18.0417 30.5075 17.3066L28.9487 16.0534ZM27.3826 17.6042C26.8839 17.9836 26.4982 18.1 26.2081 18.1V20.1C27.0647 20.1 27.8657 19.7497 28.5936 19.1958L27.3826 17.6042ZM26.2081 18.1C26.0104 18.1 25.818 18.0403 25.6059 17.8737L24.3703 19.4463C24.905 19.8664 25.5259 20.1 26.2081 20.1V18.1ZM25.6366 17.8988C25.4303 17.723 25.247 17.4658 25.1093 17.0821L23.2269 17.7579C23.4626 18.4142 23.8259 18.9836 24.3397 19.4212L25.6366 17.8988ZM23.3179 16.8936C22.7543 17.804 22.1659 18.1 21.5481 18.1V20.1C23.037 20.1 24.1953 19.276 25.0184 17.9464L23.3179 16.8936ZM22.2681 18.08C23.0014 18.08 23.5409 17.6375 23.9007 17.1697L22.3155 15.9503C22.233 16.0576 22.1817 16.0936 22.1718 16.0997C22.1685 16.1018 22.1768 16.0962 22.1962 16.0903C22.2164 16.0842 22.2414 16.08 22.2681 16.08V18.08ZM23.9007 17.1697C24.2848 16.6705 24.5261 16.0579 24.6669 15.3849L22.7093 14.9751C22.6102 15.4488 22.4648 15.7562 22.3155 15.9503L23.9007 17.1697ZM24.6685 15.3771L25.4085 11.6971L23.4478 11.3029L22.7078 14.9829L24.6685 15.3771ZM24.4043 10.5003C23.5829 10.5198 22.8466 10.8389 22.2156 11.3822L23.5206 12.8978C23.8496 12.6145 24.1533 12.5068 24.4519 12.4997L24.4043 10.5003ZM22.2173 11.3807C21.6134 11.8984 21.1558 12.5679 20.8261 13.3528L22.6701 14.1272C22.9005 13.5788 23.1895 13.1816 23.5189 12.8993L22.2173 11.3807ZM20.8261 13.3528C20.493 14.1461 20.3281 14.9848 20.3281 15.86H22.3281C22.3281 15.2419 22.4433 14.6673 22.6701 14.1272L20.8261 13.3528ZM20.3281 15.86C20.3281 16.3708 20.4214 16.9474 20.7873 17.4047L22.349 16.1553C22.3749 16.1877 22.3685 16.1965 22.3557 16.1476C22.3426 16.0972 22.3281 16.0058 22.3281 15.86H20.3281ZM20.8124 17.4349C21.1977 17.8794 21.72 18.08 22.2681 18.08V16.08C22.236 16.08 22.2414 16.0749 22.267 16.0859C22.2791 16.091 22.2916 16.0981 22.303 16.1065C22.3143 16.1149 22.3211 16.122 22.3238 16.1251L20.8124 17.4349ZM29.6227 18.3L28.6863 18.6511L28.6901 18.6613L28.6942 18.6714L29.6227 18.3ZM30.0627 10.8L31.0161 11.1015L31.0177 11.0964L30.0627 10.8ZM30.6427 9.96L31.1877 10.7985L31.1974 10.792L30.6427 9.96ZM32.2227 11.6L31.2567 11.3413L31.2545 11.3493L31.2525 11.3575L32.2227 11.6ZM31.7027 14.48L30.7068 14.3895L32.6363 14.8383L31.7027 14.48ZM33.1827 11.68L32.3862 11.0753L33.1827 11.68ZM34.7827 10.14L34.2842 9.27304L34.2747 9.27863L34.7827 10.14ZM37.3627 12.24L38.3432 12.4361L38.3451 12.4267L38.3468 12.4172L37.3627 12.24ZM39.1427 13.06L38.4356 12.3529L39.1427 13.06ZM40.0827 13.04L39.2189 13.5439L39.2443 13.5874L39.2739 13.6282L40.0827 13.04ZM39.8427 14.8L40.5621 15.4946L40.5668 15.4897L39.8427 14.8ZM38.5227 15.8L38.9982 16.6797L39.0063 16.6752L38.5227 15.8ZM35.3227 15.66L34.6156 16.3671L34.622 16.3735L34.6285 16.3798L35.3227 15.66ZM34.8427 13.6L35.8232 13.7961L35.8328 13.7482L35.8377 13.6995L34.8427 13.6ZM33.8627 13.42L33.057 12.8276L33.0539 12.8318L33.8627 13.42ZM32.9027 15.18L31.9861 14.7801L32.9027 15.18ZM32.1227 17.5L31.1515 17.2612L31.149 17.2721L32.1227 17.5ZM31.6027 18.78L30.8528 18.1184L30.8501 18.1215L31.6027 18.78ZM30.7027 18.1C30.6641 18.1 30.6468 18.095 30.6442 18.0942C30.6429 18.0938 30.6457 18.0949 30.6479 18.0964C30.6535 18.1006 30.6081 18.071 30.5511 17.9286L28.6942 18.6714C28.8506 19.0623 29.0918 19.4327 29.4574 19.7036C29.8318 19.9809 30.2643 20.1 30.7027 20.1V18.1ZM30.559 17.9489C30.4258 17.5936 30.3227 16.8931 30.3227 15.74H28.3227C28.3227 16.9336 28.4196 17.9397 28.6863 18.6511L30.559 17.9489ZM30.3227 15.74C30.3227 14.1029 30.5554 12.5583 31.0161 11.1015L29.1092 10.4985C28.5832 12.1617 28.3227 13.9105 28.3227 15.74H30.3227ZM31.0177 11.0964C31.0878 10.8705 31.1652 10.813 31.1876 10.7984L30.0977 9.12156C29.5868 9.45364 29.2775 9.95614 29.1076 10.5036L31.0177 11.0964ZM31.1974 10.792C31.2531 10.7549 31.4197 10.68 31.8027 10.68V8.68C31.199 8.68 30.5922 8.7918 30.088 9.12795L31.1974 10.792ZM31.8027 10.68C31.8489 10.68 31.8858 10.6815 31.9143 10.6836C31.9431 10.6857 31.96 10.6882 31.9669 10.6894C31.9743 10.6907 31.9654 10.6897 31.945 10.6828C31.925 10.676 31.884 10.6601 31.8327 10.628L32.8927 8.932C32.5282 8.70419 32.0893 8.68 31.8027 8.68V10.68ZM31.8327 10.628C31.6949 10.5419 31.6066 10.4213 31.561 10.3131C31.5404 10.264 31.5311 10.224 31.5268 10.199C31.5226 10.1742 31.5227 10.1601 31.5227 10.16H33.5227C33.5227 9.80812 33.417 9.25973 32.8927 8.932L31.8327 10.628ZM31.5227 10.16C31.5227 10.1545 31.518 10.2395 31.4687 10.476C31.424 10.6904 31.3543 10.977 31.2567 11.3413L33.1886 11.8587C33.291 11.4763 33.3713 11.1496 33.4266 10.884C33.4774 10.6405 33.5227 10.3788 33.5227 10.16H31.5227ZM31.2525 11.3575C31.1166 11.9013 31.006 12.3841 30.9221 12.8039L32.8832 13.1961C32.9593 12.8159 33.0621 12.3654 33.1928 11.8425L31.2525 11.3575ZM30.9221 12.8039C30.8328 13.2503 30.762 13.7814 30.7068 14.3895L32.6985 14.5705C32.7499 14.0052 32.8125 13.5497 32.8832 13.1961L30.9221 12.8039ZM32.6363 14.8383C33.0537 13.7505 33.5059 12.908 33.9791 12.2847L32.3862 11.0753C31.7661 11.892 31.2316 12.9162 30.769 14.1217L32.6363 14.8383ZM33.9791 12.2847C34.4826 11.6216 34.9238 11.2177 35.2906 11.0014L34.2747 9.27863C33.6015 9.67564 32.9761 10.2984 32.3862 11.0753L33.9791 12.2847ZM35.2811 11.0069C35.7202 10.7544 36.0336 10.68 36.2427 10.68V8.68C35.5717 8.68 34.9118 8.91222 34.2842 9.27309L35.2811 11.0069ZM36.2427 10.68C36.5218 10.68 36.5476 10.7491 36.5106 10.7121C36.4735 10.6751 36.5427 10.7008 36.5427 10.98H38.5427C38.5427 10.3925 38.3951 9.76824 37.9248 9.29789C37.4544 8.82755 36.8301 8.68 36.2427 8.68V10.68ZM36.5427 10.98C36.5427 10.9743 36.5426 10.9948 36.5365 11.0556C36.5308 11.1118 36.5215 11.187 36.5077 11.2836C36.4801 11.4768 36.4374 11.7353 36.3785 12.0628L38.3468 12.4172C38.4611 11.7822 38.5427 11.2625 38.5427 10.98H36.5427ZM36.3821 12.0439C36.3275 12.3166 36.2848 12.5473 36.2552 12.732C36.229 12.8955 36.2027 13.0843 36.2027 13.24H38.2027C38.2027 13.2623 38.2029 13.2178 38.2301 13.048C38.2539 12.8993 38.2911 12.6967 38.3432 12.4361L36.3821 12.0439ZM36.2027 13.24C36.2027 13.5622 36.2548 13.9834 36.5139 14.3462C36.8174 14.7711 37.2732 14.94 37.7027 14.94V12.94C37.7355 12.94 37.8122 12.9459 37.9068 12.9901C38.0067 13.0367 38.087 13.1077 38.1414 13.1838C38.1913 13.2536 38.205 13.3073 38.2067 13.3146C38.2084 13.3216 38.2027 13.3004 38.2027 13.24H36.2027ZM37.7027 14.94C38.144 14.94 38.541 14.7707 38.8641 14.5733C39.1952 14.371 39.5243 14.0926 39.8498 13.7671L38.4356 12.3529C38.1744 12.6141 37.9701 12.7757 37.8212 12.8667C37.6643 12.9626 37.6346 12.94 37.7027 12.94V14.94ZM39.8498 13.7671C39.8743 13.7426 39.8729 13.7509 39.8415 13.766C39.8058 13.7832 39.7499 13.8 39.6827 13.8V11.8C39.1554 11.8 38.7354 12.053 38.4356 12.3529L39.8498 13.7671ZM39.6827 13.8C39.6094 13.8 39.5043 13.7811 39.3982 13.7175C39.2952 13.6557 39.2408 13.5815 39.2189 13.5439L40.9464 12.5361C40.6889 12.0946 40.2405 11.8 39.6827 11.8V13.8ZM39.2739 13.6282C39.2601 13.6091 39.2507 13.5921 39.2447 13.5791C39.2388 13.5662 39.2366 13.5584 39.2364 13.5577C39.2362 13.557 39.2379 13.5629 39.2395 13.5768C39.2411 13.5908 39.2427 13.6115 39.2427 13.64H41.2427C41.2427 13.2569 41.163 12.8253 40.8914 12.4518L39.2739 13.6282ZM39.2427 13.64C39.2427 13.9503 39.163 14.0636 39.1185 14.1103L40.5668 15.4897C41.0556 14.9764 41.2427 14.3164 41.2427 13.64H39.2427ZM39.1233 14.1054C38.8242 14.4152 38.4652 14.6892 38.039 14.9248L39.0063 16.6752C39.5934 16.3508 40.1145 15.9582 40.5621 15.4946L39.1233 14.1054ZM38.0471 14.9203C37.6996 15.1081 37.3364 15.2 36.9427 15.2V17.2C37.6689 17.2 38.359 17.0252 38.9982 16.6797L38.0471 14.9203ZM36.9427 15.2C36.3992 15.2 36.1447 15.0635 36.0168 14.9402L34.6285 16.3798C35.2473 16.9765 36.0728 17.2 36.9427 17.2V15.2ZM36.0298 14.9529C35.8947 14.8178 35.7827 14.6062 35.7827 14.2H33.7827C33.7827 15.0205 34.0306 15.7822 34.6156 16.3671L36.0298 14.9529ZM35.7827 14.2C35.7827 14.0671 35.7959 13.9328 35.8232 13.7961L33.8621 13.4039C33.8094 13.6672 33.7827 13.9329 33.7827 14.2H35.7827ZM35.8377 13.6995C35.8637 13.4395 35.8827 13.211 35.8827 13.06H33.8827C33.8827 13.0599 33.8827 13.0607 33.8826 13.0625C33.8826 13.0643 33.8825 13.0668 33.8825 13.0701C33.8823 13.0768 33.8819 13.0858 33.8813 13.0975C33.8802 13.1212 33.8783 13.152 33.8754 13.1911C33.8696 13.2696 33.8605 13.372 33.8476 13.5005L35.8377 13.6995ZM35.8827 13.06C35.8827 12.8698 35.8556 12.55 35.6517 12.2535C35.4014 11.8893 35.0143 11.74 34.6627 11.74V13.74C34.578 13.74 34.4556 13.7243 34.3226 13.6598C34.1849 13.593 34.0775 13.494 34.0036 13.3865C33.9342 13.2856 33.9059 13.1946 33.8942 13.1434C33.8824 13.0921 33.8827 13.0608 33.8827 13.06H35.8827ZM34.6627 11.74C34.2029 11.74 33.8565 11.9853 33.665 12.1481C33.4481 12.3325 33.2455 12.5713 33.057 12.8276L34.6683 14.0124C34.7381 13.9175 34.7986 13.8424 34.85 13.7841C34.9021 13.7251 34.9389 13.6902 34.9603 13.6719C34.9835 13.6522 34.9756 13.6633 34.9371 13.682C34.8982 13.7009 34.8021 13.74 34.6627 13.74V11.74ZM33.0539 12.8318C32.6764 13.3509 32.3229 14.0082 31.9861 14.7801L33.8192 15.5799C34.1224 14.8851 34.4089 14.3691 34.6714 14.0082L33.0539 12.8318ZM31.9861 14.7801C31.6424 15.5678 31.3645 16.3953 31.1516 17.2612L33.0937 17.7388C33.2808 16.9781 33.523 16.2588 33.8192 15.5799L31.9861 14.7801ZM31.149 17.2721C31.0832 17.5531 31.0173 17.7632 30.9562 17.9136C30.8921 18.0714 30.85 18.1216 30.8528 18.1184L32.3525 19.4416C32.7292 19.0146 32.9455 18.3725 33.0963 17.7279L31.149 17.2721ZM30.8501 18.1215C30.8645 18.1051 30.8795 18.0927 30.892 18.0844C30.904 18.0766 30.9091 18.0755 30.9026 18.0778C30.8869 18.0834 30.8274 18.1 30.7027 18.1V20.1C31.2695 20.1 31.905 19.9531 32.3552 19.4385L30.8501 18.1215ZM47.6842 16.92L47.8757 15.9385L47.6842 16.92ZM48.0442 18.72L48.6978 19.4768L48.7004 19.4746L48.0442 18.72ZM44.4042 18.22L43.6971 18.9271L43.705 18.935L43.713 18.9426L44.4042 18.22ZM44.3042 14.76L44.6954 15.6803L44.7007 15.6781L44.3042 14.76ZM45.5642 13.96L46.3058 14.6309L46.3135 14.6224L46.321 14.6136L45.5642 13.96ZM45.7842 12.36L44.9949 12.9739L45.015 12.9998L45.0368 13.0244L45.7842 12.36ZM44.2242 12.96L43.4608 12.3141L43.4559 12.3198L43.4511 12.3257L44.2242 12.96ZM43.0242 14.98L43.9331 15.3972L43.9356 15.3916L43.0242 14.98ZM42.1442 17.5L41.1731 17.261L41.1705 17.2721L42.1442 17.5ZM41.6242 18.78L40.8744 18.1184L40.8716 18.1215L41.6242 18.78ZM39.8042 18.66L38.95 19.1799L38.9634 19.202L38.978 19.2233L39.8042 18.66ZM39.4242 17.26L38.4298 17.3658L39.4242 17.26ZM39.9442 8.08L38.9621 7.8918L38.961 7.89749L39.9442 8.08ZM41.8042 2.48L40.9257 2.00222L40.9243 2.00497L41.8042 2.48ZM46.2442 0.999999L45.425 1.57346L45.4332 1.5852L45.4418 1.5967L46.2442 0.999999ZM45.6442 7.24L46.5218 7.71943L46.5237 7.71602L45.6442 7.24ZM41.8042 12.3L41.0673 11.624L40.8264 11.8867L40.8059 12.2424L41.8042 12.3ZM41.7442 14.44H40.7442L42.6778 14.7985L41.7442 14.44ZM43.9442 10.82L44.6145 11.5621L44.621 11.5562L43.9442 10.82ZM47.8642 10.36L47.1144 11.0216L47.1198 11.0277L47.1253 11.0338L47.8642 10.36ZM47.9242 14.06L48.7784 14.5799L47.9242 14.06ZM46.0042 15.7L45.5363 14.8162L44.8774 15.165L45.0236 15.8961L46.0042 15.7ZM46.4842 16.54L45.9295 17.372L45.9558 17.3896L45.9832 17.4054L46.4842 16.54ZM43.5442 3.22L44.4625 3.6161L44.4652 3.60964L43.5442 3.22ZM42.6842 6L41.7115 5.76787L41.7096 5.77596L42.6842 6ZM42.0242 9.8L41.0321 9.67478L40.6114 13.0083L42.7864 10.4473L42.0242 9.8ZM44.0642 6.62L43.1615 6.18964L43.1575 6.19827L44.0642 6.62ZM44.7442 2.52L45.6689 2.13925V2.13925L44.7442 2.52ZM47.4927 17.9015C47.5599 17.9146 47.5913 17.9285 47.5987 17.9321C47.604 17.9348 47.5853 17.9263 47.56 17.8985C47.5479 17.8852 47.5366 17.87 47.5271 17.8538C47.5176 17.8376 47.5114 17.8231 47.5075 17.812C47.4999 17.7898 47.5042 17.7885 47.5042 17.82H49.5042C49.5042 17.3806 49.3774 16.9235 49.0384 16.5515C48.7118 16.193 48.2829 16.018 47.8757 15.9385L47.4927 17.9015ZM47.5042 17.82C47.5042 17.8267 47.5042 17.8292 47.4988 17.8399C47.491 17.8551 47.4643 17.8991 47.388 17.9654L48.7004 19.4746C49.1733 19.0634 49.5042 18.5054 49.5042 17.82H47.5042ZM47.3906 17.9632C47.345 18.0026 47.189 18.1 46.7642 18.1V20.1C47.4594 20.1 48.1568 19.9441 48.6978 19.4768L47.3906 17.9632ZM46.7642 18.1C46.0252 18.1 45.4978 17.8823 45.0954 17.4974L43.713 18.9426C44.5373 19.7311 45.5832 20.1 46.7642 20.1V18.1ZM45.1113 17.5129C44.7241 17.1257 44.5042 16.6128 44.5042 15.88H42.5042C42.5042 17.0672 42.8843 18.1143 43.6971 18.9271L45.1113 17.5129ZM44.5042 15.88C44.5042 15.8358 44.5098 15.8124 44.5124 15.8035C44.5147 15.7958 44.5164 15.7934 44.518 15.7912C44.5195 15.7891 44.554 15.7404 44.6954 15.6803L43.9131 13.8397C43.5211 14.0062 43.1556 14.2576 42.8905 14.6288C42.6202 15.0071 42.5042 15.4405 42.5042 15.88H44.5042ZM44.7007 15.6781C45.3399 15.402 45.9119 15.0662 46.3058 14.6309L44.8227 13.2891C44.7099 13.4138 44.4419 13.6113 43.9078 13.8419L44.7007 15.6781ZM46.321 14.6136C46.7422 14.126 46.9442 13.536 46.9442 12.9H44.9442C44.9442 13.0906 44.8929 13.2073 44.8074 13.3064L46.321 14.6136ZM46.9442 12.9C46.9442 12.533 46.8652 12.0709 46.5316 11.6956L45.0368 13.0244C44.9775 12.9576 44.9534 12.8962 44.9454 12.8691C44.9384 12.8454 44.9442 12.8509 44.9442 12.9H46.9442ZM46.5736 11.7461C46.2988 11.3928 45.8924 11.18 45.4242 11.18V13.18C45.357 13.18 45.2685 13.1651 45.177 13.1194C45.0867 13.0743 45.0276 13.0161 44.9949 12.9739L46.5736 11.7461ZM45.4242 11.18C44.5939 11.18 43.9357 11.7528 43.4608 12.3141L44.9876 13.6059C45.1691 13.3914 45.3077 13.2729 45.3992 13.2134C45.4887 13.1553 45.4913 13.18 45.4242 13.18V11.18ZM43.4511 12.3257C42.9533 12.9324 42.5106 13.6876 42.1129 14.5684L43.9356 15.3916C44.2845 14.6191 44.6418 14.0276 44.9973 13.5943L43.4511 12.3257ZM42.1154 14.5628C41.7158 15.4333 41.4016 16.3329 41.1732 17.261L43.1152 17.739C43.3135 16.9337 43.5859 16.1534 43.933 15.3972L42.1154 14.5628ZM41.1705 17.2721C41.1048 17.5531 41.0389 17.7632 40.9778 17.9136C40.9137 18.0714 40.8716 18.1216 40.8744 18.1184L42.3741 19.4416C42.7508 19.0146 42.967 18.3725 43.1179 17.7279L41.1705 17.2721ZM40.8716 18.1215C40.886 18.1051 40.9011 18.0927 40.9136 18.0844C40.9256 18.0766 40.9307 18.0755 40.9242 18.0778C40.9084 18.0834 40.849 18.1 40.7242 18.1V20.1C41.2911 20.1 41.9266 19.9531 42.3768 19.4385L40.8716 18.1215ZM40.7242 18.1C40.6352 18.1 40.6084 18.0844 40.6157 18.0879C40.6189 18.0894 40.6245 18.0928 40.6299 18.0975C40.6351 18.102 40.6349 18.1032 40.6304 18.0967L38.978 19.2233C39.397 19.8379 40.0429 20.1 40.7242 20.1V18.1ZM40.6584 18.1401C40.5861 18.0212 40.4797 17.7289 40.4186 17.1542L38.4298 17.3658C38.502 18.0445 38.6491 18.6855 38.95 19.1799L40.6584 18.1401ZM40.4186 17.1542C40.3577 16.5814 40.3242 15.7039 40.3242 14.5H38.3242C38.3242 15.7227 38.3574 16.6852 38.4298 17.3658L40.4186 17.1542ZM40.3242 14.5C40.3242 12.5138 40.5241 10.4351 40.9274 8.26251L38.961 7.89749C38.5376 10.1783 38.3242 12.3796 38.3242 14.5H40.3242ZM40.9264 8.26819C41.3396 6.11135 41.9322 4.34814 42.6842 2.95503L40.9243 2.00497C40.0496 3.62519 39.4021 5.59532 38.9621 7.89181L40.9264 8.26819ZM42.6827 2.95777C43.432 1.58001 44.1509 1.2 44.7642 1.2V-0.800001C43.0842 -0.800001 41.8298 0.339988 40.9257 2.00223L42.6827 2.95777ZM44.7642 1.2C45.0283 1.2 45.2252 1.28806 45.425 1.57346L47.0635 0.426538C46.5166 -0.354731 45.7268 -0.800001 44.7642 -0.800001V1.2ZM45.4418 1.5967C45.6667 1.89921 45.8242 2.35116 45.8242 3.04H47.8242C47.8242 2.04884 47.5951 1.14079 47.0467 0.403296L45.4418 1.5967ZM45.8242 3.04C45.8242 4.18673 45.4901 5.424 44.7648 6.76398L46.5237 7.71602C47.3717 6.14933 47.8242 4.58661 47.8242 3.04H45.8242ZM44.7666 6.76058C44.0347 8.10038 42.8143 9.71935 41.0673 11.624L42.5412 12.976C44.3408 11.014 45.6804 9.25962 46.5218 7.71942L44.7666 6.76058ZM40.8059 12.2424C40.7647 12.9559 40.7442 13.6885 40.7442 14.44H42.7442C42.7442 13.7248 42.7637 13.0307 42.8026 12.3576L40.8059 12.2424ZM42.6778 14.7985C43.2917 13.1996 43.9543 12.1584 44.6145 11.5621L43.2739 10.0779C42.2808 10.9749 41.4767 12.347 40.8107 14.0815L42.6778 14.7985ZM44.621 11.5562C45.3624 10.8746 45.9032 10.68 46.2642 10.68V8.68C45.1853 8.68 44.1794 9.24539 43.2674 10.0838L44.621 11.5562ZM46.2642 10.68C46.677 10.68 46.925 10.807 47.1144 11.0216L48.6141 9.69838C48.0034 9.00632 47.1848 8.68 46.2642 8.68V10.68ZM47.1253 11.0338C47.3555 11.2862 47.4842 11.5991 47.4842 12.04H49.4842C49.4842 11.1476 49.1996 10.3404 48.6032 9.68624L47.1253 11.0338ZM47.4842 12.04C47.4842 12.594 47.3459 13.0869 47.07 13.5401L48.7784 14.5799C49.2492 13.8065 49.4842 12.9526 49.4842 12.04H47.4842ZM47.07 13.5401C46.8222 13.9473 46.3484 14.3863 45.5363 14.8162L46.4721 16.5838C47.4734 16.0537 48.2796 15.3994 48.7784 14.5799L47.07 13.5401ZM45.0236 15.8961C45.1339 16.4473 45.391 17.013 45.9295 17.372L47.0389 15.7079C47.0627 15.7238 47.0646 15.7352 47.0525 15.7139C47.0378 15.6881 47.009 15.6251 46.9848 15.5039L45.0236 15.8961ZM45.9832 17.4054C46.384 17.6375 46.9169 17.7891 47.4927 17.9015L47.8757 15.9385C47.3582 15.8375 47.0911 15.7359 46.9853 15.6746L45.9832 17.4054ZM44.3442 1.18C43.7333 1.18 43.3469 1.60242 43.1716 1.83029C42.9621 2.10265 42.783 2.45286 42.6233 2.83036L44.4652 3.60964C44.5988 3.2938 44.6997 3.12401 44.7568 3.04971C44.7843 3.01408 44.7757 3.03487 44.7239 3.07031C44.6672 3.10912 44.5353 3.18 44.3442 3.18V1.18ZM42.626 2.82391C42.3001 3.57933 41.9977 4.56865 41.7115 5.76788L43.6569 6.23212C43.9307 5.08468 44.2016 4.22067 44.4624 3.61609L42.626 2.82391ZM41.7096 5.77596C41.4344 6.97332 41.209 8.27344 41.0321 9.67478L43.0163 9.92522C43.1861 8.5799 43.4007 7.34667 43.6588 6.22404L41.7096 5.77596ZM42.7864 10.4473C43.6706 9.40631 44.3994 8.27055 44.9709 7.04173L43.1575 6.19827C42.6624 7.26279 42.0312 8.24702 41.262 9.15265L42.7864 10.4473ZM44.9669 7.05034C45.5557 5.81518 45.8842 4.62588 45.8842 3.5H43.8842C43.8842 4.24079 43.666 5.13149 43.1616 6.18966L44.9669 7.05034ZM45.8842 3.5C45.8842 3.02506 45.8359 2.54473 45.6689 2.13925L43.8195 2.90075C43.8392 2.9486 43.8842 3.1216 43.8842 3.5H45.8842ZM45.6689 2.13925C45.497 1.72174 45.0903 1.18 44.3442 1.18V3.18C44.1911 3.18 44.0388 3.12234 43.9266 3.02694C43.8331 2.94749 43.8106 2.87915 43.8195 2.90075L45.6689 2.13925ZM56.8469 18.3L55.9105 18.6511L55.9144 18.6613L55.9184 18.6714L56.8469 18.3ZM57.2869 10.8L58.2403 11.1015L58.2419 11.0964L57.2869 10.8ZM57.8669 9.96L58.4119 10.7985L58.4216 10.792L57.8669 9.96ZM59.4469 11.6L58.4809 11.3413L58.4788 11.3493L58.4767 11.3575L59.4469 11.6ZM59.1269 13L60.1062 13.2026L60.1075 13.1961L59.1269 13ZM58.9269 14.46L57.931 14.3695L59.8719 14.7871L58.9269 14.46ZM60.2069 11.82L59.389 11.2445L59.3819 11.2548L60.2069 11.82ZM61.7469 10.22L62.3016 11.0521L62.3063 11.0488L61.7469 10.22ZM64.2269 10L63.4743 10.6585L63.4856 10.6714L63.4973 10.6839L64.2269 10ZM64.1469 13.3L63.1715 13.0794L63.1707 13.0831L64.1469 13.3ZM63.9269 14.38L62.9405 14.2156L64.8533 14.7566L63.9269 14.38ZM66.1469 10.8L65.4706 10.0633L66.1469 10.8ZM69.2869 13.8L70.2639 14.0134L70.2644 14.0108L69.2869 13.8ZM70.4269 16.42L71.0912 17.1674L71.0929 17.1659L70.4269 16.42ZM71.9069 14.82L71.1476 14.1692L71.1398 14.1784L71.9069 14.82ZM72.8469 14.78L71.9831 15.2839L71.9982 15.3098L72.0148 15.3347L72.8469 14.78ZM72.6269 16.68L71.8701 16.0264L71.86 16.038L71.8503 16.05L72.6269 16.68ZM70.7669 18.42L70.2045 17.593L70.1968 17.5984L70.7669 18.42ZM66.9869 18.52L66.2312 19.1749L66.2367 19.1813L66.2423 19.1875L66.9869 18.52ZM66.7469 14.8L65.7674 14.5979L65.7653 14.6091L66.7469 14.8ZM66.0469 13.42L66.8557 14.0082L66.8638 13.9967L66.0469 13.42ZM65.0869 15.18L64.1703 14.7801L65.0869 15.18ZM64.3069 17.5L63.3358 17.2612L63.3339 17.2689L63.3321 17.2766L64.3069 17.5ZM63.7869 18.78L63.0573 18.0961L63.0456 18.1086L63.0343 18.1215L63.7869 18.78ZM61.8669 18.48L60.9724 18.9272L60.9809 18.9442L60.9901 18.9608L61.8669 18.48ZM61.7469 14.74L62.7375 14.8776L62.7392 14.864L61.7469 14.74ZM60.9269 13.46L61.7696 13.9984V13.9984L60.9269 13.46ZM60.0269 15.3L59.0961 14.9343L59.0933 14.9416L59.0905 14.9489L60.0269 15.3ZM59.3469 17.5L58.3746 17.2659L58.3732 17.2721L59.3469 17.5ZM58.8269 18.78L58.077 18.1184L58.0743 18.1215L58.8269 18.78ZM57.9269 18.1C57.8883 18.1 57.8711 18.095 57.8685 18.0942C57.8671 18.0938 57.87 18.0949 57.8721 18.0964C57.8777 18.1006 57.8323 18.071 57.7754 17.9286L55.9184 18.6714C56.0748 19.0623 56.316 19.4327 56.6816 19.7036C57.056 19.9809 57.4885 20.1 57.9269 20.1V18.1ZM57.7832 17.9489C57.65 17.5936 57.5469 16.8931 57.5469 15.74H55.5469C55.5469 16.9336 55.6438 17.9397 55.9105 18.6511L57.7832 17.9489ZM57.5469 15.74C57.5469 14.1029 57.7796 12.5583 58.2403 11.1015L56.3334 10.4985C55.8075 12.1617 55.5469 13.9105 55.5469 15.74H57.5469ZM58.2419 11.0964C58.312 10.8705 58.3894 10.813 58.4119 10.7984L57.3219 9.12156C56.811 9.45364 56.5017 9.95614 56.3318 10.5036L58.2419 11.0964ZM58.4216 10.792C58.4773 10.7549 58.6439 10.68 59.0269 10.68V8.68C58.4232 8.68 57.8164 8.7918 57.3122 9.12795L58.4216 10.792ZM59.0269 10.68C59.0731 10.68 59.11 10.6815 59.1385 10.6836C59.1674 10.6857 59.1842 10.6882 59.1911 10.6894C59.1985 10.6907 59.1897 10.6897 59.1692 10.6828C59.1493 10.676 59.1083 10.6601 59.0569 10.628L60.1169 8.932C59.7524 8.70419 59.3135 8.68 59.0269 8.68V10.68ZM59.0569 10.628C58.9191 10.5419 58.8308 10.4213 58.7852 10.3131C58.7646 10.264 58.7553 10.224 58.7511 10.199C58.7468 10.1742 58.7469 10.1601 58.7469 10.16H60.7469C60.7469 9.80812 60.6412 9.25973 60.1169 8.932L59.0569 10.628ZM58.7469 10.16C58.7469 10.1545 58.7422 10.2395 58.6929 10.476C58.6482 10.6904 58.5785 10.977 58.4809 11.3413L60.4128 11.8587C60.5153 11.4763 60.5955 11.1496 60.6509 10.884C60.7016 10.6405 60.7469 10.3788 60.7469 10.16H58.7469ZM58.4767 11.3575C58.3408 11.9013 58.2303 12.3841 58.1463 12.8039L60.1075 13.1961C60.1835 12.8159 60.2863 12.3654 60.417 11.8425L58.4767 11.3575ZM58.1476 12.7974C58.0572 13.2343 57.9862 13.7615 57.931 14.3695L59.9228 14.5505C59.9742 13.9851 60.0365 13.5391 60.1061 13.2026L58.1476 12.7974ZM59.8719 14.7871C60.2099 13.8106 60.6001 13.0153 61.0318 12.3852L59.3819 11.2548C58.827 12.0647 58.3639 13.0294 57.9819 14.1329L59.8719 14.7871ZM61.0247 12.3955C61.4871 11.7384 61.9171 11.3084 62.3016 11.052L61.1922 9.38795C60.5366 9.82498 59.94 10.4616 59.3891 11.2445L61.0247 12.3955ZM62.3063 11.0488C62.7351 10.7594 63.042 10.68 63.2469 10.68V8.68C62.5184 8.68 61.8253 8.96058 61.1874 9.39115L62.3063 11.0488ZM63.2469 10.68C63.4099 10.68 63.497 10.6993 63.5315 10.7106C63.5601 10.72 63.5223 10.7133 63.4743 10.6585L64.9795 9.3415C64.5096 8.80455 63.821 8.68 63.2469 8.68V10.68ZM63.4973 10.6839C63.4767 10.6619 63.4829 10.6559 63.4957 10.6977C63.5097 10.7434 63.5269 10.8322 63.5269 10.98H65.5269C65.5269 10.4113 65.4002 9.78946 64.9564 9.31606L63.4973 10.6839ZM63.5269 10.98C63.5269 11.2796 63.4271 11.9496 63.1715 13.0794L65.1222 13.5206C65.3734 12.4104 65.5269 11.5338 65.5269 10.98H63.5269ZM63.1707 13.0831C63.0632 13.5667 62.9851 13.9481 62.9405 14.2156L64.9133 14.5444C64.9487 14.3319 65.0172 13.9933 65.1231 13.5169L63.1707 13.0831ZM64.8533 14.7566C65.4941 13.1802 66.1651 12.1408 66.8232 11.5367L65.4706 10.0633C64.502 10.9526 63.693 12.2998 63.0005 14.0034L64.8533 14.7566ZM66.8232 11.5367C67.5516 10.8679 68.0792 10.68 68.4269 10.68V8.68C67.3613 8.68 66.3688 9.23874 65.4706 10.0633L66.8232 11.5367ZM68.4269 10.68C68.7061 10.68 68.7318 10.7491 68.6948 10.7121C68.6578 10.6751 68.7269 10.7008 68.7269 10.98H70.7269C70.7269 10.3925 70.5793 9.76824 70.109 9.29789C69.6386 8.82755 69.0144 8.68 68.4269 8.68V10.68ZM68.7269 10.98C68.7269 11.3789 68.6046 12.2203 68.3094 13.5892L70.2644 14.0108C70.5558 12.6597 70.7269 11.6211 70.7269 10.98H68.7269ZM68.3099 13.5866C68.0615 14.7239 67.9069 15.5992 67.9069 16.1H69.9069C69.9069 15.8541 70.0056 15.1961 70.2638 14.0134L68.3099 13.5866ZM67.9069 16.1C67.9069 16.4577 67.9664 16.9064 68.2423 17.287C68.5614 17.7272 69.0366 17.9 69.4869 17.9V15.9C69.5045 15.9 69.5676 15.9032 69.6509 15.9414C69.7396 15.9822 69.8123 16.0452 69.8615 16.113C69.9062 16.1748 69.916 16.2188 69.9151 16.2151C69.9141 16.2108 69.9069 16.1761 69.9069 16.1H67.9069ZM69.4869 17.9C70.1312 17.9 70.6805 17.5325 71.0912 17.1674L69.7625 15.6726C69.6244 15.7953 69.5261 15.8593 69.4671 15.8894C69.408 15.9196 69.4198 15.9 69.4869 15.9V17.9ZM71.0929 17.1659C71.5216 16.7832 72.0521 16.2051 72.674 15.4616L71.1398 14.1784C70.535 14.9016 70.0789 15.3901 69.7609 15.6741L71.0929 17.1659ZM72.6661 15.4708C72.6799 15.4547 72.6675 15.4742 72.6222 15.4978C72.572 15.5238 72.5094 15.54 72.4469 15.54V13.54C71.8892 13.54 71.4502 13.8163 71.1476 14.1692L72.6661 15.4708ZM72.4469 15.54C72.3736 15.54 72.2685 15.5211 72.1624 15.4575C72.0594 15.3957 72.005 15.3215 71.9831 15.2839L73.7107 14.2761C73.4531 13.8346 73.0047 13.54 72.4469 13.54V15.54ZM72.0148 15.3347C71.9929 15.3018 71.9911 15.2846 71.995 15.3006C71.9992 15.3178 72.0069 15.3615 72.0069 15.44H74.0069C74.0069 15.048 73.9345 14.6086 73.6789 14.2253L72.0148 15.3347ZM72.0069 15.44C72.0069 15.8236 71.9162 15.973 71.8701 16.0264L73.3837 17.3336C73.8442 16.8004 74.0069 16.1231 74.0069 15.44H72.0069ZM71.8503 16.05C71.3306 16.6905 70.781 17.2011 70.2046 17.5931L71.3292 19.2469C72.0861 18.7322 72.7765 18.0828 73.4034 17.31L71.8503 16.05ZM70.1968 17.5984C69.7206 17.9288 69.1752 18.1 68.5269 18.1V20.1C69.5585 20.1 70.5065 19.8178 71.337 19.2416L70.1968 17.5984ZM68.5269 18.1C68.038 18.1 67.8341 17.967 67.7314 17.8525L66.2423 19.1875C66.833 19.8464 67.6558 20.1 68.5269 20.1V18.1ZM67.7426 17.8651C67.6075 17.7093 67.4669 17.404 67.4669 16.8H65.4669C65.4669 17.6893 65.6729 18.5307 66.2312 19.1749L67.7426 17.8651ZM67.4669 16.8C67.4669 16.5355 67.5406 15.9573 67.7285 14.9909L65.7653 14.6091C65.5798 15.5627 65.4669 16.3178 65.4669 16.8H67.4669ZM67.7262 15.0021C67.8978 14.1707 68.0069 13.4961 68.0069 13.06H66.0069C66.0069 13.2639 65.9426 13.7493 65.7675 14.5979L67.7262 15.0021ZM68.0069 13.06C68.0069 12.8698 67.9798 12.55 67.7759 12.2535C67.5256 11.8893 67.1386 11.74 66.7869 11.74V13.74C66.7022 13.74 66.5798 13.7243 66.4469 13.6598C66.3092 13.593 66.2017 13.494 66.1278 13.3865C66.0584 13.2856 66.0301 13.1946 66.0184 13.1434C66.0066 13.0921 66.0069 13.0608 66.0069 13.06H68.0069ZM66.7869 11.74C66.3015 11.74 65.953 12.0287 65.7952 12.1737C65.5967 12.3561 65.4079 12.5911 65.2299 12.8433L66.8638 13.9967C66.9321 13.9 66.9912 13.8228 67.0413 13.7627C67.0922 13.7016 67.1279 13.6653 67.1485 13.6463C67.1716 13.6251 67.1612 13.6392 67.1181 13.6625C67.0769 13.6847 66.96 13.74 66.7869 13.74V11.74ZM65.2381 12.8318C64.8607 13.3509 64.5071 14.0082 64.1703 14.7801L66.0034 15.5799C66.3066 14.8851 66.5931 14.3691 66.8556 14.0082L65.2381 12.8318ZM64.1703 14.7801C63.8266 15.5678 63.5487 16.3953 63.3358 17.2612L65.2779 17.7388C65.465 16.9781 65.7072 16.2588 66.0034 15.5799L64.1703 14.7801ZM63.3321 17.2766C63.2662 17.5644 63.2004 17.7759 63.1404 17.9236C63.0764 18.0811 63.0392 18.1154 63.0573 18.0961L64.5164 19.4639C64.9163 19.0374 65.1333 18.3705 65.2816 17.7234L63.3321 17.2766ZM63.0343 18.1215C63.0709 18.0797 63.1021 18.0707 63.0884 18.0755C63.0679 18.0826 63.0015 18.1 62.8669 18.1V20.1C63.4351 20.1 64.0839 19.9592 64.5395 19.4385L63.0343 18.1215ZM62.8669 18.1C62.8355 18.1 62.8196 18.0964 62.8151 18.0952C62.8112 18.0941 62.812 18.094 62.8138 18.0951C62.8206 18.0993 62.7909 18.0852 62.7437 17.9992L60.9901 18.9608C61.1696 19.2881 61.4198 19.584 61.7599 19.7949C62.1036 20.008 62.484 20.1 62.8669 20.1V18.1ZM62.7613 18.0328C62.633 17.7761 62.5469 17.4238 62.5469 16.94H60.5469C60.5469 17.6562 60.6741 18.3306 60.9724 18.9272L62.7613 18.0328ZM62.5469 16.94C62.5469 16.5038 62.6058 15.8251 62.7374 14.8776L60.7564 14.6024C60.6213 15.5749 60.5469 16.3629 60.5469 16.94H62.5469ZM62.7392 14.864C62.8441 14.0244 62.9069 13.4004 62.9069 13.06H60.9069C60.9069 13.2529 60.863 13.7489 60.7546 14.616L62.7392 14.864ZM62.9069 13.06C62.9069 12.8698 62.8798 12.55 62.6759 12.2535C62.4256 11.8893 62.0386 11.74 61.6869 11.74V13.74C61.6022 13.74 61.4798 13.7243 61.3469 13.6598C61.2091 13.593 61.1017 13.494 61.0278 13.3865C60.9584 13.2856 60.9301 13.1946 60.9184 13.1434C60.9066 13.0921 60.9069 13.0608 60.9069 13.06H62.9069ZM61.6869 11.74C61.1976 11.74 60.8444 12.0185 60.6591 12.194C60.4481 12.3939 60.2575 12.6503 60.0842 12.9216L61.7696 13.9984C61.8335 13.8983 61.8891 13.8195 61.9362 13.7589C61.9841 13.6974 62.0171 13.6626 62.0346 13.646C62.0541 13.6275 62.0411 13.6442 61.9948 13.6688C61.9469 13.6941 61.8396 13.74 61.6869 13.74V11.74ZM60.0842 12.9216C59.7317 13.4733 59.4044 14.1497 59.0961 14.9343L60.9576 15.6657C61.236 14.9569 61.5087 14.4067 61.7696 13.9984L60.0842 12.9216ZM59.0905 14.9489C58.7973 15.7309 58.5582 16.5033 58.3747 17.2659L60.3191 17.7341C60.4822 17.0567 60.6965 16.3624 60.9632 15.6511L59.0905 14.9489ZM58.3732 17.2721C58.3074 17.5531 58.2415 17.7632 58.1804 17.9136C58.1163 18.0714 58.0742 18.1216 58.077 18.1184L59.5767 19.4416C59.9535 19.0146 60.1697 18.3725 60.3206 17.7279L58.3732 17.2721ZM58.0743 18.1215C58.0887 18.1051 58.1037 18.0927 58.1162 18.0844C58.1282 18.0766 58.1333 18.0755 58.1269 18.0778C58.1111 18.0834 58.0516 18.1 57.9269 18.1V20.1C58.4937 20.1 59.1292 19.9531 59.5795 19.4385L58.0743 18.1215ZM82.7897 13.12L81.9092 13.5941V13.5941L82.7897 13.12ZM82.3497 14.92L82.0533 13.9649L82.0362 13.9702L82.0193 13.9761L82.3497 14.92ZM79.7097 15.4L79.6681 14.4009L78.9032 14.4327L78.7343 15.1794L79.7097 15.4ZM78.2097 18.1L78.8757 18.846L78.883 18.8393L78.2097 18.1ZM73.6097 18.52L73.0415 19.3429L73.0506 19.3491L73.6097 18.52ZM72.4697 12.2L73.3672 12.6411L73.37 12.6352L72.4697 12.2ZM74.0697 10.34L74.613 11.1796L74.6244 11.1721L74.0697 10.34ZM78.7697 10.72L78.0145 11.3755L78.0211 11.3831L78.0278 11.3905L78.7697 10.72ZM79.8697 13.3L78.875 13.4033L78.9743 14.3592L79.9334 14.298L79.8697 13.3ZM82.1097 12.9L81.8671 11.9298L81.8567 11.9325L82.1097 12.9ZM76.9297 16.46L76.1949 15.7817L76.1877 15.7895L76.1807 15.7974L76.9297 16.46ZM77.5697 14.96L78.5566 15.1211L78.6596 14.4905L78.1305 14.1321L77.5697 14.96ZM76.6097 13.86L75.7049 14.2858L75.7099 14.2966L75.7153 14.3072L76.6097 13.86ZM76.3497 11.78L77.3326 11.9643L77.5546 10.78H76.3497V11.78ZM74.9097 12.56L74.0875 11.9908L74.0844 11.9953L74.9097 12.56ZM74.8097 16.4L73.9997 16.9865L74.0063 16.9955L74.013 17.0044L74.8097 16.4ZM82.3897 13.86C82.301 13.86 82.1848 13.835 82.0747 13.7634C81.9711 13.6961 81.9234 13.6204 81.9092 13.5941L83.6702 12.6459C83.4312 12.2022 82.988 11.86 82.3897 11.86V13.86ZM81.9092 13.5941C81.9012 13.5793 81.9297 13.6227 81.9297 13.78H83.9297C83.9297 13.4039 83.8648 13.0074 83.6702 12.6459L81.9092 13.5941ZM81.9297 13.78C81.9297 13.8913 81.9212 13.9711 81.9109 14.025C81.9007 14.079 81.8907 14.0968 81.8934 14.0915C81.8973 14.0838 81.914 14.0553 81.9505 14.0238C81.9879 13.9916 82.0265 13.9733 82.0533 13.9649L82.6461 15.8751C83.1122 15.7304 83.4641 15.4148 83.676 14.9985C83.8709 14.6152 83.9297 14.1852 83.9297 13.78H81.9297ZM82.0193 13.9761C81.3238 14.2196 80.5425 14.3644 79.6681 14.4009L79.7513 16.3991C80.7968 16.3556 81.7756 16.1804 82.68 15.8639L82.0193 13.9761ZM78.7343 15.1794C78.5198 16.128 78.1114 16.8369 77.5364 17.3607L78.883 18.8393C79.8013 18.0031 80.393 16.912 80.6851 15.6206L78.7343 15.1794ZM77.5437 17.3541C76.9688 17.8674 76.3557 18.1 75.6697 18.1V20.1C76.877 20.1 77.9573 19.666 78.8757 18.8459L77.5437 17.3541ZM75.6697 18.1C75.0368 18.1 74.5522 17.9495 74.1688 17.6909L73.0506 19.3491C73.8138 19.8638 74.7026 20.1 75.6697 20.1V18.1ZM74.1779 17.6971C73.7713 17.4163 73.4598 17.0456 73.2388 16.5633L71.4206 17.3967C71.7862 18.1944 72.3281 18.8503 73.0415 19.3429L74.1779 17.6971ZM73.2388 16.5633C73.0089 16.0619 72.8897 15.5117 72.8897 14.9H70.8897C70.8897 15.7816 71.0638 16.6181 71.4206 17.3967L73.2388 16.5633ZM72.8897 14.9C72.8897 14.0158 73.0577 13.2706 73.3671 12.6411L71.5722 11.7589C71.1083 12.7027 70.8897 13.7576 70.8897 14.9H72.8897ZM73.37 12.6352C73.685 11.9836 74.1015 11.5105 74.6129 11.1796L73.5264 9.50043C72.6779 10.0495 72.0277 10.8164 71.5693 11.7648L73.37 12.6352ZM74.6244 11.1721C75.1381 10.8296 75.698 10.66 76.3297 10.66V8.66C75.308 8.66 74.3613 8.94377 73.515 9.50795L74.6244 11.1721ZM76.3297 10.66C77.0804 10.66 77.6082 10.9073 78.0145 11.3755L79.5249 10.0645C78.7045 9.11932 77.6056 8.66 76.3297 8.66V10.66ZM78.0278 11.3905C78.4973 11.91 78.7879 12.5646 78.875 13.4033L80.8643 13.1967C80.7381 11.9821 80.2954 10.9167 79.5116 10.0495L78.0278 11.3905ZM79.9334 14.298C80.6446 14.2526 81.4579 14.1041 82.3627 13.8675L81.8567 11.9325C81.0281 12.1492 80.3481 12.2674 79.806 12.302L79.9334 14.298ZM82.3522 13.8701C82.3775 13.8638 82.3935 13.861 82.4011 13.8599C82.409 13.8588 82.4045 13.86 82.3897 13.86V11.86C82.2039 11.86 82.0259 11.8902 81.8672 11.9299L82.3522 13.8701ZM75.8297 17.98C76.5691 17.98 77.2003 17.6633 77.6787 17.1226L76.1807 15.7974C76.0457 15.95 75.9436 15.98 75.8297 15.98V17.98ZM77.6645 17.1383C78.1609 16.6005 78.4306 15.8929 78.5566 15.1211L76.5828 14.7989C76.4954 15.3338 76.3385 15.6262 76.1949 15.7817L77.6645 17.1383ZM78.1305 14.1321C77.8615 13.9498 77.6553 13.7152 77.5041 13.4128L75.7153 14.3072C76.0174 14.9115 76.4513 15.4102 77.0088 15.7879L78.1305 14.1321ZM77.5145 13.4342C77.3646 13.1156 77.2897 12.7812 77.2897 12.42H75.2897C75.2897 13.0722 75.4281 13.6977 75.7049 14.2858L77.5145 13.4342ZM77.2897 12.42C77.2897 12.2696 77.3038 12.1179 77.3326 11.9643L75.3668 11.5957C75.3156 11.8688 75.2897 12.1438 75.2897 12.42H77.2897ZM76.3497 10.78H76.2497V12.78H76.3497V10.78ZM76.2497 10.78C75.3241 10.78 74.5945 11.2584 74.0875 11.9908L75.7319 13.1292C75.9449 12.8216 76.1087 12.78 76.2497 12.78V10.78ZM74.0844 11.9953C73.5789 12.7342 73.3897 13.6833 73.3897 14.72H75.3897C75.3897 13.8901 75.5472 13.3992 75.735 13.1247L74.0844 11.9953ZM73.3897 14.72C73.3897 15.5581 73.546 16.3598 73.9997 16.9865L75.6196 15.8135C75.5134 15.6668 75.3897 15.3486 75.3897 14.72H73.3897ZM74.013 17.0044C74.4421 17.57 75.0514 17.98 75.8297 17.98V15.98C75.8118 15.98 75.8002 15.9777 75.779 15.9657C75.7514 15.95 75.6903 15.9063 75.6064 15.7956L74.013 17.0044ZM93.7731 14.78L92.9093 15.2839L92.9244 15.3098L92.9411 15.3347L93.7731 14.78ZM93.5531 16.68L92.7963 16.0264L92.788 16.036L92.7799 16.0459L93.5531 16.68ZM91.7531 18.4L92.3344 19.2138L92.3452 19.2059L91.7531 18.4ZM87.4931 17.32L88.4052 16.9101L87.731 15.4098L86.7094 16.6989L87.4931 17.32ZM86.0131 18.74L85.5228 17.8683L85.511 17.8752L86.0131 18.74ZM82.5331 18.2L81.7704 18.8467L81.7779 18.8556L81.7857 18.8644L82.5331 18.2ZM82.4331 12.86L83.3276 13.3072L83.3301 13.302L82.4331 12.86ZM84.2931 10.62L84.8821 11.4281L84.8845 11.4264L84.2931 10.62ZM86.9731 9.58L87.0806 10.5742L87.8891 10.4868L87.9684 9.67747L86.9731 9.58ZM88.4131 2.96L87.4819 2.5956L87.4805 2.5992L88.4131 2.96ZM92.6531 0.98L91.8408 1.56321L91.8457 1.56999L91.8507 1.5767L92.6531 0.98ZM92.1331 8.58L91.1942 8.23574L92.1331 8.58ZM89.1931 14.74L88.3289 14.2368L88.1744 14.5023L88.1955 14.8088L89.1931 14.74ZM89.5331 16.4L88.6459 16.8614L88.6531 16.8751L88.6606 16.8886L89.5331 16.4ZM91.3331 16.42L90.6823 15.6607V15.6607L91.3331 16.42ZM92.8331 14.82L92.0738 14.1692L92.0672 14.1771L92.8331 14.82ZM90.2531 3.52L91.2152 3.79282L91.2162 3.7891L90.2531 3.52ZM89.5931 7.04L88.6012 6.9126L88.6002 6.92157L89.5931 7.04ZM89.2131 11.6L88.2144 11.5496L90.122 12.0172L89.2131 11.6ZM91.3131 2.58L90.3516 2.85472L90.3576 2.87561L90.3644 2.89623L91.3131 2.58ZM86.0131 16.78L86.6328 17.5649L86.6452 17.5551L86.6573 17.5449L86.0131 16.78ZM86.9731 15.62L87.796 16.1882L88.032 15.8464L87.9564 15.4379L86.9731 15.62ZM86.8131 11.64L87.8124 11.677L87.8646 10.2683L86.5178 10.6846L86.8131 11.64ZM84.9731 13.12L84.1343 12.5755L84.1319 12.5792L84.9731 13.12ZM93.3731 15.54C93.2999 15.54 93.1947 15.5211 93.0886 15.4575C92.9857 15.3957 92.9313 15.3215 92.9093 15.2839L94.6369 14.2761C94.3794 13.8346 93.9309 13.54 93.3731 13.54V15.54ZM92.9411 15.3347C92.9191 15.3018 92.9174 15.2846 92.9213 15.3006C92.9255 15.3178 92.9331 15.3615 92.9331 15.44H94.9331C94.9331 15.048 94.8607 14.6086 94.6052 14.2253L92.9411 15.3347ZM92.9331 15.44C92.9331 15.8236 92.8424 15.973 92.7963 16.0264L94.3099 17.3336C94.7705 16.8004 94.9331 16.1231 94.9331 15.44H92.9331ZM92.7799 16.0459C92.2828 16.6521 91.7429 17.1666 91.161 17.5941L92.3452 19.2059C93.07 18.6734 93.7301 18.0413 94.3264 17.3141L92.7799 16.0459ZM91.1719 17.5863C90.6446 17.9629 90.1969 18.1 89.8131 18.1V20.1C90.7093 20.1 91.5549 19.7705 92.3344 19.2137L91.1719 17.5863ZM89.8131 18.1C89.5172 18.1 89.2866 18.0187 89.0818 17.8616C88.8631 17.6938 88.6259 17.401 88.4052 16.9101L86.581 17.7299C86.8937 18.4257 87.3098 19.0229 87.8644 19.4484C88.433 19.8846 89.0957 20.1 89.8131 20.1V18.1ZM86.7094 16.6989C86.1737 17.3749 85.7777 17.7251 85.5229 17.8684L86.5034 19.6116C87.1019 19.2749 87.6926 18.6784 88.2769 17.9411L86.7094 16.6989ZM85.511 17.8752C85.2746 18.0125 84.9673 18.1 84.5531 18.1V20.1C85.259 20.1 85.925 19.9475 86.5153 19.6048L85.511 17.8752ZM84.5531 18.1C84.0211 18.1 83.6213 17.919 83.2805 17.5356L81.7857 18.8644C82.5117 19.681 83.4585 20.1 84.5531 20.1V18.1ZM83.2959 17.5533C82.9596 17.1567 82.7531 16.6084 82.7531 15.82H80.7531C80.7531 16.9783 81.0667 18.0167 81.7704 18.8467L83.2959 17.5533ZM82.7531 15.82C82.7531 14.9002 82.9473 14.0678 83.3276 13.3072L81.5387 12.4128C81.0123 13.4656 80.7531 14.6064 80.7531 15.82H82.7531ZM83.3301 13.302C83.7159 12.5191 84.2333 11.901 84.8821 11.4281L83.7041 9.81186C82.7796 10.4856 82.057 11.3608 81.5361 12.418L83.3301 13.302ZM84.8845 11.4264C85.5425 10.9439 86.2689 10.662 87.0806 10.5742L86.8656 8.58579C85.704 8.71137 84.6438 9.12279 83.7018 9.81359L84.8845 11.4264ZM87.9684 9.67747C88.2156 7.15351 88.6805 5.04054 89.3458 3.3208L87.4805 2.5992C86.7325 4.53279 86.2374 6.83316 85.9779 9.48253L87.9684 9.67747ZM89.3444 3.3244C90.0305 1.57098 90.7306 1.2 91.2331 1.2V-0.800001C89.4157 -0.800001 88.2358 0.669016 87.4819 2.5956L89.3444 3.3244ZM91.2331 1.2C91.4432 1.2 91.63 1.26953 91.8408 1.56321L93.4654 0.396793C92.9296 -0.349536 92.1697 -0.800001 91.2331 -0.800001V1.2ZM91.8507 1.5767C92.051 1.84613 92.2331 2.37807 92.2331 3.34H94.2331C94.2331 2.19527 94.0286 1.15387 93.4556 0.383297L91.8507 1.5767ZM92.2331 3.34C92.2331 4.67735 91.903 6.30288 91.1942 8.23574L93.072 8.92425C93.8299 6.85712 94.2331 4.98931 94.2331 3.34H92.2331ZM91.1942 8.23574C90.4837 10.1735 89.5302 12.1737 88.3289 14.2368L90.0573 15.2432C91.3093 13.0929 92.3158 10.9865 93.072 8.92425L91.1942 8.23574ZM88.1955 14.8088C88.2504 15.6042 88.3717 16.3341 88.6459 16.8614L90.4203 15.9386C90.3478 15.7992 90.2426 15.4224 90.1908 14.6712L88.1955 14.8088ZM88.6606 16.8886C88.951 17.4071 89.4628 17.9 90.2331 17.9V15.9C90.264 15.9 90.3014 15.9049 90.3407 15.9176C90.3797 15.9303 90.4097 15.9472 90.4294 15.9613C90.4654 15.987 90.4498 15.9902 90.4056 15.9114L88.6606 16.8886ZM90.2331 17.9C90.9068 17.9 91.4958 17.5977 91.9839 17.1793L90.6823 15.6607C90.4238 15.8823 90.2795 15.9 90.2331 15.9V17.9ZM91.9839 17.1793C92.4217 16.804 92.9644 16.2191 93.5991 15.4629L92.0672 14.1771C91.4485 14.9142 90.9912 15.396 90.6823 15.6607L91.9839 17.1793ZM93.5924 15.4708C93.6062 15.4547 93.5938 15.4742 93.5484 15.4978C93.4983 15.5238 93.4356 15.54 93.3731 15.54V13.54C92.8154 13.54 92.3764 13.8163 92.0739 14.1692L93.5924 15.4708ZM91.0131 1.16C90.6301 1.16 90.3395 1.3359 90.1563 1.49976C89.979 1.65839 89.8521 1.84768 89.7602 2.01218C89.5756 2.34242 89.4238 2.77226 89.29 3.25089L91.2162 3.7891C91.3358 3.36107 91.4373 3.11091 91.5061 2.98782C91.5408 2.92565 91.5406 2.94494 91.4899 2.99024C91.4334 3.04077 91.2695 3.16 91.0131 3.16V1.16ZM89.2911 3.24718C89.0188 4.20724 88.7911 5.43473 88.6013 6.91261L90.585 7.16739C90.7685 5.7386 90.9808 4.61943 91.2152 3.79282L89.2911 3.24718ZM88.6002 6.92157C88.4239 8.39934 88.2954 9.94213 88.2144 11.5496L90.2119 11.6504C90.2908 10.0845 90.4157 8.58732 90.5861 7.15843L88.6002 6.92157ZM90.122 12.0172C91.6342 8.72253 92.4531 5.951 92.4531 3.76H90.4531C90.4531 5.51567 89.7787 7.9708 88.3043 11.1828L90.122 12.0172ZM92.4531 3.76C92.4531 3.21124 92.405 2.69332 92.2618 2.26377L90.3644 2.89623C90.4079 3.02668 90.4531 3.29543 90.4531 3.76H92.4531ZM92.2747 2.30528C92.2219 2.12056 92.1387 1.88931 91.9919 1.68376C91.8408 1.47231 91.5209 1.16 91.0131 1.16V3.16C90.6254 3.16 90.4154 2.91768 90.3644 2.84624C90.3176 2.78069 90.3244 2.75944 90.3516 2.85472L92.2747 2.30528ZM85.2531 18.08C85.7868 18.08 86.252 17.8655 86.6328 17.5649L85.3935 15.9951C85.3297 16.0455 85.2869 16.0666 85.266 16.0748C85.2474 16.0822 85.2449 16.08 85.2531 16.08V18.08ZM86.6573 17.5449C87.0181 17.2411 87.4002 16.7614 87.796 16.1882L86.1502 15.0518C85.7727 15.5986 85.5149 15.8922 85.369 16.0151L86.6573 17.5449ZM87.9564 15.4379C87.8363 14.7894 87.7731 14.045 87.7731 13.2H85.7731C85.7731 14.1416 85.8433 15.0106 85.9898 15.8021L87.9564 15.4379ZM87.7731 13.2C87.7731 12.9 87.7858 12.396 87.8124 11.677L85.8138 11.603C85.7871 12.324 85.7731 12.86 85.7731 13.2H87.7731ZM86.5178 10.6846C85.5219 10.9924 84.731 11.6563 84.1343 12.5755L85.8119 13.6645C86.2019 13.0637 86.6377 12.7409 87.1084 12.5954L86.5178 10.6846ZM84.1319 12.5792C83.5443 13.4933 83.2531 14.5156 83.2531 15.62H85.2531C85.2531 14.8844 85.4419 14.24 85.8143 13.6608L84.1319 12.5792ZM83.2531 15.62C83.2531 16.1897 83.345 16.7938 83.6781 17.2801C84.0578 17.8344 84.6399 18.08 85.2531 18.08V16.08C85.2083 16.08 85.2174 16.0721 85.2532 16.0896C85.2937 16.1093 85.3197 16.1375 85.3282 16.1499C85.3322 16.1558 85.3114 16.1277 85.2905 16.0362C85.2696 15.9447 85.2531 15.8094 85.2531 15.62H83.2531ZM100.666 15.38L99.8023 15.8839L99.8174 15.9098L99.834 15.9347L100.666 15.38ZM100.486 17.28L99.6491 16.7327L99.6481 16.7343L100.486 17.28ZM99.0061 18.62L98.5435 17.7334L98.5355 17.7376L99.0061 18.62ZM93.8661 17.96L93.1279 18.6346L93.1338 18.6409L93.8661 17.96ZM93.3861 12.28L94.2836 12.7211L94.2864 12.7152L93.3861 12.28ZM94.9861 10.38L94.4277 9.55038L94.4202 9.55549L94.9861 10.38ZM99.1861 10.38L98.479 11.0871L98.4841 11.0922L98.4893 11.0973L99.1861 10.38ZM98.8861 14.62L98.179 13.9129L98.8861 14.62ZM95.5261 16.18L95.2893 15.2084L94.049 15.5107L94.6395 16.6426L95.5261 16.18ZM98.4861 16.72L97.9106 15.9022L97.9033 15.9073L97.8961 15.9126L98.4861 16.72ZM99.7261 15.44L98.9452 14.8152L98.9367 14.8261L99.7261 15.44ZM95.7261 12.5L94.8704 11.9826L94.8659 11.9899L94.8616 11.9974L95.7261 12.5ZM95.2261 14.62H94.2261V15.8851L95.457 15.593L95.2261 14.62ZM97.0861 13.78L96.4504 13.0081L97.0861 13.78ZM97.5461 11.88L96.7779 12.5202L96.8069 12.555L96.839 12.5871L97.5461 11.88ZM100.266 16.14C100.193 16.14 100.088 16.1211 99.9816 16.0575C99.8787 15.9957 99.8243 15.9215 99.8023 15.8839L101.53 14.8761C101.272 14.4346 100.824 14.14 100.266 14.14V16.14ZM99.834 15.9347C99.8121 15.9018 99.8104 15.8846 99.8142 15.9006C99.8184 15.9178 99.8261 15.9615 99.8261 16.04H101.826C101.826 15.648 101.754 15.2086 101.498 14.8253L99.834 15.9347ZM99.8261 16.04C99.8261 16.3572 99.7533 16.5734 99.6491 16.7327L101.323 17.8272C101.672 17.2933 101.826 16.6828 101.826 16.04H99.8261ZM99.6481 16.7343C99.3696 17.162 99.0063 17.492 98.5435 17.7334L99.4687 19.5066C100.233 19.108 100.856 18.5447 101.324 17.8257L99.6481 16.7343ZM98.5355 17.7376C98.1106 17.9643 97.56 18.1 96.8461 18.1V20.1C97.8122 20.1 98.7016 19.9157 99.4767 19.5024L98.5355 17.7376ZM96.8461 18.1C95.7743 18.1 95.0732 17.7897 94.5984 17.2791L93.1338 18.6409C94.0723 19.6503 95.3579 20.1 96.8461 20.1V18.1ZM94.6043 17.2854C94.1049 16.739 93.8061 15.9614 93.8061 14.84H91.8061C91.8061 16.3319 92.2139 17.6344 93.1279 18.6346L94.6043 17.2854ZM93.8061 14.84C93.8061 14.0652 93.9677 13.3637 94.2835 12.7211L92.4886 11.8389C92.0312 12.7696 91.8061 13.7748 91.8061 14.84H93.8061ZM94.2864 12.7152C94.6034 12.0593 95.0265 11.5651 95.5519 11.2045L94.4202 9.55549C93.5857 10.1282 92.9421 10.9007 92.4857 11.8448L94.2864 12.7152ZM95.5445 11.2096C96.0664 10.8583 96.6506 10.68 97.3261 10.68V8.68C96.2683 8.68 95.2924 8.96839 94.4277 9.55041L95.5445 11.2096ZM97.3261 10.68C97.8833 10.68 98.232 10.8401 98.479 11.0871L99.8932 9.67289C99.2069 8.9866 98.3155 8.68 97.3261 8.68V10.68ZM98.4893 11.0973C98.7226 11.3239 98.8861 11.663 98.8861 12.24H100.886C100.886 11.2437 100.583 10.3428 99.8829 9.66272L98.4893 11.0973ZM98.8861 12.24C98.8861 12.8875 98.6633 13.4286 98.179 13.9129L99.5932 15.3271C100.442 14.4781 100.886 13.4325 100.886 12.24H98.8861ZM98.179 13.9129C97.7206 14.3713 96.8166 14.8362 95.2893 15.2084L95.7629 17.1516C97.4089 16.7504 98.7449 16.1754 99.5932 15.3271L98.179 13.9129ZM94.6395 16.6426C94.878 17.0997 95.2212 17.4806 95.6773 17.7396C96.1281 17.9956 96.6315 18.1 97.1461 18.1V16.1C96.9007 16.1 96.7541 16.0511 96.6649 16.0004C96.581 15.9528 96.4941 15.8736 96.4127 15.7174L94.6395 16.6426ZM97.1461 18.1C97.8466 18.1 98.5164 17.9364 99.0761 17.5274L97.8961 15.9126C97.7624 16.0103 97.5389 16.1 97.1461 16.1V18.1ZM99.0616 17.5378C99.5406 17.2007 100.025 16.6841 100.515 16.0539L98.9367 14.8261C98.4936 15.3959 98.1516 15.7326 97.9106 15.9022L99.0616 17.5378ZM100.507 16.0647C100.525 16.0423 100.514 16.0626 100.467 16.0892C100.413 16.1191 100.341 16.14 100.266 16.14V14.14C99.6803 14.14 99.2371 14.4505 98.9452 14.8153L100.507 16.0647ZM96.9861 10.64C96.022 10.64 95.3254 11.2299 94.8704 11.9826L96.5818 13.0174C96.8201 12.6234 96.9635 12.64 96.9861 12.64V10.64ZM94.8616 11.9974C94.4215 12.7544 94.2261 13.6299 94.2261 14.58H96.2261C96.2261 13.9035 96.3641 13.3923 96.5906 13.0026L94.8616 11.9974ZM94.2261 14.58V14.62H96.2261V14.58H94.2261ZM95.457 15.593C96.3393 15.3836 97.1149 15.0517 97.7218 14.5519L96.4504 13.0081C96.1506 13.2549 95.6862 13.4831 94.9952 13.647L95.457 15.593ZM97.7218 14.5519C98.3571 14.0287 98.7661 13.33 98.7661 12.48H96.7661C96.7661 12.6167 96.7217 12.7846 96.4504 13.0081L97.7218 14.5519ZM98.7661 12.48C98.7661 12.0239 98.6274 11.5471 98.2532 11.1729L96.839 12.5871C96.8068 12.5549 96.7842 12.5168 96.7722 12.4843C96.7616 12.4553 96.7661 12.4491 96.7661 12.48H98.7661ZM98.3143 11.2398C97.9609 10.8157 97.4724 10.64 96.9861 10.64V12.64C96.9949 12.64 96.9638 12.6413 96.9122 12.6191C96.8567 12.5954 96.8095 12.5582 96.7779 12.5202L98.3143 11.2398Z" fill="white" mask="url(#path-1-outside-1_53_2266)"/>
</g>
<defs>
<filter id="filter0_d_53_2266" x="0.899902" y="0.200012" width="100.926" height="20.9" filterUnits="userSpaceOnUse" color-interpolation-filters="sRGB">
<feFlood flood-opacity="0" result="BackgroundImageFix"/>
<feColorMatrix in="SourceAlpha" type="matrix" values="0 0 0 0 0 0 0 0 0 0 0 0 0 0 0 0 0 0 127 0" result="hardAlpha"/>
<feOffset dy="1"/>
<feGaussianBlur stdDeviation="0.5"/>
<feComposite in2="hardAlpha" operator="out"/>
<feColorMatrix type="matrix" values="0 0 0 0 0.0705882 0 0 0 0 0.301961 0 0 0 0 0.67451 0 0 0 0.5 0"/>
<feBlend mode="normal" in2="BackgroundImageFix" result="effect1_dropShadow_53_2266"/>
<feBlend mode="normal" in="SourceGraphic" in2="effect1_dropShadow_53_2266" result="shape"/>
</filter>
<linearGradient id="paint0_linear_53_2266" x1="-2.06122" y1="-21.6667" x2="101.844" y2="26.0259" gradientUnits="userSpaceOnUse">
<stop stop-color="#0096C7"/>
<stop offset="1" stop-color="#023E8A"/>
</linearGradient>
</defs>
</svg>
