<svg width="362" height="161" viewBox="0 0 362 161" fill="none" xmlns="http://www.w3.org/2000/svg">
<path d="M21.5678 100.93C18.417 93.0529 24.2181 84.4845 32.7018 84.4845H79.4451C86.068 84.4845 91.4368 89.8534 91.4368 96.4762V148.94C91.4368 155.563 86.068 160.932 79.4451 160.932H32.7018C24.2181 160.932 18.417 152.363 21.5678 144.486L30.2791 122.708L21.5678 100.93Z" fill="url(#paint0_linear_267_4850)"/>
<mask id="mask0_267_4850" style="mask-type:alpha" maskUnits="userSpaceOnUse" x="20" y="84" width="72" height="77">
<path d="M21.5678 100.93C18.417 93.0529 24.2181 84.4845 32.7018 84.4845H79.4451C86.068 84.4845 91.4368 89.8534 91.4368 96.4762V148.94C91.4368 155.563 86.068 160.932 79.4451 160.932H32.7018C24.2181 160.932 18.417 152.363 21.5678 144.486L28.4976 127.162C29.6412 124.303 29.6412 121.113 28.4976 118.254L21.5678 100.93Z" fill="url(#paint1_linear_267_4850)"/>
</mask>
<g mask="url(#mask0_267_4850)">
<path d="M91.4368 127.954H61.4575L76.4472 144.443L91.4368 160.932V127.954Z" fill="black" fill-opacity="0.4"/>
</g>
<path d="M340.432 100.93C343.583 93.0529 337.782 84.4845 329.298 84.4845H282.555C275.932 84.4845 270.563 89.8534 270.563 96.4762V148.94C270.563 155.563 275.932 160.932 282.555 160.932H329.298C337.782 160.932 343.583 152.363 340.432 144.486L331.721 122.708L340.432 100.93Z" fill="url(#paint2_linear_267_4850)"/>
<mask id="mask1_267_4850" style="mask-type:alpha" maskUnits="userSpaceOnUse" x="270" y="84" width="72" height="77">
<path d="M340.432 100.93C343.583 93.0529 337.782 84.4845 329.298 84.4845H282.555C275.932 84.4845 270.563 89.8534 270.563 96.4762V148.94C270.563 155.563 275.932 160.932 282.555 160.932H329.298C337.782 160.932 343.583 152.363 340.432 144.486L333.502 127.162C332.359 124.303 332.359 121.113 333.502 118.254L340.432 100.93Z" fill="url(#paint3_linear_267_4850)"/>
</mask>
<g mask="url(#mask1_267_4850)">
<path d="M270.563 127.954H300.542L285.553 144.443L270.563 160.932V127.954Z" fill="black" fill-opacity="0.4"/>
</g>
<rect x="61.4575" y="62" width="239.085" height="76.4472" rx="11.9917" fill="url(#paint4_linear_267_4850)"/>
<path d="M171.832 93.64C171.832 95 171.352 96.176 170.392 97.168C169.432 98.144 168.032 98.848 166.192 99.28C167.184 99.552 167.936 100 168.448 100.624C168.96 101.232 169.216 101.936 169.216 102.736C169.216 104 168.816 105.096 168.016 106.024C167.232 106.952 166.08 107.672 164.56 108.184C163.04 108.68 161.208 108.928 159.064 108.928C158.264 108.928 157.624 108.904 157.144 108.856C157.128 109.304 156.936 109.64 156.568 109.864C156.2 110.088 155.728 110.2 155.152 110.2C154.576 110.2 154.176 110.072 153.952 109.816C153.744 109.56 153.656 109.184 153.688 108.688C153.832 106.448 154.112 104.104 154.528 101.656C154.944 99.192 155.472 96.816 156.112 94.528C156.224 94.128 156.448 93.848 156.784 93.688C157.12 93.528 157.56 93.448 158.104 93.448C159.08 93.448 159.568 93.72 159.568 94.264C159.568 94.488 159.52 94.744 159.424 95.032C159.008 96.28 158.592 97.976 158.176 100.12C157.76 102.248 157.464 104.28 157.288 106.216C158.056 106.28 158.68 106.312 159.16 106.312C161.4 106.312 163.04 105.992 164.08 105.352C165.136 104.696 165.664 103.864 165.664 102.856C165.664 102.152 165.36 101.56 164.752 101.08C164.16 100.6 163.16 100.336 161.752 100.288C161.432 100.272 161.208 100.192 161.08 100.048C160.952 99.904 160.888 99.672 160.888 99.352C160.888 98.888 160.984 98.512 161.176 98.224C161.368 97.936 161.72 97.784 162.232 97.768C163.368 97.736 164.392 97.568 165.304 97.264C166.232 96.96 166.96 96.536 167.488 95.992C168.016 95.432 168.28 94.784 168.28 94.048C168.28 93.12 167.824 92.392 166.912 91.864C166 91.32 164.6 91.048 162.712 91.048C161 91.048 159.344 91.272 157.744 91.72C156.144 92.152 154.784 92.704 153.664 93.376C153.152 93.68 152.72 93.832 152.368 93.832C152.08 93.832 151.856 93.736 151.696 93.544C151.552 93.336 151.48 93.08 151.48 92.776C151.48 92.376 151.56 92.032 151.72 91.744C151.896 91.456 152.304 91.128 152.944 90.76C154.288 89.992 155.864 89.392 157.672 88.96C159.48 88.528 161.328 88.312 163.216 88.312C166.112 88.312 168.272 88.8 169.696 89.776C171.12 90.752 171.832 92.04 171.832 93.64ZM173.239 109.12C172.631 109.12 172.199 108.8 171.943 108.16C171.703 107.52 171.583 106.496 171.583 105.088C171.583 103.008 171.879 101.032 172.471 99.16C172.615 98.696 172.847 98.36 173.167 98.152C173.503 97.928 173.967 97.816 174.559 97.816C174.879 97.816 175.103 97.856 175.231 97.936C175.359 98.016 175.423 98.168 175.423 98.392C175.423 98.648 175.303 99.224 175.063 100.12C174.903 100.76 174.775 101.32 174.679 101.8C174.583 102.28 174.503 102.872 174.439 103.576C174.967 102.2 175.559 101.08 176.215 100.216C176.871 99.352 177.511 98.736 178.135 98.368C178.775 98 179.359 97.816 179.887 97.816C180.927 97.816 181.447 98.336 181.447 99.376C181.447 99.584 181.375 100.088 181.231 100.888C181.103 101.528 181.039 101.928 181.039 102.088C181.039 102.648 181.239 102.928 181.639 102.928C182.087 102.928 182.663 102.576 183.367 101.872C183.575 101.664 183.791 101.56 184.015 101.56C184.223 101.56 184.383 101.656 184.495 101.848C184.623 102.024 184.687 102.264 184.687 102.568C184.687 103.16 184.527 103.624 184.207 103.96C183.759 104.424 183.231 104.824 182.623 105.16C182.031 105.48 181.399 105.64 180.727 105.64C179.879 105.64 179.231 105.424 178.783 104.992C178.351 104.56 178.135 103.976 178.135 103.24C178.135 103 178.159 102.76 178.207 102.52C178.239 102.2 178.255 101.984 178.255 101.872C178.255 101.616 178.167 101.488 177.991 101.488C177.751 101.488 177.431 101.76 177.031 102.304C176.647 102.832 176.263 103.536 175.879 104.416C175.495 105.296 175.183 106.224 174.943 107.2C174.767 107.952 174.559 108.464 174.319 108.736C174.095 108.992 173.735 109.12 173.239 109.12ZM185.409 109.12C184.417 109.12 183.625 108.76 183.033 108.04C182.441 107.32 182.145 106.376 182.145 105.208C182.145 103.928 182.441 102.72 183.033 101.584C183.625 100.432 184.409 99.512 185.385 98.824C186.377 98.12 187.425 97.768 188.529 97.768C188.881 97.768 189.113 97.84 189.225 97.984C189.353 98.112 189.457 98.352 189.537 98.704C189.873 98.64 190.225 98.608 190.593 98.608C191.377 98.608 191.769 98.888 191.769 99.448C191.769 99.784 191.649 100.584 191.409 101.848C191.041 103.688 190.857 104.968 190.857 105.688C190.857 105.928 190.913 106.12 191.025 106.264C191.153 106.408 191.313 106.48 191.505 106.48C191.809 106.48 192.177 106.288 192.609 105.904C193.041 105.504 193.625 104.864 194.361 103.984C194.553 103.76 194.769 103.648 195.009 103.648C195.217 103.648 195.377 103.744 195.489 103.936C195.617 104.128 195.681 104.392 195.681 104.728C195.681 105.368 195.529 105.864 195.225 106.216C194.569 107.032 193.873 107.72 193.137 108.28C192.401 108.84 191.689 109.12 191.001 109.12C190.473 109.12 189.985 108.944 189.537 108.592C189.105 108.224 188.777 107.728 188.553 107.104C187.721 108.448 186.673 109.12 185.409 109.12ZM186.273 106.696C186.625 106.696 186.961 106.488 187.281 106.072C187.601 105.656 187.833 105.104 187.977 104.416L188.865 100C188.193 100.016 187.569 100.272 186.993 100.768C186.433 101.248 185.985 101.888 185.649 102.688C185.313 103.488 185.145 104.336 185.145 105.232C185.145 105.728 185.241 106.096 185.433 106.336C185.641 106.576 185.921 106.696 186.273 106.696ZM205.845 101.704C205.893 101.688 205.973 101.68 206.085 101.68C206.325 101.68 206.509 101.76 206.637 101.92C206.765 102.08 206.829 102.296 206.829 102.568C206.829 103.064 206.733 103.456 206.541 103.744C206.349 104.016 206.061 104.216 205.677 104.344C204.941 104.584 204.157 104.704 203.325 104.704C202.621 104.704 201.957 104.608 201.333 104.416C200.869 105.168 200.357 105.944 199.797 106.744C199.157 107.656 198.605 108.28 198.141 108.616C197.677 108.952 197.149 109.12 196.557 109.12C195.901 109.12 195.381 108.864 194.997 108.352C194.629 107.84 194.397 107.032 194.301 105.928C194.109 103.688 194.013 101.728 194.013 100.048V99.208C194.029 98.68 194.173 98.312 194.445 98.104C194.717 97.896 195.125 97.792 195.669 97.792C196.085 97.792 196.389 97.888 196.581 98.08C196.789 98.256 196.893 98.56 196.893 98.992C196.893 100.832 197.005 103.224 197.229 106.168C198.189 104.744 198.909 103.608 199.389 102.76C199.149 102.296 199.029 101.744 199.029 101.104C199.029 100.56 199.149 100.032 199.389 99.52C199.629 99.008 199.957 98.592 200.373 98.272C200.789 97.952 201.261 97.792 201.789 97.792C202.253 97.792 202.629 97.96 202.917 98.296C203.205 98.616 203.349 99.088 203.349 99.712C203.349 100.432 203.157 101.256 202.773 102.184C203.381 102.152 204.189 102.032 205.197 101.824L205.845 101.704ZM208.802 109.12C207.858 109.12 207.05 108.888 206.378 108.424C205.722 107.944 205.226 107.32 204.89 106.552C204.554 105.784 204.386 104.96 204.386 104.08C204.386 102.864 204.61 101.784 205.058 100.84C205.522 99.88 206.146 99.136 206.93 98.608C207.714 98.064 208.594 97.792 209.57 97.792C210.514 97.792 211.322 98.032 211.994 98.512C212.666 98.976 213.17 99.592 213.506 100.36C213.842 101.128 214.01 101.952 214.01 102.832C214.01 104.048 213.778 105.136 213.314 106.096C212.85 107.04 212.218 107.784 211.418 108.328C210.634 108.856 209.762 109.12 208.802 109.12ZM209.066 106.528C209.61 106.528 210.066 106.232 210.434 105.64C210.818 105.048 211.01 104.184 211.01 103.048C211.01 102.168 210.85 101.504 210.53 101.056C210.21 100.608 209.826 100.384 209.378 100.384C208.802 100.384 208.322 100.68 207.938 101.272C207.57 101.848 207.386 102.712 207.386 103.864C207.386 104.776 207.546 105.448 207.866 105.88C208.186 106.312 208.586 106.528 209.066 106.528Z" fill="white"/>
<g filter="url(#filter0_dii_267_4850)">
<path d="M97.9199 31.1845C99.3922 28.2299 103.608 28.2299 105.08 31.1845L111.226 43.5187C111.811 44.6928 112.935 45.5054 114.233 45.6934L127.921 47.6752C131.213 48.1518 132.519 52.2034 130.126 54.5126L120.276 64.0159C119.321 64.9366 118.885 66.2703 119.112 67.5769L121.442 81.0359C122.007 84.2986 118.589 86.7956 115.653 85.2658L103.348 78.8559C102.19 78.2526 100.81 78.2526 99.652 78.8559L87.3473 85.2658C84.4106 86.7956 80.993 84.2986 81.5579 81.0359L83.8883 67.5769C84.1145 66.2703 83.6785 64.9366 82.7243 64.0159L72.8744 54.5126C70.481 52.2034 71.7871 48.1518 75.0785 47.6752L88.7667 45.6934C90.065 45.5054 91.1886 44.6928 91.7736 43.5187L97.9199 31.1845Z" fill="url(#paint5_linear_267_4850)"/>
</g>
<g filter="url(#filter1_dii_267_4850)">
<path d="M257.92 31.1845C259.392 28.2299 263.608 28.2299 265.08 31.1845L271.226 43.5187C271.811 44.6928 272.935 45.5054 274.233 45.6934L287.921 47.6752C291.213 48.1518 292.519 52.2034 290.126 54.5126L280.276 64.0159C279.321 64.9366 278.885 66.2703 279.112 67.5769L281.442 81.0359C282.007 84.2986 278.589 86.7956 275.653 85.2658L263.348 78.8559C262.19 78.2526 260.81 78.2526 259.652 78.8559L247.347 85.2658C244.411 86.7956 240.993 84.2986 241.558 81.0359L243.888 67.5769C244.115 66.2703 243.679 64.9366 242.724 64.0159L232.874 54.5126C230.481 52.2034 231.787 48.1518 235.079 47.6752L248.767 45.6934C250.065 45.5054 251.189 44.6928 251.774 43.5187L257.92 31.1845Z" fill="url(#paint6_linear_267_4850)"/>
</g>
<g filter="url(#filter2_dii_267_4850)">
<path d="M177.922 7.16376C179.395 4.21371 183.605 4.21371 185.078 7.16376L193.388 23.7997C193.974 24.9724 195.097 25.7837 196.395 25.9711L214.905 28.6447C218.2 29.1205 219.506 33.1773 217.107 35.4856L203.78 48.3124C202.823 49.2336 202.386 50.5697 202.613 51.8784L205.766 70.0423C206.332 73.3037 202.918 75.8021 199.98 74.2756L183.345 65.6305C182.188 65.0296 180.812 65.0296 179.655 65.6305L163.02 74.2756C160.082 75.8021 156.668 73.3037 157.234 70.0423L160.387 51.8784C160.614 50.5697 160.177 49.2336 159.22 48.3124L145.893 35.4856C143.494 33.1773 144.8 29.1205 148.095 28.6447L166.605 25.9711C167.903 25.7837 169.026 24.9724 169.612 23.7997L177.922 7.16376Z" fill="url(#paint7_linear_267_4850)"/>
</g>
<defs>
<filter id="filter0_dii_267_4850" x="51.6473" y="24.9685" width="99.7053" height="96.7586" filterUnits="userSpaceOnUse" color-interpolation-filters="sRGB">
<feFlood flood-opacity="0" result="BackgroundImageFix"/>
<feColorMatrix in="SourceAlpha" type="matrix" values="0 0 0 0 0 0 0 0 0 0 0 0 0 0 0 0 0 0 127 0" result="hardAlpha"/>
<feOffset dy="16"/>
<feGaussianBlur stdDeviation="10"/>
<feComposite in2="hardAlpha" operator="out"/>
<feColorMatrix type="matrix" values="0 0 0 0 0.441638 0 0 0 0 0.245593 0 0 0 0 0.0646293 0 0 0 0.25 0"/>
<feBlend mode="normal" in2="BackgroundImageFix" result="effect1_dropShadow_267_4850"/>
<feBlend mode="normal" in="SourceGraphic" in2="effect1_dropShadow_267_4850" result="shape"/>
<feColorMatrix in="SourceAlpha" type="matrix" values="0 0 0 0 0 0 0 0 0 0 0 0 0 0 0 0 0 0 127 0" result="hardAlpha"/>
<feOffset dy="-4"/>
<feGaussianBlur stdDeviation="4"/>
<feComposite in2="hardAlpha" operator="arithmetic" k2="-1" k3="1"/>
<feColorMatrix type="matrix" values="0 0 0 0 0.549971 0 0 0 0 0.304646 0 0 0 0 0.0781912 0 0 0 0.57 0"/>
<feBlend mode="normal" in2="shape" result="effect2_innerShadow_267_4850"/>
<feColorMatrix in="SourceAlpha" type="matrix" values="0 0 0 0 0 0 0 0 0 0 0 0 0 0 0 0 0 0 127 0" result="hardAlpha"/>
<feOffset dy="-4"/>
<feGaussianBlur stdDeviation="2"/>
<feComposite in2="hardAlpha" operator="arithmetic" k2="-1" k3="1"/>
<feColorMatrix type="matrix" values="0 0 0 0 1 0 0 0 0 0.981301 0 0 0 0 0.813007 0 0 0 0.72 0"/>
<feBlend mode="normal" in2="effect2_innerShadow_267_4850" result="effect3_innerShadow_267_4850"/>
</filter>
<filter id="filter1_dii_267_4850" x="211.647" y="24.9685" width="99.7053" height="96.7586" filterUnits="userSpaceOnUse" color-interpolation-filters="sRGB">
<feFlood flood-opacity="0" result="BackgroundImageFix"/>
<feColorMatrix in="SourceAlpha" type="matrix" values="0 0 0 0 0 0 0 0 0 0 0 0 0 0 0 0 0 0 127 0" result="hardAlpha"/>
<feOffset dy="16"/>
<feGaussianBlur stdDeviation="10"/>
<feComposite in2="hardAlpha" operator="out"/>
<feColorMatrix type="matrix" values="0 0 0 0 0.441638 0 0 0 0 0.245593 0 0 0 0 0.0646293 0 0 0 0.25 0"/>
<feBlend mode="normal" in2="BackgroundImageFix" result="effect1_dropShadow_267_4850"/>
<feBlend mode="normal" in="SourceGraphic" in2="effect1_dropShadow_267_4850" result="shape"/>
<feColorMatrix in="SourceAlpha" type="matrix" values="0 0 0 0 0 0 0 0 0 0 0 0 0 0 0 0 0 0 127 0" result="hardAlpha"/>
<feOffset dy="-4"/>
<feGaussianBlur stdDeviation="4"/>
<feComposite in2="hardAlpha" operator="arithmetic" k2="-1" k3="1"/>
<feColorMatrix type="matrix" values="0 0 0 0 0.549971 0 0 0 0 0.304646 0 0 0 0 0.0781912 0 0 0 0.57 0"/>
<feBlend mode="normal" in2="shape" result="effect2_innerShadow_267_4850"/>
<feColorMatrix in="SourceAlpha" type="matrix" values="0 0 0 0 0 0 0 0 0 0 0 0 0 0 0 0 0 0 127 0" result="hardAlpha"/>
<feOffset dy="-4"/>
<feGaussianBlur stdDeviation="2"/>
<feComposite in2="hardAlpha" operator="arithmetic" k2="-1" k3="1"/>
<feColorMatrix type="matrix" values="0 0 0 0 1 0 0 0 0 0.981301 0 0 0 0 0.813007 0 0 0 0.72 0"/>
<feBlend mode="normal" in2="effect2_innerShadow_267_4850" result="effect3_innerShadow_267_4850"/>
</filter>
<filter id="filter2_dii_267_4850" x="124.662" y="0.951233" width="113.676" height="109.784" filterUnits="userSpaceOnUse" color-interpolation-filters="sRGB">
<feFlood flood-opacity="0" result="BackgroundImageFix"/>
<feColorMatrix in="SourceAlpha" type="matrix" values="0 0 0 0 0 0 0 0 0 0 0 0 0 0 0 0 0 0 127 0" result="hardAlpha"/>
<feOffset dy="16"/>
<feGaussianBlur stdDeviation="10"/>
<feComposite in2="hardAlpha" operator="out"/>
<feColorMatrix type="matrix" values="0 0 0 0 0.441638 0 0 0 0 0.245593 0 0 0 0 0.0646293 0 0 0 0.25 0"/>
<feBlend mode="normal" in2="BackgroundImageFix" result="effect1_dropShadow_267_4850"/>
<feBlend mode="normal" in="SourceGraphic" in2="effect1_dropShadow_267_4850" result="shape"/>
<feColorMatrix in="SourceAlpha" type="matrix" values="0 0 0 0 0 0 0 0 0 0 0 0 0 0 0 0 0 0 127 0" result="hardAlpha"/>
<feOffset dy="-4"/>
<feGaussianBlur stdDeviation="4"/>
<feComposite in2="hardAlpha" operator="arithmetic" k2="-1" k3="1"/>
<feColorMatrix type="matrix" values="0 0 0 0 0.549971 0 0 0 0 0.304646 0 0 0 0 0.0781912 0 0 0 0.57 0"/>
<feBlend mode="normal" in2="shape" result="effect2_innerShadow_267_4850"/>
<feColorMatrix in="SourceAlpha" type="matrix" values="0 0 0 0 0 0 0 0 0 0 0 0 0 0 0 0 0 0 127 0" result="hardAlpha"/>
<feOffset dy="-4"/>
<feGaussianBlur stdDeviation="2"/>
<feComposite in2="hardAlpha" operator="arithmetic" k2="-1" k3="1"/>
<feColorMatrix type="matrix" values="0 0 0 0 1 0 0 0 0 0.981301 0 0 0 0 0.813007 0 0 0 0.72 0"/>
<feBlend mode="normal" in2="effect2_innerShadow_267_4850" result="effect3_innerShadow_267_4850"/>
</filter>
<linearGradient id="paint0_linear_267_4850" x1="53.2132" y1="84.4845" x2="53.2132" y2="160.932" gradientUnits="userSpaceOnUse">
<stop stop-color="#48CAE4"/>
<stop offset="0.905" stop-color="#48CAE4"/>
<stop offset="0.9051" stop-color="#00B4D8"/>
</linearGradient>
<linearGradient id="paint1_linear_267_4850" x1="53.2132" y1="84.4845" x2="53.2132" y2="160.932" gradientUnits="userSpaceOnUse">
<stop stop-color="#FF0055"/>
<stop offset="1" stop-color="#C70042"/>
</linearGradient>
<linearGradient id="paint2_linear_267_4850" x1="308.787" y1="84.4845" x2="308.787" y2="160.932" gradientUnits="userSpaceOnUse">
<stop stop-color="#48CAE4"/>
<stop offset="0.905" stop-color="#48CAE4"/>
<stop offset="0.9051" stop-color="#00B4D8"/>
</linearGradient>
<linearGradient id="paint3_linear_267_4850" x1="308.787" y1="84.4845" x2="308.787" y2="160.932" gradientUnits="userSpaceOnUse">
<stop stop-color="#FF0055"/>
<stop offset="1" stop-color="#C70042"/>
</linearGradient>
<linearGradient id="paint4_linear_267_4850" x1="181" y1="62" x2="181" y2="138.447" gradientUnits="userSpaceOnUse">
<stop stop-color="#48CAE4"/>
<stop offset="0.905" stop-color="#48CAE4"/>
<stop offset="0.9051" stop-color="#00B4D8"/>
</linearGradient>
<linearGradient id="paint5_linear_267_4850" x1="87.7491" y1="31.2402" x2="102.502" y2="84.7259" gradientUnits="userSpaceOnUse">
<stop offset="0.0001" stop-color="#FFED8C"/>
<stop offset="1" stop-color="#F4B335"/>
</linearGradient>
<linearGradient id="paint6_linear_267_4850" x1="247.749" y1="31.2402" x2="262.502" y2="84.7259" gradientUnits="userSpaceOnUse">
<stop offset="0.0001" stop-color="#FFED8C"/>
<stop offset="1" stop-color="#F4B335"/>
</linearGradient>
<linearGradient id="paint7_linear_267_4850" x1="164.959" y1="8.68825" x2="182.626" y2="72.893" gradientUnits="userSpaceOnUse">
<stop offset="0.0001" stop-color="#FFED8C"/>
<stop offset="1" stop-color="#F4B335"/>
</linearGradient>
</defs>
</svg>
