<svg width="362" height="164" viewBox="0 0 362 164" fill="none" xmlns="http://www.w3.org/2000/svg">
<path d="M21.5678 103.93C18.417 96.0529 24.2181 87.4845 32.7018 87.4845H79.4452C86.068 87.4845 91.4369 92.8534 91.4369 99.4762V151.94C91.4369 158.563 86.068 163.932 79.4451 163.932H32.7018C24.2181 163.932 18.417 155.363 21.5678 147.486L30.2791 125.708L21.5678 103.93Z" fill="url(#paint0_linear_256_4848)"/>
<mask id="mask0_256_4848" style="mask-type:alpha" maskUnits="userSpaceOnUse" x="20" y="87" width="72" height="77">
<path d="M21.5678 103.93C18.417 96.0529 24.2181 87.4845 32.7018 87.4845H79.4452C86.068 87.4845 91.4369 92.8534 91.4369 99.4762V151.94C91.4369 158.563 86.068 163.932 79.4451 163.932H32.7018C24.2181 163.932 18.417 155.363 21.5678 147.486L28.4977 130.162C29.6412 127.303 29.6412 124.113 28.4977 121.254L21.5678 103.93Z" fill="url(#paint1_linear_256_4848)"/>
</mask>
<g mask="url(#mask0_256_4848)">
<path d="M91.4368 130.954H61.4576L76.4472 147.443L91.4368 163.932V130.954Z" fill="black" fill-opacity="0.4"/>
</g>
<path d="M340.432 103.93C343.583 96.0529 337.782 87.4845 329.298 87.4845H282.555C275.932 87.4845 270.563 92.8534 270.563 99.4762V151.94C270.563 158.563 275.932 163.932 282.555 163.932H329.298C337.782 163.932 343.583 155.363 340.432 147.486L331.721 125.708L340.432 103.93Z" fill="url(#paint2_linear_256_4848)"/>
<mask id="mask1_256_4848" style="mask-type:alpha" maskUnits="userSpaceOnUse" x="270" y="87" width="72" height="77">
<path d="M340.432 103.93C343.583 96.0529 337.782 87.4845 329.298 87.4845H282.555C275.932 87.4845 270.563 92.8534 270.563 99.4762V151.94C270.563 158.563 275.932 163.932 282.555 163.932H329.298C337.782 163.932 343.583 155.363 340.432 147.486L333.502 130.162C332.359 127.303 332.359 124.113 333.502 121.254L340.432 103.93Z" fill="url(#paint3_linear_256_4848)"/>
</mask>
<g mask="url(#mask1_256_4848)">
<path d="M270.563 130.954H300.542L285.553 147.443L270.563 163.932V130.954Z" fill="black" fill-opacity="0.4"/>
</g>
<rect x="61.4576" y="65" width="239.085" height="76.4472" rx="11.9917" fill="url(#paint4_linear_256_4848)"/>
<path d="M127.576 103.648C127.784 103.648 127.944 103.744 128.056 103.936C128.184 104.128 128.248 104.392 128.248 104.728C128.248 105.352 128.096 105.848 127.792 106.216C126.896 107.288 126.024 108.04 125.176 108.472C124.344 108.904 123.336 109.12 122.152 109.12C121.32 109.12 120.552 109.016 119.848 108.808C119.144 108.6 118.288 108.288 117.28 107.872C116.368 107.472 115.488 107.144 114.64 106.888C113.824 108.376 112.6 109.12 110.968 109.12C110.072 109.12 109.36 108.92 108.832 108.52C108.288 108.104 108.016 107.576 108.016 106.936C108.016 106.152 108.392 105.504 109.144 104.992C109.896 104.464 110.896 104.2 112.144 104.2H112.456L112.888 97.216C112.984 95.616 113.272 94.296 113.752 93.256C114.232 92.216 114.896 91.328 115.744 90.592C116.48 89.952 117.32 89.472 118.264 89.152C119.208 88.816 120.208 88.648 121.264 88.648C122.992 88.648 124.32 89.096 125.248 89.992C126.176 90.888 126.64 92.056 126.64 93.496C126.64 94.472 126.464 95.264 126.112 95.872C125.76 96.464 125.272 96.76 124.648 96.76C124.2 96.76 123.848 96.656 123.592 96.448C123.336 96.224 123.208 95.912 123.208 95.512C123.208 95.368 123.24 95.104 123.304 94.72C123.4 94.272 123.448 93.872 123.448 93.52C123.448 92.848 123.248 92.32 122.848 91.936C122.464 91.536 121.872 91.336 121.072 91.336C119.664 91.336 118.576 91.8 117.808 92.728C117.04 93.64 116.552 95.08 116.344 97.048L115.792 102.496C115.712 103.264 115.608 103.928 115.48 104.488C116.504 104.664 117.784 104.944 119.32 105.328C120.216 105.552 120.904 105.712 121.384 105.808C121.864 105.904 122.288 105.952 122.656 105.952C123.584 105.952 124.376 105.8 125.032 105.496C125.704 105.176 126.336 104.672 126.928 103.984C127.12 103.76 127.336 103.648 127.576 103.648ZM138.926 103.648C139.134 103.648 139.294 103.744 139.406 103.936C139.534 104.128 139.598 104.392 139.598 104.728C139.598 105.368 139.446 105.864 139.142 106.216C138.55 106.936 137.71 107.6 136.622 108.208C135.55 108.816 134.398 109.12 133.166 109.12C131.486 109.12 130.182 108.664 129.254 107.752C128.326 106.84 127.862 105.592 127.862 104.008C127.862 102.904 128.094 101.88 128.558 100.936C129.022 99.976 129.662 99.216 130.478 98.656C131.31 98.096 132.246 97.816 133.286 97.816C134.214 97.816 134.958 98.096 135.518 98.656C136.078 99.2 136.358 99.944 136.358 100.888C136.358 101.992 135.958 102.944 135.158 103.744C134.374 104.528 133.038 105.152 131.15 105.616C131.55 106.352 132.31 106.72 133.43 106.72C134.15 106.72 134.966 106.472 135.878 105.976C136.806 105.464 137.606 104.8 138.278 103.984C138.47 103.76 138.686 103.648 138.926 103.648ZM132.878 100.168C132.286 100.168 131.782 100.512 131.366 101.2C130.966 101.888 130.766 102.72 130.766 103.696V103.744C131.71 103.52 132.454 103.184 132.998 102.736C133.542 102.288 133.814 101.768 133.814 101.176C133.814 100.872 133.726 100.632 133.55 100.456C133.39 100.264 133.166 100.168 132.878 100.168ZM140.479 109.12C139.487 109.12 138.695 108.76 138.103 108.04C137.511 107.32 137.215 106.376 137.215 105.208C137.215 103.928 137.511 102.72 138.103 101.584C138.695 100.432 139.479 99.512 140.455 98.824C141.447 98.12 142.495 97.768 143.599 97.768C143.951 97.768 144.183 97.84 144.295 97.984C144.423 98.112 144.527 98.352 144.607 98.704C144.943 98.64 145.295 98.608 145.663 98.608C146.447 98.608 146.839 98.888 146.839 99.448C146.839 99.784 146.719 100.584 146.479 101.848C146.111 103.688 145.927 104.968 145.927 105.688C145.927 105.928 145.983 106.12 146.095 106.264C146.223 106.408 146.383 106.48 146.575 106.48C146.879 106.48 147.247 106.288 147.679 105.904C148.111 105.504 148.695 104.864 149.431 103.984C149.623 103.76 149.839 103.648 150.079 103.648C150.287 103.648 150.447 103.744 150.559 103.936C150.687 104.128 150.751 104.392 150.751 104.728C150.751 105.368 150.599 105.864 150.295 106.216C149.639 107.032 148.943 107.72 148.207 108.28C147.471 108.84 146.759 109.12 146.071 109.12C145.543 109.12 145.055 108.944 144.607 108.592C144.175 108.224 143.847 107.728 143.623 107.104C142.791 108.448 141.743 109.12 140.479 109.12ZM141.343 106.696C141.695 106.696 142.031 106.488 142.351 106.072C142.671 105.656 142.903 105.104 143.047 104.416L143.935 100C143.263 100.016 142.639 100.272 142.063 100.768C141.503 101.248 141.055 101.888 140.719 102.688C140.383 103.488 140.215 104.336 140.215 105.232C140.215 105.728 140.311 106.096 140.503 106.336C140.711 106.576 140.991 106.696 141.343 106.696ZM162.432 103.648C162.64 103.648 162.8 103.744 162.912 103.936C163.04 104.128 163.104 104.392 163.104 104.728C163.104 105.368 162.952 105.864 162.648 106.216C161.992 107.016 161.272 107.704 160.488 108.28C159.704 108.84 158.928 109.12 158.16 109.12C156.944 109.12 156.016 108.408 155.376 106.984C154.704 107.832 154.112 108.4 153.6 108.688C153.104 108.976 152.52 109.12 151.848 109.12C150.872 109.12 150.064 108.76 149.424 108.04C148.8 107.304 148.488 106.352 148.488 105.184C148.488 103.904 148.76 102.72 149.304 101.632C149.848 100.528 150.592 99.632 151.536 98.944C152.496 98.24 153.568 97.824 154.752 97.696C155.056 94.592 155.632 91.944 156.48 89.752C157.344 87.544 158.472 86.44 159.864 86.44C160.552 86.44 161.12 86.752 161.568 87.376C162.032 88 162.264 88.944 162.264 90.208C162.264 92 161.824 94.096 160.944 96.496C160.064 98.896 158.888 101.36 157.416 103.888C157.48 104.816 157.616 105.48 157.824 105.88C158.048 106.28 158.328 106.48 158.664 106.48C159.096 106.48 159.536 106.288 159.984 105.904C160.432 105.52 161.032 104.88 161.784 103.984C161.976 103.76 162.192 103.648 162.432 103.648ZM159.6 88.792C159.296 88.792 158.992 89.336 158.688 90.424C158.384 91.496 158.12 92.904 157.896 94.648C157.688 96.392 157.536 98.216 157.44 100.12C159.232 96.216 160.128 93.08 160.128 90.712C160.128 90.104 160.072 89.632 159.96 89.296C159.864 88.96 159.744 88.792 159.6 88.792ZM152.688 106.696C152.992 106.696 153.296 106.576 153.6 106.336C153.904 106.08 154.288 105.616 154.752 104.944C154.592 104.08 154.512 103.112 154.512 102.04C154.512 101.656 154.528 101.032 154.56 100.168C153.68 100.44 152.944 101.032 152.352 101.944C151.776 102.84 151.488 103.84 151.488 104.944C151.488 106.112 151.888 106.696 152.688 106.696ZM171.856 103.648C172.064 103.648 172.224 103.744 172.336 103.936C172.464 104.128 172.528 104.392 172.528 104.728C172.528 105.368 172.376 105.864 172.072 106.216C171.48 106.936 170.64 107.6 169.552 108.208C168.48 108.816 167.328 109.12 166.096 109.12C164.416 109.12 163.112 108.664 162.184 107.752C161.256 106.84 160.792 105.592 160.792 104.008C160.792 102.904 161.024 101.88 161.488 100.936C161.952 99.976 162.592 99.216 163.408 98.656C164.24 98.096 165.176 97.816 166.216 97.816C167.144 97.816 167.888 98.096 168.448 98.656C169.008 99.2 169.288 99.944 169.288 100.888C169.288 101.992 168.888 102.944 168.088 103.744C167.304 104.528 165.968 105.152 164.08 105.616C164.48 106.352 165.24 106.72 166.36 106.72C167.08 106.72 167.896 106.472 168.808 105.976C169.736 105.464 170.536 104.8 171.208 103.984C171.4 103.76 171.616 103.648 171.856 103.648ZM165.808 100.168C165.216 100.168 164.712 100.512 164.296 101.2C163.896 101.888 163.696 102.72 163.696 103.696V103.744C164.64 103.52 165.384 103.184 165.928 102.736C166.472 102.288 166.744 101.768 166.744 101.176C166.744 100.872 166.656 100.632 166.48 100.456C166.32 100.264 166.096 100.168 165.808 100.168ZM180.27 101.104C180.622 101.104 180.918 101.232 181.158 101.488C181.414 101.728 181.542 102.032 181.542 102.4C181.542 102.608 181.494 102.832 181.398 103.072C181.142 103.664 180.782 104.16 180.318 104.56C179.854 104.96 179.342 105.16 178.782 105.16C178.334 105.16 177.95 105 177.63 104.68C177.326 104.36 177.174 103.928 177.174 103.384C177.174 103.08 177.19 102.752 177.222 102.4C177.254 102.144 177.27 101.968 177.27 101.872C177.27 101.744 177.238 101.648 177.174 101.584C177.126 101.52 177.062 101.488 176.982 101.488C176.758 101.488 176.454 101.76 176.07 102.304C175.686 102.832 175.302 103.536 174.918 104.416C174.534 105.296 174.222 106.224 173.982 107.2C173.806 107.968 173.606 108.48 173.382 108.736C173.158 108.992 172.79 109.12 172.278 109.12C171.67 109.12 171.238 108.8 170.982 108.16C170.742 107.52 170.622 106.496 170.622 105.088C170.622 103.008 170.918 101.032 171.51 99.16C171.654 98.696 171.886 98.36 172.206 98.152C172.542 97.928 173.006 97.816 173.598 97.816C173.918 97.816 174.142 97.856 174.27 97.936C174.398 98.016 174.462 98.168 174.462 98.392C174.462 98.648 174.342 99.224 174.102 100.12C173.942 100.76 173.814 101.32 173.718 101.8C173.622 102.28 173.542 102.872 173.478 103.576C174.006 102.2 174.598 101.08 175.254 100.216C175.91 99.352 176.55 98.736 177.174 98.368C177.798 98 178.366 97.816 178.878 97.816C179.342 97.816 179.694 97.952 179.934 98.224C180.19 98.48 180.318 98.864 180.318 99.376C180.318 99.68 180.23 100.256 180.054 101.104H180.27ZM208.488 93.64C208.488 95 208.008 96.176 207.048 97.168C206.088 98.144 204.688 98.848 202.848 99.28C203.84 99.552 204.592 100 205.104 100.624C205.616 101.232 205.872 101.936 205.872 102.736C205.872 104 205.472 105.096 204.672 106.024C203.888 106.952 202.736 107.672 201.216 108.184C199.696 108.68 197.864 108.928 195.72 108.928C194.92 108.928 194.28 108.904 193.8 108.856C193.784 109.304 193.592 109.64 193.224 109.864C192.856 110.088 192.384 110.2 191.808 110.2C191.232 110.2 190.832 110.072 190.608 109.816C190.4 109.56 190.312 109.184 190.344 108.688C190.488 106.448 190.768 104.104 191.184 101.656C191.6 99.192 192.128 96.816 192.768 94.528C192.88 94.128 193.104 93.848 193.44 93.688C193.776 93.528 194.216 93.448 194.76 93.448C195.736 93.448 196.224 93.72 196.224 94.264C196.224 94.488 196.176 94.744 196.08 95.032C195.664 96.28 195.248 97.976 194.832 100.12C194.416 102.248 194.12 104.28 193.944 106.216C194.712 106.28 195.336 106.312 195.816 106.312C198.056 106.312 199.696 105.992 200.736 105.352C201.792 104.696 202.32 103.864 202.32 102.856C202.32 102.152 202.016 101.56 201.408 101.08C200.816 100.6 199.816 100.336 198.408 100.288C198.088 100.272 197.864 100.192 197.736 100.048C197.608 99.904 197.544 99.672 197.544 99.352C197.544 98.888 197.64 98.512 197.832 98.224C198.024 97.936 198.376 97.784 198.888 97.768C200.024 97.736 201.048 97.568 201.96 97.264C202.888 96.96 203.616 96.536 204.144 95.992C204.672 95.432 204.936 94.784 204.936 94.048C204.936 93.12 204.48 92.392 203.568 91.864C202.656 91.32 201.256 91.048 199.368 91.048C197.656 91.048 196 91.272 194.4 91.72C192.8 92.152 191.44 92.704 190.32 93.376C189.808 93.68 189.376 93.832 189.024 93.832C188.736 93.832 188.512 93.736 188.352 93.544C188.208 93.336 188.136 93.08 188.136 92.776C188.136 92.376 188.216 92.032 188.376 91.744C188.552 91.456 188.96 91.128 189.6 90.76C190.944 89.992 192.52 89.392 194.328 88.96C196.136 88.528 197.984 88.312 199.872 88.312C202.768 88.312 204.928 88.8 206.352 89.776C207.776 90.752 208.488 92.04 208.488 93.64ZM220.056 101.632C220.264 101.632 220.424 101.736 220.536 101.944C220.648 102.152 220.704 102.416 220.704 102.736C220.704 103.504 220.472 103.96 220.008 104.104C219.048 104.44 217.992 104.632 216.84 104.68C216.536 106.024 215.936 107.104 215.04 107.92C214.144 108.72 213.128 109.12 211.992 109.12C211.032 109.12 210.208 108.888 209.52 108.424C208.848 107.96 208.336 107.344 207.984 106.576C207.632 105.808 207.456 104.976 207.456 104.08C207.456 102.864 207.688 101.784 208.152 100.84C208.616 99.88 209.256 99.136 210.072 98.608C210.888 98.064 211.792 97.792 212.784 97.792C214 97.792 214.976 98.216 215.712 99.064C216.464 99.896 216.904 100.928 217.032 102.16C217.784 102.112 218.68 101.952 219.72 101.68C219.848 101.648 219.96 101.632 220.056 101.632ZM212.184 106.576C212.696 106.576 213.136 106.368 213.504 105.952C213.888 105.536 214.144 104.936 214.272 104.152C213.776 103.816 213.392 103.376 213.12 102.832C212.864 102.288 212.736 101.712 212.736 101.104C212.736 100.848 212.76 100.592 212.808 100.336H212.688C212.048 100.336 211.512 100.648 211.08 101.272C210.664 101.88 210.456 102.744 210.456 103.864C210.456 104.744 210.624 105.416 210.96 105.88C211.312 106.344 211.72 106.576 212.184 106.576ZM221.596 109.12C220.604 109.12 219.812 108.76 219.22 108.04C218.628 107.32 218.332 106.376 218.332 105.208C218.332 103.928 218.628 102.72 219.22 101.584C219.812 100.432 220.596 99.512 221.572 98.824C222.564 98.12 223.612 97.768 224.716 97.768C225.068 97.768 225.3 97.84 225.412 97.984C225.54 98.112 225.644 98.352 225.724 98.704C226.06 98.64 226.412 98.608 226.78 98.608C227.564 98.608 227.956 98.888 227.956 99.448C227.956 99.784 227.836 100.584 227.596 101.848C227.228 103.688 227.044 104.968 227.044 105.688C227.044 105.928 227.1 106.12 227.212 106.264C227.34 106.408 227.5 106.48 227.692 106.48C227.996 106.48 228.364 106.288 228.796 105.904C229.228 105.504 229.812 104.864 230.548 103.984C230.74 103.76 230.956 103.648 231.196 103.648C231.404 103.648 231.564 103.744 231.676 103.936C231.804 104.128 231.868 104.392 231.868 104.728C231.868 105.368 231.716 105.864 231.412 106.216C230.756 107.032 230.06 107.72 229.324 108.28C228.588 108.84 227.876 109.12 227.188 109.12C226.66 109.12 226.172 108.944 225.724 108.592C225.292 108.224 224.964 107.728 224.74 107.104C223.908 108.448 222.86 109.12 221.596 109.12ZM222.46 106.696C222.812 106.696 223.148 106.488 223.468 106.072C223.788 105.656 224.02 105.104 224.164 104.416L225.052 100C224.38 100.016 223.756 100.272 223.18 100.768C222.62 101.248 222.172 101.888 221.836 102.688C221.5 103.488 221.332 104.336 221.332 105.232C221.332 105.728 221.428 106.096 221.62 106.336C221.828 106.576 222.108 106.696 222.46 106.696ZM231.622 109.12C231.014 109.12 230.582 108.8 230.326 108.16C230.086 107.52 229.966 106.496 229.966 105.088C229.966 103.008 230.262 101.032 230.854 99.16C230.998 98.696 231.23 98.36 231.55 98.152C231.886 97.928 232.35 97.816 232.942 97.816C233.262 97.816 233.486 97.856 233.614 97.936C233.742 98.016 233.806 98.168 233.806 98.392C233.806 98.648 233.686 99.224 233.446 100.12C233.286 100.76 233.158 101.32 233.062 101.8C232.966 102.28 232.886 102.872 232.822 103.576C233.35 102.2 233.942 101.08 234.598 100.216C235.254 99.352 235.894 98.736 236.518 98.368C237.158 98 237.742 97.816 238.27 97.816C239.31 97.816 239.83 98.336 239.83 99.376C239.83 99.584 239.758 100.088 239.614 100.888C239.486 101.528 239.422 101.928 239.422 102.088C239.422 102.648 239.622 102.928 240.022 102.928C240.47 102.928 241.046 102.576 241.75 101.872C241.958 101.664 242.174 101.56 242.398 101.56C242.606 101.56 242.766 101.656 242.878 101.848C243.006 102.024 243.07 102.264 243.07 102.568C243.07 103.16 242.91 103.624 242.59 103.96C242.142 104.424 241.614 104.824 241.006 105.16C240.414 105.48 239.782 105.64 239.11 105.64C238.262 105.64 237.614 105.424 237.166 104.992C236.734 104.56 236.518 103.976 236.518 103.24C236.518 103 236.542 102.76 236.59 102.52C236.622 102.2 236.638 101.984 236.638 101.872C236.638 101.616 236.55 101.488 236.374 101.488C236.134 101.488 235.814 101.76 235.414 102.304C235.03 102.832 234.646 103.536 234.262 104.416C233.878 105.296 233.566 106.224 233.326 107.2C233.15 107.952 232.942 108.464 232.702 108.736C232.478 108.992 232.118 109.12 231.622 109.12ZM249.576 103.648C249.752 104.96 250.008 106.256 250.344 107.536C250.408 107.744 250.44 107.96 250.44 108.184C250.44 108.904 250 109.264 249.12 109.264C248.624 109.264 248.24 109.128 247.968 108.856C247.712 108.584 247.472 108.072 247.248 107.32L247.224 107.224C246.616 107.976 246.064 108.48 245.568 108.736C245.088 108.992 244.528 109.12 243.888 109.12C242.912 109.12 242.104 108.76 241.464 108.04C240.84 107.304 240.528 106.352 240.528 105.184C240.528 103.904 240.8 102.72 241.344 101.632C241.888 100.544 242.632 99.656 243.576 98.968C244.52 98.264 245.576 97.84 246.743 97.696C247.048 94.672 247.624 92.04 248.472 89.8C249.336 87.56 250.48 86.44 251.904 86.44C252.592 86.44 253.16 86.752 253.608 87.376C254.072 88 254.304 88.944 254.304 90.208C254.304 91.968 253.872 94.024 253.008 96.376C252.144 98.728 251 101.152 249.576 103.648ZM251.64 88.792C251.176 88.792 250.736 89.976 250.32 92.344C249.92 94.712 249.648 97.288 249.504 100.072C251.28 96.232 252.168 93.112 252.168 90.712C252.168 90.104 252.112 89.632 252 89.296C251.904 88.96 251.784 88.792 251.64 88.792ZM244.728 106.696C245.048 106.696 245.352 106.576 245.64 106.336C245.944 106.096 246.328 105.632 246.792 104.944C246.632 103.776 246.552 102.568 246.552 101.32C246.552 100.824 246.56 100.44 246.576 100.168C245.696 100.424 244.968 101.008 244.392 101.92C243.816 102.832 243.528 103.84 243.528 104.944C243.528 106.112 243.928 106.696 244.728 106.696Z" fill="white"/>
<g filter="url(#filter0_dii_256_4848)">
<path d="M96.9199 31.1845C98.3922 28.2299 102.608 28.2299 104.08 31.1845L110.226 43.5187C110.811 44.6928 111.935 45.5054 113.233 45.6934L126.921 47.6752C130.213 48.1518 131.519 52.2034 129.126 54.5126L119.276 64.0159C118.321 64.9366 117.885 66.2703 118.112 67.5769L120.442 81.0359C121.007 84.2986 117.589 86.7956 114.653 85.2658L102.348 78.8559C101.19 78.2526 99.8101 78.2526 98.652 78.8559L86.3473 85.2658C83.4106 86.7956 79.993 84.2986 80.5579 81.0359L82.8883 67.5769C83.1145 66.2703 82.6785 64.9366 81.7243 64.0159L71.8744 54.5126C69.481 52.2034 70.7871 48.1518 74.0785 47.6752L87.7667 45.6934C89.065 45.5054 90.1886 44.6928 90.7736 43.5187L96.9199 31.1845Z" fill="url(#paint5_linear_256_4848)"/>
</g>
<g filter="url(#filter1_dii_256_4848)">
<path d="M256.92 31.1845C258.392 28.2299 262.608 28.2299 264.08 31.1845L270.226 43.5187C270.811 44.6928 271.935 45.5054 273.233 45.6934L286.921 47.6752C290.213 48.1518 291.519 52.2034 289.126 54.5126L279.276 64.0159C278.321 64.9366 277.885 66.2703 278.112 67.5769L280.442 81.0359C281.007 84.2986 277.589 86.7956 274.653 85.2658L262.348 78.8559C261.19 78.2526 259.81 78.2526 258.652 78.8559L246.347 85.2658C243.411 86.7956 239.993 84.2986 240.558 81.0359L242.888 67.5769C243.115 66.2703 242.679 64.9366 241.724 64.0159L231.874 54.5126C229.481 52.2034 230.787 48.1518 234.079 47.6752L247.767 45.6934C249.065 45.5054 250.189 44.6928 250.774 43.5187L256.92 31.1845Z" fill="url(#paint6_linear_256_4848)"/>
</g>
<g filter="url(#filter2_dii_256_4848)">
<path d="M176.922 7.16376C178.395 4.21371 182.605 4.21371 184.078 7.16376L192.388 23.7997C192.974 24.9724 194.097 25.7837 195.395 25.9711L213.905 28.6447C217.2 29.1205 218.506 33.1773 216.107 35.4856L202.78 48.3124C201.823 49.2336 201.386 50.5697 201.613 51.8784L204.766 70.0423C205.332 73.3037 201.918 75.8021 198.98 74.2756L182.345 65.6305C181.188 65.0296 179.812 65.0296 178.655 65.6305L162.02 74.2756C159.082 75.8021 155.668 73.3037 156.234 70.0423L159.387 51.8784C159.614 50.5697 159.177 49.2336 158.22 48.3124L144.893 35.4856C142.494 33.1773 143.8 29.1205 147.095 28.6447L165.605 25.9711C166.903 25.7837 168.026 24.9724 168.612 23.7997L176.922 7.16376Z" fill="url(#paint7_linear_256_4848)"/>
</g>
<defs>
<filter id="filter0_dii_256_4848" x="50.6474" y="24.9685" width="99.7053" height="96.7586" filterUnits="userSpaceOnUse" color-interpolation-filters="sRGB">
<feFlood flood-opacity="0" result="BackgroundImageFix"/>
<feColorMatrix in="SourceAlpha" type="matrix" values="0 0 0 0 0 0 0 0 0 0 0 0 0 0 0 0 0 0 127 0" result="hardAlpha"/>
<feOffset dy="16"/>
<feGaussianBlur stdDeviation="10"/>
<feComposite in2="hardAlpha" operator="out"/>
<feColorMatrix type="matrix" values="0 0 0 0 0.441638 0 0 0 0 0.245593 0 0 0 0 0.0646293 0 0 0 0.25 0"/>
<feBlend mode="normal" in2="BackgroundImageFix" result="effect1_dropShadow_256_4848"/>
<feBlend mode="normal" in="SourceGraphic" in2="effect1_dropShadow_256_4848" result="shape"/>
<feColorMatrix in="SourceAlpha" type="matrix" values="0 0 0 0 0 0 0 0 0 0 0 0 0 0 0 0 0 0 127 0" result="hardAlpha"/>
<feOffset dy="-4"/>
<feGaussianBlur stdDeviation="4"/>
<feComposite in2="hardAlpha" operator="arithmetic" k2="-1" k3="1"/>
<feColorMatrix type="matrix" values="0 0 0 0 0.549971 0 0 0 0 0.304646 0 0 0 0 0.0781912 0 0 0 0.57 0"/>
<feBlend mode="normal" in2="shape" result="effect2_innerShadow_256_4848"/>
<feColorMatrix in="SourceAlpha" type="matrix" values="0 0 0 0 0 0 0 0 0 0 0 0 0 0 0 0 0 0 127 0" result="hardAlpha"/>
<feOffset dy="-4"/>
<feGaussianBlur stdDeviation="2"/>
<feComposite in2="hardAlpha" operator="arithmetic" k2="-1" k3="1"/>
<feColorMatrix type="matrix" values="0 0 0 0 1 0 0 0 0 0.981301 0 0 0 0 0.813007 0 0 0 0.72 0"/>
<feBlend mode="normal" in2="effect2_innerShadow_256_4848" result="effect3_innerShadow_256_4848"/>
</filter>
<filter id="filter1_dii_256_4848" x="210.647" y="24.9685" width="99.7053" height="96.7586" filterUnits="userSpaceOnUse" color-interpolation-filters="sRGB">
<feFlood flood-opacity="0" result="BackgroundImageFix"/>
<feColorMatrix in="SourceAlpha" type="matrix" values="0 0 0 0 0 0 0 0 0 0 0 0 0 0 0 0 0 0 127 0" result="hardAlpha"/>
<feOffset dy="16"/>
<feGaussianBlur stdDeviation="10"/>
<feComposite in2="hardAlpha" operator="out"/>
<feColorMatrix type="matrix" values="0 0 0 0 0.441638 0 0 0 0 0.245593 0 0 0 0 0.0646293 0 0 0 0.25 0"/>
<feBlend mode="normal" in2="BackgroundImageFix" result="effect1_dropShadow_256_4848"/>
<feBlend mode="normal" in="SourceGraphic" in2="effect1_dropShadow_256_4848" result="shape"/>
<feColorMatrix in="SourceAlpha" type="matrix" values="0 0 0 0 0 0 0 0 0 0 0 0 0 0 0 0 0 0 127 0" result="hardAlpha"/>
<feOffset dy="-4"/>
<feGaussianBlur stdDeviation="4"/>
<feComposite in2="hardAlpha" operator="arithmetic" k2="-1" k3="1"/>
<feColorMatrix type="matrix" values="0 0 0 0 0.549971 0 0 0 0 0.304646 0 0 0 0 0.0781912 0 0 0 0.57 0"/>
<feBlend mode="normal" in2="shape" result="effect2_innerShadow_256_4848"/>
<feColorMatrix in="SourceAlpha" type="matrix" values="0 0 0 0 0 0 0 0 0 0 0 0 0 0 0 0 0 0 127 0" result="hardAlpha"/>
<feOffset dy="-4"/>
<feGaussianBlur stdDeviation="2"/>
<feComposite in2="hardAlpha" operator="arithmetic" k2="-1" k3="1"/>
<feColorMatrix type="matrix" values="0 0 0 0 1 0 0 0 0 0.981301 0 0 0 0 0.813007 0 0 0 0.72 0"/>
<feBlend mode="normal" in2="effect2_innerShadow_256_4848" result="effect3_innerShadow_256_4848"/>
</filter>
<filter id="filter2_dii_256_4848" x="123.662" y="0.951233" width="113.676" height="109.784" filterUnits="userSpaceOnUse" color-interpolation-filters="sRGB">
<feFlood flood-opacity="0" result="BackgroundImageFix"/>
<feColorMatrix in="SourceAlpha" type="matrix" values="0 0 0 0 0 0 0 0 0 0 0 0 0 0 0 0 0 0 127 0" result="hardAlpha"/>
<feOffset dy="16"/>
<feGaussianBlur stdDeviation="10"/>
<feComposite in2="hardAlpha" operator="out"/>
<feColorMatrix type="matrix" values="0 0 0 0 0.441638 0 0 0 0 0.245593 0 0 0 0 0.0646293 0 0 0 0.25 0"/>
<feBlend mode="normal" in2="BackgroundImageFix" result="effect1_dropShadow_256_4848"/>
<feBlend mode="normal" in="SourceGraphic" in2="effect1_dropShadow_256_4848" result="shape"/>
<feColorMatrix in="SourceAlpha" type="matrix" values="0 0 0 0 0 0 0 0 0 0 0 0 0 0 0 0 0 0 127 0" result="hardAlpha"/>
<feOffset dy="-4"/>
<feGaussianBlur stdDeviation="4"/>
<feComposite in2="hardAlpha" operator="arithmetic" k2="-1" k3="1"/>
<feColorMatrix type="matrix" values="0 0 0 0 0.549971 0 0 0 0 0.304646 0 0 0 0 0.0781912 0 0 0 0.57 0"/>
<feBlend mode="normal" in2="shape" result="effect2_innerShadow_256_4848"/>
<feColorMatrix in="SourceAlpha" type="matrix" values="0 0 0 0 0 0 0 0 0 0 0 0 0 0 0 0 0 0 127 0" result="hardAlpha"/>
<feOffset dy="-4"/>
<feGaussianBlur stdDeviation="2"/>
<feComposite in2="hardAlpha" operator="arithmetic" k2="-1" k3="1"/>
<feColorMatrix type="matrix" values="0 0 0 0 1 0 0 0 0 0.981301 0 0 0 0 0.813007 0 0 0 0.72 0"/>
<feBlend mode="normal" in2="effect2_innerShadow_256_4848" result="effect3_innerShadow_256_4848"/>
</filter>
<linearGradient id="paint0_linear_256_4848" x1="53.2133" y1="87.4845" x2="53.2133" y2="163.932" gradientUnits="userSpaceOnUse">
<stop stop-color="#48CAE4"/>
<stop offset="0.905" stop-color="#48CAE4"/>
<stop offset="0.9051" stop-color="#00B4D8"/>
</linearGradient>
<linearGradient id="paint1_linear_256_4848" x1="53.2133" y1="87.4845" x2="53.2133" y2="163.932" gradientUnits="userSpaceOnUse">
<stop stop-color="#FF0055"/>
<stop offset="1" stop-color="#C70042"/>
</linearGradient>
<linearGradient id="paint2_linear_256_4848" x1="308.787" y1="87.4845" x2="308.787" y2="163.932" gradientUnits="userSpaceOnUse">
<stop stop-color="#48CAE4"/>
<stop offset="0.905" stop-color="#48CAE4"/>
<stop offset="0.9051" stop-color="#00B4D8"/>
</linearGradient>
<linearGradient id="paint3_linear_256_4848" x1="308.787" y1="87.4845" x2="308.787" y2="163.932" gradientUnits="userSpaceOnUse">
<stop stop-color="#FF0055"/>
<stop offset="1" stop-color="#C70042"/>
</linearGradient>
<linearGradient id="paint4_linear_256_4848" x1="181" y1="65" x2="181" y2="141.447" gradientUnits="userSpaceOnUse">
<stop stop-color="#48CAE4"/>
<stop offset="0.905" stop-color="#48CAE4"/>
<stop offset="0.9051" stop-color="#00B4D8"/>
</linearGradient>
<linearGradient id="paint5_linear_256_4848" x1="86.7491" y1="31.2402" x2="101.502" y2="84.7259" gradientUnits="userSpaceOnUse">
<stop offset="0.0001" stop-color="#FFED8C"/>
<stop offset="1" stop-color="#F4B335"/>
</linearGradient>
<linearGradient id="paint6_linear_256_4848" x1="246.749" y1="31.2402" x2="261.502" y2="84.7259" gradientUnits="userSpaceOnUse">
<stop offset="0.0001" stop-color="#FFED8C"/>
<stop offset="1" stop-color="#F4B335"/>
</linearGradient>
<linearGradient id="paint7_linear_256_4848" x1="163.959" y1="8.68825" x2="181.626" y2="72.893" gradientUnits="userSpaceOnUse">
<stop offset="0.0001" stop-color="#FFED8C"/>
<stop offset="1" stop-color="#F4B335"/>
</linearGradient>
</defs>
</svg>
