<svg width="32" height="32" viewBox="0 0 32 32" fill="none" xmlns="http://www.w3.org/2000/svg">
<path d="M8.89334 18.6667H5.33334C3.86667 18.6667 2.66667 19.8667 2.66667 21.3333V28C2.66667 28.7333 3.26667 29.3333 4.00001 29.3333H8.89334C9.62667 29.3333 10.2267 28.7333 10.2267 28V20C10.2267 19.2667 9.62667 18.6667 8.89334 18.6667Z" fill="white"/>
<path d="M17.7733 13.3333H14.2133C12.7467 13.3333 11.5467 14.5333 11.5467 16V28C11.5467 28.7333 12.1467 29.3333 12.88 29.3333H19.1067C19.84 29.3333 20.44 28.7333 20.44 28V16C20.44 14.5333 19.2533 13.3333 17.7733 13.3333Z" fill="white"/>
<path d="M26.6667 22.6667H23.1067C22.3733 22.6667 21.7733 23.2667 21.7733 24V28C21.7733 28.7333 22.3733 29.3333 23.1067 29.3333H28C28.7333 29.3333 29.3333 28.7333 29.3333 28V25.3333C29.3333 23.8667 28.1333 22.6667 26.6667 22.6667Z" fill="white"/>
<path d="M20.0133 6.46667C20.4267 6.05334 20.5867 5.56 20.4533 5.13334C20.32 4.70667 19.9067 4.4 19.32 4.30667L18.04 4.09334C17.9867 4.09334 17.8667 4 17.84 3.94667L17.1333 2.53334C16.6 1.45334 15.3867 1.45334 14.8533 2.53334L14.1467 3.94667C14.1333 4 14.0133 4.09334 13.96 4.09334L12.68 4.30667C12.0933 4.4 11.6933 4.70667 11.5467 5.13334C11.4133 5.56 11.5733 6.05334 11.9867 6.46667L12.9733 7.46667C13.0267 7.50667 13.0667 7.66667 13.0533 7.72L12.7733 8.94667C12.56 9.86667 12.9067 10.28 13.1333 10.44C13.36 10.6 13.8533 10.8133 14.6667 10.3333L15.8667 9.62667C15.92 9.58667 16.0933 9.58667 16.1467 9.62667L17.3333 10.3333C17.7067 10.56 18.0133 10.6267 18.2533 10.6267C18.5333 10.6267 18.7333 10.52 18.8533 10.44C19.08 10.28 19.4267 9.86667 19.2133 8.94667L18.9333 7.72C18.92 7.65334 18.96 7.50667 19.0133 7.46667L20.0133 6.46667Z" fill="white"/>
</svg>
