<svg width="100" height="100" viewBox="0 0 100 100" fill="none" xmlns="http://www.w3.org/2000/svg">
<path d="M27.7916 58.3334H16.6666C12.0833 58.3334 8.33331 62.0834 8.33331 66.6668V87.5001C8.33331 89.7918 10.2083 91.6668 12.5 91.6668H27.7916C30.0833 91.6668 31.9583 89.7918 31.9583 87.5001V62.5001C31.9583 60.2084 30.0833 58.3334 27.7916 58.3334Z" fill="url(#paint0_linear_56_2697)"/>
<path d="M55.5417 41.6666H44.4167C39.8333 41.6666 36.0833 45.4166 36.0833 49.9999V87.4999C36.0833 89.7916 37.9583 91.6666 40.25 91.6666H59.7083C62 91.6666 63.875 89.7916 63.875 87.4999V49.9999C63.875 45.4166 60.1667 41.6666 55.5417 41.6666Z" fill="url(#paint1_linear_56_2697)"/>
<path d="M83.3333 70.8334H72.2083C69.9167 70.8334 68.0417 72.7084 68.0417 75.0001V87.5001C68.0417 89.7918 69.9167 91.6668 72.2083 91.6668H87.5C89.7917 91.6668 91.6667 89.7918 91.6667 87.5001V79.1668C91.6667 74.5834 87.9167 70.8334 83.3333 70.8334Z" fill="url(#paint2_linear_56_2697)"/>
<path d="M62.5417 20.2084C63.8333 18.9167 64.3333 17.375 63.9167 16.0417C63.5 14.7084 62.2083 13.75 60.375 13.4584L56.375 12.7917C56.2083 12.7917 55.8333 12.5 55.75 12.3334L53.5417 7.91669C51.875 4.54169 48.0833 4.54169 46.4167 7.91669L44.2083 12.3334C44.1667 12.5 43.7917 12.7917 43.625 12.7917L39.625 13.4584C37.7917 13.75 36.5417 14.7084 36.0833 16.0417C35.6667 17.375 36.1667 18.9167 37.4583 20.2084L40.5417 23.3334C40.7083 23.4584 40.8333 23.9584 40.7917 24.125L39.9167 27.9584C39.25 30.8334 40.3333 32.125 41.0417 32.625C41.75 33.125 43.2917 33.7917 45.8333 32.2917L49.5833 30.0834C49.75 29.9584 50.2917 29.9584 50.4583 30.0834L54.1667 32.2917C55.3333 33 56.2917 33.2084 57.0417 33.2084C57.9167 33.2084 58.5417 32.875 58.9167 32.625C59.625 32.125 60.7083 30.8334 60.0417 27.9584L59.1667 24.125C59.125 23.9167 59.25 23.4584 59.4167 23.3334L62.5417 20.2084Z" fill="url(#paint3_linear_56_2697)"/>
<defs>
<linearGradient id="paint0_linear_56_2697" x1="7.6101" y1="48.6112" x2="36.8345" y2="52.4141" gradientUnits="userSpaceOnUse">
<stop stop-color="#0096C7"/>
<stop offset="1" stop-color="#023E8A"/>
</linearGradient>
<linearGradient id="paint1_linear_56_2697" x1="35.2326" y1="27.0832" x2="69.833" y2="30.6142" gradientUnits="userSpaceOnUse">
<stop stop-color="#0096C7"/>
<stop offset="1" stop-color="#023E8A"/>
</linearGradient>
<linearGradient id="paint2_linear_56_2697" x1="67.3184" y1="64.757" x2="95.803" y2="70.6876" gradientUnits="userSpaceOnUse">
<stop stop-color="#0096C7"/>
<stop offset="1" stop-color="#023E8A"/>
</linearGradient>
<linearGradient id="paint3_linear_56_2697" x1="35.079" y1="-2.73106" x2="69.2762" y2="3.61357" gradientUnits="userSpaceOnUse">
<stop stop-color="#0096C7"/>
<stop offset="1" stop-color="#023E8A"/>
</linearGradient>
</defs>
</svg>
