<svg width="28" height="26" viewBox="0 0 28 26" fill="none" xmlns="http://www.w3.org/2000/svg">
<path d="M24.8 9.29333C22.3866 9.29333 21.4 7.58667 22.6 5.49333C23.2933 4.28 22.88 2.73333 21.6666 2.04L19.36 0.72C18.3066 0.0933338 16.9466 0.466667 16.32 1.52L16.1733 1.77333C14.9733 3.86667 13 3.86667 11.7866 1.77333L11.64 1.52C11.04 0.466667 9.67996 0.0933338 8.62663 0.72L6.31996 2.04C5.10663 2.73333 4.69329 4.29333 5.38663 5.50667C6.59996 7.58667 5.61329 9.29333 3.19996 9.29333C1.81329 9.29333 0.666626 10.4267 0.666626 11.8267V14.1733C0.666626 15.56 1.79996 16.7067 3.19996 16.7067C5.61329 16.7067 6.59996 18.4133 5.38663 20.5067C4.69329 21.72 5.10663 23.2667 6.31996 23.96L8.62663 25.28C9.67996 25.9067 11.04 25.5333 11.6666 24.48L11.8133 24.2267C13.0133 22.1333 14.9866 22.1333 16.2 24.2267L16.3466 24.48C16.9733 25.5333 18.3333 25.9067 19.3866 25.28L21.6933 23.96C22.9066 23.2667 23.32 21.7067 22.6266 20.5067C21.4133 18.4133 22.4 16.7067 24.8133 16.7067C26.2 16.7067 27.3466 15.5733 27.3466 14.1733V11.8267C27.3333 10.44 26.2 9.29333 24.8 9.29333ZM14 17.3333C11.6133 17.3333 9.66663 15.3867 9.66663 13C9.66663 10.6133 11.6133 8.66667 14 8.66667C16.3866 8.66667 18.3333 10.6133 18.3333 13C18.3333 15.3867 16.3866 17.3333 14 17.3333Z" fill="white"/>
</svg>
