<svg width="146" height="57" viewBox="0 0 146 57" fill="none" xmlns="http://www.w3.org/2000/svg">
<g filter="url(#filter0_ddi_50_1982)">
<mask id="path-1-outside-1_50_1982" maskUnits="userSpaceOnUse" x="0" y="-4" width="146" height="57" fill="black">
<rect fill="white" y="-4" width="146" height="57"/>
<path d="M14.772 32.288C11.58 32.288 9.024 31.688 7.104 30.488C5.184 29.264 4.224 27.404 4.224 24.908C4.224 23.588 4.452 22.58 4.908 21.884C5.364 21.188 6.036 20.84 6.924 20.84C7.572 20.84 8.1 21.008 8.508 21.344C8.916 21.68 9.12 22.112 9.12 22.64C9.12 23.12 9.084 23.54 9.012 23.9C9.012 23.996 8.988 24.164 8.94 24.404C8.916 24.644 8.904 24.896 8.904 25.16C8.904 26.24 9.444 27.044 10.524 27.572C11.628 28.1 13.164 28.364 15.132 28.364C17.172 28.364 18.768 28.004 19.92 27.284C21.072 26.54 21.648 25.508 21.648 24.188C21.648 23.372 21.384 22.676 20.856 22.1C20.328 21.5 19.668 21.008 18.876 20.624C18.084 20.216 16.968 19.724 15.528 19.148C13.68 18.428 12.168 17.744 10.992 17.096C9.84 16.448 8.844 15.572 8.004 14.468C7.188 13.34 6.78 11.948 6.78 10.292C6.78 8.564 7.236 7.028 8.148 5.684C9.084 4.34 10.416 3.296 12.144 2.552C13.896 1.808 15.948 1.436 18.3 1.436C20.052 1.436 21.66 1.7 23.124 2.228C24.588 2.732 25.752 3.512 26.616 4.568C27.504 5.624 27.948 6.92 27.948 8.456C27.948 9.968 27.72 11.108 27.264 11.876C26.808 12.644 26.136 13.028 25.248 13.028C24.624 13.028 24.096 12.836 23.664 12.452C23.256 12.068 23.052 11.612 23.052 11.084C23.052 10.628 23.088 10.208 23.16 9.824C23.232 9.104 23.268 8.648 23.268 8.456C23.268 7.448 22.776 6.68 21.792 6.152C20.808 5.624 19.584 5.36 18.12 5.36C16.056 5.36 14.472 5.744 13.368 6.512C12.288 7.256 11.748 8.312 11.748 9.68C11.748 10.592 12.024 11.372 12.576 12.02C13.152 12.668 13.86 13.208 14.7 13.64C15.54 14.072 16.716 14.588 18.228 15.188C20.052 15.932 21.516 16.604 22.62 17.204C23.724 17.804 24.66 18.62 25.428 19.652C26.22 20.684 26.616 21.956 26.616 23.468C26.616 26.3 25.536 28.484 23.376 30.02C21.24 31.532 18.372 32.288 14.772 32.288ZM48.6249 23.972C48.9369 23.972 49.1769 24.116 49.3449 24.404C49.5369 24.692 49.6329 25.088 49.6329 25.592C49.6329 26.552 49.4049 27.296 48.9489 27.824C48.0609 28.904 46.8009 29.9 45.1689 30.812C43.5609 31.724 41.8329 32.18 39.9849 32.18C37.4649 32.18 35.5089 31.496 34.1169 30.128C32.7249 28.76 32.0289 26.888 32.0289 24.512C32.0289 22.856 32.3769 21.32 33.0729 19.904C33.7689 18.464 34.7289 17.324 35.9529 16.484C37.2009 15.644 38.6049 15.224 40.1649 15.224C41.5569 15.224 42.6729 15.644 43.5129 16.484C44.3529 17.3 44.7729 18.416 44.7729 19.832C44.7729 21.488 44.1729 22.916 42.9729 24.116C41.7969 25.292 39.7929 26.228 36.9609 26.924C37.5609 28.028 38.7009 28.58 40.3809 28.58C41.4609 28.58 42.6849 28.208 44.0529 27.464C45.4449 26.696 46.6449 25.7 47.6529 24.476C47.9409 24.14 48.2649 23.972 48.6249 23.972ZM39.5529 18.752C38.6649 18.752 37.9089 19.268 37.2849 20.3C36.6849 21.332 36.3849 22.58 36.3849 24.044V24.116C37.8009 23.78 38.9169 23.276 39.7329 22.604C40.5489 21.932 40.9569 21.152 40.9569 20.264C40.9569 19.808 40.8249 19.448 40.5609 19.184C40.3209 18.896 39.9849 18.752 39.5529 18.752ZM76.9058 23.972C77.2178 23.972 77.4578 24.116 77.6258 24.404C77.8178 24.692 77.9138 25.088 77.9138 25.592C77.9138 26.552 77.6858 27.296 77.2298 27.824C76.1978 29.096 75.0698 30.14 73.8458 30.956C72.6218 31.772 71.2178 32.18 69.6338 32.18C66.7058 32.18 64.6658 30.956 63.5138 28.508C62.8898 29.516 62.0618 30.38 61.0298 31.1C59.9978 31.82 58.8938 32.18 57.7178 32.18C55.4378 32.18 53.7578 31.256 52.6778 29.408C51.6218 27.536 51.0938 25.016 51.0938 21.848C51.0938 20.672 51.1538 19.364 51.2738 17.924H49.7978C49.0778 17.924 48.5858 17.792 48.3218 17.528C48.0818 17.264 47.9618 16.844 47.9618 16.268C47.9618 14.924 48.5018 14.252 49.5818 14.252H51.7778C52.2338 11.708 52.8698 9.404 53.6858 7.34C54.5018 5.276 55.4858 3.632 56.6378 2.408C57.7898 1.184 59.0378 0.571999 60.3818 0.571999C61.3898 0.571999 62.1818 1.016 62.7578 1.904C63.3338 2.792 63.6218 3.908 63.6218 5.252C63.6218 8.636 62.3138 11.636 59.6978 14.252H62.9738C63.4298 11.708 64.0658 9.404 64.8818 7.34C65.6978 5.276 66.6818 3.632 67.8338 2.408C68.9858 1.184 70.2338 0.571999 71.5778 0.571999C72.5858 0.571999 73.3778 1.016 73.9538 1.904C74.5298 2.792 74.8178 3.908 74.8178 5.252C74.8178 8.636 73.5098 11.636 70.8938 14.252H74.1698C74.5538 14.252 74.8298 14.336 74.9978 14.504C75.1658 14.672 75.2498 14.984 75.2498 15.44C75.2498 17.096 73.8938 17.924 71.1818 17.924H66.8258C66.7538 19.076 66.7178 20.252 66.7178 21.452C66.7178 23.948 67.0058 25.7 67.5818 26.708C68.1818 27.716 69.1178 28.22 70.3898 28.22C71.4218 28.22 72.3338 27.908 73.1258 27.284C73.9178 26.66 74.8538 25.724 75.9338 24.476C76.2218 24.14 76.5458 23.972 76.9058 23.972ZM59.4098 4.028C59.0498 4.028 58.6418 4.484 58.1858 5.396C57.7538 6.284 57.3338 7.532 56.9258 9.14C56.5418 10.724 56.2178 12.488 55.9538 14.432C57.3698 13.208 58.4258 11.84 59.1218 10.328C59.8418 8.792 60.2018 7.4 60.2018 6.152C60.2018 4.736 59.9378 4.028 59.4098 4.028ZM70.6058 4.028C70.2458 4.028 69.8378 4.484 69.3818 5.396C68.9498 6.284 68.5298 7.532 68.1218 9.14C67.7378 10.724 67.4138 12.488 67.1498 14.432C68.5658 13.208 69.6218 11.84 70.3178 10.328C71.0378 8.792 71.3978 7.4 71.3978 6.152C71.3978 4.736 71.1338 4.028 70.6058 4.028ZM58.4738 28.22C59.1938 28.22 59.9138 27.884 60.6338 27.212C61.3538 26.54 61.9658 25.712 62.4698 24.728C62.3498 23.984 62.2898 23.024 62.2898 21.848C62.2898 20.672 62.3498 19.364 62.4698 17.924H55.6298C55.5578 19.076 55.5218 20.252 55.5218 21.452C55.5218 23.876 55.7738 25.616 56.2778 26.672C56.8058 27.704 57.5378 28.22 58.4738 28.22ZM82.5957 12.848C81.5877 12.848 80.8317 12.62 80.3277 12.164C79.8237 11.684 79.5717 11.024 79.5717 10.184C79.5717 9.344 79.8957 8.648 80.5437 8.096C81.2157 7.52 82.0437 7.232 83.0277 7.232C83.9157 7.232 84.6357 7.448 85.1877 7.88C85.7397 8.312 86.0157 8.924 86.0157 9.716C86.0157 10.676 85.7037 11.444 85.0797 12.02C84.4557 12.572 83.6277 12.848 82.5957 12.848ZM82.3077 32.18C80.7477 32.18 79.6077 31.628 78.8877 30.524C78.1917 29.42 77.8437 27.956 77.8437 26.132C77.8437 25.052 77.9757 23.672 78.2397 21.992C78.5277 20.288 78.8877 18.704 79.3197 17.24C79.5357 16.472 79.8237 15.944 80.1837 15.656C80.5437 15.368 81.1197 15.224 81.9117 15.224C83.1357 15.224 83.7477 15.632 83.7477 16.448C83.7477 17.048 83.5197 18.44 83.0637 20.624C82.4877 23.264 82.1997 25.052 82.1997 25.988C82.1997 26.708 82.2957 27.26 82.4877 27.644C82.6797 28.028 83.0037 28.22 83.4597 28.22C83.8917 28.22 84.4317 27.92 85.0797 27.32C85.7277 26.72 86.5917 25.772 87.6717 24.476C87.9597 24.14 88.2837 23.972 88.6437 23.972C88.9557 23.972 89.1957 24.116 89.3637 24.404C89.5557 24.692 89.6517 25.088 89.6517 25.592C89.6517 26.552 89.4237 27.296 88.9677 27.824C86.5917 30.728 84.3717 32.18 82.3077 32.18ZM92.1751 32.18C91.2631 32.18 90.6151 31.7 90.2311 30.74C89.8711 29.78 89.6911 28.244 89.6911 26.132C89.6911 23.012 90.1351 20.048 91.0231 17.24C91.2391 16.544 91.5871 16.04 92.0671 15.728C92.5711 15.392 93.2671 15.224 94.1551 15.224C94.6351 15.224 94.9711 15.284 95.1631 15.404C95.3551 15.524 95.4511 15.752 95.4511 16.088C95.4511 16.472 95.2711 17.336 94.9111 18.68C94.6711 19.64 94.4791 20.48 94.3351 21.2C94.1911 21.92 94.0711 22.808 93.9751 23.864C94.7671 21.8 95.6551 20.12 96.6391 18.824C97.6231 17.528 98.5831 16.604 99.5191 16.052C100.479 15.5 101.355 15.224 102.147 15.224C103.707 15.224 104.487 16.004 104.487 17.564C104.487 18.5 104.223 20.192 103.695 22.64C103.239 24.728 103.011 26.108 103.011 26.78C103.011 27.74 103.359 28.22 104.055 28.22C104.535 28.22 105.099 27.932 105.747 27.356C106.419 26.756 107.307 25.796 108.411 24.476C108.699 24.14 109.023 23.972 109.383 23.972C109.695 23.972 109.935 24.116 110.103 24.404C110.295 24.692 110.391 25.088 110.391 25.592C110.391 26.552 110.163 27.296 109.707 27.824C108.675 29.096 107.559 30.14 106.359 30.956C105.183 31.772 103.839 32.18 102.327 32.18C101.103 32.18 100.179 31.832 99.5551 31.136C98.9311 30.416 98.6191 29.384 98.6191 28.04C98.6191 27.368 98.7871 26.168 99.1231 24.44C99.4351 22.928 99.5911 21.884 99.5911 21.308C99.5911 20.924 99.4591 20.732 99.1951 20.732C98.8831 20.732 98.4391 21.14 97.8631 21.956C97.3111 22.748 96.7351 23.804 96.1351 25.124C95.5591 26.444 95.0911 27.836 94.7311 29.3C94.4671 30.428 94.1551 31.196 93.7951 31.604C93.4591 31.988 92.9191 32.18 92.1751 32.18ZM122.562 16.412C123.162 16.412 123.582 16.508 123.822 16.7C124.086 16.868 124.218 17.216 124.218 17.744C124.218 18.032 124.206 18.26 124.182 18.428C124.086 19.172 123.786 21.092 123.282 24.188C122.922 26.276 122.694 27.656 122.598 28.328C121.686 34.52 120.45 39.404 118.89 42.98C117.354 46.58 115.29 48.38 112.698 48.38C111.474 48.38 110.478 47.996 109.71 47.228C108.942 46.484 108.558 45.5 108.558 44.276C108.558 42.572 109.23 40.736 110.574 38.768C111.918 36.824 114.438 34.424 118.134 31.568L118.35 30.164C117.942 30.812 117.402 31.316 116.73 31.676C116.082 32.012 115.434 32.18 114.786 32.18C113.298 32.18 112.11 31.64 111.222 30.56C110.334 29.48 109.89 28.064 109.89 26.312C109.89 24.392 110.334 22.58 111.222 20.876C112.11 19.148 113.286 17.768 114.75 16.736C116.238 15.68 117.81 15.152 119.466 15.152C119.994 15.152 120.342 15.26 120.51 15.476C120.702 15.668 120.858 16.028 120.978 16.556C121.434 16.46 121.962 16.412 122.562 16.412ZM116.082 28.544C116.634 28.544 117.162 28.208 117.666 27.536C118.17 26.864 118.53 25.904 118.746 24.656L119.898 18.5C118.914 18.524 118.002 18.908 117.162 19.652C116.322 20.372 115.65 21.332 115.146 22.532C114.642 23.732 114.39 25.004 114.39 26.348C114.39 27.092 114.534 27.644 114.822 28.004C115.134 28.364 115.554 28.544 116.082 28.544ZM113.094 44.888C113.694 44.888 114.366 44.168 115.11 42.728C115.878 41.288 116.61 38.996 117.306 35.852C115.458 37.436 114.126 38.864 113.31 40.136C112.494 41.408 112.086 42.524 112.086 43.484C112.086 43.892 112.158 44.228 112.302 44.492C112.47 44.756 112.734 44.888 113.094 44.888ZM135.931 32.972C134.683 32.972 133.723 32.684 133.051 32.108C132.403 31.532 132.079 30.884 132.079 30.164C132.079 29.54 132.307 29 132.763 28.544C133.219 28.088 133.891 27.86 134.779 27.86C135.091 27.86 135.451 27.896 135.859 27.968C136.291 28.016 136.615 28.052 136.831 28.076C136.807 27.452 136.663 26.864 136.399 26.312C136.159 25.76 135.847 25.232 135.463 24.728C135.079 24.2 134.719 23.744 134.383 23.36C133.639 24.776 132.895 25.952 132.151 26.888C131.431 27.824 130.639 28.712 129.775 29.552C129.343 29.984 128.887 30.2 128.407 30.2C128.023 30.2 127.711 30.068 127.471 29.804C127.231 29.516 127.111 29.168 127.111 28.76C127.111 28.28 127.279 27.836 127.615 27.428L128.083 26.852C129.403 25.22 130.399 23.876 131.071 22.82C131.503 22.124 131.935 21.296 132.367 20.336C132.823 19.376 133.411 18.068 134.131 16.412C134.587 15.356 135.535 14.828 136.975 14.828C137.647 14.828 138.115 14.888 138.379 15.008C138.643 15.128 138.775 15.32 138.775 15.584C138.775 15.728 138.727 15.956 138.631 16.268C138.535 16.58 138.403 16.892 138.235 17.204C137.803 18.068 137.587 18.8 137.587 19.4C137.587 19.76 137.707 20.156 137.947 20.588C138.211 21.02 138.607 21.56 139.135 22.208C139.903 23.216 140.479 24.08 140.863 24.8C141.271 25.496 141.475 26.264 141.475 27.104C141.475 28.112 141.235 29.072 140.755 29.984C140.299 30.872 139.651 31.592 138.811 32.144C137.971 32.696 137.011 32.972 135.931 32.972Z"/>
</mask>
<path d="M14.772 32.288C11.58 32.288 9.024 31.688 7.104 30.488C5.184 29.264 4.224 27.404 4.224 24.908C4.224 23.588 4.452 22.58 4.908 21.884C5.364 21.188 6.036 20.84 6.924 20.84C7.572 20.84 8.1 21.008 8.508 21.344C8.916 21.68 9.12 22.112 9.12 22.64C9.12 23.12 9.084 23.54 9.012 23.9C9.012 23.996 8.988 24.164 8.94 24.404C8.916 24.644 8.904 24.896 8.904 25.16C8.904 26.24 9.444 27.044 10.524 27.572C11.628 28.1 13.164 28.364 15.132 28.364C17.172 28.364 18.768 28.004 19.92 27.284C21.072 26.54 21.648 25.508 21.648 24.188C21.648 23.372 21.384 22.676 20.856 22.1C20.328 21.5 19.668 21.008 18.876 20.624C18.084 20.216 16.968 19.724 15.528 19.148C13.68 18.428 12.168 17.744 10.992 17.096C9.84 16.448 8.844 15.572 8.004 14.468C7.188 13.34 6.78 11.948 6.78 10.292C6.78 8.564 7.236 7.028 8.148 5.684C9.084 4.34 10.416 3.296 12.144 2.552C13.896 1.808 15.948 1.436 18.3 1.436C20.052 1.436 21.66 1.7 23.124 2.228C24.588 2.732 25.752 3.512 26.616 4.568C27.504 5.624 27.948 6.92 27.948 8.456C27.948 9.968 27.72 11.108 27.264 11.876C26.808 12.644 26.136 13.028 25.248 13.028C24.624 13.028 24.096 12.836 23.664 12.452C23.256 12.068 23.052 11.612 23.052 11.084C23.052 10.628 23.088 10.208 23.16 9.824C23.232 9.104 23.268 8.648 23.268 8.456C23.268 7.448 22.776 6.68 21.792 6.152C20.808 5.624 19.584 5.36 18.12 5.36C16.056 5.36 14.472 5.744 13.368 6.512C12.288 7.256 11.748 8.312 11.748 9.68C11.748 10.592 12.024 11.372 12.576 12.02C13.152 12.668 13.86 13.208 14.7 13.64C15.54 14.072 16.716 14.588 18.228 15.188C20.052 15.932 21.516 16.604 22.62 17.204C23.724 17.804 24.66 18.62 25.428 19.652C26.22 20.684 26.616 21.956 26.616 23.468C26.616 26.3 25.536 28.484 23.376 30.02C21.24 31.532 18.372 32.288 14.772 32.288ZM48.6249 23.972C48.9369 23.972 49.1769 24.116 49.3449 24.404C49.5369 24.692 49.6329 25.088 49.6329 25.592C49.6329 26.552 49.4049 27.296 48.9489 27.824C48.0609 28.904 46.8009 29.9 45.1689 30.812C43.5609 31.724 41.8329 32.18 39.9849 32.18C37.4649 32.18 35.5089 31.496 34.1169 30.128C32.7249 28.76 32.0289 26.888 32.0289 24.512C32.0289 22.856 32.3769 21.32 33.0729 19.904C33.7689 18.464 34.7289 17.324 35.9529 16.484C37.2009 15.644 38.6049 15.224 40.1649 15.224C41.5569 15.224 42.6729 15.644 43.5129 16.484C44.3529 17.3 44.7729 18.416 44.7729 19.832C44.7729 21.488 44.1729 22.916 42.9729 24.116C41.7969 25.292 39.7929 26.228 36.9609 26.924C37.5609 28.028 38.7009 28.58 40.3809 28.58C41.4609 28.58 42.6849 28.208 44.0529 27.464C45.4449 26.696 46.6449 25.7 47.6529 24.476C47.9409 24.14 48.2649 23.972 48.6249 23.972ZM39.5529 18.752C38.6649 18.752 37.9089 19.268 37.2849 20.3C36.6849 21.332 36.3849 22.58 36.3849 24.044V24.116C37.8009 23.78 38.9169 23.276 39.7329 22.604C40.5489 21.932 40.9569 21.152 40.9569 20.264C40.9569 19.808 40.8249 19.448 40.5609 19.184C40.3209 18.896 39.9849 18.752 39.5529 18.752ZM76.9058 23.972C77.2178 23.972 77.4578 24.116 77.6258 24.404C77.8178 24.692 77.9138 25.088 77.9138 25.592C77.9138 26.552 77.6858 27.296 77.2298 27.824C76.1978 29.096 75.0698 30.14 73.8458 30.956C72.6218 31.772 71.2178 32.18 69.6338 32.18C66.7058 32.18 64.6658 30.956 63.5138 28.508C62.8898 29.516 62.0618 30.38 61.0298 31.1C59.9978 31.82 58.8938 32.18 57.7178 32.18C55.4378 32.18 53.7578 31.256 52.6778 29.408C51.6218 27.536 51.0938 25.016 51.0938 21.848C51.0938 20.672 51.1538 19.364 51.2738 17.924H49.7978C49.0778 17.924 48.5858 17.792 48.3218 17.528C48.0818 17.264 47.9618 16.844 47.9618 16.268C47.9618 14.924 48.5018 14.252 49.5818 14.252H51.7778C52.2338 11.708 52.8698 9.404 53.6858 7.34C54.5018 5.276 55.4858 3.632 56.6378 2.408C57.7898 1.184 59.0378 0.571999 60.3818 0.571999C61.3898 0.571999 62.1818 1.016 62.7578 1.904C63.3338 2.792 63.6218 3.908 63.6218 5.252C63.6218 8.636 62.3138 11.636 59.6978 14.252H62.9738C63.4298 11.708 64.0658 9.404 64.8818 7.34C65.6978 5.276 66.6818 3.632 67.8338 2.408C68.9858 1.184 70.2338 0.571999 71.5778 0.571999C72.5858 0.571999 73.3778 1.016 73.9538 1.904C74.5298 2.792 74.8178 3.908 74.8178 5.252C74.8178 8.636 73.5098 11.636 70.8938 14.252H74.1698C74.5538 14.252 74.8298 14.336 74.9978 14.504C75.1658 14.672 75.2498 14.984 75.2498 15.44C75.2498 17.096 73.8938 17.924 71.1818 17.924H66.8258C66.7538 19.076 66.7178 20.252 66.7178 21.452C66.7178 23.948 67.0058 25.7 67.5818 26.708C68.1818 27.716 69.1178 28.22 70.3898 28.22C71.4218 28.22 72.3338 27.908 73.1258 27.284C73.9178 26.66 74.8538 25.724 75.9338 24.476C76.2218 24.14 76.5458 23.972 76.9058 23.972ZM59.4098 4.028C59.0498 4.028 58.6418 4.484 58.1858 5.396C57.7538 6.284 57.3338 7.532 56.9258 9.14C56.5418 10.724 56.2178 12.488 55.9538 14.432C57.3698 13.208 58.4258 11.84 59.1218 10.328C59.8418 8.792 60.2018 7.4 60.2018 6.152C60.2018 4.736 59.9378 4.028 59.4098 4.028ZM70.6058 4.028C70.2458 4.028 69.8378 4.484 69.3818 5.396C68.9498 6.284 68.5298 7.532 68.1218 9.14C67.7378 10.724 67.4138 12.488 67.1498 14.432C68.5658 13.208 69.6218 11.84 70.3178 10.328C71.0378 8.792 71.3978 7.4 71.3978 6.152C71.3978 4.736 71.1338 4.028 70.6058 4.028ZM58.4738 28.22C59.1938 28.22 59.9138 27.884 60.6338 27.212C61.3538 26.54 61.9658 25.712 62.4698 24.728C62.3498 23.984 62.2898 23.024 62.2898 21.848C62.2898 20.672 62.3498 19.364 62.4698 17.924H55.6298C55.5578 19.076 55.5218 20.252 55.5218 21.452C55.5218 23.876 55.7738 25.616 56.2778 26.672C56.8058 27.704 57.5378 28.22 58.4738 28.22ZM82.5957 12.848C81.5877 12.848 80.8317 12.62 80.3277 12.164C79.8237 11.684 79.5717 11.024 79.5717 10.184C79.5717 9.344 79.8957 8.648 80.5437 8.096C81.2157 7.52 82.0437 7.232 83.0277 7.232C83.9157 7.232 84.6357 7.448 85.1877 7.88C85.7397 8.312 86.0157 8.924 86.0157 9.716C86.0157 10.676 85.7037 11.444 85.0797 12.02C84.4557 12.572 83.6277 12.848 82.5957 12.848ZM82.3077 32.18C80.7477 32.18 79.6077 31.628 78.8877 30.524C78.1917 29.42 77.8437 27.956 77.8437 26.132C77.8437 25.052 77.9757 23.672 78.2397 21.992C78.5277 20.288 78.8877 18.704 79.3197 17.24C79.5357 16.472 79.8237 15.944 80.1837 15.656C80.5437 15.368 81.1197 15.224 81.9117 15.224C83.1357 15.224 83.7477 15.632 83.7477 16.448C83.7477 17.048 83.5197 18.44 83.0637 20.624C82.4877 23.264 82.1997 25.052 82.1997 25.988C82.1997 26.708 82.2957 27.26 82.4877 27.644C82.6797 28.028 83.0037 28.22 83.4597 28.22C83.8917 28.22 84.4317 27.92 85.0797 27.32C85.7277 26.72 86.5917 25.772 87.6717 24.476C87.9597 24.14 88.2837 23.972 88.6437 23.972C88.9557 23.972 89.1957 24.116 89.3637 24.404C89.5557 24.692 89.6517 25.088 89.6517 25.592C89.6517 26.552 89.4237 27.296 88.9677 27.824C86.5917 30.728 84.3717 32.18 82.3077 32.18ZM92.1751 32.18C91.2631 32.18 90.6151 31.7 90.2311 30.74C89.8711 29.78 89.6911 28.244 89.6911 26.132C89.6911 23.012 90.1351 20.048 91.0231 17.24C91.2391 16.544 91.5871 16.04 92.0671 15.728C92.5711 15.392 93.2671 15.224 94.1551 15.224C94.6351 15.224 94.9711 15.284 95.1631 15.404C95.3551 15.524 95.4511 15.752 95.4511 16.088C95.4511 16.472 95.2711 17.336 94.9111 18.68C94.6711 19.64 94.4791 20.48 94.3351 21.2C94.1911 21.92 94.0711 22.808 93.9751 23.864C94.7671 21.8 95.6551 20.12 96.6391 18.824C97.6231 17.528 98.5831 16.604 99.5191 16.052C100.479 15.5 101.355 15.224 102.147 15.224C103.707 15.224 104.487 16.004 104.487 17.564C104.487 18.5 104.223 20.192 103.695 22.64C103.239 24.728 103.011 26.108 103.011 26.78C103.011 27.74 103.359 28.22 104.055 28.22C104.535 28.22 105.099 27.932 105.747 27.356C106.419 26.756 107.307 25.796 108.411 24.476C108.699 24.14 109.023 23.972 109.383 23.972C109.695 23.972 109.935 24.116 110.103 24.404C110.295 24.692 110.391 25.088 110.391 25.592C110.391 26.552 110.163 27.296 109.707 27.824C108.675 29.096 107.559 30.14 106.359 30.956C105.183 31.772 103.839 32.18 102.327 32.18C101.103 32.18 100.179 31.832 99.5551 31.136C98.9311 30.416 98.6191 29.384 98.6191 28.04C98.6191 27.368 98.7871 26.168 99.1231 24.44C99.4351 22.928 99.5911 21.884 99.5911 21.308C99.5911 20.924 99.4591 20.732 99.1951 20.732C98.8831 20.732 98.4391 21.14 97.8631 21.956C97.3111 22.748 96.7351 23.804 96.1351 25.124C95.5591 26.444 95.0911 27.836 94.7311 29.3C94.4671 30.428 94.1551 31.196 93.7951 31.604C93.4591 31.988 92.9191 32.18 92.1751 32.18ZM122.562 16.412C123.162 16.412 123.582 16.508 123.822 16.7C124.086 16.868 124.218 17.216 124.218 17.744C124.218 18.032 124.206 18.26 124.182 18.428C124.086 19.172 123.786 21.092 123.282 24.188C122.922 26.276 122.694 27.656 122.598 28.328C121.686 34.52 120.45 39.404 118.89 42.98C117.354 46.58 115.29 48.38 112.698 48.38C111.474 48.38 110.478 47.996 109.71 47.228C108.942 46.484 108.558 45.5 108.558 44.276C108.558 42.572 109.23 40.736 110.574 38.768C111.918 36.824 114.438 34.424 118.134 31.568L118.35 30.164C117.942 30.812 117.402 31.316 116.73 31.676C116.082 32.012 115.434 32.18 114.786 32.18C113.298 32.18 112.11 31.64 111.222 30.56C110.334 29.48 109.89 28.064 109.89 26.312C109.89 24.392 110.334 22.58 111.222 20.876C112.11 19.148 113.286 17.768 114.75 16.736C116.238 15.68 117.81 15.152 119.466 15.152C119.994 15.152 120.342 15.26 120.51 15.476C120.702 15.668 120.858 16.028 120.978 16.556C121.434 16.46 121.962 16.412 122.562 16.412ZM116.082 28.544C116.634 28.544 117.162 28.208 117.666 27.536C118.17 26.864 118.53 25.904 118.746 24.656L119.898 18.5C118.914 18.524 118.002 18.908 117.162 19.652C116.322 20.372 115.65 21.332 115.146 22.532C114.642 23.732 114.39 25.004 114.39 26.348C114.39 27.092 114.534 27.644 114.822 28.004C115.134 28.364 115.554 28.544 116.082 28.544ZM113.094 44.888C113.694 44.888 114.366 44.168 115.11 42.728C115.878 41.288 116.61 38.996 117.306 35.852C115.458 37.436 114.126 38.864 113.31 40.136C112.494 41.408 112.086 42.524 112.086 43.484C112.086 43.892 112.158 44.228 112.302 44.492C112.47 44.756 112.734 44.888 113.094 44.888ZM135.931 32.972C134.683 32.972 133.723 32.684 133.051 32.108C132.403 31.532 132.079 30.884 132.079 30.164C132.079 29.54 132.307 29 132.763 28.544C133.219 28.088 133.891 27.86 134.779 27.86C135.091 27.86 135.451 27.896 135.859 27.968C136.291 28.016 136.615 28.052 136.831 28.076C136.807 27.452 136.663 26.864 136.399 26.312C136.159 25.76 135.847 25.232 135.463 24.728C135.079 24.2 134.719 23.744 134.383 23.36C133.639 24.776 132.895 25.952 132.151 26.888C131.431 27.824 130.639 28.712 129.775 29.552C129.343 29.984 128.887 30.2 128.407 30.2C128.023 30.2 127.711 30.068 127.471 29.804C127.231 29.516 127.111 29.168 127.111 28.76C127.111 28.28 127.279 27.836 127.615 27.428L128.083 26.852C129.403 25.22 130.399 23.876 131.071 22.82C131.503 22.124 131.935 21.296 132.367 20.336C132.823 19.376 133.411 18.068 134.131 16.412C134.587 15.356 135.535 14.828 136.975 14.828C137.647 14.828 138.115 14.888 138.379 15.008C138.643 15.128 138.775 15.32 138.775 15.584C138.775 15.728 138.727 15.956 138.631 16.268C138.535 16.58 138.403 16.892 138.235 17.204C137.803 18.068 137.587 18.8 137.587 19.4C137.587 19.76 137.707 20.156 137.947 20.588C138.211 21.02 138.607 21.56 139.135 22.208C139.903 23.216 140.479 24.08 140.863 24.8C141.271 25.496 141.475 26.264 141.475 27.104C141.475 28.112 141.235 29.072 140.755 29.984C140.299 30.872 139.651 31.592 138.811 32.144C137.971 32.696 137.011 32.972 135.931 32.972Z" fill="url(#paint0_linear_50_1982)" shape-rendering="crispEdges"/>
<path d="M7.104 30.488L4.95377 33.8609L4.96885 33.8705L4.984 33.88L7.104 30.488ZM4.908 21.884L1.56216 19.6919H1.56216L4.908 21.884ZM8.508 21.344L11.0508 18.2563H11.0508L8.508 21.344ZM9.012 23.9L5.08968 23.1155L5.012 23.5039V23.9H9.012ZM8.94 24.404L5.01768 23.6195L4.97932 23.8113L4.95985 24.006L8.94 24.404ZM10.524 27.572L8.76716 31.1655L8.78264 31.1731L8.79818 31.1805L10.524 27.572ZM19.92 27.284L22.04 30.676L22.0652 30.6603L22.0901 30.6442L19.92 27.284ZM20.856 22.1L17.8531 24.7425L17.88 24.773L17.9074 24.8029L20.856 22.1ZM18.876 20.624L17.0442 24.1799L17.0873 24.2021L17.1309 24.2233L18.876 20.624ZM15.528 19.148L17.0136 15.4341L16.9969 15.4274L16.9801 15.4209L15.528 19.148ZM10.992 17.096L9.03096 20.5823L9.04623 20.5909L9.06158 20.5993L10.992 17.096ZM8.004 14.468L4.7631 16.8125L4.79143 16.8516L4.82069 16.8901L8.004 14.468ZM8.148 5.684L4.86557 3.39803L4.85171 3.41793L4.8381 3.43799L8.148 5.684ZM12.144 2.552L10.5805 -1.12978L10.5713 -1.12588L10.5622 -1.12194L12.144 2.552ZM23.124 2.228L21.7669 5.99076L21.7944 6.00066L21.822 6.01015L23.124 2.228ZM26.616 4.568L23.5202 7.10095L23.5372 7.12179L23.5546 7.1424L26.616 4.568ZM23.664 12.452L20.9225 15.3648L20.964 15.4038L21.0065 15.4416L23.664 12.452ZM23.16 9.824L27.0915 10.5611L27.1231 10.3926L27.1401 10.222L23.16 9.824ZM21.792 6.152L23.6833 2.62736L23.6833 2.62736L21.792 6.152ZM13.368 6.512L15.6372 9.80603L15.6448 9.80084L15.6523 9.79562L13.368 6.512ZM12.576 12.02L9.53103 14.6139L9.55836 14.646L9.58636 14.6775L12.576 12.02ZM14.7 13.64L16.5294 10.0828L16.5294 10.0828L14.7 13.64ZM18.228 15.188L19.7387 11.4843L19.7211 11.4771L19.7034 11.47L18.228 15.188ZM25.428 19.652L22.2191 22.04L22.2367 22.0638L22.2548 22.0873L25.428 19.652ZM23.376 30.02L25.6871 33.2848L25.6941 33.2798L23.376 30.02ZM14.772 28.288C12.0364 28.288 10.2986 27.7676 9.224 27.096L4.984 33.88C7.74945 35.6084 11.1236 36.288 14.772 36.288V28.288ZM9.25423 27.1151C8.61254 26.706 8.224 26.1941 8.224 24.908H0.224C0.224 28.6139 1.75546 31.822 4.95377 33.8609L9.25423 27.1151ZM8.224 24.908C8.224 24.4675 8.26306 24.192 8.29644 24.0445C8.32956 23.898 8.34261 23.9406 8.25385 24.0761L1.56216 19.6919C0.49677 21.318 0.224 23.2274 0.224 24.908H8.224ZM8.25384 24.0761C8.1434 24.2447 7.92753 24.48 7.59342 24.653C7.27002 24.8204 7.00924 24.84 6.924 24.84V16.84C4.79546 16.84 2.81472 17.7801 1.56216 19.6919L8.25384 24.0761ZM6.924 24.84C6.90447 24.84 6.78131 24.8376 6.59319 24.7777C6.39561 24.7148 6.17321 24.603 5.96517 24.4317L11.0508 18.2563C9.77553 17.206 8.28303 16.84 6.924 16.84V24.84ZM5.96517 24.4317C5.76265 24.2649 5.52565 24 5.35001 23.628C5.1743 23.256 5.12 22.9039 5.12 22.64H13.12C13.12 20.9153 12.3804 19.3512 11.0508 18.2563L5.96517 24.4317ZM5.12 22.64C5.12 22.932 5.09708 23.0785 5.08968 23.1155L12.9343 24.6845C13.0709 24.0015 13.12 23.308 13.12 22.64H5.12ZM5.012 23.9C5.012 23.7675 5.01977 23.6691 5.02393 23.6234C5.02854 23.5726 5.03306 23.5403 5.0342 23.5323C5.03612 23.5189 5.0329 23.5434 5.01768 23.6195L12.8623 25.1885C12.9067 24.9666 13.012 24.4404 13.012 23.9H5.012ZM4.95985 24.006C4.92146 24.3899 4.904 24.7754 4.904 25.16H12.904C12.904 25.0166 12.9105 24.8981 12.9201 24.802L4.95985 24.006ZM4.904 25.16C4.904 26.3994 5.2254 27.6671 5.98844 28.8032C6.73488 29.9146 7.74613 30.6664 8.76716 31.1655L12.2808 23.9785C12.2219 23.9496 12.4231 24.0354 12.6296 24.3428C12.8526 24.6749 12.904 25.0006 12.904 25.16H4.904ZM8.79818 31.1805C10.6712 32.0763 12.8892 32.364 15.132 32.364V24.364C13.4388 24.364 12.5848 24.1237 12.2498 23.9635L8.79818 31.1805ZM15.132 32.364C17.5712 32.364 20.0092 31.9452 22.04 30.676L17.8 23.892C17.5268 24.0628 16.7728 24.364 15.132 24.364V32.364ZM22.0901 30.6442C24.3294 29.1979 25.648 26.9286 25.648 24.188H17.648C17.648 24.226 17.644 24.2165 17.6548 24.1725C17.6661 24.1263 17.688 24.0657 17.7232 24.0025C17.7582 23.9399 17.7924 23.8998 17.8091 23.8826C17.8241 23.8672 17.8115 23.8841 17.7499 23.9238L22.0901 30.6442ZM25.648 24.188C25.648 22.42 25.0411 20.746 23.8046 19.3971L17.9074 24.8029C17.8458 24.7357 17.7668 24.6224 17.71 24.4726C17.6543 24.3257 17.648 24.2181 17.648 24.188H25.648ZM23.8589 19.4575C22.9453 18.4194 21.8431 17.6172 20.6211 17.0247L17.1309 24.2233C17.4929 24.3988 17.7107 24.5806 17.8531 24.7425L23.8589 19.4575ZM20.7078 17.0681C19.7501 16.5747 18.499 16.0283 17.0136 15.4341L14.0424 22.8619C15.437 23.4197 16.4179 23.8573 17.0442 24.1799L20.7078 17.0681ZM16.9801 15.4209C15.2268 14.7378 13.8902 14.1259 12.9224 13.5926L9.06158 20.5993C10.4458 21.3621 12.1333 22.1182 14.0759 22.8751L16.9801 15.4209ZM12.953 13.6097C12.3003 13.2425 11.7135 12.7374 11.1873 12.0459L4.82069 16.8901C5.97453 18.4066 7.37973 19.6535 9.03096 20.5823L12.953 13.6097ZM11.2449 12.1235C11.0104 11.7994 10.78 11.2699 10.78 10.292H2.78C2.78 12.6261 3.3656 14.8806 4.7631 16.8125L11.2449 12.1235ZM10.78 10.292C10.78 9.31098 11.0249 8.56807 11.4579 7.93001L4.8381 3.43799C3.44707 5.48793 2.78 7.81702 2.78 10.292H10.78ZM11.4304 7.96997C11.8797 7.32491 12.579 6.71972 13.7258 6.22593L10.5622 -1.12194C8.25302 -0.12772 6.28833 1.35509 4.86557 3.39803L11.4304 7.96997ZM13.7075 6.23378C14.8632 5.743 16.3624 5.436 18.3 5.436V-2.564C15.5337 -2.564 12.9288 -2.127 10.5805 -1.12978L13.7075 6.23378ZM18.3 5.436C19.647 5.436 20.7893 5.63816 21.7669 5.99076L24.4811 -1.53476C22.5307 -2.23816 20.457 -2.564 18.3 -2.564V5.436ZM21.822 6.01015C22.6806 6.30575 23.1875 6.69433 23.5202 7.10095L29.7118 2.03505C28.3165 0.329662 26.4954 -0.841757 24.4261 -1.55415L21.822 6.01015ZM23.5546 7.1424C23.7669 7.39493 23.948 7.748 23.948 8.456H31.948C31.948 6.09199 31.2411 3.85307 29.6774 1.9936L23.5546 7.1424ZM23.948 8.456C23.948 9.02245 23.9043 9.41237 23.8547 9.66053C23.8041 9.91355 23.7639 9.93607 23.8246 9.83385L30.7034 13.9182C31.6997 12.2402 31.948 10.247 31.948 8.456H23.948ZM23.8246 9.83385C23.8947 9.71578 24.0819 9.46793 24.4334 9.26703C24.7861 9.0655 25.0999 9.028 25.248 9.028V17.028C27.5578 17.028 29.5319 15.8912 30.7034 13.9182L23.8246 9.83385ZM25.248 9.028C25.3509 9.028 25.5311 9.04486 25.751 9.12482C25.9756 9.20652 26.1709 9.3285 26.3215 9.46236L21.0065 15.4416C22.2316 16.5306 23.7289 17.028 25.248 17.028V9.028ZM26.4055 9.5392C26.5395 9.66539 26.7177 9.87888 26.8563 10.1885C26.9972 10.5034 27.052 10.8177 27.052 11.084H19.052C19.052 12.7883 19.7664 14.2767 20.9225 15.3648L26.4055 9.5392ZM27.052 11.084C27.052 10.8354 27.0719 10.6658 27.0915 10.5611L19.2285 9.08685C19.1041 9.75021 19.052 10.4206 19.052 11.084H27.052ZM27.1401 10.222C27.2055 9.5682 27.268 8.89063 27.268 8.456H19.268C19.268 8.39688 19.2702 8.37771 19.2674 8.42762C19.2652 8.46797 19.2609 8.53272 19.2534 8.62719C19.2385 8.81632 19.2145 9.07979 19.1799 9.42598L27.1401 10.222ZM27.268 8.456C27.268 7.27047 26.9685 6.06106 26.2671 4.96629C25.5794 3.89277 24.6423 3.14198 23.6833 2.62736L19.9007 9.67664C19.9257 9.69002 19.7266 9.58723 19.5309 9.28171C19.3215 8.95493 19.268 8.63353 19.268 8.456H27.268ZM23.6833 2.62736C21.9649 1.70532 20.0456 1.36 18.12 1.36V9.36C19.1224 9.36 19.6511 9.54268 19.9007 9.67664L23.6833 2.62736ZM18.12 1.36C15.6472 1.36 13.1292 1.80547 11.0837 3.22838L15.6523 9.79562C15.8148 9.68253 16.4648 9.36 18.12 9.36V1.36ZM11.0988 3.21797C8.88074 4.74595 7.748 7.06364 7.748 9.68H15.748C15.748 9.60129 15.7557 9.57251 15.7535 9.58227C15.7509 9.59412 15.7405 9.63199 15.7144 9.68316C15.688 9.73483 15.6574 9.77663 15.6324 9.80436C15.6087 9.83068 15.6041 9.82888 15.6372 9.80603L11.0988 3.21797ZM7.748 9.68C7.748 11.4693 8.31662 13.1883 9.53103 14.6139L15.621 9.42614C15.6339 9.44134 15.6534 9.46701 15.6741 9.50282C15.695 9.53881 15.7126 9.57711 15.7259 9.61469C15.7542 9.69478 15.748 9.72774 15.748 9.68H7.748ZM9.58636 14.6775C10.5185 15.7261 11.6311 16.5597 12.8706 17.1972L16.5294 10.0828C16.0889 9.85633 15.7855 9.6099 15.5656 9.36255L9.58636 14.6775ZM12.8706 17.1971C13.8791 17.7158 15.1926 18.2869 16.7526 18.906L19.7034 11.47C18.2394 10.8891 17.2009 10.4282 16.5294 10.0828L12.8706 17.1971ZM16.7173 18.8917C18.472 19.6075 19.7865 20.2166 20.7099 20.7185L24.5301 13.6895C23.2455 12.9914 21.632 12.2565 19.7387 11.4843L16.7173 18.8917ZM20.7099 20.7185C21.2921 21.0349 21.7888 21.4618 22.2191 22.04L28.6369 17.264C27.5312 15.7782 26.1559 14.5731 24.5301 13.6895L20.7099 20.7185ZM22.2548 22.0873C22.4265 22.3111 22.616 22.6878 22.616 23.468H30.616C30.616 21.2242 30.0135 19.0569 28.6012 17.2167L22.2548 22.0873ZM22.616 23.468C22.616 25.1094 22.0806 26.033 21.0579 26.7602L25.6941 33.2798C28.9914 30.935 30.616 27.4906 30.616 23.468H22.616ZM21.065 26.7552C19.816 27.6393 17.8475 28.288 14.772 28.288V36.288C18.8965 36.288 22.664 35.4247 25.6871 33.2848L21.065 26.7552ZM49.3449 24.404L45.8898 26.4195L45.9502 26.523L46.0167 26.6228L49.3449 24.404ZM48.9489 27.824L45.9216 25.2095L45.89 25.2462L45.8592 25.2836L48.9489 27.824ZM45.1689 30.812L43.2177 27.3202L43.2066 27.3264L43.1956 27.3327L45.1689 30.812ZM34.1169 30.128L36.9207 27.2751L34.1169 30.128ZM33.0729 19.904L36.6627 21.6685L36.6686 21.6566L36.6743 21.6447L33.0729 19.904ZM35.9529 16.484L33.7194 13.1656L33.7045 13.1757L33.6896 13.1859L35.9529 16.484ZM43.5129 16.484L40.6845 19.3124L40.705 19.3329L40.7258 19.3531L43.5129 16.484ZM42.9729 24.116L40.1445 21.2876V21.2876L42.9729 24.116ZM36.9609 26.924L36.0063 23.0396L30.97 24.2773L33.4464 28.8341L36.9609 26.924ZM44.0529 27.464L45.964 30.9779L45.9747 30.9722L45.9852 30.9663L44.0529 27.464ZM47.6529 24.476L44.6159 21.8728L44.5903 21.9028L44.5652 21.9332L47.6529 24.476ZM37.2849 20.3L33.862 18.2303L33.8442 18.2598L33.8269 18.2895L37.2849 20.3ZM36.3849 24.116H32.3849V29.1762L37.3084 28.0079L36.3849 24.116ZM39.7329 22.604L37.1901 19.5163L39.7329 22.604ZM40.5609 19.184L37.488 21.7447L37.6042 21.8841L37.7325 22.0124L40.5609 19.184ZM48.6249 27.972C48.1414 27.972 47.552 27.8526 46.981 27.51C46.4225 27.1749 46.0802 26.7459 45.8898 26.4195L52.8001 22.3885C51.9753 20.9746 50.4749 19.972 48.6249 19.972V27.972ZM46.0167 26.6228C45.8116 26.3151 45.7167 26.0374 45.6735 25.8594C45.652 25.7704 45.6421 25.7017 45.6375 25.6585C45.6329 25.6153 45.6329 25.592 45.6329 25.592H53.6329C53.6329 24.6401 53.4606 23.3664 52.6731 22.1852L46.0167 26.6228ZM45.6329 25.592C45.6329 25.7637 45.6116 25.7823 45.6375 25.698C45.6674 25.6005 45.7469 25.4119 45.9216 25.2095L51.9762 30.4385C53.261 28.9508 53.6329 27.1511 53.6329 25.592H45.6329ZM45.8592 25.2836C45.3751 25.8724 44.5524 26.5743 43.2177 27.3202L47.1202 34.3038C49.0495 33.2257 50.7468 31.9356 52.0386 30.3644L45.8592 25.2836ZM43.1956 27.3327C42.1891 27.9035 41.141 28.18 39.9849 28.18V36.18C42.5249 36.18 44.9328 35.5445 47.1423 34.2913L43.1956 27.3327ZM39.9849 28.18C38.1955 28.18 37.3648 27.7115 36.9207 27.2751L31.3132 32.9809C33.6531 35.2805 36.7343 36.18 39.9849 36.18V28.18ZM36.9207 27.2751C36.455 26.8175 36.0289 26.0643 36.0289 24.512H28.0289C28.0289 27.7117 28.9948 30.7025 31.3132 32.9809L36.9207 27.2751ZM36.0289 24.512C36.0289 23.4366 36.25 22.5081 36.6627 21.6685L29.4831 18.1395C28.5039 20.1319 28.0289 22.2754 28.0289 24.512H36.0289ZM36.6743 21.6447C37.0916 20.7813 37.6104 20.1979 38.2163 19.7821L33.6896 13.1859C31.8475 14.4501 30.4463 16.1467 29.4715 18.1633L36.6743 21.6447ZM38.1864 19.8023C38.7489 19.4238 39.3695 19.224 40.1649 19.224V11.224C37.8404 11.224 35.653 11.8642 33.7194 13.1656L38.1864 19.8023ZM40.1649 19.224C40.4588 19.224 40.598 19.268 40.637 19.2827C40.6642 19.2929 40.6687 19.2966 40.6845 19.3124L46.3414 13.6556C44.6228 11.937 42.4213 11.224 40.1649 11.224V19.224ZM40.7258 19.3531C40.7266 19.3539 40.7206 19.3478 40.7137 19.3373C40.707 19.327 40.7083 19.3259 40.7143 19.3419C40.7263 19.3738 40.7729 19.5171 40.7729 19.832H48.7729C48.7729 17.5775 48.0737 15.3378 46.3001 13.6149L40.7258 19.3531ZM40.7729 19.832C40.7729 20.398 40.6152 20.8169 40.1445 21.2876L45.8014 26.9444C47.7307 25.0151 48.7729 22.578 48.7729 19.832H40.7729ZM40.1445 21.2876C39.7424 21.6896 38.5945 22.4035 36.0063 23.0396L37.9156 30.8084C40.9914 30.0525 43.8514 28.8944 45.8014 26.9444L40.1445 21.2876ZM33.4464 28.8341C34.9814 31.6584 37.8033 32.58 40.3809 32.58V24.58C39.9564 24.58 39.8884 24.5074 40.0092 24.5658C40.0762 24.5983 40.1716 24.6575 40.2698 24.751C40.3683 24.8447 40.4355 24.9404 40.4754 25.0139L33.4464 28.8341ZM40.3809 32.58C42.3587 32.58 44.2519 31.9091 45.964 30.9779L42.1419 23.9501C41.118 24.5069 40.5632 24.58 40.3809 24.58V32.58ZM45.9852 30.9663C47.8183 29.955 49.4107 28.6338 50.7407 27.0188L44.5652 21.9332C43.8792 22.7662 43.0716 23.437 42.1206 23.9617L45.9852 30.9663ZM50.69 27.0792C50.569 27.2202 50.3326 27.4523 49.9532 27.649C49.5544 27.8558 49.0949 27.972 48.6249 27.972V19.972C46.8341 19.972 45.4741 20.8717 44.6159 21.8728L50.69 27.0792ZM39.5529 14.752C36.7819 14.752 34.9197 16.4811 33.862 18.2303L40.7079 22.3697C40.8133 22.1954 40.7951 22.2925 40.5749 22.4428C40.459 22.5219 40.3025 22.6046 40.1095 22.6652C39.9156 22.7261 39.7246 22.752 39.5529 22.752V14.752ZM33.8269 18.2895C32.7997 20.0563 32.3849 22.0328 32.3849 24.044H40.3849C40.3849 23.1272 40.5702 22.6077 40.743 22.3105L33.8269 18.2895ZM32.3849 24.044V24.116H40.3849V24.044H32.3849ZM37.3084 28.0079C39.1073 27.5811 40.8454 26.8696 42.2758 25.6917L37.1901 19.5163C36.9884 19.6824 36.4946 19.9789 35.4614 20.2241L37.3084 28.0079ZM42.2758 25.6917C43.8197 24.4202 44.9569 22.5785 44.9569 20.264H36.9569C36.9569 20.0682 37.0085 19.8484 37.1065 19.661C37.1951 19.4918 37.2663 19.4535 37.1901 19.5163L42.2758 25.6917ZM44.9569 20.264C44.9569 18.9971 44.5635 17.5297 43.3894 16.3556L37.7325 22.0124C37.4425 21.7224 37.2308 21.3792 37.1024 21.029C36.9793 20.6933 36.9569 20.4191 36.9569 20.264H44.9569ZM43.6338 16.6233C42.5134 15.2787 40.97 14.752 39.5529 14.752V22.752C39.3242 22.752 38.9652 22.7131 38.5533 22.5366C38.126 22.3535 37.7614 22.0728 37.488 21.7447L43.6338 16.6233ZM77.6258 24.404L74.1706 26.4195L74.231 26.523L74.2976 26.6228L77.6258 24.404ZM77.2298 27.824L74.2025 25.2095L74.1623 25.2561L74.1235 25.3038L77.2298 27.824ZM73.8458 30.956L76.0646 34.2842L73.8458 30.956ZM63.5138 28.508L67.133 26.8048L63.9936 20.1335L60.1127 26.4026L63.5138 28.508ZM61.0298 31.1L63.3185 34.3805H63.3185L61.0298 31.1ZM52.6778 29.408L49.1938 31.3733L49.2089 31.3999L49.2243 31.4263L52.6778 29.408ZM51.2738 17.924L55.2599 18.2562L55.621 13.924H51.2738V17.924ZM48.3218 17.528L45.362 20.2187L45.426 20.2891L45.4933 20.3564L48.3218 17.528ZM51.7778 14.252V18.252H55.1245L55.715 14.9577L51.7778 14.252ZM53.6858 7.34L49.9659 5.86936L53.6858 7.34ZM62.7578 1.904L66.1136 -0.272764V-0.272766L62.7578 1.904ZM59.6978 14.252L56.8693 11.4236L50.0409 18.252H59.6978V14.252ZM62.9738 14.252V18.252H66.3205L66.911 14.9577L62.9738 14.252ZM64.8818 7.34L61.1619 5.86936L64.8818 7.34ZM67.8338 2.408L64.921 -0.333462V-0.33346L67.8338 2.408ZM70.8938 14.252L68.0653 11.4236L61.2369 18.252H70.8938V14.252ZM74.9977 14.504L72.1693 17.3324L72.1693 17.3324L74.9977 14.504ZM66.8258 17.924V13.924H63.0679L62.8335 17.6745L66.8258 17.924ZM67.5818 26.708L64.1088 28.6926L64.1264 28.7234L64.1446 28.7539L67.5818 26.708ZM73.1258 27.284L70.6503 24.142L73.1258 27.284ZM75.9338 24.476L78.9584 27.0935L78.9646 27.0864L78.9708 27.0792L75.9338 24.476ZM58.1858 5.396L54.608 3.60714L54.5983 3.62659L54.5888 3.64614L58.1858 5.396ZM56.9258 9.14L53.0486 8.15624L53.0434 8.1769L53.0384 8.1976L56.9258 9.14ZM55.9538 14.432L51.9901 13.8937L50.5666 24.3759L58.5696 17.4581L55.9538 14.432ZM59.1218 10.328L55.4999 8.63026L55.494 8.64282L55.4882 8.65542L59.1218 10.328ZM69.3818 5.396L65.804 3.60715L65.7943 3.62659L65.7848 3.64614L69.3818 5.396ZM68.1217 9.14L64.2446 8.15624L64.2394 8.1769L64.2344 8.1976L68.1217 9.14ZM67.1497 14.432L63.1861 13.8937L61.7626 24.3759L69.7656 17.4581L67.1497 14.432ZM70.3177 10.328L66.6959 8.63026L66.69 8.64282L66.6842 8.65542L70.3177 10.328ZM60.6338 27.212L63.363 30.1362V30.1362L60.6338 27.212ZM62.4698 24.728L66.0299 26.5515L66.6274 25.385L66.4187 24.0911L62.4698 24.728ZM62.4698 17.924L66.4559 18.2562L66.817 13.924H62.4698V17.924ZM55.6298 17.924V13.924H51.8719L51.6375 17.6745L55.6298 17.924ZM56.2778 26.672L52.6678 28.3949L52.6916 28.4447L52.7168 28.4939L56.2778 26.672ZM76.9058 27.972C76.4222 27.972 75.8328 27.8526 75.2618 27.51C74.7033 27.1749 74.3611 26.7459 74.1706 26.4195L81.0809 22.3885C80.2561 20.9746 78.7557 19.972 76.9058 19.972V27.972ZM74.2976 26.6228C74.0924 26.3151 73.9975 26.0374 73.9544 25.8594C73.9328 25.7704 73.9229 25.7017 73.9183 25.6585C73.9137 25.6153 73.9138 25.592 73.9138 25.592H81.9138C81.9138 24.6401 81.7414 23.3664 80.9539 22.1852L74.2976 26.6228ZM73.9138 25.592C73.9138 25.7637 73.8925 25.7823 73.9183 25.698C73.9482 25.6005 74.0277 25.4119 74.2025 25.2095L80.257 30.4385C81.5418 28.9508 81.9138 27.1511 81.9138 25.592H73.9138ZM74.1235 25.3038C73.3166 26.2984 72.4806 27.0587 71.627 27.6278L76.0646 34.2842C77.6589 33.2213 79.0789 31.8936 80.336 30.3442L74.1235 25.3038ZM71.627 27.6278C71.111 27.9718 70.4916 28.18 69.6338 28.18V36.18C71.9439 36.18 74.1326 35.5722 76.0646 34.2842L71.627 27.6278ZM69.6338 28.18C68.728 28.18 68.2352 27.9937 67.9657 27.832C67.7162 27.6823 67.4191 27.4128 67.133 26.8048L59.8945 30.2112C60.7604 32.0512 62.0593 33.6177 63.8498 34.692C65.6203 35.7543 67.6115 36.18 69.6338 36.18V28.18ZM60.1127 26.4026C59.7929 26.9191 59.354 27.3919 58.741 27.8195L63.3185 34.3805C64.7695 33.3681 65.9866 32.1129 66.9148 30.6134L60.1127 26.4026ZM58.741 27.8195C58.3308 28.1057 58.0168 28.18 57.7178 28.18V36.18C59.7707 36.18 61.6647 35.5343 63.3185 34.3805L58.741 27.8195ZM57.7178 28.18C56.7461 28.18 56.4387 27.9158 56.1312 27.3897L49.2243 31.4263C51.0768 34.5962 54.1294 36.18 57.7178 36.18V28.18ZM56.1617 27.4427C55.5671 26.3887 55.0938 24.631 55.0938 21.848H47.0938C47.0938 25.401 47.6764 28.6833 49.1938 31.3733L56.1617 27.4427ZM55.0938 21.848C55.0938 20.8045 55.1472 19.6096 55.2599 18.2562L47.2876 17.5918C47.1604 19.1184 47.0938 20.5395 47.0938 21.848H55.0938ZM51.2738 13.924H49.7978V21.924H51.2738V13.924ZM49.7978 13.924C49.6559 13.924 49.726 13.9082 49.9253 13.9616C50.1202 14.0139 50.6374 14.1868 51.1502 14.6996L45.4933 20.3564C46.9551 21.8182 48.8872 21.924 49.7978 21.924V13.924ZM51.2815 14.8373C51.658 15.2514 51.826 15.6648 51.8978 15.9161C51.9665 16.1563 51.9618 16.2951 51.9618 16.268H43.9618C43.9618 17.261 44.1454 18.8805 45.362 20.2187L51.2815 14.8373ZM51.9618 16.268C51.9618 16.0265 52.0275 16.5862 51.4848 17.2616C51.1919 17.626 50.8118 17.9042 50.4056 18.0727C50.0239 18.2311 49.7195 18.252 49.5818 18.252V10.252C48.1651 10.252 46.4658 10.7359 45.2487 12.2504C44.166 13.5978 43.9618 15.1655 43.9618 16.268H51.9618ZM49.5818 18.252H51.7778V10.252H49.5818V18.252ZM55.715 14.9577C56.1316 12.6337 56.7017 10.5911 57.4056 8.81063L49.9659 5.86936C49.0378 8.21688 48.3359 10.7823 47.8405 13.5463L55.715 14.9577ZM57.4056 8.81063C58.0919 7.07472 58.8372 5.90738 59.5506 5.14946L53.725 -0.33346C52.1343 1.35662 50.9116 3.47728 49.9659 5.86936L57.4056 8.81063ZM59.5506 5.14946C59.8639 4.81651 60.0866 4.67748 60.1989 4.62241C60.2941 4.57575 60.3415 4.572 60.3818 4.572V-3.428C57.6711 -3.428 55.4308 -2.14596 53.725 -0.33346L59.5506 5.14946ZM60.3818 4.572C60.2779 4.572 60.0411 4.54288 59.7757 4.39412C59.5184 4.24988 59.4085 4.09085 59.4019 4.08076L66.1136 -0.272766C64.8444 -2.22941 62.8245 -3.428 60.3818 -3.428V4.572ZM59.4019 4.08076C59.4574 4.16633 59.6218 4.47345 59.6218 5.252H67.6217C67.6217 3.34255 67.2101 1.41767 66.1136 -0.272764L59.4019 4.08076ZM59.6218 5.252C59.6218 7.47099 58.8122 9.48072 56.8693 11.4236L62.5262 17.0804C65.8153 13.7913 67.6217 9.801 67.6217 5.252H59.6218ZM59.6978 18.252H62.9738V10.252H59.6978V18.252ZM66.911 14.9577C67.3276 12.6337 67.8977 10.5911 68.6016 8.81063L61.1619 5.86936C60.2338 8.21688 59.5319 10.7823 59.0365 13.5463L66.911 14.9577ZM68.6016 8.81063C69.2879 7.07472 70.0332 5.90738 70.7466 5.14946L64.921 -0.33346C63.3303 1.35662 62.1076 3.47728 61.1619 5.86936L68.6016 8.81063ZM70.7466 5.14946C71.0599 4.81651 71.2826 4.67748 71.3949 4.62241C71.4901 4.57575 71.5375 4.572 71.5778 4.572V-3.428C68.8671 -3.428 66.6268 -2.14596 64.921 -0.333462L70.7466 5.14946ZM71.5778 4.572C71.4739 4.572 71.2371 4.54288 70.9717 4.39412C70.7144 4.24988 70.6044 4.09085 70.5979 4.08076L77.3096 -0.272764C76.0404 -2.2294 74.0205 -3.428 71.5778 -3.428V4.572ZM70.5979 4.08076C70.6534 4.16633 70.8177 4.47345 70.8177 5.252H78.8177C78.8177 3.34255 78.4061 1.41767 77.3096 -0.272764L70.5979 4.08076ZM70.8177 5.252C70.8177 7.47099 70.0082 9.48072 68.0653 11.4236L73.7222 17.0804C77.0113 13.7913 78.8177 9.801 78.8177 5.252H70.8177ZM70.8938 18.252H74.1698V10.252H70.8938V18.252ZM74.1698 18.252C74.0891 18.252 73.8409 18.2454 73.5001 18.1417C73.1433 18.0331 72.6391 17.8022 72.1693 17.3324L77.8262 11.6756C76.5582 10.4076 74.9882 10.252 74.1698 10.252V18.252ZM72.1693 17.3324C71.6111 16.7742 71.4015 16.1906 71.3243 15.9039C71.2827 15.7495 71.2654 15.63 71.2577 15.5599C71.2499 15.4885 71.2498 15.4462 71.2498 15.44H79.2498C79.2498 14.7869 79.1895 13.0389 77.8262 11.6756L72.1693 17.3324ZM71.2498 15.44C71.2498 15.2988 71.2824 14.9804 71.4846 14.6102C71.6908 14.2323 71.9638 14.0017 72.1482 13.8891C72.3061 13.7927 72.3491 13.8114 72.1637 13.8491C71.9834 13.8858 71.6683 13.924 71.1818 13.924V21.924C72.8147 21.924 74.7105 21.6981 76.3173 20.7169C78.245 19.5398 79.2498 17.5902 79.2498 15.44H71.2498ZM71.1818 13.924H66.8258V21.924H71.1818V13.924ZM62.8335 17.6745C62.7562 18.9128 62.7178 20.172 62.7178 21.452H70.7178C70.7178 20.332 70.7514 19.2392 70.818 18.1735L62.8335 17.6745ZM62.7178 21.452C62.7178 24.0147 62.9713 26.702 64.1088 28.6926L71.0547 24.7234C71.0936 24.7915 70.9841 24.6176 70.8808 23.9892C70.783 23.3942 70.7178 22.5625 70.7178 21.452H62.7178ZM64.1446 28.7539C65.5365 31.0924 67.8517 32.22 70.3898 32.22V24.22C70.2861 24.22 70.411 24.2021 70.6301 24.3201C70.7342 24.3762 70.8267 24.4459 70.9008 24.5189C70.9732 24.5902 71.0092 24.6457 71.0189 24.6621L64.1446 28.7539ZM70.3898 32.22C72.297 32.22 74.086 31.6198 75.6012 30.426L70.6503 24.142C70.5923 24.1877 70.5626 24.1981 70.553 24.2013C70.5423 24.205 70.4965 24.22 70.3898 24.22V32.22ZM75.6012 30.426C76.6777 29.5778 77.8029 28.4288 78.9584 27.0935L72.9091 21.8585C71.9046 23.0192 71.1578 23.7422 70.6503 24.142L75.6012 30.426ZM78.9708 27.0792C78.8499 27.2202 78.6134 27.4523 78.234 27.649C77.8353 27.8558 77.3758 27.972 76.9058 27.972V19.972C75.1149 19.972 73.7549 20.8717 72.8967 21.8728L78.9708 27.0792ZM59.4098 0.0279999C57.5061 0.0279999 56.3093 1.19261 55.8528 1.70282C55.3067 2.31316 54.9045 3.01426 54.608 3.60714L61.7635 7.18486C61.923 6.86574 61.9528 6.88284 61.8147 7.03718C61.738 7.12287 61.53 7.34088 61.1729 7.55292C60.7985 7.77522 60.1926 8.028 59.4098 8.028V0.0279999ZM54.5888 3.64614C53.9843 4.88873 53.485 6.43623 53.0486 8.15624L60.8029 10.1238C61.1825 8.62777 61.5232 7.67927 61.7827 7.14586L54.5888 3.64614ZM53.0384 8.1976C52.6163 9.93847 52.269 11.8401 51.9901 13.8937L59.9174 14.9703C60.1665 13.1359 60.4672 11.5095 60.8132 10.0824L53.0384 8.1976ZM58.5696 17.4581C60.3636 15.9074 61.7924 14.0923 62.7553 12.0006L55.4882 8.65542C55.0591 9.58771 54.3759 10.5086 53.3379 11.4059L58.5696 17.4581ZM62.7436 12.0257C63.628 10.1389 64.2018 8.15793 64.2018 6.152H56.2018C56.2018 6.64206 56.0555 7.4451 55.4999 8.63026L62.7436 12.0257ZM64.2018 6.152C64.2018 5.30876 64.1383 4.1984 63.7517 3.16147C63.5487 2.61724 63.166 1.84359 62.4221 1.1786C61.5947 0.438951 60.5318 0.0279999 59.4098 0.0279999V8.028C58.5517 8.028 57.7198 7.70555 57.0904 7.1429C56.5445 6.65491 56.3268 6.14675 56.2558 5.95653C56.1332 5.62759 56.2018 5.57924 56.2018 6.152H64.2018ZM70.6058 0.0279999C68.7021 0.0279999 67.5053 1.19261 67.0488 1.70282C66.5027 2.31316 66.1005 3.01426 65.804 3.60715L72.9595 7.18485C73.119 6.86574 73.1488 6.88284 73.0107 7.03718C72.9341 7.12287 72.726 7.34088 72.3689 7.55292C71.9945 7.77522 71.3886 8.028 70.6058 8.028V0.0279999ZM65.7848 3.64614C65.1803 4.88873 64.681 6.43623 64.2446 8.15624L71.9989 10.1238C72.3785 8.62777 72.7192 7.67927 72.9787 7.14586L65.7848 3.64614ZM64.2344 8.1976C63.8123 9.93847 63.465 11.8401 63.1861 13.8937L71.1134 14.9703C71.3625 13.1359 71.6632 11.5095 72.0092 10.0824L64.2344 8.1976ZM69.7656 17.4581C71.5596 15.9074 72.9884 14.0923 73.9513 12.0006L66.6842 8.65542C66.2551 9.58772 65.5719 10.5086 64.5339 11.4059L69.7656 17.4581ZM73.9396 12.0257C74.824 10.1389 75.3978 8.15793 75.3978 6.152H67.3978C67.3978 6.64206 67.2515 7.4451 66.6959 8.63026L73.9396 12.0257ZM75.3978 6.152C75.3978 5.30876 75.3343 4.1984 74.9477 3.16147C74.7447 2.61724 74.362 1.84359 73.6181 1.1786C72.7907 0.438951 71.7278 0.0279999 70.6058 0.0279999V8.028C69.7477 8.028 68.9158 7.70555 68.2864 7.1429C67.7405 6.65491 67.5228 6.14675 67.4518 5.95653C67.3292 5.62759 67.3978 5.57924 67.3978 6.152H75.3978ZM58.4738 32.22C60.5301 32.22 62.1784 31.2419 63.363 30.1362L57.9045 24.2878C57.781 24.403 57.7632 24.3895 57.8622 24.3433C57.9765 24.2899 58.1911 24.22 58.4738 24.22V32.22ZM63.363 30.1362C64.4605 29.1119 65.3404 27.8977 66.0299 26.5515L58.9096 22.9045C58.5911 23.5263 58.247 23.9681 57.9045 24.2878L63.363 30.1362ZM66.4187 24.0911C66.346 23.6402 66.2898 22.9148 66.2898 21.848H58.2898C58.2898 23.1332 58.3535 24.3278 58.5208 25.3649L66.4187 24.0911ZM66.2898 21.848C66.2898 20.8045 66.3432 19.6096 66.4559 18.2562L58.4836 17.5918C58.3564 19.1184 58.2898 20.5395 58.2898 21.848H66.2898ZM62.4698 13.924H55.6298V21.924H62.4698V13.924ZM51.6375 17.6745C51.5602 18.9128 51.5218 20.172 51.5218 21.452H59.5218C59.5218 20.332 59.5554 19.2392 59.622 18.1735L51.6375 17.6745ZM51.5218 21.452C51.5218 23.9666 51.7539 26.4799 52.6678 28.3949L59.8877 24.9491C59.8883 24.9505 59.8797 24.9326 59.8648 24.891C59.8499 24.8496 59.8305 24.7895 59.8083 24.7077C59.7634 24.5416 59.7141 24.3102 59.6695 24.0017C59.579 23.3774 59.5218 22.5384 59.5218 21.452H51.5218ZM52.7168 28.4939C53.7337 30.4816 55.6511 32.22 58.4738 32.22V24.22C58.7914 24.22 59.1873 24.3239 59.5274 24.5636C59.8243 24.7729 59.8917 24.9536 59.8387 24.8501L52.7168 28.4939ZM80.3277 12.164L77.5691 15.0606L77.6061 15.0958L77.6441 15.1301L80.3277 12.164ZM80.5437 8.096L83.1376 11.141L83.1469 11.133L80.5437 8.096ZM85.0797 12.02L87.73 15.016L87.7617 14.9879L87.7928 14.9592L85.0797 12.02ZM78.8877 30.524L75.504 32.6572L75.5204 32.6833L75.5373 32.7091L78.8877 30.524ZM78.2397 21.992L74.2957 21.3254L74.2918 21.3482L74.2882 21.371L78.2397 21.992ZM79.3197 17.24L83.1562 18.3721L83.1634 18.3476L83.1703 18.323L79.3197 17.24ZM83.0637 20.624L86.9718 21.4767L86.9756 21.4591L86.9793 21.4415L83.0637 20.624ZM85.0797 27.32L82.3621 24.385L85.0797 27.32ZM87.6717 24.476L84.6347 21.8728L84.6166 21.8939L84.5988 21.9153L87.6717 24.476ZM89.3637 24.404L85.9086 26.4195L85.969 26.523L86.0355 26.6228L89.3637 24.404ZM88.9677 27.824L85.9404 25.2095L85.9056 25.2498L85.8719 25.291L88.9677 27.824ZM82.5957 8.848C82.3805 8.848 82.3442 8.82221 82.4277 8.84737C82.5255 8.87687 82.7584 8.96894 83.0114 9.19786L77.6441 15.1301C79.1695 16.5103 81.0646 16.848 82.5957 16.848V8.848ZM83.0863 9.26745C83.2725 9.44474 83.4144 9.6642 83.4976 9.88219C83.575 10.085 83.5717 10.2064 83.5717 10.184H75.5717C75.5717 11.8748 76.1116 13.6725 77.5691 15.0606L83.0863 9.26745ZM83.5717 10.184C83.5717 10.2916 83.5476 10.4912 83.441 10.7201C83.3352 10.9476 83.2033 11.085 83.1376 11.141L77.9499 5.05103C76.4235 6.35128 75.5717 8.15406 75.5717 10.184H83.5717ZM83.1469 11.133C83.1307 11.1469 83.1059 11.1655 83.0735 11.1841C83.041 11.2028 83.0095 11.2167 82.9828 11.226C82.9259 11.2458 82.9288 11.232 83.0277 11.232V3.232C81.2031 3.232 79.4198 3.79104 77.9406 5.05897L83.1469 11.133ZM83.0277 11.232C83.1509 11.232 83.1576 11.2473 83.0843 11.2253C83.0019 11.2006 82.8665 11.1427 82.7225 11.03L87.653 4.72998C86.2277 3.61452 84.5671 3.232 83.0277 3.232V11.232ZM82.7225 11.03C82.512 10.8653 82.3023 10.6178 82.1624 10.3074C82.0292 10.012 82.0157 9.78632 82.0157 9.716H90.0157C90.0157 7.87544 89.3082 6.02542 87.653 4.72998L82.7225 11.03ZM82.0157 9.716C82.0157 9.76049 82.0094 9.67006 82.0759 9.50649C82.1468 9.33183 82.2572 9.18181 82.3666 9.08079L87.7928 14.9592C89.3483 13.5234 90.0157 11.6316 90.0157 9.716H82.0157ZM82.4294 9.02401C82.48 8.97929 82.5355 8.93975 82.592 8.90751C82.6481 8.87551 82.695 8.85653 82.7258 8.84627C82.7863 8.82611 82.7581 8.848 82.5957 8.848V16.848C84.3616 16.848 86.2115 16.3593 87.73 15.016L82.4294 9.02401ZM82.3077 28.18C81.9945 28.18 81.9414 28.1249 82.026 28.1658C82.0675 28.186 82.1183 28.2182 82.1663 28.261C82.2136 28.3031 82.2358 28.3354 82.2382 28.3389L75.5373 32.7091C77.1401 35.1667 79.6835 36.18 82.3077 36.18V28.18ZM82.2714 28.3908C82.108 28.1316 81.8437 27.4887 81.8437 26.132H73.8437C73.8437 28.4233 74.2754 30.7084 75.504 32.6572L82.2714 28.3908ZM81.8437 26.132C81.8437 25.3428 81.9434 24.1899 82.1912 22.6129L74.2882 21.371C74.008 23.1541 73.8437 24.7612 73.8437 26.132H81.8437ZM82.1838 22.6586C82.4486 21.0916 82.7747 19.6648 83.1562 18.3721L75.4833 16.1079C75.0007 17.7432 74.6068 19.4844 74.2957 21.3254L82.1838 22.6586ZM83.1703 18.323C83.2216 18.1406 83.2471 18.114 83.2093 18.1834C83.1729 18.2501 83.0222 18.5077 82.6825 18.7795L77.6849 12.5325C76.3475 13.6025 75.7642 15.1079 75.4691 16.157L83.1703 18.323ZM82.6825 18.7795C82.3037 19.0825 81.9714 19.1837 81.8559 19.2126C81.7413 19.2412 81.7414 19.224 81.9117 19.224V11.224C80.8016 11.224 79.1077 11.3943 77.6849 12.5325L82.6825 18.7795ZM81.9117 19.224C82.2056 19.224 81.7265 19.2959 81.0699 18.8582C80.6886 18.604 80.3133 18.2175 80.0553 17.7014C79.8055 17.2018 79.7477 16.7464 79.7477 16.448H87.7477C87.7477 14.8748 87.0623 13.2383 85.5075 12.2018C84.2389 11.3561 82.8418 11.224 81.9117 11.224V19.224ZM79.7477 16.448C79.7477 16.3914 79.7424 16.6052 79.6293 17.2954C79.5284 17.9113 79.3702 18.7428 79.1482 19.8065L86.9793 21.4415C87.4076 19.3901 87.7477 17.5495 87.7477 16.448H79.7477ZM79.1557 19.7713C78.5928 22.351 78.1997 24.5529 78.1997 25.988H86.1997C86.1997 25.5511 86.3826 24.177 86.9718 21.4767L79.1557 19.7713ZM78.1997 25.988C78.1997 26.9611 78.3127 28.2382 78.91 29.4329L86.0654 25.8551C86.1285 25.9814 86.1649 26.0833 86.1848 26.1482C86.2048 26.2132 86.2117 26.2518 86.2126 26.2566C86.2135 26.2619 86.21 26.2429 86.2064 26.1955C86.2028 26.1484 86.1997 26.0801 86.1997 25.988H78.1997ZM78.91 29.4329C79.3002 30.2132 79.9237 30.9768 80.8355 31.5172C81.7332 32.0491 82.6655 32.22 83.4597 32.22V24.22C83.798 24.22 84.3403 24.2949 84.9139 24.6348C85.5018 24.9832 85.8673 25.4588 86.0654 25.8551L78.91 29.4329ZM83.4597 32.22C85.5322 32.22 87.0655 30.9327 87.7973 30.255L82.3621 24.385C82.1816 24.552 82.1451 24.5545 82.2461 24.4984C82.3303 24.4516 82.7659 24.22 83.4597 24.22V32.22ZM87.7973 30.255C88.6386 29.4761 89.6343 28.369 90.7446 27.0367L84.5988 21.9153C83.5491 23.1749 82.8169 23.9639 82.3621 24.385L87.7973 30.255ZM90.7087 27.0792C90.5878 27.2202 90.3514 27.4523 89.972 27.649C89.5732 27.8558 89.1137 27.972 88.6437 27.972V19.972C86.8529 19.972 85.4928 20.8717 84.6347 21.8728L90.7087 27.0792ZM88.6437 27.972C88.1602 27.972 87.5708 27.8526 86.9997 27.51C86.4413 27.1749 86.099 26.7459 85.9086 26.4195L92.8188 22.3885C91.994 20.9746 90.4937 19.972 88.6437 19.972V27.972ZM86.0355 26.6228C85.8304 26.3151 85.7355 26.0374 85.6923 25.8594C85.6707 25.7704 85.6609 25.7017 85.6563 25.6585C85.6517 25.6153 85.6517 25.592 85.6517 25.592H93.6517C93.6517 24.6401 93.4794 23.3664 92.6919 22.1852L86.0355 26.6228ZM85.6517 25.592C85.6517 25.7637 85.6304 25.7823 85.6563 25.698C85.6861 25.6005 85.7657 25.4119 85.9404 25.2095L91.995 30.4385C93.2798 28.9508 93.6517 27.1511 93.6517 25.592H85.6517ZM85.8719 25.291C83.6728 27.9788 82.484 28.18 82.3077 28.18V36.18C86.2595 36.18 89.5106 33.4772 92.0635 30.357L85.8719 25.291ZM90.2311 30.74L86.4858 32.1445L86.501 32.1852L86.5172 32.2256L90.2311 30.74ZM91.0231 17.24L94.8369 18.4461L94.8402 18.4358L94.8434 18.4256L91.0231 17.24ZM92.0671 15.728L94.2471 19.0818L94.2665 19.0691L94.2859 19.0562L92.0671 15.728ZM94.9111 18.68L91.0473 17.6451L91.0386 17.6774L91.0305 17.7099L94.9111 18.68ZM93.9751 23.864L89.9915 23.5019L97.7096 25.297L93.9751 23.864ZM96.6391 18.824L93.4533 16.4052L96.6391 18.824ZM99.5191 16.052L97.5252 12.5844L97.5061 12.5954L97.4872 12.6065L99.5191 16.052ZM103.695 22.64L107.603 23.4935L107.605 23.4834L103.695 22.64ZM105.747 27.356L108.405 30.3456L108.411 30.3398L105.747 27.356ZM108.411 24.476L105.374 21.8728L105.358 21.8912L105.343 21.9098L108.411 24.476ZM110.103 24.404L106.648 26.4195L106.708 26.523L106.775 26.6228L110.103 24.404ZM109.707 27.824L106.68 25.2095L106.64 25.2561L106.601 25.3038L109.707 27.824ZM106.359 30.956L104.11 27.6483L104.094 27.6589L104.079 27.6696L106.359 30.956ZM99.5551 31.136L96.5323 33.7557L96.5544 33.7811L96.5768 33.8062L99.5551 31.136ZM99.1231 24.44L95.2056 23.6316L95.201 23.6541L95.1966 23.6765L99.1231 24.44ZM97.8631 21.956L94.5952 19.6493L94.5883 19.659L94.5815 19.6688L97.8631 21.956ZM96.1351 25.124L92.4936 23.4688L92.4811 23.4964L92.4689 23.5242L96.1351 25.124ZM94.7311 29.3L90.8468 28.3448L90.8415 28.3666L90.8363 28.3885L94.7311 29.3ZM93.7951 31.604L90.7957 28.9575L90.7903 28.9637L90.7848 28.97L93.7951 31.604ZM92.1751 28.18C92.4591 28.18 92.9324 28.2698 93.386 28.6058C93.8045 28.9158 93.9382 29.2373 93.945 29.2544L86.5172 32.2256C86.908 33.2027 87.5577 34.2442 88.6242 35.0342C89.7258 35.8502 90.9791 36.18 92.1751 36.18V28.18ZM93.9764 29.3355C93.8835 29.0877 93.6911 28.1629 93.6911 26.132H85.6911C85.6911 28.3251 85.8587 30.4723 86.4858 32.1445L93.9764 29.3355ZM93.6911 26.132C93.6911 23.3968 94.0795 20.8414 94.8369 18.4461L87.2093 16.0339C86.1907 19.2546 85.6911 22.6272 85.6911 26.132H93.6911ZM94.8434 18.4256C94.8533 18.3934 94.8328 18.475 94.7377 18.6128C94.6361 18.7598 94.4744 18.934 94.2471 19.0818L89.8871 12.3742C88.4302 13.3212 87.6185 14.7152 87.2028 16.0544L94.8434 18.4256ZM94.2859 19.0562C94.0834 19.1912 93.9328 19.2318 93.9057 19.2383C93.8833 19.2437 93.9551 19.224 94.1551 19.224V11.224C92.8258 11.224 91.2492 11.4659 89.8483 12.3998L94.2859 19.0562ZM94.1551 19.224C94.2462 19.224 94.2002 19.231 94.0639 19.2067C93.9909 19.1937 93.8639 19.1667 93.7014 19.1113C93.5409 19.0566 93.3073 18.9611 93.0431 18.796L97.2831 12.012C96.0598 11.2474 94.7149 11.224 94.1551 11.224V19.224ZM93.0431 18.796C92.3747 18.3782 91.9335 17.7894 91.6926 17.2172C91.4739 16.6978 91.4511 16.2736 91.4511 16.088H99.4511C99.4511 15.0911 99.1459 13.1762 97.2831 12.012L93.0431 18.796ZM91.4511 16.088C91.4511 15.9111 91.4685 15.8247 91.4583 15.895C91.4513 15.9439 91.4344 16.044 91.4002 16.2082C91.3316 16.5374 91.2176 17.0095 91.0473 17.6451L98.7749 19.7149C98.9646 19.0065 99.1206 18.3746 99.232 17.8398C99.3249 17.3941 99.4511 16.7287 99.4511 16.088H91.4511ZM91.0305 17.7099C90.78 18.7118 90.5726 19.6162 90.4128 20.4155L98.2574 21.9845C98.3856 21.3438 98.5622 20.5682 98.7917 19.6501L91.0305 17.7099ZM90.4128 20.4155C90.2316 21.3213 90.0953 22.3604 89.9915 23.5019L97.9587 24.2261C98.0469 23.2556 98.1506 22.5187 98.2574 21.9845L90.4128 20.4155ZM97.7096 25.297C98.4112 23.4687 99.1346 22.152 99.8249 21.2428L93.4533 16.4052C92.1756 18.088 91.123 20.1313 90.2406 22.431L97.7096 25.297ZM99.8249 21.2428C100.636 20.1743 101.228 19.6881 101.551 19.4975L97.4872 12.6065C95.9384 13.5199 94.61 14.8817 93.4533 16.4052L99.8249 21.2428ZM101.513 19.5196C102.096 19.1844 102.279 19.224 102.147 19.224V11.224C100.431 11.224 98.8623 11.8156 97.5252 12.5844L101.513 19.5196ZM102.147 19.224C102.311 19.224 101.698 19.2621 101.074 18.6374C100.449 18.0127 100.487 17.4006 100.487 17.564H108.487C108.487 16.1674 108.135 14.3853 106.731 12.9806C105.326 11.5759 103.544 11.224 102.147 11.224V19.224ZM100.487 17.564C100.487 18.0154 100.321 19.3133 99.785 21.7966L107.605 23.4834C108.126 21.0707 108.487 18.9846 108.487 17.564H100.487ZM99.7872 21.7866C99.3511 23.7836 99.0111 25.5981 99.0111 26.78H107.011C107.011 26.7894 107.021 26.5461 107.129 25.893C107.227 25.2957 107.383 24.5015 107.603 23.4934L99.7872 21.7866ZM99.0111 26.78C99.0111 27.624 99.1427 28.979 100.034 30.2079C101.098 31.6755 102.679 32.22 104.055 32.22V24.22C104.338 24.22 104.777 24.2693 105.269 24.4957C105.784 24.7322 106.208 25.0943 106.511 25.5121C106.796 25.9057 106.915 26.2652 106.964 26.4704C106.99 26.5761 107.001 26.6568 107.006 26.7054C107.009 26.7304 107.01 26.7492 107.011 26.7613C107.011 26.7733 107.011 26.7797 107.011 26.78H99.0111ZM104.055 32.22C106.046 32.22 107.554 31.1019 108.405 30.3456L103.09 24.3664C102.933 24.5053 102.91 24.4971 103.019 24.4416C103.127 24.3862 103.494 24.22 104.055 24.22V32.22ZM108.411 30.3398C109.304 29.5421 110.341 28.403 111.479 27.0422L105.343 21.9098C104.273 23.189 103.534 23.9699 103.083 24.3722L108.411 30.3398ZM111.448 27.0792C111.327 27.2202 111.091 27.4523 110.711 27.649C110.313 27.8558 109.853 27.972 109.383 27.972V19.972C107.592 19.972 106.232 20.8717 105.374 21.8728L111.448 27.0792ZM109.383 27.972C108.9 27.972 108.31 27.8526 107.739 27.51C107.181 27.1749 106.838 26.7459 106.648 26.4195L113.558 22.3885C112.733 20.9746 111.233 19.972 109.383 19.972V27.972ZM106.775 26.6228C106.57 26.3151 106.475 26.0374 106.432 25.8594C106.41 25.7704 106.4 25.7017 106.396 25.6585C106.391 25.6153 106.391 25.592 106.391 25.592H114.391C114.391 24.6401 114.219 23.3664 113.431 22.1852L106.775 26.6228ZM106.391 25.592C106.391 25.7637 106.37 25.7823 106.396 25.698C106.426 25.6005 106.505 25.4119 106.68 25.2095L112.734 30.4385C114.019 28.9508 114.391 27.1511 114.391 25.592H106.391ZM106.601 25.3038C105.783 26.3113 104.949 27.0778 104.11 27.6483L108.608 34.2637C110.169 33.2022 111.567 31.8807 112.813 30.3442L106.601 25.3038ZM104.079 27.6696C103.611 27.9941 103.073 28.18 102.327 28.18V36.18C104.606 36.18 106.755 35.5499 108.639 34.2424L104.079 27.6696ZM102.327 28.18C102.085 28.18 102.044 28.1447 102.126 28.1757C102.169 28.1921 102.237 28.2232 102.316 28.2765C102.396 28.3302 102.47 28.3951 102.533 28.4658L96.5768 33.8062C98.1768 35.5908 100.339 36.18 102.327 36.18V28.18ZM102.578 28.5163C102.68 28.6341 102.697 28.7127 102.682 28.6644C102.663 28.603 102.619 28.4121 102.619 28.04H94.6191C94.6191 29.9547 95.0618 32.0589 96.5323 33.7557L102.578 28.5163ZM102.619 28.04C102.619 27.8034 102.709 26.957 103.05 25.2035L95.1966 23.6765C94.8656 25.379 94.6191 26.9326 94.6191 28.04H102.619ZM103.041 25.2484C103.345 23.7707 103.591 22.3482 103.591 21.308H95.5911C95.5911 21.2985 95.5866 21.4731 95.518 21.9319C95.4546 22.3563 95.3529 22.9181 95.2056 23.6316L103.041 25.2484ZM103.591 21.308C103.591 20.7818 103.523 19.6789 102.788 18.6099C101.868 17.2707 100.44 16.732 99.1951 16.732V24.732C98.7759 24.732 98.2157 24.6545 97.6233 24.3673C97.0119 24.0709 96.5317 23.6305 96.1959 23.1421C95.593 22.2651 95.5911 21.4502 95.5911 21.308H103.591ZM99.1951 16.732C97.4442 16.732 96.2812 17.7622 95.9216 18.0927C95.3989 18.573 94.9554 19.1391 94.5952 19.6493L101.131 24.2627C101.347 23.9569 101.413 23.911 101.335 23.9833C101.291 24.023 101.124 24.1732 100.836 24.3286C100.556 24.4798 99.983 24.732 99.1951 24.732V16.732ZM94.5815 19.6688C93.8402 20.7325 93.1495 22.0259 92.4936 23.4688L99.7766 26.7792C100.321 25.5821 100.782 24.7635 101.145 24.2432L94.5815 19.6688ZM92.4689 23.5242C91.7979 25.062 91.2586 26.6704 90.8468 28.3448L98.6154 30.2552C98.9236 29.0016 99.3203 27.826 99.8013 26.7238L92.4689 23.5242ZM90.8363 28.3885C90.7347 28.8229 90.647 29.0842 90.5932 29.2165C90.5679 29.2788 90.562 29.2829 90.5831 29.2459C90.6028 29.2115 90.6684 29.1018 90.7957 28.9575L96.7944 34.2505C97.8615 33.0412 98.345 31.4115 98.6259 30.2115L90.8363 28.3885ZM90.7848 28.97C91.5031 28.149 92.3051 28.18 92.1751 28.18V36.18C93.5331 36.18 95.4151 35.827 96.8054 34.238L90.7848 28.97ZM123.822 16.7L121.324 19.8235L121.493 19.9586L121.675 20.0746L123.822 16.7ZM124.182 18.428L120.223 17.8623L120.219 17.8892L120.215 17.9161L124.182 18.428ZM123.282 24.188L127.224 24.8676L127.227 24.8492L127.23 24.8307L123.282 24.188ZM122.598 28.328L126.556 28.9109L126.557 28.9023L126.558 28.8937L122.598 28.328ZM118.89 42.98L115.224 41.3806L115.218 41.3954L115.211 41.4102L118.89 42.98ZM109.71 47.228L112.539 44.3996L112.516 44.3771L112.494 44.355L109.71 47.228ZM110.574 38.768L107.284 36.4933L107.278 36.5027L107.271 36.5122L110.574 38.768ZM118.134 31.568L120.58 34.7331L121.845 33.7559L122.088 32.1762L118.134 31.568ZM118.35 30.164L122.304 30.7722L114.966 28.0327L118.35 30.164ZM116.73 31.676L118.572 35.227L118.596 35.2146L118.619 35.2019L116.73 31.676ZM111.222 30.56L114.312 28.0196L111.222 30.56ZM111.222 20.876L114.77 22.7246L114.775 22.7144L114.78 22.7043L111.222 20.876ZM114.75 16.736L117.055 20.0054L117.065 19.998L114.75 16.736ZM120.51 15.476L117.353 17.9318L117.506 18.1283L117.682 18.3044L120.51 15.476ZM120.978 16.556L117.078 17.4425L117.95 21.2812L121.803 20.4702L120.978 16.556ZM117.666 27.536L120.866 29.936L117.666 27.536ZM118.746 24.656L114.815 23.9202L114.81 23.947L114.805 23.9738L118.746 24.656ZM119.898 18.5L123.83 19.2358L124.739 14.3808L119.801 14.5012L119.898 18.5ZM117.162 19.652L119.766 22.689L119.79 22.6679L119.815 22.6464L117.162 19.652ZM115.146 22.532L118.834 24.0809L115.146 22.532ZM114.822 28.004L111.699 30.5028L111.748 30.5642L111.8 30.6237L114.822 28.004ZM115.11 42.728L111.581 40.8456L111.569 40.8687L111.557 40.8919L115.11 42.728ZM117.306 35.852L121.212 36.7166L123.802 25.016L114.703 32.815L117.306 35.852ZM113.31 40.136L116.677 42.2958L113.31 40.136ZM112.302 44.492L108.791 46.4074L108.855 46.5258L108.928 46.6395L112.302 44.492ZM122.562 20.412C122.67 20.412 122.607 20.4226 122.436 20.3834C122.28 20.3477 121.824 20.2237 121.324 19.8235L126.321 13.5765C124.956 12.484 123.333 12.412 122.562 12.412V20.412ZM121.675 20.0746C120.949 19.6125 120.56 18.9808 120.379 18.5056C120.218 18.0796 120.218 17.7779 120.218 17.744H128.218C128.218 16.802 128.011 14.6239 125.97 13.3254L121.675 20.0746ZM120.218 17.744C120.218 17.835 120.217 17.892 120.215 17.9208C120.214 17.9343 120.214 17.9364 120.215 17.9286C120.215 17.9212 120.218 17.8982 120.223 17.8623L128.142 18.9937C128.205 18.5537 128.218 18.1104 128.218 17.744H120.218ZM120.215 17.9161C120.13 18.5792 119.843 20.423 119.334 23.5453L127.23 24.8307C127.73 21.761 128.043 19.7648 128.15 18.9399L120.215 17.9161ZM119.341 23.5084C118.983 25.5852 118.744 27.0231 118.639 27.7623L126.558 28.8937C126.645 28.2889 126.862 26.9668 127.224 24.8676L119.341 23.5084ZM118.641 27.7451C117.754 33.7706 116.584 38.2639 115.224 41.3806L122.557 44.5794C124.317 40.5441 125.619 35.2694 126.556 28.9109L118.641 27.7451ZM115.211 41.4102C114.586 42.8771 113.987 43.6442 113.561 44.0154C113.213 44.3192 112.97 44.38 112.698 44.38V52.38C117.657 52.38 120.772 48.7625 122.57 44.5498L115.211 41.4102ZM112.698 44.38C112.507 44.38 112.449 44.3508 112.472 44.3598C112.482 44.3635 112.498 44.3712 112.516 44.3829C112.534 44.3945 112.542 44.4024 112.539 44.3996L106.882 50.0564C108.498 51.6724 110.561 52.38 112.698 52.38V44.38ZM112.494 44.355C112.5 44.3612 112.516 44.3784 112.535 44.4062C112.553 44.4341 112.566 44.46 112.573 44.4778C112.579 44.4949 112.576 44.4927 112.571 44.4636C112.566 44.4336 112.558 44.3731 112.558 44.276H104.558C104.558 46.4119 105.267 48.4923 106.927 50.101L112.494 44.355ZM112.558 44.276C112.558 43.6393 112.813 42.583 113.878 41.0238L107.271 36.5122C105.648 38.889 104.558 41.5047 104.558 44.276H112.558ZM113.865 41.0427C114.844 39.626 116.957 37.5329 120.58 34.7331L115.689 28.4029C111.92 31.3151 108.993 34.022 107.284 36.4933L113.865 41.0427ZM122.088 32.1762L122.304 30.7722L114.397 29.5558L114.181 30.9598L122.088 32.1762ZM114.966 28.0327C114.925 28.0968 114.9 28.119 114.842 28.1501L118.619 35.2019C119.905 34.513 120.96 33.5272 121.735 32.2953L114.966 28.0327ZM114.889 28.125C114.808 28.1673 114.764 28.1797 114.755 28.182C114.748 28.1838 114.761 28.18 114.786 28.18V36.18C116.153 36.18 117.428 35.8203 118.572 35.227L114.889 28.125ZM114.786 28.18C114.533 28.18 114.441 28.1362 114.435 28.1335C114.427 28.1301 114.419 28.1257 114.406 28.1153C114.391 28.1042 114.359 28.0767 114.312 28.0196L108.133 33.1004C109.835 35.1704 112.19 36.18 114.786 36.18V28.18ZM114.312 28.0196C114.149 27.8215 113.89 27.3779 113.89 26.312H105.89C105.89 28.7501 106.52 31.1385 108.133 33.1004L114.312 28.0196ZM113.89 26.312C113.89 25.0362 114.179 23.8582 114.77 22.7246L107.675 19.0274C106.49 21.3018 105.89 23.7478 105.89 26.312H113.89ZM114.78 22.7043C115.399 21.501 116.163 20.6343 117.055 20.0054L112.446 13.4666C110.41 14.9017 108.822 16.795 107.665 19.0477L114.78 22.7043ZM117.065 19.998C117.949 19.3709 118.724 19.152 119.466 19.152V11.152C116.897 11.152 114.528 11.9891 112.435 13.474L117.065 19.998ZM119.466 19.152C119.466 19.152 119.42 19.1521 119.339 19.1422C119.26 19.1325 119.12 19.1096 118.938 19.0533C118.586 18.944 117.914 18.6525 117.353 17.9318L123.668 13.0202C122.271 11.2246 120.175 11.152 119.466 11.152V19.152ZM117.682 18.3044C117.301 17.9235 117.142 17.5741 117.101 17.4804C117.052 17.3663 117.054 17.336 117.078 17.4425L124.879 15.6695C124.729 15.0079 124.377 13.6852 123.339 12.6476L117.682 18.3044ZM121.803 20.4702C121.923 20.4448 122.165 20.412 122.562 20.412V12.412C121.76 12.412 120.946 12.4752 120.154 12.6418L121.803 20.4702ZM116.082 32.544C118.444 32.544 120.013 31.0737 120.866 29.936L114.466 25.136C114.411 25.2102 114.489 25.08 114.745 24.9174C115.035 24.7331 115.5 24.544 116.082 24.544V32.544ZM120.866 29.936C121.894 28.5662 122.414 26.9198 122.688 25.3382L114.805 23.9738C114.73 24.4064 114.644 24.7086 114.569 24.9075C114.494 25.1068 114.447 25.1625 114.466 25.136L120.866 29.936ZM122.678 25.3918L123.83 19.2358L115.967 17.7642L114.815 23.9202L122.678 25.3918ZM119.801 14.5012C117.742 14.5514 115.952 15.3809 114.51 16.6576L119.815 22.6464C119.951 22.5253 120.024 22.4943 120.029 22.4925C120.032 22.4912 120.027 22.4936 120.015 22.496C120.01 22.4971 120.006 22.4978 120.002 22.4983C119.998 22.4988 119.996 22.4988 119.996 22.4988L119.801 14.5012ZM114.559 16.615C113.17 17.8055 112.161 19.3102 111.459 20.9831L118.834 24.0809C119.14 23.3538 119.475 22.9385 119.766 22.689L114.559 16.615ZM111.459 20.9831C110.742 22.6896 110.39 24.4898 110.39 26.348H118.39C118.39 25.5182 118.543 24.7744 118.834 24.0809L111.459 20.9831ZM110.39 26.348C110.39 27.4819 110.588 29.1137 111.699 30.5028L117.946 25.5052C118.226 25.8547 118.332 26.1685 118.369 26.3103C118.404 26.4463 118.39 26.4764 118.39 26.348H110.39ZM111.8 30.6237C112.959 31.9616 114.535 32.544 116.082 32.544V24.544C116.277 24.544 116.588 24.5784 116.947 24.7324C117.317 24.8909 117.622 25.1271 117.845 25.3843L111.8 30.6237ZM113.094 48.888C115.04 48.888 116.347 47.7477 116.973 47.0773C117.667 46.3335 118.217 45.4287 118.664 44.5641L111.557 40.8919C111.419 41.1588 111.306 41.35 111.221 41.48C111.132 41.6146 111.098 41.6472 111.124 41.6187C111.144 41.5974 111.293 41.4385 111.588 41.272C111.899 41.0956 112.418 40.888 113.094 40.888V48.888ZM118.64 44.6104C119.674 42.6719 120.498 39.9416 121.212 36.7166L113.401 34.9874C112.723 38.0504 112.083 39.9041 111.581 40.8456L118.64 44.6104ZM114.703 32.815C112.716 34.518 111.058 36.2385 109.944 37.9762L116.677 42.2958C117.195 41.4895 118.201 40.354 119.91 38.889L114.703 32.815ZM109.944 37.9762C108.932 39.5534 108.086 41.436 108.086 43.484H116.086C116.086 43.569 116.069 43.5192 116.149 43.3005C116.23 43.0807 116.387 42.748 116.677 42.2958L109.944 37.9762ZM108.086 43.484C108.086 44.3329 108.232 45.3836 108.791 46.4074L115.814 42.5766C116.085 43.0724 116.086 43.4511 116.086 43.484H108.086ZM108.928 46.6395C109.951 48.2474 111.609 48.888 113.094 48.888V40.888C113.401 40.888 113.883 40.9452 114.415 41.2113C114.971 41.4892 115.396 41.9032 115.677 42.3445L108.928 46.6395ZM133.051 32.108L130.393 35.0976L130.42 35.1216L130.447 35.145L133.051 32.108ZM132.763 28.544L135.591 31.3724V31.3724L132.763 28.544ZM135.859 27.968L135.163 31.9071L135.29 31.9294L135.417 31.9435L135.859 27.968ZM136.831 28.076L136.389 32.0515L141.006 32.5646L140.828 27.9223L136.831 28.076ZM136.399 26.312L132.73 27.9069L132.759 27.9729L132.79 28.0378L136.399 26.312ZM135.463 24.728L132.228 27.0807L132.254 27.1167L132.281 27.1522L135.463 24.728ZM134.383 23.36L137.393 20.726L133.553 16.3381L130.842 21.4995L134.383 23.36ZM132.151 26.888L129.019 24.399L128.999 24.4239L128.98 24.4492L132.151 26.888ZM129.775 29.552L126.986 26.684L126.966 26.7037L126.946 26.7236L129.775 29.552ZM127.471 29.804L124.398 32.3647L124.453 32.4309L124.511 32.4947L127.471 29.804ZM127.615 27.428L130.702 29.9708L130.711 29.9606L130.719 29.9504L127.615 27.428ZM128.083 26.852L131.187 29.3744L131.193 29.3675L128.083 26.852ZM131.071 22.82L134.445 24.9675L134.457 24.9485L134.469 24.9295L131.071 22.82ZM132.367 20.336L128.753 18.6198L128.736 18.657L128.719 18.6945L132.367 20.336ZM134.131 16.412L137.799 18.0069L137.803 17.9977L134.131 16.412ZM138.379 15.008L140.034 11.3665L140.034 11.3665L138.379 15.008ZM138.631 16.268L142.454 17.4443V17.4443L138.631 16.268ZM138.235 17.204L134.713 15.3076L134.684 15.361L134.657 15.4151L138.235 17.204ZM137.947 20.588L134.45 22.5306L134.49 22.6031L134.533 22.6738L137.947 20.588ZM139.135 22.208L142.316 19.7838L142.277 19.7319L142.236 19.6813L139.135 22.208ZM140.863 24.8L137.333 26.6824L137.371 26.7534L137.412 26.8229L140.863 24.8ZM140.755 29.984L137.215 28.121L137.206 28.1389L137.196 28.1568L140.755 29.984ZM138.811 32.144L141.007 35.4868L138.811 32.144ZM135.931 28.972C135.605 28.972 135.453 28.9334 135.424 28.9247C135.413 28.9213 135.435 28.9269 135.48 28.9508C135.526 28.9753 135.588 29.0142 135.654 29.071L130.447 35.145C132.093 36.5551 134.115 36.972 135.931 36.972V28.972ZM135.708 29.1184C135.691 29.1034 135.794 29.19 135.899 29.4011C136.013 29.629 136.079 29.899 136.079 30.164H128.079C128.079 32.2583 129.081 33.9315 130.393 35.0976L135.708 29.1184ZM136.079 30.164C136.079 30.3515 136.042 30.5933 135.935 30.8469C135.829 31.0979 135.691 31.2721 135.591 31.3724L129.934 25.7156C128.756 26.8937 128.079 28.4401 128.079 30.164H136.079ZM135.591 31.3724C135.343 31.6206 135.08 31.7558 134.894 31.8189C134.727 31.8756 134.667 31.86 134.779 31.86V23.86C133.238 23.86 131.387 24.263 129.934 25.7156L135.591 31.3724ZM134.779 31.86C134.796 31.86 134.915 31.8634 135.163 31.9071L136.554 24.0289C135.986 23.9286 135.385 23.86 134.779 23.86V31.86ZM135.417 31.9435C135.849 31.9915 136.173 32.0275 136.389 32.0515L137.272 24.1005C137.056 24.0765 136.732 24.0405 136.3 23.9925L135.417 31.9435ZM140.828 27.9223C140.783 26.7647 140.511 25.6405 140.007 24.5862L132.79 28.0378C132.814 28.0875 132.83 28.1393 132.834 28.2297L140.828 27.9223ZM140.067 24.7171C139.692 23.855 139.213 23.0502 138.644 22.3038L132.281 27.1522C132.48 27.4138 132.625 27.665 132.73 27.9069L140.067 24.7171ZM138.698 22.3753C138.261 21.7755 137.826 21.2212 137.393 20.726L131.372 25.994C131.611 26.2668 131.896 26.6245 132.228 27.0807L138.698 22.3753ZM130.842 21.4995C130.178 22.7628 129.565 23.7122 129.019 24.399L135.282 29.377C136.224 28.1918 137.099 26.7892 137.924 25.2205L130.842 21.4995ZM128.98 24.4492C128.379 25.2301 127.716 25.975 126.986 26.684L132.563 32.42C133.562 31.449 134.482 30.4179 135.321 29.3268L128.98 24.4492ZM126.946 26.7236C126.988 26.6816 127.133 26.5478 127.396 26.423C127.675 26.2908 128.024 26.2 128.407 26.2V34.2C130.217 34.2 131.636 33.3477 132.603 32.3804L126.946 26.7236ZM128.407 26.2C128.679 26.2 129.044 26.2484 129.443 26.4171C129.849 26.5888 130.182 26.84 130.43 27.1133L124.511 32.4947C125.571 33.6614 126.992 34.2 128.407 34.2V26.2ZM130.543 27.2433C130.728 27.4648 130.881 27.7301 130.982 28.023C131.082 28.3115 131.111 28.568 131.111 28.76H123.111C123.111 30.0151 123.504 31.2926 124.398 32.3647L130.543 27.2433ZM131.111 28.76C131.111 28.9981 131.067 29.2471 130.978 29.4826C130.89 29.7131 130.781 29.8753 130.702 29.9708L124.527 24.8852C123.665 25.932 123.111 27.2568 123.111 28.76H131.111ZM130.719 29.9504L131.187 29.3744L124.978 24.3296L124.51 24.9056L130.719 29.9504ZM131.193 29.3675C132.553 27.685 133.656 26.2076 134.445 24.9675L127.696 20.6725C127.141 21.5444 126.252 22.755 124.973 24.3365L131.193 29.3675ZM134.469 24.9295C135.016 24.0479 135.529 23.0559 136.014 21.9775L128.719 18.6945C128.34 19.5361 127.989 20.2001 127.672 20.7105L134.469 24.9295ZM135.98 22.0522C136.463 21.034 137.071 19.6798 137.799 18.0069L130.462 14.8171C129.75 16.4562 129.182 17.718 128.753 18.6198L135.98 22.0522ZM137.803 17.9977C137.763 18.0896 137.688 18.2263 137.558 18.3722C137.427 18.5202 137.277 18.6368 137.13 18.7185C136.845 18.8769 136.721 18.828 136.975 18.828V10.828C135.788 10.828 134.47 11.0431 133.237 11.7295C131.945 12.449 131.013 13.5412 130.458 14.8263L137.803 17.9977ZM136.975 18.828C137.084 18.828 137.169 18.8305 137.23 18.8337C137.293 18.837 137.321 18.8405 137.321 18.8405C137.32 18.8404 137.308 18.8389 137.287 18.8351C137.267 18.8314 137.232 18.8247 137.187 18.8135C137.105 18.7934 136.938 18.747 136.723 18.6495L140.034 11.3665C138.909 10.8551 137.657 10.828 136.975 10.828V18.828ZM136.723 18.6495C136.354 18.4817 135.815 18.1417 135.379 17.5081C134.928 16.851 134.775 16.1496 134.775 15.584H142.775C142.775 14.7544 142.556 13.825 141.972 12.9759C141.404 12.1503 140.667 11.6543 140.034 11.3665L136.723 18.6495ZM134.775 15.584C134.775 15.4067 134.789 15.2715 134.798 15.1959C134.809 15.1162 134.82 15.0617 134.824 15.039C134.833 14.9978 134.833 15.0096 134.807 15.0917L142.454 17.4443C142.557 17.1095 142.775 16.3799 142.775 15.584H134.775ZM134.807 15.0917C134.794 15.1342 134.767 15.2059 134.713 15.3076L141.756 19.1004C142.038 18.5781 142.275 18.0258 142.454 17.4443L134.807 15.0917ZM134.657 15.4151C134.098 16.533 133.587 17.9124 133.587 19.4H141.587C141.587 19.5708 141.558 19.6262 141.585 19.5331C141.611 19.4434 141.675 19.2666 141.812 18.9929L134.657 15.4151ZM133.587 19.4C133.587 20.6463 133.997 21.7156 134.45 22.5306L141.443 18.6454C141.416 18.5964 141.587 18.8737 141.587 19.4H133.587ZM134.533 22.6738C134.932 23.3261 135.455 24.0243 136.034 24.7347L142.236 19.6813C141.758 19.0957 141.489 18.7139 141.36 18.5022L134.533 22.6738ZM135.953 24.6322C136.653 25.5517 137.09 26.2256 137.333 26.6824L144.392 22.9176C143.868 21.9344 143.152 20.8803 142.316 19.7838L135.953 24.6322ZM137.412 26.8229C137.445 26.8795 137.475 26.9445 137.475 27.104H145.475C145.475 25.5835 145.096 24.1125 144.313 22.7771L137.412 26.8229ZM137.475 27.104C137.475 27.4479 137.4 27.7701 137.215 28.121L144.294 31.847C145.07 30.3739 145.475 28.7761 145.475 27.104H137.475ZM137.196 28.1568C137.058 28.4261 136.881 28.6256 136.614 28.8012L141.007 35.4868C142.42 34.5584 143.539 33.3179 144.313 31.8112L137.196 28.1568ZM136.614 28.8012C136.475 28.8922 136.291 28.972 135.931 28.972V36.972C137.73 36.972 139.466 36.4998 141.007 35.4868L136.614 28.8012Z" fill="url(#paint1_linear_50_1982)" mask="url(#path-1-outside-1_50_1982)"/>
</g>
<defs>
<filter id="filter0_ddi_50_1982" x="0.224121" y="-1.42798" width="145.25" height="57.808" filterUnits="userSpaceOnUse" color-interpolation-filters="sRGB">
<feFlood flood-opacity="0" result="BackgroundImageFix"/>
<feColorMatrix in="SourceAlpha" type="matrix" values="0 0 0 0 0 0 0 0 0 0 0 0 0 0 0 0 0 0 127 0" result="hardAlpha"/>
<feOffset dy="3"/>
<feGaussianBlur stdDeviation="1"/>
<feComposite in2="hardAlpha" operator="out"/>
<feColorMatrix type="matrix" values="0 0 0 0 0 0 0 0 0 0.466667 0 0 0 0 0.713726 0 0 0 1 0"/>
<feBlend mode="normal" in2="BackgroundImageFix" result="effect1_dropShadow_50_1982"/>
<feColorMatrix in="SourceAlpha" type="matrix" values="0 0 0 0 0 0 0 0 0 0 0 0 0 0 0 0 0 0 127 0" result="hardAlpha"/>
<feOffset dy="4"/>
<feGaussianBlur stdDeviation="2"/>
<feComposite in2="hardAlpha" operator="out"/>
<feColorMatrix type="matrix" values="0 0 0 0 0 0 0 0 0 0 0 0 0 0 0 0 0 0 0.25 0"/>
<feBlend mode="normal" in2="effect1_dropShadow_50_1982" result="effect2_dropShadow_50_1982"/>
<feBlend mode="normal" in="SourceGraphic" in2="effect2_dropShadow_50_1982" result="shape"/>
<feColorMatrix in="SourceAlpha" type="matrix" values="0 0 0 0 0 0 0 0 0 0 0 0 0 0 0 0 0 0 127 0" result="hardAlpha"/>
<feOffset dy="-3"/>
<feGaussianBlur stdDeviation="1"/>
<feComposite in2="hardAlpha" operator="arithmetic" k2="-1" k3="1"/>
<feColorMatrix type="matrix" values="0 0 0 0 0.0705882 0 0 0 0 0.301961 0 0 0 0 0.67451 0 0 0 0.5 0"/>
<feBlend mode="difference" in2="shape" result="effect3_innerShadow_50_1982"/>
</filter>
<linearGradient id="paint0_linear_50_1982" x1="-1.2551" y1="-46.3333" x2="157.45" y2="4.29476" gradientUnits="userSpaceOnUse">
<stop stop-color="#0096C7"/>
<stop offset="1" stop-color="#023E8A"/>
</linearGradient>
<linearGradient id="paint1_linear_50_1982" x1="72.5" y1="-23" x2="72.5" y2="57" gradientUnits="userSpaceOnUse">
<stop stop-color="white"/>
<stop offset="1" stop-color="white" stop-opacity="0"/>
</linearGradient>
</defs>
</svg>
