<svg width="60" height="22" viewBox="0 0 60 22" fill="none" xmlns="http://www.w3.org/2000/svg">
<g filter="url(#filter0_d_53_2281)">
<mask id="path-1-outside-1_53_2281" maskUnits="userSpaceOnUse" x="0" y="-1" width="60" height="22" fill="black">
<rect fill="white" y="-1" width="60" height="22"/>
<path d="M7.54 19.16C5.76667 19.16 4.34667 18.8267 3.28 18.16C2.21333 17.48 1.68 16.4467 1.68 15.06C1.68 14.3267 1.80667 13.7667 2.06 13.38C2.31333 12.9933 2.68667 12.8 3.18 12.8C3.54 12.8 3.83333 12.8933 4.06 13.08C4.28667 13.2667 4.4 13.5067 4.4 13.8C4.4 14.0667 4.38 14.3 4.34 14.5C4.34 14.5533 4.32667 14.6467 4.3 14.78C4.28667 14.9133 4.28 15.0533 4.28 15.2C4.28 15.8 4.58 16.2467 5.18 16.54C5.79333 16.8333 6.64667 16.98 7.74 16.98C8.87333 16.98 9.76 16.78 10.4 16.38C11.04 15.9667 11.36 15.3933 11.36 14.66C11.36 14.2067 11.2133 13.82 10.92 13.5C10.6267 13.1667 10.26 12.8933 9.82 12.68C9.38 12.4533 8.76 12.18 7.96 11.86C6.93333 11.46 6.09333 11.08 5.44 10.72C4.8 10.36 4.24667 9.87333 3.78 9.26C3.32667 8.63333 3.1 7.86 3.1 6.94C3.1 5.98 3.35333 5.12667 3.86 4.38C4.38 3.63333 5.12 3.05333 6.08 2.64C7.05333 2.22667 8.19333 2.02 9.5 2.02C10.4733 2.02 11.3667 2.16667 12.18 2.46C12.9933 2.74 13.64 3.17333 14.12 3.76C14.6133 4.34667 14.86 5.06667 14.86 5.92C14.86 6.76 14.7333 7.39333 14.48 7.82C14.2267 8.24667 13.8533 8.46 13.36 8.46C13.0133 8.46 12.72 8.35333 12.48 8.14C12.2533 7.92667 12.14 7.67333 12.14 7.38C12.14 7.12667 12.16 6.89333 12.2 6.68C12.24 6.28 12.26 6.02667 12.26 5.92C12.26 5.36 11.9867 4.93333 11.44 4.64C10.8933 4.34667 10.2133 4.2 9.4 4.2C8.25333 4.2 7.37333 4.41333 6.76 4.84C6.16 5.25333 5.86 5.84 5.86 6.6C5.86 7.10667 6.01333 7.54 6.32 7.9C6.64 8.26 7.03333 8.56 7.5 8.8C7.96667 9.04 8.62 9.32667 9.46 9.66C10.4733 10.0733 11.2867 10.4467 11.9 10.78C12.5133 11.1133 13.0333 11.5667 13.46 12.14C13.9 12.7133 14.12 13.42 14.12 14.26C14.12 15.8333 13.52 17.0467 12.32 17.9C11.1333 18.74 9.54 19.16 7.54 19.16ZM26.8272 12.86C27.0005 12.86 27.1339 12.9467 27.2272 13.12C27.3205 13.2933 27.3672 13.5133 27.3672 13.78C27.3672 14.42 27.1739 14.8 26.7872 14.92C25.9872 15.2 25.1072 15.36 24.1472 15.4C23.8939 16.52 23.3939 17.42 22.6472 18.1C21.9005 18.7667 21.0539 19.1 20.1072 19.1C19.3072 19.1 18.6205 18.9067 18.0472 18.52C17.4872 18.1333 17.0605 17.62 16.7672 16.98C16.4739 16.34 16.3272 15.6467 16.3272 14.9C16.3272 13.8867 16.5205 12.9867 16.9072 12.2C17.2939 11.4 17.8272 10.78 18.5072 10.34C19.1872 9.88667 19.9405 9.66 20.7672 9.66C21.7805 9.66 22.5939 10.0133 23.2072 10.72C23.8339 11.4133 24.2005 12.2733 24.3072 13.3C24.9339 13.26 25.6805 13.1267 26.5472 12.9C26.6539 12.8733 26.7472 12.86 26.8272 12.86ZM20.2672 16.98C20.6939 16.98 21.0605 16.8067 21.3672 16.46C21.6872 16.1133 21.9005 15.6133 22.0072 14.96C21.5939 14.68 21.2739 14.3133 21.0472 13.86C20.8339 13.4067 20.7272 12.9267 20.7272 12.42C20.7272 12.2067 20.7472 11.9933 20.7872 11.78H20.6872C20.1539 11.78 19.7072 12.04 19.3472 12.56C19.0005 13.0667 18.8272 13.7867 18.8272 14.72C18.8272 15.4533 18.9672 16.0133 19.2472 16.4C19.5405 16.7867 19.8805 16.98 20.2672 16.98ZM28.4906 19.1C27.8906 19.1 27.3973 18.8267 27.0106 18.28C26.6373 17.72 26.4506 17.0267 26.4506 16.2C26.4506 15.2 26.5173 14.2867 26.6506 13.46C26.784 12.62 27.004 11.7333 27.3106 10.8C27.444 10.4 27.6306 10.1133 27.8706 9.94C28.1106 9.76667 28.4906 9.68 29.0106 9.68C29.304 9.68 29.504 9.72667 29.6106 9.82C29.7306 9.91333 29.7906 10.0533 29.7906 10.24C29.7906 10.3467 29.7173 10.7067 29.5706 11.32C29.4373 11.8133 29.3306 12.26 29.2506 12.66C28.984 14.06 28.8506 14.9933 28.8506 15.46C28.8506 15.74 28.884 15.94 28.9506 16.06C29.0173 16.1667 29.124 16.22 29.2706 16.22C29.4706 16.22 29.7173 16.02 30.0106 15.62C30.3173 15.22 30.6373 14.6133 30.9706 13.8C31.3173 12.9867 31.6506 11.9867 31.9706 10.8C32.0773 10.4 32.2373 10.1133 32.4506 9.94C32.6773 9.76667 33.0106 9.68 33.4506 9.68C33.7573 9.68 33.9706 9.72 34.0906 9.8C34.2106 9.86667 34.2706 10 34.2706 10.2C34.2706 10.5333 34.104 11.4467 33.7706 12.94C33.3973 14.6467 33.2106 15.7 33.2106 16.1C33.2106 16.3533 33.264 16.5533 33.3706 16.7C33.4773 16.8333 33.6173 16.9 33.7906 16.9C34.0573 16.9 34.3706 16.74 34.7306 16.42C35.104 16.0867 35.5973 15.5533 36.2106 14.82C36.3706 14.6333 36.5506 14.54 36.7506 14.54C36.924 14.54 37.0573 14.62 37.1506 14.78C37.2573 14.94 37.3106 15.16 37.3106 15.44C37.3106 15.9733 37.184 16.3867 36.9306 16.68C36.3573 17.3867 35.7373 17.9667 35.0706 18.42C34.4173 18.8733 33.6706 19.1 32.8306 19.1C32.1906 19.1 31.7173 18.8533 31.4106 18.36C31.1173 17.8667 30.9706 17.1733 30.9706 16.28C30.744 17.1867 30.404 17.8867 29.9506 18.38C29.4973 18.86 29.0106 19.1 28.4906 19.1ZM37.9089 19.1C37.4022 19.1 37.0422 18.8333 36.8289 18.3C36.6289 17.7667 36.5289 16.9133 36.5289 15.74C36.5289 14.0067 36.7756 12.36 37.2689 10.8C37.3889 10.4133 37.5822 10.1333 37.8489 9.96C38.1289 9.77333 38.5156 9.68 39.0089 9.68C39.2756 9.68 39.4622 9.71333 39.5689 9.78C39.6756 9.84667 39.7289 9.97333 39.7289 10.16C39.7289 10.3733 39.6289 10.8533 39.4289 11.6C39.2956 12.1333 39.1889 12.6 39.1089 13C39.0289 13.4 38.9622 13.8933 38.9089 14.48C39.3489 13.3333 39.8422 12.4 40.3889 11.68C40.9356 10.96 41.4689 10.4467 41.9889 10.14C42.5222 9.83333 43.0089 9.68 43.4489 9.68C44.3156 9.68 44.7489 10.1133 44.7489 10.98C44.7489 11.5 44.6022 12.44 44.3089 13.8C44.0556 14.96 43.9289 15.7267 43.9289 16.1C43.9289 16.6333 44.1222 16.9 44.5089 16.9C44.7756 16.9 45.0889 16.74 45.4489 16.42C45.8222 16.0867 46.3156 15.5533 46.9289 14.82C47.0889 14.6333 47.2689 14.54 47.4689 14.54C47.6422 14.54 47.7756 14.62 47.8689 14.78C47.9756 14.94 48.0289 15.16 48.0289 15.44C48.0289 15.9733 47.9022 16.3867 47.6489 16.68C47.0756 17.3867 46.4556 17.9667 45.7889 18.42C45.1356 18.8733 44.3889 19.1 43.5489 19.1C42.8689 19.1 42.3556 18.9067 42.0089 18.52C41.6622 18.12 41.4889 17.5467 41.4889 16.8C41.4889 16.4267 41.5822 15.76 41.7689 14.8C41.9422 13.96 42.0289 13.38 42.0289 13.06C42.0289 12.8467 41.9556 12.74 41.8089 12.74C41.6356 12.74 41.3889 12.9667 41.0689 13.42C40.7622 13.86 40.4422 14.4467 40.1089 15.18C39.7889 15.9133 39.5289 16.6867 39.3289 17.5C39.1822 18.1267 39.0089 18.5533 38.8089 18.78C38.6222 18.9933 38.3222 19.1 37.9089 19.1ZM54.4908 14.54C54.6374 15.6333 54.8508 16.7133 55.1308 17.78C55.1841 17.9533 55.2108 18.1333 55.2108 18.32C55.2108 18.92 54.8441 19.22 54.1108 19.22C53.6974 19.22 53.3774 19.1067 53.1508 18.88C52.9374 18.6533 52.7374 18.2267 52.5508 17.6L52.5308 17.52C52.0241 18.1467 51.5641 18.5667 51.1508 18.78C50.7508 18.9933 50.2841 19.1 49.7508 19.1C48.9374 19.1 48.2641 18.8 47.7308 18.2C47.2108 17.5867 46.9508 16.7933 46.9508 15.82C46.9508 14.7533 47.1774 13.7667 47.6308 12.86C48.0841 11.9533 48.7041 11.2133 49.4908 10.64C50.2774 10.0533 51.1574 9.7 52.1308 9.58C52.3841 7.06 52.8641 4.86667 53.5708 3C54.2908 1.13333 55.2441 0.199999 56.4308 0.199999C57.0041 0.199999 57.4774 0.459999 57.8508 0.98C58.2374 1.5 58.4308 2.28667 58.4308 3.34C58.4308 4.80667 58.0708 6.52 57.3508 8.48C56.6308 10.44 55.6774 12.46 54.4908 14.54ZM56.2108 2.16C55.8241 2.16 55.4574 3.14667 55.1108 5.12C54.7774 7.09333 54.5508 9.24 54.4308 11.56C55.9108 8.36 56.6508 5.76 56.6508 3.76C56.6508 3.25333 56.6041 2.86 56.5108 2.58C56.4308 2.3 56.3308 2.16 56.2108 2.16ZM50.4508 17.08C50.7174 17.08 50.9708 16.98 51.2108 16.78C51.4641 16.58 51.7841 16.1933 52.1708 15.62C52.0374 14.6467 51.9708 13.64 51.9708 12.6C51.9708 12.1867 51.9774 11.8667 51.9908 11.64C51.2574 11.8533 50.6508 12.34 50.1708 13.1C49.6908 13.86 49.4508 14.7 49.4508 15.62C49.4508 16.5933 49.7841 17.08 50.4508 17.08Z"/>
</mask>
<path d="M7.54 19.16C5.76667 19.16 4.34667 18.8267 3.28 18.16C2.21333 17.48 1.68 16.4467 1.68 15.06C1.68 14.3267 1.80667 13.7667 2.06 13.38C2.31333 12.9933 2.68667 12.8 3.18 12.8C3.54 12.8 3.83333 12.8933 4.06 13.08C4.28667 13.2667 4.4 13.5067 4.4 13.8C4.4 14.0667 4.38 14.3 4.34 14.5C4.34 14.5533 4.32667 14.6467 4.3 14.78C4.28667 14.9133 4.28 15.0533 4.28 15.2C4.28 15.8 4.58 16.2467 5.18 16.54C5.79333 16.8333 6.64667 16.98 7.74 16.98C8.87333 16.98 9.76 16.78 10.4 16.38C11.04 15.9667 11.36 15.3933 11.36 14.66C11.36 14.2067 11.2133 13.82 10.92 13.5C10.6267 13.1667 10.26 12.8933 9.82 12.68C9.38 12.4533 8.76 12.18 7.96 11.86C6.93333 11.46 6.09333 11.08 5.44 10.72C4.8 10.36 4.24667 9.87333 3.78 9.26C3.32667 8.63333 3.1 7.86 3.1 6.94C3.1 5.98 3.35333 5.12667 3.86 4.38C4.38 3.63333 5.12 3.05333 6.08 2.64C7.05333 2.22667 8.19333 2.02 9.5 2.02C10.4733 2.02 11.3667 2.16667 12.18 2.46C12.9933 2.74 13.64 3.17333 14.12 3.76C14.6133 4.34667 14.86 5.06667 14.86 5.92C14.86 6.76 14.7333 7.39333 14.48 7.82C14.2267 8.24667 13.8533 8.46 13.36 8.46C13.0133 8.46 12.72 8.35333 12.48 8.14C12.2533 7.92667 12.14 7.67333 12.14 7.38C12.14 7.12667 12.16 6.89333 12.2 6.68C12.24 6.28 12.26 6.02667 12.26 5.92C12.26 5.36 11.9867 4.93333 11.44 4.64C10.8933 4.34667 10.2133 4.2 9.4 4.2C8.25333 4.2 7.37333 4.41333 6.76 4.84C6.16 5.25333 5.86 5.84 5.86 6.6C5.86 7.10667 6.01333 7.54 6.32 7.9C6.64 8.26 7.03333 8.56 7.5 8.8C7.96667 9.04 8.62 9.32667 9.46 9.66C10.4733 10.0733 11.2867 10.4467 11.9 10.78C12.5133 11.1133 13.0333 11.5667 13.46 12.14C13.9 12.7133 14.12 13.42 14.12 14.26C14.12 15.8333 13.52 17.0467 12.32 17.9C11.1333 18.74 9.54 19.16 7.54 19.16ZM26.8272 12.86C27.0005 12.86 27.1339 12.9467 27.2272 13.12C27.3205 13.2933 27.3672 13.5133 27.3672 13.78C27.3672 14.42 27.1739 14.8 26.7872 14.92C25.9872 15.2 25.1072 15.36 24.1472 15.4C23.8939 16.52 23.3939 17.42 22.6472 18.1C21.9005 18.7667 21.0539 19.1 20.1072 19.1C19.3072 19.1 18.6205 18.9067 18.0472 18.52C17.4872 18.1333 17.0605 17.62 16.7672 16.98C16.4739 16.34 16.3272 15.6467 16.3272 14.9C16.3272 13.8867 16.5205 12.9867 16.9072 12.2C17.2939 11.4 17.8272 10.78 18.5072 10.34C19.1872 9.88667 19.9405 9.66 20.7672 9.66C21.7805 9.66 22.5939 10.0133 23.2072 10.72C23.8339 11.4133 24.2005 12.2733 24.3072 13.3C24.9339 13.26 25.6805 13.1267 26.5472 12.9C26.6539 12.8733 26.7472 12.86 26.8272 12.86ZM20.2672 16.98C20.6939 16.98 21.0605 16.8067 21.3672 16.46C21.6872 16.1133 21.9005 15.6133 22.0072 14.96C21.5939 14.68 21.2739 14.3133 21.0472 13.86C20.8339 13.4067 20.7272 12.9267 20.7272 12.42C20.7272 12.2067 20.7472 11.9933 20.7872 11.78H20.6872C20.1539 11.78 19.7072 12.04 19.3472 12.56C19.0005 13.0667 18.8272 13.7867 18.8272 14.72C18.8272 15.4533 18.9672 16.0133 19.2472 16.4C19.5405 16.7867 19.8805 16.98 20.2672 16.98ZM28.4906 19.1C27.8906 19.1 27.3973 18.8267 27.0106 18.28C26.6373 17.72 26.4506 17.0267 26.4506 16.2C26.4506 15.2 26.5173 14.2867 26.6506 13.46C26.784 12.62 27.004 11.7333 27.3106 10.8C27.444 10.4 27.6306 10.1133 27.8706 9.94C28.1106 9.76667 28.4906 9.68 29.0106 9.68C29.304 9.68 29.504 9.72667 29.6106 9.82C29.7306 9.91333 29.7906 10.0533 29.7906 10.24C29.7906 10.3467 29.7173 10.7067 29.5706 11.32C29.4373 11.8133 29.3306 12.26 29.2506 12.66C28.984 14.06 28.8506 14.9933 28.8506 15.46C28.8506 15.74 28.884 15.94 28.9506 16.06C29.0173 16.1667 29.124 16.22 29.2706 16.22C29.4706 16.22 29.7173 16.02 30.0106 15.62C30.3173 15.22 30.6373 14.6133 30.9706 13.8C31.3173 12.9867 31.6506 11.9867 31.9706 10.8C32.0773 10.4 32.2373 10.1133 32.4506 9.94C32.6773 9.76667 33.0106 9.68 33.4506 9.68C33.7573 9.68 33.9706 9.72 34.0906 9.8C34.2106 9.86667 34.2706 10 34.2706 10.2C34.2706 10.5333 34.104 11.4467 33.7706 12.94C33.3973 14.6467 33.2106 15.7 33.2106 16.1C33.2106 16.3533 33.264 16.5533 33.3706 16.7C33.4773 16.8333 33.6173 16.9 33.7906 16.9C34.0573 16.9 34.3706 16.74 34.7306 16.42C35.104 16.0867 35.5973 15.5533 36.2106 14.82C36.3706 14.6333 36.5506 14.54 36.7506 14.54C36.924 14.54 37.0573 14.62 37.1506 14.78C37.2573 14.94 37.3106 15.16 37.3106 15.44C37.3106 15.9733 37.184 16.3867 36.9306 16.68C36.3573 17.3867 35.7373 17.9667 35.0706 18.42C34.4173 18.8733 33.6706 19.1 32.8306 19.1C32.1906 19.1 31.7173 18.8533 31.4106 18.36C31.1173 17.8667 30.9706 17.1733 30.9706 16.28C30.744 17.1867 30.404 17.8867 29.9506 18.38C29.4973 18.86 29.0106 19.1 28.4906 19.1ZM37.9089 19.1C37.4022 19.1 37.0422 18.8333 36.8289 18.3C36.6289 17.7667 36.5289 16.9133 36.5289 15.74C36.5289 14.0067 36.7756 12.36 37.2689 10.8C37.3889 10.4133 37.5822 10.1333 37.8489 9.96C38.1289 9.77333 38.5156 9.68 39.0089 9.68C39.2756 9.68 39.4622 9.71333 39.5689 9.78C39.6756 9.84667 39.7289 9.97333 39.7289 10.16C39.7289 10.3733 39.6289 10.8533 39.4289 11.6C39.2956 12.1333 39.1889 12.6 39.1089 13C39.0289 13.4 38.9622 13.8933 38.9089 14.48C39.3489 13.3333 39.8422 12.4 40.3889 11.68C40.9356 10.96 41.4689 10.4467 41.9889 10.14C42.5222 9.83333 43.0089 9.68 43.4489 9.68C44.3156 9.68 44.7489 10.1133 44.7489 10.98C44.7489 11.5 44.6022 12.44 44.3089 13.8C44.0556 14.96 43.9289 15.7267 43.9289 16.1C43.9289 16.6333 44.1222 16.9 44.5089 16.9C44.7756 16.9 45.0889 16.74 45.4489 16.42C45.8222 16.0867 46.3156 15.5533 46.9289 14.82C47.0889 14.6333 47.2689 14.54 47.4689 14.54C47.6422 14.54 47.7756 14.62 47.8689 14.78C47.9756 14.94 48.0289 15.16 48.0289 15.44C48.0289 15.9733 47.9022 16.3867 47.6489 16.68C47.0756 17.3867 46.4556 17.9667 45.7889 18.42C45.1356 18.8733 44.3889 19.1 43.5489 19.1C42.8689 19.1 42.3556 18.9067 42.0089 18.52C41.6622 18.12 41.4889 17.5467 41.4889 16.8C41.4889 16.4267 41.5822 15.76 41.7689 14.8C41.9422 13.96 42.0289 13.38 42.0289 13.06C42.0289 12.8467 41.9556 12.74 41.8089 12.74C41.6356 12.74 41.3889 12.9667 41.0689 13.42C40.7622 13.86 40.4422 14.4467 40.1089 15.18C39.7889 15.9133 39.5289 16.6867 39.3289 17.5C39.1822 18.1267 39.0089 18.5533 38.8089 18.78C38.6222 18.9933 38.3222 19.1 37.9089 19.1ZM54.4908 14.54C54.6374 15.6333 54.8508 16.7133 55.1308 17.78C55.1841 17.9533 55.2108 18.1333 55.2108 18.32C55.2108 18.92 54.8441 19.22 54.1108 19.22C53.6974 19.22 53.3774 19.1067 53.1508 18.88C52.9374 18.6533 52.7374 18.2267 52.5508 17.6L52.5308 17.52C52.0241 18.1467 51.5641 18.5667 51.1508 18.78C50.7508 18.9933 50.2841 19.1 49.7508 19.1C48.9374 19.1 48.2641 18.8 47.7308 18.2C47.2108 17.5867 46.9508 16.7933 46.9508 15.82C46.9508 14.7533 47.1774 13.7667 47.6308 12.86C48.0841 11.9533 48.7041 11.2133 49.4908 10.64C50.2774 10.0533 51.1574 9.7 52.1308 9.58C52.3841 7.06 52.8641 4.86667 53.5708 3C54.2908 1.13333 55.2441 0.199999 56.4308 0.199999C57.0041 0.199999 57.4774 0.459999 57.8508 0.98C58.2374 1.5 58.4308 2.28667 58.4308 3.34C58.4308 4.80667 58.0708 6.52 57.3508 8.48C56.6308 10.44 55.6774 12.46 54.4908 14.54ZM56.2108 2.16C55.8241 2.16 55.4574 3.14667 55.1108 5.12C54.7774 7.09333 54.5508 9.24 54.4308 11.56C55.9108 8.36 56.6508 5.76 56.6508 3.76C56.6508 3.25333 56.6041 2.86 56.5108 2.58C56.4308 2.3 56.3308 2.16 56.2108 2.16ZM50.4508 17.08C50.7174 17.08 50.9708 16.98 51.2108 16.78C51.4641 16.58 51.7841 16.1933 52.1708 15.62C52.0374 14.6467 51.9708 13.64 51.9708 12.6C51.9708 12.1867 51.9774 11.8667 51.9908 11.64C51.2574 11.8533 50.6508 12.34 50.1708 13.1C49.6908 13.86 49.4508 14.7 49.4508 15.62C49.4508 16.5933 49.7841 17.08 50.4508 17.08Z" fill="url(#paint0_linear_53_2281)"/>
<path d="M3.28 18.16L2.74242 19.0033L2.75 19.008L3.28 18.16ZM2.06 13.38L1.22354 12.832H1.22354L2.06 13.38ZM4.06 13.08L4.69571 12.3081H4.69571L4.06 13.08ZM4.34 14.5L3.35942 14.3039L3.34 14.401V14.5H4.34ZM4.3 14.78L3.31942 14.5839L3.30983 14.6318L3.30496 14.6805L4.3 14.78ZM5.18 16.54L4.74077 17.4384L4.74854 17.4421L5.18 16.54ZM10.4 16.38L10.93 17.228L10.9363 17.2241L10.9425 17.22L10.4 16.38ZM10.92 13.5L10.1693 14.1606L10.176 14.1682L10.1828 14.1757L10.92 13.5ZM9.82 12.68L9.36204 13.569L9.37282 13.5745L9.38373 13.5798L9.82 12.68ZM7.96 11.86L8.33141 10.9315L8.32303 10.9282L7.96 11.86ZM5.44 10.72L4.94972 11.5916L4.9574 11.5958L5.44 10.72ZM3.78 9.26L2.96978 9.84612L2.97686 9.85591L2.98417 9.86552L3.78 9.26ZM3.86 4.38L3.03933 3.80846L3.03252 3.8185L3.86 4.38ZM6.08 2.64L5.68912 1.71954L5.68454 1.72152L6.08 2.64ZM12.18 2.46L11.8407 3.40069L11.8476 3.40316L11.8545 3.40554L12.18 2.46ZM14.12 3.76L13.346 4.39329L13.3546 4.4036L14.12 3.76ZM12.48 8.14L11.7946 8.8682L11.805 8.87795L11.8156 8.88741L12.48 8.14ZM12.2 6.68L13.1829 6.86428L13.1908 6.82215L13.195 6.7795L12.2 6.68ZM11.44 4.64L11.9128 3.75884H11.9128L11.44 4.64ZM6.76 4.84L7.32731 5.66352L7.33106 5.6609L6.76 4.84ZM6.32 7.9L5.55876 8.54847L5.56559 8.55649L5.57259 8.56436L6.32 7.9ZM7.5 8.8L7.95735 7.91071H7.95735L7.5 8.8ZM9.46 9.66L9.8377 8.73402L9.82885 8.73051L9.46 9.66ZM13.46 12.14L12.6578 12.737L12.6622 12.7429L12.6667 12.7488L13.46 12.14ZM12.32 17.9L12.8978 18.7162L12.8995 18.715L12.32 17.9ZM7.54 18.16C5.88078 18.16 4.6653 17.8466 3.81 17.312L2.75 19.008C4.02803 19.8068 5.65256 20.16 7.54 20.16V18.16ZM3.81756 17.3168C3.07047 16.8405 2.68 16.1442 2.68 15.06H0.68C0.68 16.7491 1.3562 18.1195 2.74244 19.0032L3.81756 17.3168ZM2.68 15.06C2.68 14.4168 2.79547 14.0822 2.89646 13.928L1.22354 12.832C0.817859 13.4512 0.68 14.2365 0.68 15.06H2.68ZM2.89646 13.928C2.95065 13.8453 2.9968 13.8 3.18 13.8V11.8C2.37653 11.8 1.67601 12.1414 1.22354 12.832L2.89646 13.928ZM3.18 13.8C3.36224 13.8 3.41445 13.8438 3.42429 13.8519L4.69571 12.3081C4.25222 11.9428 3.71776 11.8 3.18 11.8V13.8ZM3.42429 13.8519C3.43119 13.8576 3.43082 13.8584 3.42669 13.8532C3.42236 13.8478 3.41633 13.8388 3.41075 13.827C3.40517 13.8152 3.40206 13.8048 3.40059 13.7979C3.39918 13.7912 3.4 13.7913 3.4 13.8H5.4C5.4 13.2075 5.15276 12.6845 4.69571 12.3081L3.42429 13.8519ZM3.4 13.8C3.4 14.0197 3.38327 14.1846 3.35942 14.3039L5.32058 14.6961C5.37673 14.4154 5.4 14.1137 5.4 13.8H3.4ZM3.34 14.5C3.34 14.4742 3.34148 14.4583 3.34161 14.457C3.34184 14.4544 3.3416 14.4577 3.34005 14.4686C3.33686 14.4909 3.33056 14.5282 3.31942 14.5839L5.28058 14.9761C5.30634 14.8473 5.34 14.6644 5.34 14.5H3.34ZM3.30496 14.6805C3.28803 14.8498 3.28 15.0232 3.28 15.2H5.28C5.28 15.0835 5.2853 14.9768 5.29504 14.8795L3.30496 14.6805ZM3.28 15.2C3.28 15.6749 3.4016 16.1357 3.67486 16.5426C3.94397 16.9432 4.32053 17.2329 4.74079 17.4384L5.61921 15.6416C5.43947 15.5537 5.36603 15.4734 5.33514 15.4274C5.3084 15.3876 5.28 15.3251 5.28 15.2H3.28ZM4.74854 17.4421C5.55414 17.8274 6.57797 17.98 7.74 17.98V15.98C6.71536 15.98 6.03253 15.8392 5.61146 15.6379L4.74854 17.4421ZM7.74 17.98C8.97313 17.98 10.0703 17.7653 10.93 17.228L9.87 15.532C9.4497 15.7947 8.77353 15.98 7.74 15.98V17.98ZM10.9425 17.22C11.8544 16.6312 12.36 15.7485 12.36 14.66H10.36C10.36 15.0382 10.2256 15.3022 9.85748 15.54L10.9425 17.22ZM12.36 14.66C12.36 13.9687 12.1276 13.3375 11.6572 12.8243L10.1828 14.1757C10.2991 14.3025 10.36 14.4447 10.36 14.66H12.36ZM11.6707 12.8394C11.281 12.3965 10.8038 12.0456 10.2563 11.7802L9.38373 13.5798C9.71622 13.741 9.97233 13.9368 10.1693 14.1606L11.6707 12.8394ZM10.278 11.791C9.79653 11.543 9.14275 11.2561 8.33139 10.9315L7.58861 12.7885C8.37725 13.1039 8.96347 13.3636 9.36204 13.569L10.278 11.791ZM8.32303 10.9282C7.32002 10.5374 6.52388 10.1755 5.92261 9.84416L4.9574 11.5958C5.66279 11.9845 6.54665 12.3826 7.59697 12.7918L8.32303 10.9282ZM5.93026 9.84842C5.41507 9.55863 4.96403 9.16469 4.57583 8.65448L2.98417 9.86552C3.5293 10.582 4.18493 11.1614 4.94974 11.5916L5.93026 9.84842ZM4.59022 8.67388C4.28227 8.24817 4.1 7.69048 4.1 6.94H2.1C2.1 8.02952 2.37107 9.01849 2.96978 9.84612L4.59022 8.67388ZM4.1 6.94C4.1 6.16674 4.30057 5.51168 4.68748 4.9415L3.03252 3.8185C2.4061 4.74165 2.1 5.79325 2.1 6.94H4.1ZM4.68061 4.95149C5.07892 4.37956 5.66075 3.90926 6.47546 3.55848L5.68454 1.72152C4.57925 2.1974 3.68108 2.88711 3.03939 3.80851L4.68061 4.95149ZM6.47087 3.56044C7.29513 3.21042 8.29692 3.02 9.5 3.02V1.02C8.08975 1.02 6.81153 1.24292 5.68913 1.71955L6.47087 3.56044ZM9.5 3.02C10.3721 3.02 11.149 3.15121 11.8407 3.40069L12.5193 1.51931C11.5843 1.18213 10.5746 1.02 9.5 1.02V3.02ZM11.8545 3.40554C12.5165 3.63344 12.9989 3.96892 13.346 4.39324L14.894 3.12676C14.2811 2.37775 13.4702 1.84656 12.5055 1.51446L11.8545 3.40554ZM13.3546 4.4036C13.6791 4.7894 13.86 5.27367 13.86 5.92H15.86C15.86 4.85966 15.5476 3.90393 14.8854 3.1164L13.3546 4.4036ZM13.86 5.92C13.86 6.69025 13.7384 7.11029 13.6201 7.30946L15.3399 8.33054C15.7283 7.67638 15.86 6.82975 15.86 5.92H13.86ZM13.6201 7.30946C13.568 7.39728 13.5286 7.42332 13.5139 7.43176C13.4994 7.44004 13.4586 7.46 13.36 7.46V9.46C14.2088 9.46 14.9076 9.05847 15.3399 8.33054L13.6201 7.30946ZM13.36 7.46C13.2371 7.46 13.1861 7.42969 13.1444 7.39259L11.8156 8.88741C12.2539 9.27698 12.7896 9.46 13.36 9.46V7.46ZM13.1654 7.4118C13.1504 7.39772 13.1427 7.38809 13.1395 7.38364C13.1364 7.3794 13.1366 7.37882 13.1378 7.38163C13.1391 7.38455 13.14 7.3876 13.1404 7.3895C13.1408 7.39124 13.14 7.38858 13.14 7.38H11.14C11.14 7.9674 11.3809 8.47884 11.7946 8.8682L13.1654 7.4118ZM13.14 7.38C13.14 7.17852 13.156 7.00778 13.1829 6.86428L11.2171 6.49571C11.164 6.77888 11.14 7.07481 11.14 7.38H13.14ZM13.195 6.7795C13.2334 6.39605 13.26 6.08732 13.26 5.92H11.26C11.26 5.91989 11.2599 5.9348 11.2578 5.97203C11.2559 6.00687 11.2527 6.05285 11.2481 6.1113C11.2389 6.22825 11.2246 6.38395 11.205 6.58049L13.195 6.7795ZM13.26 5.92C13.26 5.46962 13.1475 5.0316 12.897 4.64057C12.6499 4.25486 12.3029 3.96816 11.9128 3.75884L10.9672 5.52116C11.1237 5.60517 11.1867 5.67847 11.213 5.71943C11.2358 5.75507 11.26 5.81038 11.26 5.92H13.26ZM11.9128 3.75884C11.1826 3.367 10.3287 3.2 9.4 3.2V5.2C10.0979 5.2 10.6041 5.32634 10.9672 5.52116L11.9128 3.75884ZM9.4 3.2C8.15113 3.2 7.03763 3.4287 6.18894 4.01909L7.33106 5.6609C7.70904 5.39797 8.35554 5.2 9.4 5.2V3.2ZM6.1927 4.01649C5.30819 4.62582 4.86 5.52791 4.86 6.6H6.86C6.86 6.15209 7.01182 5.88085 7.3273 5.66351L6.1927 4.01649ZM4.86 6.6C4.86 7.32599 5.08649 7.99406 5.55876 8.54847L7.08124 7.25153C6.94018 7.08594 6.86 6.88734 6.86 6.6H4.86ZM5.57259 8.56436C5.98162 9.02452 6.4761 9.39792 7.04265 9.68929L7.95735 7.91071C7.59057 7.72208 7.29838 7.49548 7.06741 7.23564L5.57259 8.56436ZM7.04265 9.68929C7.55144 9.95095 8.23916 10.2514 9.09115 10.5895L9.82885 8.73051C9.00084 8.40194 8.38189 8.12905 7.95735 7.91071L7.04265 9.68929ZM9.08232 10.5859C10.0783 10.9922 10.8543 11.3498 11.4225 11.6586L12.3775 9.90137C11.719 9.54351 10.8683 9.15447 9.83768 8.73407L9.08232 10.5859ZM11.4225 11.6586C11.9054 11.9211 12.3155 12.2771 12.6578 12.737L14.2622 11.543C13.7511 10.8562 13.1213 10.3056 12.3775 9.90137L11.4225 11.6586ZM12.6667 12.7488C12.9516 13.1201 13.12 13.6029 13.12 14.26H15.12C15.12 13.2371 14.8484 12.3066 14.2533 11.5312L12.6667 12.7488ZM13.12 14.26C13.12 15.5357 12.6561 16.4339 11.7405 17.085L12.8995 18.715C14.3839 17.6594 15.12 16.131 15.12 14.26H13.12ZM11.7422 17.0838C10.7773 17.7668 9.40888 18.16 7.54 18.16V20.16C9.67113 20.16 11.4893 19.7132 12.8978 18.7162L11.7422 17.0838ZM27.2272 13.12L26.3467 13.5941L26.3467 13.5941L27.2272 13.12ZM26.7872 14.92L26.4908 13.9649L26.4737 13.9702L26.4568 13.9761L26.7872 14.92ZM24.1472 15.4L24.1056 14.4009L23.3407 14.4327L23.1718 15.1794L24.1472 15.4ZM22.6472 18.1L23.3132 18.846L23.3205 18.8393L22.6472 18.1ZM18.0472 18.52L17.479 19.3429L17.488 19.3491L18.0472 18.52ZM16.9072 12.2L17.8047 12.6411L17.8075 12.6352L16.9072 12.2ZM18.5072 10.34L19.0505 11.1796L19.0619 11.1721L18.5072 10.34ZM23.2072 10.72L22.452 11.3755L22.4586 11.3831L22.4653 11.3905L23.2072 10.72ZM24.3072 13.3L23.3125 13.4033L23.4118 14.3592L24.3709 14.298L24.3072 13.3ZM26.5472 12.9L26.3046 11.9298L26.2942 11.9325L26.5472 12.9ZM21.3672 16.46L20.6324 15.7817L20.6252 15.7895L20.6182 15.7974L21.3672 16.46ZM22.0072 14.96L22.9941 15.1211L23.0971 14.4905L22.568 14.1321L22.0072 14.96ZM21.0472 13.86L20.1424 14.2858L20.1474 14.2966L20.1528 14.3072L21.0472 13.86ZM20.7872 11.78L21.7701 11.9643L21.9921 10.78H20.7872V11.78ZM19.3472 12.56L18.525 11.9908L18.5219 11.9953L19.3472 12.56ZM19.2472 16.4L18.4372 16.9865L18.4438 16.9955L18.4505 17.0044L19.2472 16.4ZM26.8272 13.86C26.7385 13.86 26.6223 13.835 26.5122 13.7634C26.4086 13.6961 26.3609 13.6204 26.3467 13.5941L28.1077 12.6459C27.8687 12.2022 27.4255 11.86 26.8272 11.86V13.86ZM26.3467 13.5941C26.3387 13.5793 26.3672 13.6227 26.3672 13.78H28.3672C28.3672 13.4039 28.3023 13.0074 28.1077 12.6459L26.3467 13.5941ZM26.3672 13.78C26.3672 13.8913 26.3586 13.9711 26.3484 14.025C26.3382 14.079 26.3282 14.0968 26.3309 14.0915C26.3348 14.0838 26.3515 14.0553 26.388 14.0238C26.4254 13.9916 26.464 13.9733 26.4908 13.9649L27.0836 15.8751C27.5497 15.7304 27.9016 15.4148 28.1135 14.9985C28.3084 14.6152 28.3672 14.1852 28.3672 13.78H26.3672ZM26.4568 13.9761C25.7613 14.2196 24.98 14.3644 24.1056 14.4009L24.1888 16.3991C25.2343 16.3556 26.2131 16.1804 27.1175 15.8639L26.4568 13.9761ZM23.1718 15.1794C22.9573 16.128 22.5489 16.8369 21.9739 17.3607L23.3205 18.8393C24.2388 18.0031 24.8305 16.912 25.1225 15.6206L23.1718 15.1794ZM21.9812 17.3541C21.4063 17.8674 20.7932 18.1 20.1072 18.1V20.1C21.3145 20.1 22.3948 19.666 23.3132 18.8459L21.9812 17.3541ZM20.1072 18.1C19.4743 18.1 18.9897 17.9495 18.6063 17.6909L17.488 19.3491C18.2513 19.8638 19.1401 20.1 20.1072 20.1V18.1ZM18.6154 17.6971C18.2088 17.4163 17.8973 17.0456 17.6763 16.5633L15.8581 17.3967C16.2237 18.1944 16.7656 18.8503 17.479 19.3429L18.6154 17.6971ZM17.6763 16.5633C17.4464 16.0619 17.3272 15.5117 17.3272 14.9H15.3272C15.3272 15.7816 15.5013 16.6181 15.8581 17.3967L17.6763 16.5633ZM17.3272 14.9C17.3272 14.0158 17.4952 13.2706 17.8046 12.6411L16.0097 11.7589C15.5458 12.7027 15.3272 13.7576 15.3272 14.9H17.3272ZM17.8075 12.6352C18.1225 11.9836 18.539 11.5105 19.0504 11.1796L17.9639 9.50043C17.1154 10.0495 16.4652 10.8164 16.0068 11.7648L17.8075 12.6352ZM19.0619 11.1721C19.5756 10.8296 20.1355 10.66 20.7672 10.66V8.66C19.7455 8.66 18.7988 8.94377 17.9525 9.50795L19.0619 11.1721ZM20.7672 10.66C21.5179 10.66 22.0457 10.9073 22.452 11.3755L23.9624 10.0645C23.142 9.11932 22.0431 8.66 20.7672 8.66V10.66ZM22.4653 11.3905C22.9348 11.91 23.2254 12.5646 23.3125 13.4033L25.3018 13.1967C25.1756 11.9821 24.7329 10.9167 23.9491 10.0495L22.4653 11.3905ZM24.3709 14.298C25.0821 14.2526 25.8954 14.1041 26.8002 13.8675L26.2942 11.9325C25.4656 12.1492 24.7856 12.2674 24.2435 12.302L24.3709 14.298ZM26.7897 13.8701C26.815 13.8638 26.831 13.861 26.8386 13.8599C26.8465 13.8588 26.842 13.86 26.8272 13.86V11.86C26.6414 11.86 26.4634 11.8902 26.3047 11.9299L26.7897 13.8701ZM20.2672 17.98C21.0066 17.98 21.6378 17.6633 22.1162 17.1226L20.6182 15.7974C20.4832 15.95 20.3811 15.98 20.2672 15.98V17.98ZM22.102 17.1383C22.5984 16.6005 22.8681 15.8929 22.9941 15.1211L21.0203 14.7989C20.9329 15.3338 20.776 15.6262 20.6324 15.7817L22.102 17.1383ZM22.568 14.1321C22.299 13.9498 22.0928 13.7152 21.9416 13.4128L20.1528 14.3072C20.4549 14.9115 20.8888 15.4102 21.4463 15.7879L22.568 14.1321ZM21.952 13.4342C21.8021 13.1156 21.7272 12.7812 21.7272 12.42H19.7272C19.7272 13.0722 19.8656 13.6977 20.1424 14.2858L21.952 13.4342ZM21.7272 12.42C21.7272 12.2696 21.7413 12.1179 21.7701 11.9643L19.8043 11.5957C19.7531 11.8688 19.7272 12.1438 19.7272 12.42H21.7272ZM20.7872 10.78H20.6872V12.78H20.7872V10.78ZM20.6872 10.78C19.7616 10.78 19.032 11.2584 18.525 11.9908L20.1694 13.1292C20.3823 12.8216 20.5461 12.78 20.6872 12.78V10.78ZM18.5219 11.9953C18.0164 12.7342 17.8272 13.6833 17.8272 14.72H19.8272C19.8272 13.8901 19.9847 13.3992 20.1725 13.1247L18.5219 11.9953ZM17.8272 14.72C17.8272 15.5581 17.9835 16.3598 18.4372 16.9865L20.0571 15.8135C19.9509 15.6668 19.8272 15.3486 19.8272 14.72H17.8272ZM18.4505 17.0044C18.8796 17.57 19.4889 17.98 20.2672 17.98V15.98C20.2492 15.98 20.2377 15.9777 20.2165 15.9657C20.1889 15.95 20.1278 15.9063 20.0439 15.7956L18.4505 17.0044ZM27.0106 18.28L26.1786 18.8347L26.1862 18.8462L26.1942 18.8575L27.0106 18.28ZM26.6506 13.46L27.6379 13.6192L27.6383 13.6168L26.6506 13.46ZM27.3106 10.8L26.3619 10.4838L26.3606 10.4878L27.3106 10.8ZM27.8706 9.94L28.4561 10.7507L27.8706 9.94ZM29.6106 9.82L28.9521 10.5726L28.9739 10.5916L28.9967 10.6094L29.6106 9.82ZM29.5706 11.32L30.536 11.5809L30.5398 11.5668L30.5432 11.5526L29.5706 11.32ZM29.2506 12.66L28.27 12.4639L28.2683 12.4729L29.2506 12.66ZM28.9506 16.06L28.0765 16.5456L28.089 16.5682L28.1026 16.59L28.9506 16.06ZM30.0106 15.62L29.217 15.0116L29.2105 15.02L29.2042 15.0286L30.0106 15.62ZM30.9706 13.8L30.0506 13.4079L30.0453 13.4208L30.9706 13.8ZM31.9706 10.8L32.9361 11.0604L32.9369 11.0577L31.9706 10.8ZM32.4506 9.94L31.8432 9.14564L31.8315 9.15459L31.82 9.16389L32.4506 9.94ZM34.0906 9.8L33.5359 10.632L33.5696 10.6545L33.605 10.6742L34.0906 9.8ZM33.7706 12.94L32.7946 12.7221L32.7937 12.7263L33.7706 12.94ZM33.3706 16.7L32.5619 17.2882L32.5754 17.3068L32.5898 17.3247L33.3706 16.7ZM34.7306 16.42L35.395 17.1674L35.3966 17.1659L34.7306 16.42ZM36.2106 14.82L35.4513 14.1692L35.4436 14.1784L36.2106 14.82ZM37.1506 14.78L36.2868 15.2839L36.3019 15.3098L36.3186 15.3347L37.1506 14.78ZM36.9306 16.68L36.1738 16.0264L36.1638 16.038L36.1541 16.05L36.9306 16.68ZM35.0706 18.42L34.5083 17.593L34.5005 17.5984L35.0706 18.42ZM31.4106 18.36L30.5511 18.8711L30.5561 18.8796L30.5613 18.8879L31.4106 18.36ZM30.9706 16.28H31.9706L30.0005 16.0375L30.9706 16.28ZM29.9506 18.38L30.6777 19.0667L30.687 19.0566L29.9506 18.38ZM28.4906 18.1C28.2566 18.1 28.0515 18.0199 27.827 17.7025L26.1942 18.8575C26.7431 19.6334 27.5246 20.1 28.4906 20.1V18.1ZM27.8427 17.7253C27.6016 17.3637 27.4506 16.8746 27.4506 16.2H25.4506C25.4506 17.1787 25.673 18.0763 26.1786 18.8347L27.8427 17.7253ZM27.4506 16.2C27.4506 15.2434 27.5145 14.3843 27.6379 13.6192L25.6634 13.3008C25.5201 14.189 25.4506 15.1566 25.4506 16.2H27.4506ZM27.6383 13.6168C27.7621 12.8368 27.9682 12.0024 28.2607 11.1122L26.3606 10.4878C26.0398 11.4643 25.8059 12.4032 25.663 13.3032L27.6383 13.6168ZM28.2593 11.1162C28.3535 10.8337 28.4444 10.7592 28.4561 10.7507L27.2851 9.12932C26.8169 9.46749 26.5344 9.96635 26.3619 10.4838L28.2593 11.1162ZM28.4561 10.7507C28.4388 10.7632 28.4595 10.7424 28.558 10.72C28.6555 10.6977 28.8023 10.68 29.0106 10.68V8.68C28.4212 8.68 27.7822 8.77032 27.2851 9.12932L28.4561 10.7507ZM29.0106 10.68C29.058 10.68 29.0936 10.6819 29.119 10.6843C29.1446 10.6867 29.1551 10.6892 29.1534 10.6888C29.1522 10.6886 29.1313 10.6837 29.0978 10.6684C29.0641 10.653 29.0107 10.6239 28.9521 10.5726L30.2691 9.06742C29.8652 8.71395 29.3292 8.68 29.0106 8.68V10.68ZM28.9967 10.6094C28.9229 10.5519 28.863 10.4741 28.8265 10.3889C28.7925 10.3097 28.7906 10.2524 28.7906 10.24H30.7906C30.7906 9.82269 30.6437 9.35664 30.2246 9.03065L28.9967 10.6094ZM28.7906 10.24C28.7906 10.1827 28.7974 10.159 28.789 10.2123C28.7831 10.25 28.7725 10.308 28.7557 10.3904C28.7224 10.5543 28.6703 10.7852 28.598 11.0874L30.5432 11.5526C30.6176 11.2415 30.6756 10.9857 30.7155 10.7896C30.7467 10.6366 30.7906 10.4142 30.7906 10.24H28.7906ZM28.6053 11.0591C28.4675 11.5688 28.3553 12.0375 28.27 12.4639L30.2312 12.8561C30.3059 12.4825 30.4071 12.0579 30.536 11.5809L28.6053 11.0591ZM28.2683 12.4729C28.0049 13.8558 27.8506 14.8828 27.8506 15.46H29.8506C29.8506 15.1039 29.963 14.2642 30.233 12.8471L28.2683 12.4729ZM27.8506 15.46C27.8506 15.7676 27.8783 16.1889 28.0765 16.5456L29.8248 15.5744C29.8475 15.6153 29.8578 15.6454 29.8614 15.6567C29.865 15.6685 29.8643 15.6693 29.862 15.6556C29.8571 15.626 29.8506 15.5641 29.8506 15.46H27.8506ZM28.1026 16.59C28.385 17.0418 28.8463 17.22 29.2706 17.22V15.22C29.3175 15.22 29.414 15.2287 29.5278 15.2856C29.6482 15.3458 29.74 15.4362 29.7986 15.53L28.1026 16.59ZM29.2706 17.22C29.7006 17.22 30.0322 17.0116 30.2354 16.8468C30.4516 16.6714 30.6447 16.4464 30.817 16.2114L29.2042 15.0286C29.1463 15.1076 29.0969 15.1682 29.0561 15.2135C29.0147 15.2596 28.9878 15.2836 28.9758 15.2932C28.9628 15.3038 28.9778 15.289 29.0207 15.2698C29.0654 15.2498 29.152 15.22 29.2706 15.22V17.22ZM30.8042 16.2284C31.1903 15.7249 31.55 15.0234 31.8959 14.1792L30.0453 13.4208C29.7246 14.2033 29.4443 14.7151 29.217 15.0116L30.8042 16.2284ZM31.8905 14.1921C32.2609 13.3231 32.6083 12.276 32.9361 11.0604L31.0051 10.5396C30.6929 11.6973 30.3736 12.6502 30.0507 13.4079L31.8905 14.1921ZM32.9369 11.0577C33.0152 10.764 33.0957 10.7044 33.0812 10.7161L31.82 9.16389C31.3789 9.52229 31.1394 10.036 31.0044 10.5423L32.9369 11.0577ZM33.0581 10.7344C33.046 10.7436 33.0585 10.7294 33.1223 10.7128C33.1877 10.6958 33.2933 10.68 33.4506 10.68V8.68C32.9032 8.68 32.3162 8.78393 31.8432 9.14564L33.0581 10.7344ZM33.4506 10.68C33.506 10.68 33.5509 10.6818 33.5864 10.6846C33.6223 10.6873 33.6448 10.6907 33.6563 10.6929C33.6684 10.6951 33.6627 10.695 33.6444 10.6884C33.6265 10.6819 33.5865 10.6658 33.5359 10.632L34.6453 8.96795C34.2579 8.70969 33.7765 8.68 33.4506 8.68V10.68ZM33.605 10.6742C33.464 10.5958 33.366 10.4766 33.3137 10.3604C33.2904 10.3086 33.2799 10.266 33.2752 10.2397C33.2728 10.2263 33.2717 10.2161 33.2711 10.2097C33.2709 10.2064 33.2707 10.204 33.2707 10.2024C33.2707 10.2016 33.2706 10.201 33.2706 10.2006C33.2706 10.2004 33.2706 10.2002 33.2706 10.2001C33.2706 10.2001 33.2706 10.2001 33.2706 10.2C33.2706 10.2 33.2706 10.2 33.2706 10.2C33.2706 10.2001 33.2706 10.1999 33.2706 10.2C33.2706 10.2001 33.2706 10.1999 33.2706 10.2H35.2706C35.2706 9.82072 35.1472 9.24303 34.5763 8.92584L33.605 10.6742ZM33.2706 10.2C33.2706 10.2628 33.2471 10.4886 33.1619 10.9555C33.0819 11.3938 32.96 11.9812 32.7946 12.7221L34.7466 13.1579C34.9146 12.4055 35.0427 11.7895 35.1294 11.3145C35.2109 10.868 35.2706 10.4705 35.2706 10.2H33.2706ZM32.7937 12.7263C32.6057 13.5856 32.4626 14.2902 32.366 14.8355C32.2739 15.355 32.2106 15.8001 32.2106 16.1H34.2106C34.2106 15.9999 34.2407 15.7183 34.3353 15.1845C34.4253 14.6765 34.5622 14.001 34.7475 13.1537L32.7937 12.7263ZM32.2106 16.1C32.2106 16.483 32.2902 16.9147 32.5619 17.2882L34.1794 16.1118C34.1932 16.1308 34.2026 16.1479 34.2086 16.1609C34.2145 16.1738 34.2167 16.1816 34.2169 16.1823C34.217 16.183 34.2154 16.1771 34.2138 16.1632C34.2121 16.1492 34.2106 16.1285 34.2106 16.1H32.2106ZM32.5898 17.3247C32.8895 17.6994 33.3189 17.9 33.7906 17.9V15.9C33.8351 15.9 33.9062 15.9093 33.9856 15.9471C34.0654 15.9852 34.1201 16.036 34.1515 16.0753L32.5898 17.3247ZM33.7906 17.9C34.4349 17.9 34.9843 17.5325 35.395 17.1674L34.0663 15.6726C33.9282 15.7953 33.8299 15.8593 33.7708 15.8894C33.7118 15.9196 33.7236 15.9 33.7906 15.9V17.9ZM35.3966 17.1659C35.8253 16.7832 36.3558 16.2051 36.9777 15.4616L35.4436 14.1784C34.8387 14.9016 34.3826 15.3901 34.0646 15.6741L35.3966 17.1659ZM36.9699 15.4708C36.9837 15.4547 36.9713 15.4742 36.9259 15.4978C36.8758 15.5238 36.8131 15.54 36.7506 15.54V13.54C36.1929 13.54 35.7539 13.8163 35.4514 14.1692L36.9699 15.4708ZM36.7506 15.54C36.6774 15.54 36.5722 15.5211 36.4661 15.4575C36.3632 15.3957 36.3088 15.3215 36.2868 15.2839L38.0144 14.2761C37.7569 13.8346 37.3084 13.54 36.7506 13.54V15.54ZM36.3186 15.3347C36.2966 15.3018 36.2949 15.2846 36.2988 15.3006C36.303 15.3178 36.3106 15.3615 36.3106 15.44H38.3106C38.3106 15.048 38.2382 14.6086 37.9827 14.2253L36.3186 15.3347ZM36.3106 15.44C36.3106 15.8236 36.2199 15.973 36.1738 16.0264L37.6875 17.3336C38.148 16.8004 38.3106 16.1231 38.3106 15.44H36.3106ZM36.1541 16.05C35.6344 16.6905 35.0847 17.2011 34.5083 17.5931L35.6329 19.2469C36.3899 18.7322 37.0802 18.0828 37.7072 17.31L36.1541 16.05ZM34.5005 17.5984C34.0243 17.9288 33.479 18.1 32.8306 18.1V20.1C33.8623 20.1 34.8103 19.8178 35.6407 19.2416L34.5005 17.5984ZM32.8306 18.1C32.4942 18.1 32.3629 17.9978 32.2599 17.8321L30.5613 18.8879C31.0716 19.7088 31.887 20.1 32.8306 20.1V18.1ZM32.2702 17.8489C32.1064 17.5735 31.9706 17.085 31.9706 16.28H29.9706C29.9706 17.2617 30.1282 18.1599 30.5511 18.8711L32.2702 17.8489ZM30.0005 16.0375C29.7992 16.8427 29.5189 17.3719 29.2143 17.7034L30.687 19.0566C31.289 18.4014 31.6888 17.5306 31.9408 16.5225L30.0005 16.0375ZM29.2236 17.6934C28.9052 18.0306 28.6656 18.1 28.4906 18.1V20.1C29.3556 20.1 30.0894 19.6894 30.6776 19.0666L29.2236 17.6934ZM36.8289 18.3L35.8926 18.6511L35.8964 18.6613L35.9004 18.6714L36.8289 18.3ZM37.2689 10.8L38.2224 11.1015L38.224 11.0964L37.2689 10.8ZM37.8489 9.96L38.3939 10.7985L38.4036 10.792L37.8489 9.96ZM39.4289 11.6L38.463 11.3413L38.4608 11.3493L38.4588 11.3575L39.4289 11.6ZM38.9089 14.48L37.913 14.3895L39.8425 14.8383L38.9089 14.48ZM40.3889 11.68L39.5925 11.0753L40.3889 11.68ZM41.9889 10.14L41.4904 9.27304L41.4809 9.27863L41.9889 10.14ZM44.3089 13.8L45.2859 14.0134L45.2864 14.0108L44.3089 13.8ZM45.4489 16.42L46.1133 17.1674L46.1149 17.1659L45.4489 16.42ZM46.9289 14.82L46.1696 14.1692L46.1618 14.1784L46.9289 14.82ZM47.8689 14.78L47.0051 15.2839L47.0202 15.3098L47.0369 15.3347L47.8689 14.78ZM47.6489 16.68L46.8921 16.0264L46.882 16.038L46.8723 16.05L47.6489 16.68ZM45.7889 18.42L45.2266 17.593L45.2188 17.5984L45.7889 18.42ZM42.0089 18.52L41.2532 19.1749L41.2587 19.1813L41.2643 19.1875L42.0089 18.52ZM41.7689 14.8L40.7895 14.5979L40.7873 14.6091L41.7689 14.8ZM41.0689 13.42L40.2519 12.8433L40.2485 12.8482L41.0689 13.42ZM40.1089 15.18L39.1985 14.7662L39.1954 14.7731L39.1924 14.7801L40.1089 15.18ZM39.3289 17.5L38.3578 17.2612L38.3552 17.2721L39.3289 17.5ZM38.8089 18.78L38.0591 18.1184L38.0563 18.1215L38.8089 18.78ZM37.9089 18.1C37.8704 18.1 37.8531 18.095 37.8505 18.0942C37.8491 18.0938 37.852 18.0949 37.8541 18.0964C37.8598 18.1006 37.8143 18.071 37.7574 17.9286L35.9004 18.6714C36.0568 19.0623 36.2981 19.4327 36.6637 19.7036C37.0381 19.9809 37.4706 20.1 37.9089 20.1V18.1ZM37.7652 17.9489C37.632 17.5936 37.5289 16.8931 37.5289 15.74H35.5289C35.5289 16.9336 35.6258 17.9397 35.8926 18.6511L37.7652 17.9489ZM37.5289 15.74C37.5289 14.1029 37.7617 12.5583 38.2224 11.1015L36.3154 10.4985C35.7895 12.1617 35.5289 13.9105 35.5289 15.74H37.5289ZM38.224 11.0964C38.2941 10.8705 38.3715 10.813 38.3939 10.7984L37.3039 9.12156C36.793 9.45364 36.4837 9.95614 36.3138 10.5036L38.224 11.0964ZM38.4036 10.792C38.4594 10.7549 38.6259 10.68 39.0089 10.68V8.68C38.4052 8.68 37.7984 8.7918 37.2942 9.12795L38.4036 10.792ZM39.0089 10.68C39.0552 10.68 39.0921 10.6815 39.1206 10.6836C39.1494 10.6857 39.1662 10.6882 39.1731 10.6894C39.1805 10.6907 39.1717 10.6897 39.1512 10.6828C39.1313 10.676 39.0903 10.6601 39.0389 10.628L40.0989 8.932C39.7344 8.70419 39.2955 8.68 39.0089 8.68V10.68ZM39.0389 10.628C38.9011 10.5419 38.8128 10.4213 38.7673 10.3131C38.7466 10.264 38.7373 10.224 38.7331 10.199C38.7289 10.1742 38.7289 10.1601 38.7289 10.16H40.7289C40.7289 9.80812 40.6233 9.25973 40.0989 8.932L39.0389 10.628ZM38.7289 10.16C38.7289 10.1545 38.7242 10.2395 38.6749 10.476C38.6303 10.6904 38.5605 10.977 38.463 11.3413L40.3949 11.8587C40.4973 11.4763 40.5775 11.1496 40.6329 10.884C40.6836 10.6405 40.7289 10.3788 40.7289 10.16H38.7289ZM38.4588 11.3575C38.3228 11.9013 38.2123 12.3841 38.1283 12.8039L40.0895 13.1961C40.1655 12.8159 40.2683 12.3654 40.3991 11.8425L38.4588 11.3575ZM38.1283 12.8039C38.039 13.2503 37.9683 13.7814 37.913 14.3895L39.9048 14.5705C39.9562 14.0052 40.0188 13.5497 40.0895 13.1961L38.1283 12.8039ZM39.8425 14.8383C40.2599 13.7505 40.7121 12.908 41.1854 12.2847L39.5925 11.0753C38.9724 11.892 38.4379 12.9162 37.9753 14.1217L39.8425 14.8383ZM41.1854 12.2847C41.6888 11.6216 42.1301 11.2177 42.4969 11.0014L41.4809 9.27863C40.8077 9.67564 40.1823 10.2984 39.5925 11.0753L41.1854 12.2847ZM42.4874 11.0069C42.9264 10.7544 43.2399 10.68 43.4489 10.68V8.68C42.7779 8.68 42.118 8.91222 41.4904 9.27309L42.4874 11.0069ZM43.4489 10.68C43.7281 10.68 43.7538 10.7491 43.7168 10.7121C43.6798 10.6751 43.7489 10.7008 43.7489 10.98H45.7489C45.7489 10.3925 45.6014 9.76824 45.131 9.29789C44.6607 8.82755 44.0364 8.68 43.4489 8.68V10.68ZM43.7489 10.98C43.7489 11.3789 43.6266 12.2203 43.3314 13.5892L45.2864 14.0108C45.5779 12.6597 45.7489 11.6211 45.7489 10.98H43.7489ZM43.3319 13.5866C43.0836 14.7239 42.9289 15.5992 42.9289 16.1H44.9289C44.9289 15.8541 45.0276 15.1961 45.2859 14.0134L43.3319 13.5866ZM42.9289 16.1C42.9289 16.4577 42.9884 16.9064 43.2643 17.287C43.5835 17.7272 44.0586 17.9 44.5089 17.9V15.9C44.5265 15.9 44.5897 15.9032 44.6729 15.9414C44.7616 15.9822 44.8344 16.0452 44.8835 16.113C44.9283 16.1748 44.9381 16.2188 44.9372 16.2151C44.9361 16.2108 44.9289 16.1761 44.9289 16.1H42.9289ZM44.5089 17.9C45.1532 17.9 45.7026 17.5325 46.1133 17.1674L44.7845 15.6726C44.6465 15.7953 44.5481 15.8593 44.4891 15.8894C44.4301 15.9196 44.4419 15.9 44.5089 15.9V17.9ZM46.1149 17.1659C46.5436 16.7832 47.0741 16.2051 47.696 15.4616L46.1618 14.1784C45.557 14.9016 45.1009 15.3901 44.7829 15.6741L46.1149 17.1659ZM47.6882 15.4708C47.7019 15.4547 47.6896 15.4742 47.6442 15.4978C47.594 15.5238 47.5314 15.54 47.4689 15.54V13.54C46.9112 13.54 46.4722 13.8163 46.1697 14.1692L47.6882 15.4708ZM47.4689 15.54C47.3957 15.54 47.2905 15.5211 47.1844 15.4575C47.0815 15.3957 47.0271 15.3215 47.0051 15.2839L48.7327 14.2761C48.4752 13.8346 48.0267 13.54 47.4689 13.54V15.54ZM47.0369 15.3347C47.0149 15.3018 47.0132 15.2846 47.0171 15.3006C47.0212 15.3178 47.0289 15.3615 47.0289 15.44H49.0289C49.0289 15.048 48.9565 14.6086 48.701 14.2253L47.0369 15.3347ZM47.0289 15.44C47.0289 15.8236 46.9382 15.973 46.8921 16.0264L48.4057 17.3336C48.8663 16.8004 49.0289 16.1231 49.0289 15.44H47.0289ZM46.8723 16.05C46.3527 16.6905 45.803 17.2011 45.2266 17.5931L46.3512 19.2469C47.1081 18.7322 47.7985 18.0828 48.4255 17.31L46.8723 16.05ZM45.2188 17.5984C44.7426 17.9288 44.1973 18.1 43.5489 18.1V20.1C44.5805 20.1 45.5285 19.8178 46.359 19.2416L45.2188 17.5984ZM43.5489 18.1C43.06 18.1 42.8561 17.967 42.7535 17.8525L41.2643 19.1875C41.855 19.8464 42.6778 20.1 43.5489 20.1V18.1ZM42.7646 17.8651C42.6296 17.7093 42.4889 17.404 42.4889 16.8H40.4889C40.4889 17.6893 40.6949 18.5307 41.2532 19.1749L42.7646 17.8651ZM42.4889 16.8C42.4889 16.5355 42.5626 15.9573 42.7505 14.9909L40.7873 14.6091C40.6019 15.5627 40.4889 16.3178 40.4889 16.8H42.4889ZM42.7483 15.0021C42.9198 14.1707 43.0289 13.4961 43.0289 13.06H41.0289C41.0289 13.2639 40.9646 13.7493 40.7895 14.5979L42.7483 15.0021ZM43.0289 13.06C43.0289 12.8698 43.0018 12.55 42.798 12.2535C42.5476 11.8893 42.1606 11.74 41.8089 11.74V13.74C41.7243 13.74 41.6019 13.7243 41.4689 13.6598C41.3312 13.593 41.2237 13.494 41.1499 13.3865C41.0805 13.2856 41.0522 13.1946 41.0404 13.1434C41.0287 13.0921 41.0289 13.0608 41.0289 13.06H43.0289ZM41.8089 11.74C41.3235 11.74 40.975 12.0287 40.8173 12.1737C40.6188 12.3561 40.43 12.5911 40.2519 12.8433L41.8859 13.9967C41.9541 13.9 42.0133 13.8228 42.0634 13.7627C42.1143 13.7016 42.1499 13.6653 42.1705 13.6463C42.1937 13.6251 42.1832 13.6392 42.1401 13.6625C42.0989 13.6847 41.982 13.74 41.8089 13.74V11.74ZM40.2485 12.8482C39.8945 13.3561 39.5458 14.0021 39.1985 14.7662L41.0193 15.5938C41.3386 14.8912 41.63 14.3639 41.8893 13.9918L40.2485 12.8482ZM39.1924 14.7801C38.8486 15.5678 38.5708 16.3953 38.3578 17.2612L40.3 17.7388C40.487 16.9781 40.7292 16.2588 41.0254 15.5799L39.1924 14.7801ZM38.3552 17.2721C38.2895 17.5531 38.2235 17.7632 38.1624 17.9136C38.0983 18.0714 38.0563 18.1216 38.0591 18.1184L39.5587 19.4416C39.9355 19.0146 40.1517 18.3725 40.3026 17.7279L38.3552 17.2721ZM38.0563 18.1215C38.0707 18.1051 38.0858 18.0927 38.0983 18.0844C38.1103 18.0766 38.1154 18.0755 38.1089 18.0778C38.0931 18.0834 38.0337 18.1 37.9089 18.1V20.1C38.4757 20.1 39.1112 19.9531 39.5615 19.4385L38.0563 18.1215ZM54.4908 14.54L53.6222 14.0445L53.4547 14.338L53.4997 14.673L54.4908 14.54ZM55.1308 17.78L54.1636 18.0339L54.1689 18.0541L54.175 18.0741L55.1308 17.78ZM53.1508 18.88L52.4226 19.5654L52.433 19.5764L52.4437 19.5871L53.1508 18.88ZM52.5508 17.6L51.5806 17.8425L51.586 17.8641L51.5924 17.8855L52.5508 17.6ZM52.5308 17.52L53.5009 17.2775L53.0144 15.3313L51.7532 16.8913L52.5308 17.52ZM51.1508 18.78L50.6921 17.8913L50.6802 17.8976L51.1508 18.78ZM47.7308 18.2L46.968 18.8467L46.9756 18.8556L46.9834 18.8644L47.7308 18.2ZM47.6308 12.86L48.5252 13.3072L47.6308 12.86ZM49.4908 10.64L50.0798 11.4482L50.0886 11.4416L49.4908 10.64ZM52.1308 9.58L52.2531 10.5725L53.0459 10.4748L53.1258 9.68003L52.1308 9.58ZM53.5708 3L52.6378 2.64012L52.6356 2.64595L53.5708 3ZM57.8508 0.98L57.0385 1.56321L57.0433 1.56999L57.0483 1.5767L57.8508 0.98ZM57.3508 8.48L56.4121 8.13518L57.3508 8.48ZM55.1108 5.12L54.1258 4.94697L54.1248 4.95344L55.1108 5.12ZM54.4308 11.56L53.4321 11.5083L55.3384 11.9798L54.4308 11.56ZM56.5108 2.58L55.5493 2.85472L55.5552 2.87561L55.5621 2.89623L56.5108 2.58ZM51.2108 16.78L50.5911 15.9951L50.5808 16.0033L50.5706 16.0118L51.2108 16.78ZM52.1708 15.62L52.9999 16.1791L53.2134 15.8626L53.1615 15.4843L52.1708 15.62ZM51.9908 11.64L52.9891 11.6987L53.0723 10.2839L51.7115 10.6798L51.9908 11.64ZM53.4997 14.673C53.6518 15.807 53.8731 16.9274 54.1636 18.0339L56.098 17.5261C55.8285 16.4992 55.6231 15.4596 55.4819 14.407L53.4997 14.673ZM54.175 18.0741C54.1982 18.1494 54.2108 18.2301 54.2108 18.32H56.2108C56.2108 18.0366 56.1701 17.7573 56.0866 17.4859L54.175 18.0741ZM54.2108 18.32C54.2108 18.3701 54.203 18.3683 54.2159 18.3365C54.2226 18.3201 54.2334 18.2993 54.2497 18.2771C54.2661 18.2548 54.2844 18.2359 54.3025 18.221C54.3393 18.191 54.358 18.191 54.3289 18.199C54.2976 18.2075 54.2292 18.22 54.1108 18.22V20.22C54.5883 20.22 55.1322 20.1264 55.569 19.769C56.0443 19.3801 56.2108 18.833 56.2108 18.32H54.2108ZM54.1108 18.22C53.9939 18.22 53.927 18.2038 53.8946 18.1924C53.8666 18.1824 53.8597 18.1747 53.8579 18.1729L52.4437 19.5871C52.9079 20.0513 53.5125 20.22 54.1108 20.22V18.22ZM53.879 18.1946C53.8791 18.1947 53.8753 18.1907 53.8679 18.181C53.8606 18.1714 53.8507 18.1573 53.8384 18.1379C53.8133 18.0983 53.7821 18.0422 53.7462 17.9656C53.6736 17.8106 53.5933 17.5971 53.5092 17.3145L51.5924 17.8855C51.785 18.5319 52.0376 19.1563 52.4226 19.5654L53.879 18.1946ZM53.5209 17.3575L53.5009 17.2775L51.5606 17.7625L51.5806 17.8425L53.5209 17.3575ZM51.7532 16.8913C51.279 17.4777 50.9233 17.7721 50.6921 17.8914L51.6094 19.6686C52.205 19.3612 52.7692 18.8156 53.3084 18.1487L51.7532 16.8913ZM50.6802 17.8976C50.4486 18.0212 50.149 18.1 49.7508 18.1V20.1C50.4193 20.1 51.053 19.9655 51.6214 19.6624L50.6802 17.8976ZM49.7508 18.1C49.2188 18.1 48.8189 17.919 48.4782 17.5356L46.9834 18.8644C47.7093 19.681 48.6561 20.1 49.7508 20.1V18.1ZM48.4935 17.5533C48.1572 17.1567 47.9508 16.6084 47.9508 15.82H45.9508C45.9508 16.9783 46.2643 18.0167 46.968 18.8467L48.4935 17.5533ZM47.9508 15.82C47.9508 14.9002 48.1449 14.0678 48.5252 13.3072L46.7364 12.4128C46.21 13.4656 45.9508 14.6064 45.9508 15.82H47.9508ZM48.5252 13.3072C48.9101 12.5374 49.4277 11.9234 50.0798 11.4481L48.9018 9.83186C47.9805 10.5033 47.2581 11.3692 46.7364 12.4128L48.5252 13.3072ZM50.0886 11.4416C50.7361 10.9587 51.4523 10.6712 52.2531 10.5725L52.0084 8.58751C50.8626 8.72878 49.8188 9.14795 48.893 9.83837L50.0886 11.4416ZM53.1258 9.68003C53.3726 7.22484 53.8373 5.12056 54.506 3.35405L52.6356 2.64595C51.891 4.61277 51.3956 6.89516 51.1358 9.47997L53.1258 9.68003ZM54.5038 3.35987C55.1882 1.58554 55.9013 1.2 56.4308 1.2V-0.800001C54.587 -0.800001 53.3934 0.681124 52.6378 2.64013L54.5038 3.35987ZM56.4308 1.2C56.6409 1.2 56.8276 1.26953 57.0385 1.56321L58.6631 0.396793C58.1273 -0.349536 57.3674 -0.800001 56.4308 -0.800001V1.2ZM57.0483 1.5767C57.2487 1.84613 57.4308 2.37807 57.4308 3.34H59.4308C59.4308 2.19527 59.2262 1.15387 58.6532 0.383297L57.0483 1.5767ZM57.4308 3.34C57.4308 4.65061 57.1073 6.24266 56.4121 8.13518L58.2895 8.82482C59.0342 6.79734 59.4308 4.96273 59.4308 3.34H57.4308ZM56.4121 8.13518C55.7138 10.0362 54.7853 12.0058 53.6222 14.0445L55.3594 15.0355C56.5696 12.9142 57.5478 10.8438 58.2895 8.82482L56.4121 8.13518ZM56.2108 1.16C55.6522 1.16 55.2981 1.51764 55.1297 1.73815C54.9481 1.97605 54.8141 2.26716 54.7084 2.55165C54.4928 3.13193 54.3021 3.94377 54.1259 4.94697L56.0957 5.29303C56.2661 4.32289 56.4321 3.65474 56.5831 3.24834C56.6195 3.15059 56.6515 3.07755 56.6778 3.02507C56.705 2.97103 56.7202 2.95079 56.7193 2.95185C56.7183 2.95323 56.7101 2.96383 56.6938 2.97977C56.6775 2.99566 56.6498 3.02007 56.6095 3.04611C56.5243 3.10116 56.3867 3.16 56.2108 3.16V1.16ZM54.1248 4.95344C53.7841 6.97026 53.5538 9.15579 53.4321 11.5083L55.4294 11.6117C55.5478 9.32421 55.7708 7.2164 56.0968 5.28656L54.1248 4.95344ZM55.3384 11.9798C56.8397 8.73371 57.6508 5.97634 57.6508 3.76H55.6508C55.6508 5.54366 54.9818 7.98628 53.5232 11.1402L55.3384 11.9798ZM57.6508 3.76C57.6508 3.21124 57.6026 2.69332 57.4595 2.26377L55.5621 2.89623C55.6056 3.02668 55.6508 3.29543 55.6508 3.76H57.6508ZM57.4723 2.30528C57.4195 2.12056 57.3363 1.88931 57.1895 1.68376C57.0385 1.47231 56.7185 1.16 56.2108 1.16V3.16C55.8231 3.16 55.6131 2.91768 55.562 2.84624C55.5152 2.78069 55.522 2.75944 55.5493 2.85472L57.4723 2.30528ZM50.4508 18.08C50.9903 18.08 51.4636 17.871 51.851 17.5482L50.5706 16.0118C50.5206 16.0535 50.4879 16.0692 50.4736 16.0748C50.4613 16.0797 50.4557 16.08 50.4508 16.08V18.08ZM51.8304 17.5649C52.2138 17.2622 52.6059 16.7633 52.9999 16.1791L51.3417 15.0609C50.9623 15.6234 50.7144 15.8978 50.5911 15.9951L51.8304 17.5649ZM53.1615 15.4843C53.0347 14.5585 52.9708 13.5972 52.9708 12.6H50.9708C50.9708 13.6828 51.0402 14.7349 51.18 15.7557L53.1615 15.4843ZM52.9708 12.6C52.9708 12.1932 52.9774 11.8961 52.9891 11.6987L50.9925 11.5813C50.9775 11.8372 50.9708 12.1801 50.9708 12.6H52.9708ZM51.7115 10.6798C50.7033 10.9731 49.9113 11.6382 49.3253 12.566L51.0163 13.634C51.3903 13.0418 51.8116 12.7336 52.2701 12.6002L51.7115 10.6798ZM49.3253 12.566C48.7419 13.4897 48.4508 14.5157 48.4508 15.62H50.4508C50.4508 14.8843 50.6397 14.2303 51.0163 13.634L49.3253 12.566ZM48.4508 15.62C48.4508 16.1897 48.5427 16.7938 48.8758 17.2801C49.2554 17.8344 49.8375 18.08 50.4508 18.08V16.08C50.4059 16.08 50.4151 16.0721 50.4509 16.0896C50.4913 16.1093 50.5173 16.1375 50.5258 16.1499C50.5298 16.1558 50.5091 16.1277 50.4882 16.0362C50.4673 15.9447 50.4508 15.8094 50.4508 15.62H48.4508Z" fill="white" mask="url(#path-1-outside-1_53_2281)"/>
</g>
<defs>
<filter id="filter0_d_53_2281" x="0.679932" y="0.200012" width="58.7507" height="21.02" filterUnits="userSpaceOnUse" color-interpolation-filters="sRGB">
<feFlood flood-opacity="0" result="BackgroundImageFix"/>
<feColorMatrix in="SourceAlpha" type="matrix" values="0 0 0 0 0 0 0 0 0 0 0 0 0 0 0 0 0 0 127 0" result="hardAlpha"/>
<feOffset dy="1"/>
<feGaussianBlur stdDeviation="0.5"/>
<feComposite in2="hardAlpha" operator="out"/>
<feColorMatrix type="matrix" values="0 0 0 0 0.0705882 0 0 0 0 0.301961 0 0 0 0 0.67451 0 0 0 0.5 0"/>
<feBlend mode="normal" in2="BackgroundImageFix" result="effect1_dropShadow_53_2281"/>
<feBlend mode="normal" in="SourceGraphic" in2="effect1_dropShadow_53_2281" result="shape"/>
</filter>
<linearGradient id="paint0_linear_53_2281" x1="-0.714285" y1="-21.6667" x2="65.3655" y2="-4.68145" gradientUnits="userSpaceOnUse">
<stop stop-color="#0096C7"/>
<stop offset="1" stop-color="#023E8A"/>
</linearGradient>
</defs>
</svg>
