<svg width="1440" height="1024" viewBox="0 0 1440 1024" fill="none" xmlns="http://www.w3.org/2000/svg">
<g clip-path="url(#clip0_21_6)">
<path d="M584.525 1633.98C704.336 1529.24 773.97 1588.53 893.781 1483.8C1013.59 1379.06 943.96 1319.76 1063.74 1215.05C1183.51 1110.34 1253.18 1169.61 1372.99 1064.87C1492.8 960.129 1423.17 900.835 1542.98 796.096C1662.79 691.356 1732.43 750.65 1852.27 645.881C1972.12 541.111 1902.45 481.847 2022.26 377.108" stroke="#ADE8F4" stroke-opacity="0.2" stroke-width="2" stroke-miterlimit="10"/>
<path d="M-777.502 454.848C-657.69 350.109 -588.057 409.403 -468.246 304.664C-348.434 199.924 -418.067 140.63 -298.29 35.9213C-178.513 -68.7879 -108.845 -9.52401 10.9661 -114.263C130.778 -219.003 61.1445 -278.297 180.956 -383.036C300.768 -487.775 370.401 -428.481 490.247 -533.251C610.093 -638.02 540.425 -697.284 660.237 -802.023" stroke="#ADE8F4" stroke-opacity="0.2" stroke-width="2" stroke-miterlimit="10"/>
<path d="M92.7817 1193.57C212.593 1088.83 282.226 1148.12 402.038 1043.38C521.85 938.645 452.216 879.351 571.994 774.641C691.771 669.932 761.438 729.196 881.25 624.457C1001.06 519.717 931.428 460.423 1051.24 355.684C1171.05 250.945 1240.68 310.239 1360.53 205.469C1480.38 100.7 1410.71 41.4361 1530.52 -63.3032" stroke="#ADE8F4" stroke-opacity="0.2" stroke-width="2" stroke-miterlimit="10"/>
<path d="M-348.91 817.957C-229.098 713.218 -159.465 772.512 -39.6533 667.773C80.1583 563.033 10.5252 503.739 130.302 399.03C250.079 294.321 319.747 353.585 439.559 248.846C559.37 144.106 489.737 84.8123 609.549 -19.927C729.36 -124.666 798.993 -65.3723 918.839 -170.142C1038.69 -274.911 969.018 -334.175 1088.83 -438.914" stroke="#ADE8F4" stroke-opacity="0.2" stroke-width="2" stroke-miterlimit="10"/>
<path d="M519.642 1567.76C639.454 1463.02 709.087 1522.31 828.898 1417.57C948.71 1312.83 879.077 1253.54 998.854 1148.83C1118.63 1044.12 1188.3 1103.39 1308.11 998.646C1427.92 893.907 1358.29 834.613 1478.1 729.874C1597.91 625.134 1667.55 684.428 1787.39 579.659C1907.24 474.889 1837.57 415.626 1957.38 310.886" stroke="#ADE8F4" stroke-opacity="0.2" stroke-width="2" stroke-miterlimit="10"/>
<path d="M-566.889 648.217C-447.078 543.477 -377.445 602.772 -257.633 498.032C-137.821 393.293 -207.455 333.999 -87.6774 229.29C32.0997 124.581 101.767 183.844 221.579 79.1051C341.39 -25.6342 271.757 -84.9282 391.569 -189.667C511.38 -294.407 581.014 -235.113 700.86 -339.882C820.706 -444.652 751.038 -503.916 870.85 -608.655" stroke="#ADE8F4" stroke-opacity="0.2" stroke-width="2" stroke-miterlimit="10"/>
<path d="M301.662 1385.69C421.474 1280.95 491.107 1340.25 610.919 1235.51C730.73 1130.77 661.097 1071.47 780.874 966.764C900.651 862.055 970.319 921.319 1090.13 816.58C1209.94 711.841 1140.31 652.547 1260.12 547.807C1379.93 443.068 1449.57 502.362 1569.41 397.592C1689.26 292.823 1619.59 233.559 1739.4 128.82" stroke="#ADE8F4" stroke-opacity="0.2" stroke-width="2" stroke-miterlimit="10"/>
<path d="M-138.297 1011.33C-18.4858 906.586 51.1473 965.88 170.959 861.141C290.77 756.401 221.137 697.107 340.914 592.398C460.692 487.689 530.359 546.953 650.171 442.214C769.982 337.474 700.349 278.18 820.161 173.441C939.972 68.7017 1009.61 127.996 1129.45 23.2263C1249.3 -81.5432 1179.63 -140.807 1299.44 -245.546" stroke="#ADE8F4" stroke-opacity="0.2" stroke-width="2" stroke-miterlimit="10"/>
<path d="M730.255 1761.13C850.067 1656.39 919.7 1715.68 1039.51 1610.94C1159.32 1506.2 1089.69 1446.91 1209.47 1342.2C1329.24 1237.49 1398.91 1296.75 1518.72 1192.01C1638.53 1087.27 1568.9 1027.98 1688.71 923.242C1808.52 818.502 1878.16 877.796 1998 773.027C2117.85 668.257 2048.18 608.993 2167.99 504.254" stroke="#ADE8F4" stroke-opacity="0.2" stroke-width="2" stroke-miterlimit="10"/>
<path d="M-806.614 420.608C-686.803 315.868 -617.17 375.162 -497.358 270.423C-377.547 165.684 -447.18 106.39 -327.403 1.68056C-207.626 -103.029 -137.958 -43.7647 -18.1463 -148.504C101.665 -253.243 32.0321 -312.537 151.844 -417.277C271.655 -522.016 341.288 -462.722 461.134 -567.491C580.98 -672.261 511.313 -731.525 631.124 -836.264" stroke="#ADE8F4" stroke-opacity="0.2" stroke-width="2" stroke-miterlimit="10"/>
<path d="M63.67 1159.33C183.482 1054.59 253.115 1113.88 372.926 1009.14C492.738 904.404 423.105 845.11 542.882 740.401C662.659 635.691 732.327 694.955 852.138 590.216C971.95 485.477 902.317 426.183 1022.13 321.443C1141.94 216.704 1211.57 275.998 1331.42 171.229C1451.26 66.4593 1381.6 7.19537 1501.41 -97.5439" stroke="#ADE8F4" stroke-opacity="0.2" stroke-width="2" stroke-miterlimit="10"/>
<path d="M-378.022 783.716C-258.21 678.977 -188.577 738.271 -68.7658 633.532C51.0458 528.793 -18.5873 469.498 101.19 364.789C220.967 260.08 290.634 319.344 410.446 214.605C530.258 109.865 460.624 50.5714 580.436 -54.1679C700.248 -158.907 769.881 -99.6132 889.727 -204.383C1009.57 -309.152 939.905 -368.416 1059.72 -473.155" stroke="#ADE8F4" stroke-opacity="0.2" stroke-width="2" stroke-miterlimit="10"/>
<path d="M490.531 1533.52C610.343 1428.78 679.976 1488.07 799.788 1383.33C919.599 1278.59 849.966 1219.3 969.743 1114.59C1089.52 1009.88 1159.19 1069.14 1279 964.406C1398.81 859.666 1329.18 800.372 1448.99 695.633C1568.8 590.894 1638.43 650.188 1758.28 545.418C1878.13 440.649 1808.46 381.385 1928.27 276.646" stroke="#ADE8F4" stroke-opacity="0.2" stroke-width="2" stroke-miterlimit="10"/>
<path d="M-596.002 613.976C-476.19 509.237 -406.557 568.531 -286.746 463.791C-166.934 359.052 -236.567 299.758 -116.79 195.049C2.98716 90.3395 72.6547 149.603 192.466 44.8641C312.278 -59.8752 242.645 -119.169 362.456 -223.908C482.268 -328.648 551.901 -269.354 671.747 -374.123C791.593 -478.893 721.926 -538.157 841.737 -642.896" stroke="#ADE8F4" stroke-opacity="0.2" stroke-width="2" stroke-miterlimit="10"/>
<path d="M272.55 1351.45C392.362 1246.71 461.995 1306.01 581.807 1201.27C701.618 1096.53 631.985 1037.23 751.762 932.523C871.539 827.814 941.207 887.078 1061.02 782.339C1180.83 677.599 1111.2 618.305 1231.01 513.566C1350.82 408.827 1420.45 468.121 1540.3 363.351C1660.15 258.582 1590.48 199.318 1710.29 94.5786" stroke="#ADE8F4" stroke-opacity="0.2" stroke-width="2" stroke-miterlimit="10"/>
<path d="M-167.409 977.085C-47.5978 872.345 22.0353 931.639 141.847 826.9C261.658 722.161 192.025 662.867 311.802 558.157C431.58 453.448 501.247 512.712 621.059 407.973C740.87 303.234 671.237 243.94 791.049 139.2C910.86 34.461 980.493 93.755 1100.34 -11.0145C1220.19 -115.784 1150.52 -175.048 1270.33 -279.787" stroke="#ADE8F4" stroke-opacity="0.2" stroke-width="2" stroke-miterlimit="10"/>
<path d="M701.143 1726.89C820.954 1622.15 890.588 1681.44 1010.4 1576.7C1130.21 1471.96 1060.58 1412.67 1180.35 1307.96C1300.13 1203.25 1369.8 1262.51 1489.61 1157.77C1609.42 1053.03 1539.79 993.741 1659.6 889.001C1779.41 784.262 1849.05 843.556 1968.89 738.787C2088.74 634.017 2019.07 574.753 2138.88 470.014" stroke="#ADE8F4" stroke-opacity="0.2" stroke-width="2" stroke-miterlimit="10"/>
<path d="M-888.415 357.35C-768.603 252.61 -698.97 311.904 -579.159 207.165C-459.347 102.426 -528.98 43.1317 -409.203 -61.5775C-289.426 -166.287 -219.758 -107.023 -99.9469 -211.762C19.8647 -316.501 -49.7685 -375.795 70.0431 -480.535C189.855 -585.274 259.488 -525.98 379.334 -630.749C499.18 -735.519 429.512 -794.783 549.324 -899.522" stroke="#ADE8F4" stroke-opacity="0.2" stroke-width="2" stroke-miterlimit="10"/>
<path d="M-18.131 1096.07C101.681 991.33 171.314 1050.62 291.125 945.885C410.937 841.145 341.304 781.851 461.081 677.142C580.858 572.433 650.526 631.697 770.337 526.958C890.149 422.218 820.516 362.924 940.327 258.185C1060.14 153.446 1129.77 212.74 1249.62 107.97C1369.46 3.20071 1299.8 -56.0632 1419.61 -160.802" stroke="#ADE8F4" stroke-opacity="0.2" stroke-width="2" stroke-miterlimit="10"/>
<path d="M-459.823 732.784C-340.011 628.045 -270.378 687.339 -150.566 582.599C-30.7547 477.86 -100.388 418.566 19.3893 313.857C139.166 209.148 208.834 268.412 328.646 163.672C448.457 58.9329 378.824 -0.361051 498.635 -105.1C618.447 -209.84 688.08 -150.546 807.926 -255.315C927.772 -360.085 858.105 -419.348 977.916 -524.088" stroke="#ADE8F4" stroke-opacity="0.2" stroke-width="2" stroke-miterlimit="10"/>
<path d="M408.73 1470.26C528.541 1365.52 598.175 1424.81 717.986 1320.07C837.798 1215.33 768.165 1156.04 887.942 1051.33C1007.72 946.622 1077.39 1005.89 1197.2 901.147C1317.01 796.407 1247.38 737.113 1367.19 632.374C1487 527.635 1556.63 586.929 1676.48 482.159C1796.32 377.39 1726.66 318.126 1846.47 213.387" stroke="#ADE8F4" stroke-opacity="0.2" stroke-width="2" stroke-miterlimit="10"/>
<path d="M-677.803 550.718C-557.991 445.978 -488.358 505.272 -368.547 400.533C-248.735 295.794 -318.368 236.5 -198.591 131.79C-78.814 27.0812 -9.14643 86.3451 110.665 -18.3942C230.477 -123.133 160.844 -182.427 280.655 -287.167C400.467 -391.906 470.1 -332.612 589.946 -437.382C709.792 -542.151 640.124 -601.415 759.936 -706.154" stroke="#ADE8F4" stroke-opacity="0.2" stroke-width="2" stroke-miterlimit="10"/>
<path d="M192.482 1289.44C312.293 1184.7 381.926 1243.99 501.738 1139.25C621.55 1034.51 551.916 975.22 671.694 870.511C791.471 765.801 861.138 825.065 980.95 720.326C1100.76 615.587 1031.13 556.293 1150.94 451.553C1270.75 346.814 1340.38 406.108 1460.23 301.339C1580.08 196.569 1510.41 137.305 1630.22 32.5659" stroke="#ADE8F4" stroke-opacity="0.2" stroke-width="2" stroke-miterlimit="10"/>
<path d="M-249.211 913.827C-129.399 809.087 -59.7658 868.381 60.0458 763.642C179.857 658.903 110.224 599.609 230.001 494.899C349.778 390.19 419.446 449.454 539.258 344.715C659.069 239.976 589.436 180.682 709.248 75.9422C829.059 -28.7971 898.692 30.4969 1018.54 -74.2725C1138.38 -179.042 1068.72 -238.306 1188.53 -343.045" stroke="#ADE8F4" stroke-opacity="0.2" stroke-width="2" stroke-miterlimit="10"/>
<path d="M619.341 1663.63C739.153 1558.89 808.786 1618.18 928.597 1513.44C1048.41 1408.7 978.776 1349.41 1098.55 1244.7C1218.33 1139.99 1288 1199.25 1407.81 1094.52C1527.62 989.776 1457.99 930.482 1577.8 825.743C1697.61 721.004 1767.24 780.298 1887.09 675.528C2006.94 570.759 1937.27 511.495 2057.08 406.756" stroke="#ADE8F4" stroke-opacity="0.2" stroke-width="2" stroke-miterlimit="10"/>
<path d="M-742.685 484.496C-622.874 379.756 -553.24 439.05 -433.429 334.311C-313.617 229.572 -383.25 170.278 -263.473 65.5685C-143.696 -39.1407 -74.0286 20.1232 45.783 -84.6161C165.595 -189.355 95.9614 -248.649 215.773 -353.389C335.585 -458.128 405.218 -398.834 525.064 -503.603C644.91 -608.373 575.242 -667.637 695.054 -772.376" stroke="#ADE8F4" stroke-opacity="0.2" stroke-width="2" stroke-miterlimit="10"/>
<path d="M127.599 1223.22C247.411 1118.48 317.044 1177.77 436.855 1073.03C556.667 968.292 487.034 908.998 606.811 804.289C726.588 699.58 796.256 758.844 916.067 654.104C1035.88 549.365 966.246 490.071 1086.06 385.332C1205.87 280.592 1275.5 339.886 1395.35 235.117C1515.19 130.347 1445.53 71.0836 1565.34 -33.6558" stroke="#ADE8F4" stroke-opacity="0.2" stroke-width="2" stroke-miterlimit="10"/>
<path d="M-314.093 847.605C-194.282 742.865 -124.649 802.159 -4.837 697.42C114.975 592.681 45.3415 533.387 165.119 428.678C284.896 323.968 354.563 383.232 474.375 278.493C594.186 173.754 524.553 114.46 644.365 9.72032C764.176 -95.019 833.81 -35.725 953.656 -140.494C1073.5 -245.264 1003.83 -304.528 1123.65 -409.267" stroke="#ADE8F4" stroke-opacity="0.2" stroke-width="2" stroke-miterlimit="10"/>
<path d="M554.46 1597.4C674.272 1492.67 743.905 1551.96 863.716 1447.22C983.528 1342.48 913.895 1283.19 1033.67 1178.48C1153.45 1073.77 1223.12 1133.03 1342.93 1028.29C1462.74 923.553 1393.11 864.259 1512.92 759.52C1632.73 654.781 1702.36 714.075 1822.21 609.305C1942.05 504.536 1872.39 445.272 1992.2 340.533" stroke="#ADE8F4" stroke-opacity="0.2" stroke-width="2" stroke-miterlimit="10"/>
<path d="M-532.073 677.864C-412.261 573.124 -342.628 632.418 -222.817 527.679C-103.005 422.94 -172.638 363.646 -52.861 258.937C66.9161 154.227 136.584 213.491 256.395 108.752C376.207 4.01276 306.574 -55.2812 426.385 -160.021C546.197 -264.76 615.83 -205.466 735.676 -310.235C855.522 -415.005 785.854 -474.269 905.666 -579.008" stroke="#ADE8F4" stroke-opacity="0.2" stroke-width="2" stroke-miterlimit="10"/>
<path d="M336.479 1415.34C456.291 1310.6 525.924 1369.89 645.735 1265.15C765.547 1160.41 695.914 1101.12 815.691 996.412C935.468 891.702 1005.14 950.966 1124.95 846.227C1244.76 741.488 1175.13 682.194 1294.94 577.454C1414.75 472.715 1484.38 532.009 1604.23 427.24C1724.07 322.47 1654.41 263.206 1774.22 158.467" stroke="#ADE8F4" stroke-opacity="0.2" stroke-width="2" stroke-miterlimit="10"/>
<path d="M-103.481 1040.97C16.3309 936.233 85.964 995.527 205.776 890.788C325.587 786.049 255.954 726.754 375.731 622.045C495.508 517.336 565.176 576.6 684.987 471.861C804.799 367.121 735.166 307.827 854.977 203.088C974.789 98.3488 1044.42 157.643 1164.27 52.8734C1284.11 -51.8961 1214.45 -111.16 1334.26 -215.899" stroke="#ADE8F4" stroke-opacity="0.2" stroke-width="2" stroke-miterlimit="10"/>
<path d="M765.071 1790.77C884.883 1686.03 954.516 1745.33 1074.33 1640.59C1194.14 1535.85 1124.51 1476.56 1244.28 1371.85C1364.06 1267.14 1433.73 1326.4 1553.54 1221.66C1673.35 1116.92 1603.72 1057.63 1723.53 952.889C1843.34 848.15 1912.97 907.444 2032.82 802.674C2152.67 697.905 2083 638.641 2202.81 533.902" stroke="#ADE8F4" stroke-opacity="0.2" stroke-width="2" stroke-miterlimit="10"/>
<path d="M-284.027 884.179C-164.215 779.44 -94.582 838.734 25.2295 733.995C145.041 629.255 75.408 569.961 195.185 465.252C314.962 360.543 384.63 419.807 504.441 315.067C624.253 210.328 554.62 151.034 674.431 46.2949C794.243 -58.4444 863.876 0.849584 983.722 -103.92C1103.57 -208.689 1033.9 -267.953 1153.71 -372.692" stroke="#ADE8F4" stroke-opacity="0.2" stroke-width="2" stroke-miterlimit="10"/>
<path d="M-923.231 327.702C-803.42 222.963 -733.787 282.257 -613.975 177.518C-494.164 72.7785 -563.797 13.4845 -444.02 -91.2247C-324.243 -195.934 -254.575 -136.67 -134.763 -241.409C-14.9518 -346.149 -84.5849 -405.443 35.2266 -510.182C155.038 -614.921 224.671 -555.627 344.517 -660.397C464.363 -765.166 394.696 -824.43 514.507 -929.169" stroke="#ADE8F4" stroke-opacity="0.2" stroke-width="2" stroke-miterlimit="10"/>
<path d="M-52.9473 1066.42C66.8642 961.683 136.497 1020.98 256.309 916.238C376.121 811.498 306.487 752.204 426.265 647.495C546.042 542.786 615.709 602.05 735.521 497.31C855.332 392.571 785.699 333.277 905.511 228.538C1025.32 123.799 1094.96 183.093 1214.8 78.3231C1334.65 -26.4464 1264.98 -85.7103 1384.79 -190.45" stroke="#ADE8F4" stroke-opacity="0.2" stroke-width="2" stroke-miterlimit="10"/>
<path d="M-494.639 703.137C-374.827 598.398 -305.194 657.692 -185.383 552.952C-65.5712 448.213 -135.204 388.919 -15.4272 284.21C104.35 179.501 174.018 238.764 293.829 134.025C413.641 29.2858 344.007 -30.0081 463.819 -134.747C583.631 -239.487 653.264 -180.193 773.11 -284.962C892.956 -389.732 823.288 -448.996 943.1 -553.735" stroke="#ADE8F4" stroke-opacity="0.2" stroke-width="2" stroke-miterlimit="10"/>
<path d="M373.913 1440.61C493.725 1335.87 563.358 1395.17 683.17 1290.43C802.981 1185.69 733.348 1126.39 853.125 1021.68C972.902 916.975 1042.57 976.239 1162.38 871.5C1282.19 766.761 1212.56 707.467 1332.37 602.727C1452.18 497.988 1521.82 557.282 1641.66 452.513C1761.51 347.743 1691.84 288.479 1811.65 183.74" stroke="#ADE8F4" stroke-opacity="0.2" stroke-width="2" stroke-miterlimit="10"/>
<path d="M-712.619 521.07C-592.808 416.331 -523.175 475.625 -403.363 370.886C-283.552 266.146 -353.185 206.852 -233.408 102.143C-113.63 -2.56597 -43.9629 56.6979 75.8487 -48.0414C195.66 -152.781 126.027 -212.075 245.839 -316.814C365.65 -421.553 435.283 -362.259 555.129 -467.029C674.975 -571.798 605.308 -631.062 725.119 -735.801" stroke="#ADE8F4" stroke-opacity="0.2" stroke-width="2" stroke-miterlimit="10"/>
<path d="M157.664 1259.79C277.476 1155.05 347.109 1214.34 466.92 1109.61C586.732 1004.87 517.099 945.572 636.876 840.863C756.653 736.154 826.321 795.418 946.132 690.678C1065.94 585.939 996.311 526.645 1116.12 421.906C1235.93 317.167 1305.57 376.461 1425.41 271.691C1545.26 166.922 1475.59 107.658 1595.4 2.91846" stroke="#ADE8F4" stroke-opacity="0.2" stroke-width="2" stroke-miterlimit="10"/>
<path d="M-841.431 390.96C-721.619 286.221 -651.986 345.515 -532.174 240.776C-412.363 136.036 -481.996 76.7423 -362.219 -27.9669C-242.442 -132.676 -172.774 -73.4122 -52.9626 -178.151C66.8489 -282.891 -2.78424 -342.185 117.027 -446.924C236.839 -551.663 306.472 -492.369 426.318 -597.139C546.164 -701.908 476.497 -761.172 596.308 -865.911" stroke="#ADE8F4" stroke-opacity="0.2" stroke-width="2" stroke-miterlimit="10"/>
<path d="M28.8539 1129.68C148.665 1024.94 218.299 1084.23 338.11 979.495C457.922 874.756 388.289 815.462 508.066 710.753C627.843 606.044 697.51 665.308 817.322 560.568C937.134 455.829 867.5 396.535 987.312 291.796C1107.12 187.056 1176.76 246.35 1296.6 141.581C1416.45 36.8116 1346.78 -22.4523 1466.59 -127.192" stroke="#ADE8F4" stroke-opacity="0.2" stroke-width="2" stroke-miterlimit="10"/>
<path d="M-412.838 754.069C-293.027 649.33 -223.394 708.624 -103.582 603.885C16.2296 499.145 -53.4035 439.851 66.3736 335.142C186.151 230.433 255.818 289.697 375.63 184.958C495.441 80.2182 425.808 20.9242 545.62 -83.8151C665.431 -188.554 735.065 -129.26 854.911 -234.03C974.757 -338.799 905.089 -398.063 1024.9 -502.802" stroke="#ADE8F4" stroke-opacity="0.2" stroke-width="2" stroke-miterlimit="10"/>
<path d="M455.714 1503.87C575.526 1399.13 645.159 1458.42 764.971 1353.69C884.782 1248.95 815.149 1189.65 934.926 1084.94C1054.7 980.233 1124.37 1039.5 1244.18 934.758C1363.99 830.019 1294.36 770.725 1414.17 665.985C1533.98 561.246 1603.62 620.54 1723.46 515.771C1843.31 411.001 1773.64 351.737 1893.45 246.998" stroke="#ADE8F4" stroke-opacity="0.2" stroke-width="2" stroke-miterlimit="10"/>
<path d="M-630.819 584.328C-511.007 479.589 -441.374 538.883 -321.562 434.143C-201.751 329.404 -271.384 270.11 -151.607 165.401C-31.8297 60.6917 37.8379 119.956 157.649 15.2163C277.461 -89.523 207.828 -148.817 327.639 -253.556C447.451 -358.296 517.084 -299.002 636.93 -403.771C756.776 -508.54 687.109 -567.804 806.92 -672.544" stroke="#ADE8F4" stroke-opacity="0.2" stroke-width="2" stroke-miterlimit="10"/>
<path d="M237.734 1321.8C357.546 1217.06 427.179 1276.36 546.99 1171.62C666.802 1066.88 597.169 1007.59 716.946 902.876C836.723 798.167 906.391 857.431 1026.2 752.691C1146.01 647.952 1076.38 588.658 1196.19 483.919C1316 379.179 1385.64 438.473 1505.48 333.704C1625.33 228.935 1555.66 169.671 1675.47 64.9314" stroke="#ADE8F4" stroke-opacity="0.2" stroke-width="2" stroke-miterlimit="10"/>
<path d="M-202.226 947.437C-82.4146 842.698 -12.7814 901.992 107.03 797.253C226.842 692.513 157.209 633.219 276.986 528.51C396.763 423.801 466.43 483.065 586.242 378.325C706.054 273.586 636.42 214.292 756.232 109.553C876.044 4.81353 945.677 64.1075 1065.52 -40.6619C1185.37 -145.431 1115.7 -204.695 1235.51 -309.435" stroke="#ADE8F4" stroke-opacity="0.2" stroke-width="2" stroke-miterlimit="10"/>
<path d="M666.327 1697.24C786.138 1592.5 855.771 1651.79 975.583 1547.05C1095.39 1442.31 1025.76 1383.02 1145.54 1278.31C1265.32 1173.6 1334.98 1232.87 1454.79 1128.13C1574.61 1023.39 1504.97 964.092 1624.78 859.353C1744.6 754.614 1814.23 813.908 1934.08 709.138C2053.92 604.369 1984.25 545.105 2104.07 440.366" stroke="#ADE8F4" stroke-opacity="0.2" stroke-width="2" stroke-miterlimit="10"/>
</g>
<defs>
<clipPath id="clip0_21_6">
<rect width="1443" height="1245" fill="white" transform="translate(0 -162)"/>
</clipPath>
</defs>
</svg>
