<svg width="153" height="98" viewBox="0 0 153 98" fill="none" xmlns="http://www.w3.org/2000/svg">
<path d="M40.1884 50.7932C39.2849 50.7929 38.4138 50.4616 37.7441 49.8634C37.0744 49.2652 36.6538 48.4428 36.5641 47.5559L36.2754 44.6912L35.2875 47.201C35.0652 47.7658 34.7018 48.2659 34.231 48.6549C33.7602 49.0439 33.1973 49.3092 32.5947 49.426L28.4449 50.2292C28.2133 50.2756 27.9776 50.2991 27.7413 50.2993C27.0589 50.2981 26.3905 50.1079 25.8124 49.7503C25.2342 49.3927 24.7694 48.8822 24.471 48.2768L21.6259 42.4974L21.1839 47.5125C21.1046 48.4079 20.6882 49.2416 20.0166 49.8491C19.3451 50.4566 18.4673 50.7939 17.5561 50.7944C17.3852 50.7953 17.2144 50.7834 17.0453 50.7588L3.13671 48.8197C2.64378 48.7511 2.17034 48.5835 1.74564 48.3273C1.32095 48.0711 0.954038 47.7317 0.667533 47.3301C0.381028 46.9285 0.181006 46.4732 0.0798865 45.9923C-0.0212331 45.5115 -0.0213125 45.0153 0.0796112 44.5343L7.34515 9.77892C7.51466 8.96982 7.96152 8.24299 8.61053 7.72083C9.25955 7.19868 10.0711 6.91305 10.9086 6.91199C11.121 6.91267 11.333 6.93092 11.5424 6.96652L20.8467 8.57625C21.4038 8.67266 21.9305 8.89583 22.385 9.22797C22.8395 9.56011 23.2093 9.99211 23.4652 10.4898L29.2162 21.6715L34.6482 10.3429C34.8918 9.83347 35.2535 9.3878 35.7041 9.04185C36.1547 8.69591 36.6814 8.45942 37.2418 8.35157L45.7546 6.71841C45.9853 6.67394 46.2197 6.65125 46.4548 6.65057C47.286 6.65214 48.0917 6.93382 48.7383 7.44896C49.3849 7.96409 49.8338 8.6817 50.0104 9.48294L57.7326 44.5678C57.8394 45.0524 57.8434 45.5536 57.7443 46.0399C57.6451 46.5262 57.445 46.987 57.1566 47.3933C56.8682 47.7995 56.4977 48.1425 56.0683 48.4006C55.639 48.6588 55.1602 48.8265 54.662 48.8931L40.6789 50.7632C40.5162 50.7838 40.3524 50.7938 40.1884 50.7932Z" fill="#023E8A"/>
<path d="M40.1884 48.2256C39.285 48.2258 38.4138 47.8948 37.744 47.2967C37.0742 46.6986 36.6537 45.8762 36.5641 44.9893L36.2755 42.1225L35.2876 44.6333C35.0653 45.1981 34.7018 45.6982 34.231 46.0872C33.7602 46.4762 33.1973 46.7415 32.5947 46.8583L28.4449 47.6638C27.6562 47.8158 26.8386 47.7066 26.1192 47.3532C25.3998 46.9997 24.8188 46.4218 24.4666 45.7092L21.6215 39.9242L21.1794 44.9393C21.1006 45.8349 20.6844 46.6689 20.0128 47.2765C19.3411 47.8841 18.463 48.2212 17.5517 48.2212C17.3808 48.2219 17.2101 48.2104 17.0409 48.1867L3.13228 46.2476C2.63954 46.1788 2.16628 46.0112 1.74176 45.755C1.31724 45.4988 0.950458 45.1596 0.663996 44.7581C0.377534 44.3567 0.177483 43.9016 0.0762116 43.4209C-0.0250601 42.9402 -0.0254012 42.4442 0.0751792 41.9634L7.34071 7.20566C7.51046 6.39676 7.95738 5.67025 8.60638 5.14832C9.25537 4.62638 10.0668 4.34088 10.9041 4.33988C11.1166 4.34037 11.3286 4.35896 11.5379 4.39549L20.8422 6.00306C21.3993 6.09946 21.926 6.32257 22.3805 6.65471C22.835 6.98685 23.2048 7.41892 23.4607 7.91658L29.2117 19.0982L34.6437 7.7708C34.8876 7.26147 35.2494 6.81583 35.6999 6.46974C36.1504 6.12365 36.677 5.88684 37.2373 5.77837L45.7501 4.1463C45.9807 4.10112 46.2153 4.07876 46.4504 4.07955C47.2815 4.08065 48.0872 4.36207 48.7339 4.87705C49.3806 5.39203 49.8294 6.10967 50.0059 6.9109L57.7281 41.9967C57.8349 42.4813 57.8389 42.9824 57.7398 43.4686C57.6406 43.9547 57.4405 44.4153 57.1521 44.8214C56.8636 45.2275 56.4931 45.5703 56.0638 45.8282C55.6344 46.0861 55.1556 46.2535 54.6575 46.3199L40.6745 48.1889C40.5136 48.2126 40.3511 48.2248 40.1884 48.2256Z" fill="#00B4D8"/>
<path d="M17.5517 47.7127C17.3932 47.7133 17.235 47.7021 17.0781 47.6794L3.16837 45.7414C2.71079 45.6774 2.27136 45.5216 1.87718 45.2836C1.48299 45.0456 1.14238 44.7305 0.876428 44.3576C0.610472 43.9847 0.424811 43.562 0.330835 43.1156C0.236858 42.6692 0.236547 42.2085 0.330009 41.762L7.59672 7.00765C7.75242 6.25511 8.16646 5.57855 8.76898 5.09215C9.3715 4.60576 10.1256 4.33927 10.9041 4.33763C11.1015 4.33827 11.2984 4.35541 11.4928 4.38883L20.7972 5.99864C21.3149 6.08849 21.8043 6.29609 22.2265 6.60506C22.6487 6.91404 22.9921 7.31586 23.2295 7.7786L29.2197 19.4275L34.8772 7.62623C35.104 7.1528 35.4404 6.73864 35.8594 6.41725C36.2785 6.09585 36.7683 5.87621 37.2892 5.77612L45.8031 4.14296C46.6706 3.97929 47.5685 4.15619 48.3057 4.63599C49.0429 5.11579 49.5611 5.86059 49.7499 6.71174L57.4722 41.7965C57.5712 42.2464 57.5747 42.7117 57.4826 43.1631C57.3905 43.6144 57.2048 44.0421 56.937 44.4192C56.6693 44.7963 56.3253 45.1146 55.9268 45.3542C55.5283 45.5938 55.0839 45.7495 54.6215 45.8115L40.6384 47.6805C40.489 47.7018 40.3383 47.7122 40.1874 47.7116C39.3489 47.7114 38.5404 47.4039 37.9187 46.8489C37.2969 46.2939 36.9062 45.5309 36.8224 44.7079L36.4243 40.773L35.044 44.2829C34.8378 44.8077 34.5003 45.2726 34.063 45.6342C33.6257 45.9958 33.1028 46.2424 32.5429 46.351L28.3942 47.1542C28.1789 47.1971 27.9598 47.2187 27.7402 47.2188C27.1048 47.2189 26.4822 47.0425 25.9438 46.7098C25.4053 46.3771 24.9728 45.9015 24.6955 45.3375L21.4388 38.7249L20.9167 44.6645C20.8436 45.4965 20.457 46.2712 19.8332 46.8358C19.2094 47.4003 18.3937 47.7136 17.5472 47.7139L17.5517 47.7127Z" fill="#0077B6"/>
<path d="M19.1339 27.6789L17.5551 45.6602L3.64532 43.7211L10.912 8.96564L20.2164 10.5743L29.329 28.2952L37.9387 10.3385L46.4526 8.70422L54.1738 43.7912L40.1907 45.6602L38.3909 27.8402L31.8911 44.3552L27.7424 45.1595L19.1339 27.6789Z" fill="#023E8A"/>
<path d="M19.1339 26.9123L17.5551 44.8935L3.64536 42.9533L10.9121 8.19789L20.2164 9.80654L29.329 27.5275L37.9388 9.57072L46.4526 7.93756L54.1738 43.0234L40.1907 44.8935L38.3932 27.0781L31.8934 43.5919L27.7447 44.3974L19.1339 26.9123Z" fill="#ADB8B4"/>
<path d="M19.1339 26.6564L17.5551 44.6365L3.64536 42.6964L10.9121 7.94203L20.2164 9.55068L29.329 27.2716L37.9388 9.3137L46.4526 7.68054L54.1738 42.7664L40.1907 44.6365L38.3932 26.821L31.8934 43.3349L27.7447 44.1404L19.1339 26.6564Z" fill="#ADB8B4"/>
<path d="M19.1339 26.3939L17.5551 44.3752L3.64536 42.4361L10.9121 7.68062L20.2164 9.28934L29.329 27.0102L37.9388 9.05345L46.4526 7.42029L54.1738 42.5062L40.1907 44.3752L38.3932 26.5608L31.8911 43.0814L27.7424 43.8846L19.1339 26.3939Z" fill="#ADB8B4"/>
<path d="M19.1339 26.1413L17.5551 44.1215L3.64536 42.1824L10.9121 7.42805L20.2164 9.0367L29.329 26.7576L37.9388 8.79979L46.4526 7.16663L54.1738 42.2525L40.1907 44.1215L38.3932 26.3071L31.8934 42.821L27.7447 43.6264L19.1339 26.1413Z" fill="#ADB8B4"/>
<path d="M19.1339 25.8844L17.5551 43.8635L3.64536 41.9255L10.9121 7.16892L20.2164 8.77866L29.329 26.4996L37.9388 8.54284L46.4526 6.91083L54.1738 41.9956L40.1907 43.8635L38.3932 26.0513L31.8934 42.564L27.7447 43.3684L19.1339 25.8844Z" fill="#ADB8B4"/>
<path d="M19.1339 25.6273L17.5551 43.6086L3.64536 41.6695L10.9121 6.91291L20.2164 8.52163L29.329 26.2425L37.9388 8.28574L46.4526 6.65265L54.1738 41.7374L40.1907 43.6086L38.3932 25.792L31.8911 42.3025L27.7424 43.108L19.1339 25.6273Z" fill="#ADB8B4"/>
<path d="M19.1339 25.3682L17.5552 43.3516L3.64204 41.4126L10.9088 6.65815L20.2131 8.26572L29.3257 25.9878L37.9355 8.03098L46.4493 6.39789L54.1704 41.4837L40.1874 43.3539L38.3899 25.5383L31.89 42.0522L27.7414 42.8565L19.1339 25.3682Z" fill="#ADB8B4"/>
<path d="M19.1339 25.1122L17.5551 43.0923L3.64536 41.1533L10.9121 6.39893L20.2164 8.00874L29.329 25.7285L37.9388 7.77176L46.4526 6.13751L54.1738 41.2233L40.1907 43.0923L38.391 25.2813L31.8911 41.7941L27.7424 42.5995L19.1339 25.1122Z" fill="#ADB8B4"/>
<path d="M19.1339 24.8563L17.5551 42.8365L3.64536 40.8985L10.9121 6.13968L20.2164 7.75173L29.329 25.4704L37.9388 7.51475L46.4526 5.88159L54.1704 40.9675L40.1874 42.8365L38.3899 25.0221L31.89 41.536L27.7413 42.3392L19.1339 24.8563Z" fill="#ADB8B4"/>
<path d="M19.134 24.5994L17.5552 42.5796L3.64548 40.6405L10.9122 5.88508L20.2165 7.49373L29.3292 25.2147L37.9389 7.25784L46.4528 5.6236L54.1739 40.7106L40.1909 42.5796L38.3934 24.7652L31.8935 41.2791L27.7448 42.0834L19.134 24.5994Z" fill="#ADB8B4"/>
<path d="M19.1339 24.5995L17.5551 42.5796L3.64532 40.6406L10.912 5.88515L20.2164 7.49379L29.329 25.2147L37.9387 7.25791L46.4526 5.62366L54.1738 40.7106L40.1907 42.5796L38.3932 24.7652L31.8934 41.2792L27.7447 42.0835L19.1339 24.5995Z" fill="#FFFFFE"/>
<path d="M39.4261 25.178C39.4029 24.9483 39.302 24.7329 39.1399 24.5665C38.9777 24.4001 38.7636 24.2922 38.5319 24.2602C38.4845 24.2602 38.436 24.2513 38.3898 24.2513C38.18 24.2518 37.9752 24.3147 37.8022 24.4318C37.6291 24.5489 37.496 24.7148 37.42 24.9077L31.1287 40.8943L28.3288 41.4371L20.0697 24.6652C19.9852 24.4913 19.8526 24.3445 19.6872 24.2418C19.5218 24.1391 19.3304 24.0845 19.1349 24.0844C19.071 24.0848 19.0072 24.0908 18.9443 24.1023C18.7205 24.1436 18.5165 24.2559 18.3634 24.4222C18.2103 24.5885 18.1165 24.7997 18.0963 25.0234L16.609 41.9255L4.88121 40.2913L11.7182 7.58391L19.5161 8.93338L28.3931 26.1959C28.4801 26.365 28.6129 26.5071 28.7766 26.6065C28.9404 26.7058 29.1289 26.7586 29.3211 26.7589H29.3358C29.5305 26.7564 29.7206 26.6999 29.8843 26.5958C30.0481 26.4917 30.1788 26.3443 30.2616 26.1703L38.6458 8.68419L45.6373 7.34137L52.9039 40.358L41.1086 41.9378L39.4261 25.178Z" fill="#EAECEB"/>
<path d="M99.2368 50.7045C98.7004 50.7007 98.1711 50.5801 97.6857 50.3512C97.2002 50.1222 96.77 49.7903 96.4249 49.3783C96.3175 49.3942 96.2079 49.4101 96.0961 49.4169L81.8976 50.4778C81.8065 50.4846 81.7161 50.488 81.6265 50.488C81.1215 50.4882 80.6219 50.3833 80.1595 50.1797C79.697 49.9762 79.2817 49.6785 78.9399 49.3056C78.598 48.9327 78.3371 48.4926 78.1735 48.0132C78.01 47.5339 77.9475 47.0257 77.9898 46.5208L80.2493 19.3797C80.3247 18.4644 80.7405 17.6111 81.4139 16.9891C82.0874 16.3671 82.9695 16.0221 83.8848 16.0223C84.0579 16.0231 84.2307 16.0352 84.4022 16.0586L92.2821 17.1921C93.1988 17.3244 94.0311 17.8013 94.6105 18.5262C96.9817 17.2832 99.5926 16.5686 102.264 16.4315C111.325 16.4315 113.14 22.6158 114.223 28.9485L116.916 45.0632C116.999 45.5584 116.98 46.0655 116.859 46.5529C116.738 47.0403 116.519 47.4975 116.215 47.8962C115.911 48.2949 115.528 48.6265 115.09 48.8704C114.652 49.1142 114.17 49.2652 113.671 49.3137L99.5904 50.6875C99.4729 50.6993 99.3549 50.705 99.2368 50.7045Z" fill="#023E8A"/>
<path d="M99.2367 48.0915C98.2917 48.091 97.3838 47.7229 96.7038 47.0645C96.6053 46.9693 96.5121 46.8687 96.4248 46.763C96.3159 46.7817 96.2062 46.7946 96.096 46.8016L81.8975 47.8625C81.806 47.8704 81.7156 47.8727 81.6264 47.8727C81.1213 47.8733 80.6216 47.7685 80.1589 47.5651C79.6963 47.3617 79.2809 47.064 78.939 46.691C78.597 46.318 78.3361 45.8779 78.1727 45.3984C78.0093 44.9188 77.947 44.4105 77.9897 43.9056L80.2492 16.7644C80.3264 15.8497 80.7426 14.9973 81.4157 14.3755C82.0888 13.7537 82.9698 13.4077 83.8847 13.4059C84.0579 13.4068 84.2307 13.4197 84.4021 13.4444L92.282 14.5779C93.1986 14.709 94.031 15.1852 94.6104 15.9097C96.9817 14.667 99.5926 13.9529 102.264 13.8162C111.325 13.8162 113.14 20.0016 114.223 26.3343L116.916 42.449C116.999 42.9441 116.979 43.451 116.858 43.9382C116.737 44.4254 116.518 44.8825 116.214 45.281C115.91 45.6796 115.527 46.0111 115.089 46.2549C114.652 46.4987 114.169 46.6497 113.671 46.6984L99.5903 48.0722C99.4728 48.0846 99.3497 48.0915 99.2367 48.0915Z" fill="#00B4D8"/>
<path d="M99.2366 47.5625C98.7125 47.5637 98.1952 47.4423 97.7259 47.2079C97.2567 46.9736 96.8483 46.6328 96.5332 46.2125C96.3841 46.2436 96.2331 46.2648 96.0813 46.276L81.8827 47.3369C81.7991 47.3426 81.7133 47.346 81.6309 47.346C81.1622 47.3457 80.6987 47.2479 80.2696 47.0588C79.8406 46.8698 79.4553 46.5935 79.138 46.2474C78.8208 45.9013 78.5786 45.493 78.4267 45.0482C78.2747 44.6034 78.2163 44.1319 78.2552 43.6633L80.5146 16.5211C80.5854 15.6715 80.9717 14.8796 81.5969 14.3023C82.2221 13.725 83.0407 13.4044 83.8903 13.404C84.0518 13.4039 84.213 13.4156 84.3727 13.4391L92.2515 14.5725C92.7073 14.638 93.145 14.7961 93.538 15.037C93.9309 15.2778 94.2708 15.5965 94.5369 15.9736C96.9267 14.6963 99.5661 13.9593 102.27 13.8143C111.128 13.8143 112.908 19.8908 113.97 26.1136L116.658 42.2351C116.735 42.695 116.717 43.1659 116.605 43.6184C116.492 44.071 116.289 44.4955 116.006 44.8656C115.723 45.2358 115.368 45.5437 114.961 45.7701C114.555 45.9966 114.107 46.1367 113.644 46.1819L99.5631 47.5545C99.4558 47.5625 99.3496 47.5625 99.2366 47.5625Z" fill="#0077B6"/>
<path d="M100.102 31.2052C100.293 28.1448 99.2841 26.0694 96.6665 26.0694C95.3829 26.1405 94.1439 26.5661 93.0863 27.2993L95.826 44.196L81.6263 45.2581L83.8858 18.1158L91.7668 19.2493L92.2956 22.5523C95.225 20.478 99.3338 18.5262 102.265 18.5262C107.838 18.5262 109.447 21.1048 110.626 27.9986L113.317 44.1019L99.2367 45.4746L100.102 31.2052Z" fill="#124DAC"/>
<path d="M100.102 30.423C100.293 27.3626 99.2841 25.2884 96.6665 25.2884C95.383 25.3594 94.144 25.785 93.0864 26.5182L95.8261 43.4161L81.6264 44.4771L83.8858 17.3336L91.7669 18.4671L92.2956 21.7701C95.225 19.6969 99.3338 17.7462 102.265 17.7462C107.838 17.7462 109.447 20.3237 110.626 27.2187L113.317 43.3209L99.2367 44.6935L100.102 30.423Z" fill="#ADB8B4"/>
<path d="M100.102 30.1612C100.293 27.1008 99.2841 25.0254 96.6665 25.0254C95.3831 25.097 94.1442 25.5225 93.0864 26.2552L95.8261 43.1531L81.6264 44.214L83.8858 17.0718L91.7669 18.2053L92.2956 21.5082C95.225 19.4351 99.3338 17.481 102.265 17.481C107.838 17.481 109.447 20.0597 110.626 26.9557L113.317 43.0579L99.2367 44.4317L100.102 30.1612Z" fill="#ADB8B4"/>
<path d="M100.102 29.8993C100.293 26.8389 99.2841 24.7646 96.6665 24.7646C95.3828 24.8356 94.1437 25.2617 93.0864 25.9956L95.8261 42.8924L81.6264 43.9522L83.8858 16.8099L91.7669 17.9434L92.2956 21.2463C95.225 19.1732 99.3338 17.2225 102.265 17.2225C107.838 17.2225 109.447 19.8 110.626 26.695L113.317 42.796L99.2367 44.1698L100.102 29.8993Z" fill="#ADB8B4"/>
<path d="M100.102 29.6386C100.293 26.5783 99.2841 24.5017 96.6665 24.5017C95.383 24.5727 94.144 24.9984 93.0864 25.7315L95.8261 42.6294L81.6264 43.6892L83.8858 16.5492L91.7669 17.6827L92.2956 20.9856C95.225 18.9125 99.3338 16.9595 102.265 16.9595C107.838 16.9595 109.447 19.5393 110.626 26.4343L113.317 42.5365L99.2367 43.908L100.102 29.6386Z" fill="#ADB8B4"/>
<path d="M100.102 29.3757C100.293 26.3153 99.2841 24.241 96.6665 24.241C95.3831 24.3117 94.1441 24.7369 93.0864 25.4697L95.8261 42.3665L81.6264 43.4285L83.8858 16.2852L91.7669 17.4186L92.2956 20.7204C95.225 18.6473 99.3338 16.6955 102.265 16.6955C107.838 16.6955 109.447 19.2741 110.626 26.168L113.317 42.2701L99.2367 43.6451L100.102 29.3757Z" fill="#ADB8B4"/>
<path d="M100.102 29.1139C100.293 26.0535 99.2841 23.9792 96.6665 23.9792C95.3832 24.0504 94.1443 24.4756 93.0864 25.2079L95.8261 42.1069L81.6264 43.1667L83.8858 16.0244L91.7669 17.1579L92.2956 20.4609C95.225 18.3877 99.3338 16.4359 102.265 16.4359C107.838 16.4359 109.447 19.0134 110.626 25.9095L113.317 42.0117L99.2367 43.3843L100.102 29.1139Z" fill="#ADB8B4"/>
<path d="M100.102 28.8509C100.293 25.7905 99.2841 23.7162 96.6665 23.7162C95.3828 23.7872 94.1437 24.2132 93.0864 24.9472L95.8261 41.844L81.6264 42.9049L83.8858 15.7626L91.7669 16.8961L92.2956 20.1991C95.225 18.1248 99.3338 16.1718 102.265 16.1718C107.838 16.1718 109.447 18.7505 110.626 25.6454L113.317 41.7476L99.2367 43.1214L100.102 28.8509Z" fill="#ADB8B4"/>
<path d="M100.102 28.5901C100.293 25.5297 99.2841 23.4566 96.6665 23.4566C95.3831 23.5263 94.1439 23.9512 93.0864 24.6842L95.8261 41.5821L81.6264 42.6419L83.8858 15.5018L91.7669 16.6353L92.2956 19.9383C95.225 17.8663 99.3338 15.9133 102.265 15.9133C107.838 15.9133 109.447 18.492 110.626 25.3869L113.317 41.4891L99.2367 42.8606L100.102 28.5901Z" fill="#ADB8B4"/>
<path d="M100.102 28.3283C100.293 25.2679 99.2841 23.1936 96.6665 23.1936C95.3831 23.2643 94.1441 23.6895 93.0864 24.4223L95.8261 41.3191L81.6264 42.38L83.8858 15.2401L91.7669 16.3735L92.2956 19.6776C95.225 17.6045 99.3338 15.6515 102.265 15.6515C107.838 15.6515 109.447 18.229 110.626 25.1251L113.317 41.2273L99.2367 42.5988L100.102 28.3283Z" fill="#ADB8B4"/>
<path d="M100.102 28.0666C100.293 25.0062 99.2841 22.9308 96.6665 22.9308C95.3831 23.0024 94.1442 23.428 93.0863 24.1606L95.826 41.0585L81.6263 42.1183L83.8858 14.976L91.7668 16.1095L92.2956 19.4102C95.225 17.3382 99.3338 15.3863 102.265 15.3863C107.838 15.3863 109.447 17.965 110.626 24.8588L113.317 40.961L99.2367 42.3359L100.102 28.0666Z" fill="#ADB8B4"/>
<path d="M100.102 28.0666C100.293 25.0062 99.2841 22.9308 96.6665 22.9308C95.3831 23.0024 94.1442 23.428 93.0863 24.1606L95.826 41.0585L81.6263 42.1183L83.8858 14.976L91.7668 16.1095L92.2956 19.4102C95.225 17.3382 99.3338 15.3863 102.265 15.3863C107.838 15.3863 109.447 17.965 110.626 24.8588L113.317 40.961L99.2367 42.3359L100.102 28.0666Z" fill="#FFFFFE"/>
<path d="M101.142 28.6537C101.275 27.7764 101.227 26.881 101.001 26.0231C100.775 25.1652 100.375 24.3631 99.8275 23.6664C99.419 23.2437 98.9259 22.9128 98.3806 22.6953C97.8353 22.4778 97.2503 22.3789 96.6641 22.4049C95.1759 22.4696 93.7362 22.9553 92.5113 23.8059C92.3438 23.9175 92.2119 24.0752 92.1318 24.2603C92.0516 24.4453 92.0264 24.6496 92.0594 24.8487L94.6148 40.621L82.7707 41.5051L84.8347 16.6899L90.8596 17.5547L91.2663 20.0982C91.294 20.2737 91.3658 20.4392 91.475 20.5791C91.5843 20.7189 91.7273 20.8285 91.8906 20.8974C92.0538 20.9663 92.2319 20.9923 92.4079 20.9728C92.5839 20.9534 92.7521 20.8892 92.8965 20.7863C95.5966 18.8786 99.5405 16.9539 102.267 16.9539C106.98 16.9539 108.418 18.6428 109.601 25.5582L112.105 40.5507L100.356 41.6978L101.142 28.6537Z" fill="#EAECEB"/>
<path d="M139.561 50.7023C139.065 50.7022 138.574 50.6037 138.117 50.4128C137.661 50.2219 137.248 49.9423 136.903 49.5909C134.851 50.3207 132.685 50.6889 130.503 50.6786C120.798 50.6786 114.011 43.6238 114.011 33.5201C114.011 23.7004 121.365 16.5746 131.497 16.5746C132.522 16.5734 133.545 16.6374 134.561 16.7662L135.507 5.92873C135.586 5.0205 136.009 4.17472 136.692 3.55859C137.375 2.94247 138.267 2.6009 139.194 2.60144C139.347 2.60143 139.5 2.60968 139.652 2.62621L147.957 3.65869C148.822 3.76653 149.62 4.1711 150.211 4.80117C150.803 5.43125 151.149 6.24639 151.19 7.10321L152.992 45.6245C153.035 46.5346 152.729 47.4273 152.135 48.1262C151.541 48.8252 150.703 49.2795 149.785 49.3993L140.042 50.6696C139.883 50.6908 139.722 50.7017 139.561 50.7023ZM131.489 31.6198C131.658 32.0272 131.958 32.3686 132.344 32.5911C132.729 32.8136 133.178 32.9048 133.622 32.8506C133.798 32.8583 133.973 32.8194 134.128 32.7379C133.999 31.6885 132.398 31.6039 131.893 31.6039C131.758 31.6018 131.623 31.6071 131.489 31.6198Z" fill="#023E8A"/>
<path d="M139.561 48.102C139.065 48.1018 138.574 48.0034 138.117 47.8127C137.661 47.622 137.248 47.3428 136.903 46.9918C134.851 47.721 132.685 48.0892 130.503 48.0794C120.798 48.0794 114.011 41.0236 114.011 30.9176C114.011 21.1002 121.365 13.9743 131.497 13.9743C132.522 13.9728 133.545 14.0364 134.561 14.1648L135.507 3.32733C135.55 2.83913 135.693 2.36453 135.927 1.93196C136.161 1.49938 136.482 1.11768 136.869 0.809698C137.256 0.501719 137.703 0.273778 138.182 0.139493C138.661 0.00520689 139.162 -0.0326335 139.656 0.0281817L147.962 1.05949C148.826 1.1669 149.625 1.57134 150.216 2.2015C150.808 2.83166 151.154 3.64712 151.195 4.50408L152.996 43.0231C153.038 43.9334 152.733 44.8263 152.139 45.5257C151.545 46.2251 150.707 46.6802 149.789 46.8013L140.047 48.0716C139.886 48.0917 139.723 48.1018 139.561 48.102ZM131.489 29.0195C131.658 29.4257 131.957 29.7662 132.342 29.9884C132.726 30.2107 133.174 30.3023 133.617 30.2492C133.793 30.2563 133.968 30.2174 134.123 30.1364C133.994 29.0871 132.393 29.0025 131.888 29.0025C131.755 29.001 131.622 29.0067 131.489 29.0195Z" fill="#00B4D8"/>
<path d="M139.561 47.5825C139.072 47.5818 138.588 47.4782 138.142 47.2786C137.697 47.0789 137.299 46.7879 136.977 46.4249C134.907 47.1856 132.713 47.5698 130.503 47.5588C120.953 47.5588 114.283 40.6088 114.283 30.6584C114.283 20.9886 121.524 13.9767 131.503 13.9767C132.608 13.9745 133.712 14.0498 134.806 14.2021L135.777 3.09069C135.85 2.24716 136.242 1.46131 136.876 0.889171C137.51 0.317029 138.339 0.000453237 139.199 0.00232925C139.343 0.00198396 139.486 0.0106545 139.629 0.0282651L147.935 1.05958C148.738 1.15958 149.479 1.53517 150.028 2.12013C150.577 2.70509 150.898 3.46193 150.936 4.25732L152.737 42.7752C152.777 43.6207 152.494 44.4502 151.942 45.0998C151.391 45.7495 150.612 46.1721 149.76 46.284L140.018 47.5542C139.867 47.5732 139.714 47.5826 139.561 47.5825ZM131.184 28.545C131.294 29.08 131.606 29.5538 132.058 29.8703C132.51 30.1867 133.068 30.3222 133.617 30.2493C133.762 30.2638 133.907 30.2461 134.044 30.1975C134.18 30.1489 134.304 30.0707 134.405 29.9686C134.395 28.5889 132.475 28.4763 131.886 28.4763C131.65 28.4742 131.414 28.4972 131.184 28.545Z" fill="#0077B6"/>
<path d="M139.565 45.5028L138.907 42.889C136.463 44.6222 133.515 45.5315 130.503 45.4814C123.684 45.4814 117.718 40.7587 117.718 31.9613C117.718 24.2967 123.148 18.661 131.503 18.661C133.678 18.6417 135.84 19.0075 137.883 19.7409L139.199 4.68671L147.505 5.71802L149.307 44.2258L139.565 45.5028ZM137.835 31.3121C137.835 28.5314 135.545 26.3978 131.893 26.3978C129.871 26.3978 127.727 27.1654 127.727 29.6823C127.727 32.5576 130.138 34.9303 133.622 34.9303C134.14 34.9669 134.661 34.9021 135.154 34.7398C135.647 34.5774 136.102 34.3207 136.494 33.9844C136.886 33.6481 137.206 33.2388 137.436 32.7802C137.666 32.3216 137.802 31.8226 137.835 31.3121Z" fill="#124DAC"/>
<path d="M139.565 44.7239L138.907 42.1135C136.463 43.8461 133.515 44.7553 130.503 44.7059C123.684 44.7059 117.718 39.9832 117.718 31.1858C117.718 23.5212 123.148 17.8855 131.503 17.8855C133.678 17.8659 135.84 18.2312 137.883 18.9642L139.199 3.91003L147.505 4.94141L149.306 43.4604L139.565 44.7239ZM137.835 30.5343C137.835 27.7548 135.545 25.6211 131.893 25.6211C129.871 25.6211 127.727 26.3876 127.727 28.9045C127.727 31.781 130.138 34.1547 133.622 34.1547C134.141 34.1913 134.661 34.1265 135.154 33.9641C135.648 33.8016 136.103 33.5446 136.495 33.2081C136.886 32.8715 137.207 32.462 137.437 32.0031C137.667 31.5442 137.802 31.045 137.835 30.5343Z" fill="#ADB8B4"/>
<path d="M139.565 44.4658L138.907 41.8519C136.463 43.5845 133.515 44.4937 130.503 44.4444C123.684 44.4444 117.718 39.7228 117.718 30.9243C117.718 23.2597 123.148 17.624 131.503 17.624C133.678 17.6047 135.84 17.9704 137.883 18.7037L139.199 3.64966L147.505 4.68214L149.306 43.2011L139.565 44.4658ZM137.835 30.2739C137.835 27.4944 135.545 25.3596 131.893 25.3596C129.871 25.3596 127.727 26.1271 127.727 28.6452C127.727 31.5205 130.138 33.8943 133.622 33.8943C134.14 33.9308 134.661 33.8658 135.154 33.7033C135.647 33.5407 136.103 33.2838 136.494 32.9473C136.886 32.6108 137.206 32.2013 137.436 31.7425C137.666 31.2836 137.802 30.7845 137.835 30.2739Z" fill="#ADB8B4"/>
<path d="M139.565 44.2042L138.907 41.5904C136.463 43.3236 133.515 44.2329 130.503 44.1828C123.684 44.1828 117.718 39.459 117.718 30.6628C117.718 22.9982 123.148 17.3625 131.503 17.3625C133.678 17.3429 135.84 17.7082 137.883 18.4411L139.199 3.38696L147.505 4.41834L149.306 42.9385L139.565 44.2042ZM137.835 30.0135C137.835 27.2329 135.545 25.1003 131.893 25.1003C129.871 25.1003 127.727 25.8679 127.727 28.3848C127.727 31.2602 130.138 33.6328 133.622 33.6328C134.14 33.6694 134.661 33.6046 135.154 33.4422C135.647 33.2798 136.103 33.023 136.494 32.6865C136.886 32.3501 137.206 31.9407 137.436 31.4819C137.666 31.0231 137.802 30.5241 137.835 30.0135Z" fill="#ADB8B4"/>
<path d="M139.565 43.9439L138.907 41.3301C136.463 43.0633 133.515 43.9726 130.503 43.9225C123.684 43.9225 117.718 39.1998 117.718 30.4024C117.718 22.7379 123.148 17.1022 131.503 17.1022C133.678 17.0827 135.839 17.4477 137.883 18.1797L139.199 3.12671L147.505 4.15692L149.306 42.6782L139.565 43.9439ZM137.835 29.7532C137.835 26.9726 135.545 24.8389 131.893 24.8389C129.871 24.8389 127.727 25.6064 127.727 28.1245C127.727 30.9998 130.138 33.3736 133.622 33.3736C134.14 33.41 134.661 33.3451 135.154 33.1826C135.647 33.0201 136.103 32.7631 136.494 32.4266C136.886 32.0901 137.206 31.6806 137.436 31.2218C137.666 30.763 137.802 30.2639 137.835 29.7532Z" fill="#ADB8B4"/>
<path d="M139.565 43.6824L138.907 41.0697C136.463 42.8028 133.515 43.7122 130.503 43.6621C123.684 43.6621 117.718 38.9382 117.718 30.142C117.718 22.4718 123.148 16.8417 131.503 16.8417C133.678 16.822 135.84 17.1875 137.883 17.9204L139.199 2.86627L147.505 3.89648L149.306 42.4166L139.565 43.6824ZM137.835 29.4928C137.835 26.7144 135.545 24.5795 131.893 24.5795C129.871 24.5795 127.727 25.346 127.727 27.864C127.727 30.7394 130.138 33.1132 133.622 33.1132C134.14 33.1496 134.661 33.0847 135.154 32.9222C135.647 32.7596 136.103 32.5027 136.494 32.1662C136.886 31.8296 137.206 31.4202 137.436 30.9614C137.666 30.5025 137.802 30.0034 137.835 29.4928Z" fill="#ADB8B4"/>
<path d="M139.565 43.4221L138.907 40.8093C136.463 42.5424 133.515 43.4518 130.503 43.4018C123.684 43.4018 117.718 38.679 117.718 29.8817C117.718 22.2103 123.148 16.5813 131.503 16.5813C133.678 16.5617 135.84 16.9271 137.883 17.66L139.199 2.60706L147.505 3.63837L149.307 42.1517L139.565 43.4221ZM137.835 29.2324C137.835 26.4529 135.545 24.3203 131.893 24.3203C129.871 24.3203 127.727 25.0856 127.727 27.6026C127.727 30.4779 130.138 32.8528 133.622 32.8528C134.14 32.8893 134.661 32.8244 135.154 32.662C135.647 32.4997 136.102 32.2429 136.494 31.9066C136.885 31.5703 137.205 31.1611 137.436 30.7025C137.666 30.244 137.802 29.7451 137.835 29.2347V29.2324Z" fill="#ADB8B4"/>
<path d="M139.565 43.1628L138.907 40.5501C136.463 42.2827 133.515 43.1919 130.503 43.1425C123.684 43.1425 117.718 38.4198 117.718 29.6224C117.718 21.9578 123.148 16.3221 131.503 16.3221C133.678 16.3028 135.84 16.6686 137.883 17.4019L139.199 2.34778L147.505 3.37799L149.307 41.8925L139.565 43.1628ZM137.835 28.9709C137.835 26.1914 135.545 24.0577 131.893 24.0577C129.871 24.0577 127.727 24.8264 127.727 27.3422C127.727 30.2186 130.138 32.5913 133.622 32.5913C134.141 32.6279 134.661 32.5631 135.154 32.4006C135.648 32.2382 136.103 31.9813 136.495 31.6447C136.886 31.3082 137.207 30.8986 137.437 30.4397C137.667 29.9808 137.802 29.4816 137.835 28.9709Z" fill="#ADB8B4"/>
<path d="M139.565 42.9025L138.907 40.2875C136.463 42.0207 133.515 42.93 130.503 42.8799C123.684 42.8799 117.718 38.1572 117.718 29.3598C117.718 21.6953 123.148 16.0596 131.503 16.0596C133.678 16.0393 135.84 16.4047 137.883 17.1382L139.199 2.08405L147.505 3.11543L149.307 41.6333L139.565 42.9025ZM137.835 28.7117C137.835 25.9311 135.545 23.7985 131.893 23.7985C129.871 23.7985 127.727 24.5638 127.727 27.083C127.727 29.9572 130.138 32.331 133.622 32.331C134.14 32.3676 134.661 32.3028 135.154 32.1404C135.647 31.978 136.103 31.7212 136.494 31.3848C136.886 31.0483 137.206 30.6389 137.436 30.1802C137.666 29.7214 137.802 29.2223 137.835 28.7117Z" fill="#ADB8B4"/>
<path d="M139.565 42.6398L138.907 40.0282C136.463 41.7614 133.515 42.6708 130.503 42.6207C123.684 42.6207 117.718 37.8968 117.718 29.1017C117.718 21.4292 123.148 15.8014 131.503 15.8014C133.678 15.7812 135.84 16.1466 137.883 16.8801L139.199 1.82593L147.505 2.85614L149.306 41.3752L139.565 42.6398ZM137.835 28.4513C137.835 25.6707 135.545 23.5381 131.893 23.5381C129.871 23.5381 127.727 24.3046 127.727 26.8215C127.727 29.6968 130.138 32.0706 133.622 32.0706C134.141 32.1072 134.662 32.0422 135.155 31.8795C135.649 31.7167 136.104 31.4594 136.496 31.1224C136.888 30.7853 137.208 30.3753 137.438 29.9159C137.668 29.4565 137.803 28.9568 137.835 28.4457V28.4513Z" fill="#ADB8B4"/>
<path d="M139.565 42.3807L138.907 39.7691C136.463 41.5017 133.515 42.4109 130.503 42.3615C123.684 42.3615 117.718 37.6388 117.718 28.8414C117.718 21.1768 123.148 15.5411 131.503 15.5411C133.679 15.5212 135.84 15.887 137.883 16.6209L139.199 1.56567L147.505 2.59699L149.306 41.1171L139.565 42.3807ZM137.835 28.1911C137.835 25.4104 135.545 23.2778 131.893 23.2778C129.871 23.2778 127.727 24.0432 127.727 26.5623C127.727 29.4366 130.138 31.8114 133.622 31.8114C134.141 31.8479 134.661 31.783 135.154 31.6205C135.647 31.4579 136.103 31.201 136.494 30.8645C136.886 30.5279 137.206 30.1185 137.436 29.6597C137.666 29.2008 137.802 28.7017 137.835 28.1911Z" fill="#ADB8B4"/>
<path d="M139.565 42.3807L138.907 39.7691C136.463 41.5017 133.515 42.4109 130.503 42.3615C123.684 42.3615 117.718 37.6388 117.718 28.8414C117.718 21.1768 123.148 15.5411 131.503 15.5411C133.679 15.5212 135.84 15.887 137.883 16.6209L139.199 1.56567L147.505 2.59699L149.306 41.1171L139.565 42.3807ZM137.835 28.1911C137.835 25.4104 135.545 23.2778 131.893 23.2778C129.871 23.2778 127.727 24.0432 127.727 26.5623C127.727 29.4366 130.138 31.8114 133.622 31.8114C134.141 31.8479 134.661 31.783 135.154 31.6205C135.647 31.4579 136.103 31.201 136.494 30.8645C136.886 30.5279 137.206 30.1185 137.436 29.6597C137.666 29.2008 137.802 28.7017 137.835 28.1911Z" fill="#FFFFFE"/>
<path d="M130.503 41.8374C124.663 41.8374 118.775 37.9803 118.775 29.3576C118.775 22.0233 123.889 17.0955 131.503 17.0955C133.551 17.0784 135.585 17.4219 137.51 18.1099C137.663 18.1662 137.827 18.1871 137.99 18.1707C138.152 18.1544 138.308 18.1013 138.447 18.0157C138.585 17.93 138.701 17.8141 138.786 17.6769C138.871 17.5398 138.923 17.3852 138.937 17.2251L140.158 3.24847L146.49 4.03749L148.208 40.7305L140.365 41.7528L139.935 40.0441C139.893 39.8784 139.81 39.7254 139.694 39.5986C139.577 39.4719 139.431 39.3751 139.268 39.317C139.105 39.2589 138.93 39.2412 138.758 39.2653C138.586 39.2895 138.423 39.3549 138.283 39.4557C136.016 41.0481 133.289 41.8829 130.503 41.8374ZM131.893 22.7571C128.672 22.7571 126.67 24.414 126.67 27.083C126.67 30.6674 129.659 33.3725 133.622 33.3725C134.28 33.4118 134.939 33.3218 135.562 33.1079C136.184 32.8941 136.757 32.5605 137.247 32.1267C137.738 31.6929 138.135 31.1675 138.417 30.581C138.699 29.9946 138.86 29.3588 138.89 28.7107C138.892 25.2075 136.013 22.7571 131.893 22.7571Z" fill="#EAECEB"/>
<path d="M59.7641 50.7046C59.2525 50.7043 58.7468 50.5947 58.2797 50.3828C57.8126 50.1709 57.3946 49.8615 57.0528 49.4746C56.7111 49.0878 56.4533 48.6322 56.2962 48.1374C56.1391 47.6427 56.0863 47.1199 56.141 46.603L58.7354 22.3007C58.8338 21.3744 59.272 20.5198 59.9626 19.9071C59.1672 19.208 58.5316 18.3407 58.1005 17.3659C57.6693 16.3911 57.4529 15.3324 57.4664 14.2638C57.4664 9.38496 61.6704 5.56305 67.0361 5.56305C73.513 5.56305 76.413 9.54083 76.413 13.4831C76.4163 15.6946 75.5658 17.8193 74.0443 19.4005C74.39 19.8762 74.6182 20.4293 74.7097 21.0134L78.5235 45.1231C78.6032 45.6265 78.5797 46.1413 78.4546 46.6352C78.3295 47.129 78.1053 47.5914 77.7962 47.9931C77.4871 48.3948 77.0997 48.7273 76.6583 48.9698C76.2168 49.2123 75.7309 49.3596 75.2309 49.4024L60.0709 50.6931C59.9679 50.7007 59.8656 50.7046 59.7641 50.7046Z" fill="#023E8A"/>
<path d="M59.7641 48.0576C59.2524 48.0583 58.7463 47.9493 58.2789 47.7378C57.8114 47.5262 57.3931 47.2169 57.0512 46.83C56.7093 46.4431 56.4516 45.9873 56.2947 45.4922C56.1379 44.9972 56.0856 44.4742 56.1411 43.9573L58.7354 19.6549C58.832 18.7279 59.269 17.872 59.9593 17.258C59.1637 16.5587 58.528 15.6913 58.0968 14.7163C57.6657 13.7413 57.4494 12.6823 57.463 11.6134C57.463 6.73575 61.667 2.91388 67.0328 2.91388C73.5096 2.91388 76.4096 6.89166 76.4096 10.8339C76.4122 13.0457 75.5619 15.1705 74.0409 16.7525C74.3869 17.2276 74.6151 17.7804 74.7064 18.3642L78.5212 42.4773C78.6011 42.9808 78.5778 43.4956 78.4527 43.9894C78.3276 44.4833 78.1035 44.9455 77.7943 45.3472C77.4852 45.7489 77.0977 46.0813 76.6562 46.3237C76.2147 46.566 75.7287 46.713 75.2286 46.7554L60.0687 48.0474C59.9671 48.0542 59.8656 48.0576 59.7641 48.0576Z" fill="#00B4D8"/>
<path d="M59.764 47.5293C59.2889 47.5292 58.8192 47.4275 58.3854 47.2307C57.9516 47.0339 57.5634 46.7465 57.2461 46.3872C56.9288 46.0279 56.6896 45.6047 56.5438 45.1451C56.3981 44.6856 56.3492 44.2001 56.4004 43.7201L58.9947 19.4178C59.045 18.9466 59.1906 18.491 59.4224 18.0797C59.6541 17.6684 59.9671 17.3103 60.3415 17.0277C59.507 16.349 58.8372 15.4843 58.3838 14.5006C57.9305 13.517 57.7057 12.4405 57.7269 11.3545C57.7269 6.62353 61.8147 2.91864 67.0361 2.91864C73.3335 2.91864 76.1523 6.76345 76.1523 10.5727C76.1535 11.6733 75.9367 12.7629 75.5149 13.7766C75.093 14.7902 74.4747 15.7072 73.6967 16.4729C74.0948 16.9495 74.3566 17.528 74.4536 18.1454L78.2651 42.2482C78.3391 42.7157 78.3173 43.1938 78.201 43.6523C78.0848 44.1109 77.8766 44.5402 77.5895 44.9132C77.3024 45.2862 76.9426 45.5949 76.5327 45.82C76.1227 46.0452 75.6715 46.1818 75.2071 46.2214L60.0482 47.5214C59.9524 47.5214 59.8576 47.5293 59.764 47.5293Z" fill="#0077B6"/>
<path d="M62.354 21.1086L71.1104 20.0115L74.9241 44.1224L59.7641 45.4155L62.354 21.1086ZM61.1132 12.675C61.1132 9.89518 63.5835 7.67816 67.0385 7.67816C70.3965 7.67816 72.7708 9.09159 72.7708 11.8932C72.7708 14.6949 70.4021 17.0139 67.0385 17.0139C63.5293 17.0139 61.1076 15.4239 61.1076 12.6727L61.1132 12.675Z" fill="#124DAC"/>
<path d="M62.354 20.3188L71.1105 19.223L74.9241 43.3326L59.7641 44.6246L62.354 20.3188ZM61.1132 11.8853C61.1132 9.10541 63.5835 6.88727 67.0385 6.88727C70.3965 6.88727 72.7708 8.30072 72.7708 11.1047C72.7708 13.9086 70.4021 16.2242 67.0385 16.2242C63.5294 16.2265 61.1076 14.6388 61.1076 11.8853H61.1132Z" fill="#ADB8B4"/>
<path d="M62.354 20.0541L71.1105 18.957L74.9241 43.0667L59.7641 44.3598L62.354 20.0541ZM61.1132 11.6193C61.1132 8.8406 63.5835 6.62244 67.0385 6.62244C70.3965 6.62244 72.7708 8.03589 72.7708 10.8398C72.7708 13.6438 70.4021 15.9594 67.0385 15.9594C63.5294 15.9594 61.1076 14.374 61.1076 11.6193H61.1132Z" fill="#ADB8B4"/>
<path d="M62.354 19.7892L71.1105 18.6934L74.9241 42.8019L59.7641 44.0938L62.354 19.7892ZM61.1132 11.3557C61.1132 8.57581 63.5835 6.35767 67.0385 6.35767C70.3965 6.35767 72.7708 7.77222 72.7708 10.5739C72.7708 13.3755 70.4021 15.6945 67.0385 15.6945C63.5294 15.6945 61.1076 14.1103 61.1076 11.3557H61.1132Z" fill="#ADB8B4"/>
<path d="M62.354 19.5256L71.1105 18.4285L74.9241 42.5382L59.7641 43.8301L62.354 19.5256ZM61.1132 11.0897C61.1132 8.30986 63.5835 6.09283 67.0385 6.09283C70.3965 6.09283 72.7708 7.50624 72.7708 10.309C72.7708 13.1118 70.4021 15.4286 67.0385 15.4286C63.5294 15.424 61.1076 13.8444 61.1076 11.0897H61.1132Z" fill="#ADB8B4"/>
<path d="M62.354 19.2596L71.1105 18.1637L74.9241 42.2723L59.7641 43.5642L62.354 19.2596ZM61.1132 10.8249C61.1132 8.04732 63.5835 5.828 67.0385 5.828C70.3965 5.828 72.7708 7.24141 72.7708 10.0442C72.7708 12.847 70.4021 15.1649 67.0385 15.1649C63.5294 15.1649 61.1076 13.5795 61.1076 10.8249H61.1132Z" fill="#ADB8B4"/>
<path d="M62.354 18.9937L71.1105 17.899L74.9241 42.0087L59.7641 43.3006L62.354 18.9937ZM61.1132 10.5601C61.1132 7.78025 63.5835 5.56323 67.0385 5.56323C70.3965 5.56323 72.7708 6.97783 72.7708 9.78061C72.7708 12.5834 70.4021 14.899 67.0385 14.899C63.5294 14.899 61.1076 13.3148 61.1076 10.5601H61.1132Z" fill="#ADB8B4"/>
<path d="M62.354 18.7289L71.1105 17.6319L74.9241 41.7427L59.7641 43.0358L62.354 18.7289ZM61.1132 10.2954C61.1132 7.51666 63.5835 5.2973 67.0385 5.2973C70.3965 5.2973 72.7708 6.7119 72.7708 9.51468C72.7708 12.3175 70.4021 14.6342 67.0385 14.6342C63.5294 14.6342 61.1076 13.05 61.1076 10.2954H61.1132Z" fill="#ADB8B4"/>
<path d="M62.354 18.4652L71.1105 17.3693L74.9241 41.4779L59.7641 42.7698L62.354 18.4652ZM61.1132 10.0305C61.1132 7.2518 63.5835 5.03363 67.0385 5.03363C70.3965 5.03363 72.7708 6.44704 72.7708 9.24982C72.7708 12.0526 70.4021 14.3705 67.0385 14.3705C63.5294 14.3705 61.1076 12.7875 61.1076 10.0363L61.1132 10.0305Z" fill="#ADB8B4"/>
<path d="M62.354 18.1993L71.1105 17.1034L74.9241 41.2131L59.7641 42.505L62.354 18.1993ZM61.1132 9.76568C61.1132 6.98582 63.5835 4.7688 67.0385 4.7688C70.3965 4.7688 72.7708 6.18223 72.7708 8.98387C72.7708 11.7855 70.4021 14.1057 67.0385 14.1057C63.5294 14.1057 61.1076 12.5192 61.1076 9.76568H61.1132Z" fill="#ADB8B4"/>
<path d="M62.354 17.9356L71.1104 16.8385L74.9241 40.9482L59.7641 42.2402L62.354 17.9356ZM61.1132 9.49969C61.1132 6.72327 63.5835 4.50281 67.0385 4.50281C70.3965 4.50281 72.7708 5.91626 72.7708 8.72019C72.7708 11.5241 70.4021 13.8397 67.0385 13.8397C63.5293 13.8397 61.1076 12.2543 61.1076 9.49969H61.1132Z" fill="#ADB8B4"/>
<path d="M62.354 17.9356L71.1104 16.8385L74.9241 40.9482L59.7641 42.2402L62.354 17.9356ZM61.1132 9.49969C61.1132 6.72327 63.5835 4.50281 67.0385 4.50281C70.3965 4.50281 72.7708 5.91626 72.7708 8.72019C72.7708 11.5241 70.4021 13.8397 67.0385 13.8397C63.5293 13.8397 61.1076 12.2543 61.1076 9.49969H61.1132Z" fill="#FFFFFE"/>
<path d="M63.3014 19.4121L70.2418 18.5431L73.7183 40.5172L60.9349 41.6074L63.3014 19.4121ZM67.0328 13.3101C64.6708 13.3101 62.1486 12.448 62.1486 10.0292C62.1486 7.78472 64.2478 6.09277 67.0328 6.09277C68.4427 6.09277 71.7251 6.39766 71.7251 9.24974C71.7251 11.5642 69.7072 13.3101 67.0328 13.3101Z" fill="#EAECEB"/>
<path d="M40.1884 97.9988C39.2849 97.9985 38.4138 97.6672 37.7441 97.0689C37.0744 96.4707 36.6538 95.6483 36.5641 94.7615L36.2754 91.8968L35.2875 94.4066C35.0652 94.9714 34.7018 95.4714 34.231 95.8604C33.7602 96.2494 33.1973 96.5148 32.5947 96.6316L28.4449 97.4348C28.2133 97.4812 27.9776 97.5047 27.7413 97.5049C27.0589 97.5037 26.3905 97.3135 25.8124 96.9559C25.2342 96.5983 24.7694 96.0878 24.471 95.4824L21.6259 89.7029L21.1839 94.7181C21.1046 95.6135 20.6882 96.4472 20.0166 97.0547C19.3451 97.6622 18.4673 97.9994 17.5561 97.9999C17.3852 98.0008 17.2144 97.9889 17.0453 97.9644L3.13671 96.0252C2.64378 95.9566 2.17034 95.7891 1.74564 95.5329C1.32095 95.2767 0.954038 94.9373 0.667533 94.5357C0.381028 94.1341 0.181006 93.6788 0.0798865 93.1979C-0.0212331 92.717 -0.0213125 92.2208 0.0796112 91.7399L7.34515 56.9845C7.51466 56.1754 7.96152 55.4486 8.61053 54.9264C9.25955 54.4042 10.0711 54.1186 10.9086 54.1176C11.121 54.1182 11.333 54.1365 11.5424 54.1721L20.8467 55.7818C21.4038 55.8782 21.9305 56.1014 22.385 56.4335C22.8395 56.7657 23.2093 57.1977 23.4652 57.6953L29.2162 68.8771L34.6482 57.5485C34.8918 57.039 35.2535 56.5934 35.7041 56.2474C36.1547 55.9015 36.6814 55.665 37.2418 55.5571L45.7546 53.924C45.9853 53.8795 46.2197 53.8568 46.4548 53.8561C47.286 53.8577 48.0917 54.1394 48.7383 54.6545C49.3849 55.1697 49.8338 55.8873 50.0104 56.6885L57.7326 91.7733C57.8394 92.258 57.8434 92.7592 57.7443 93.2455C57.6451 93.7318 57.445 94.1926 57.1566 94.5988C56.8682 95.0051 56.4977 95.3481 56.0683 95.6062C55.639 95.8643 55.1602 96.032 54.662 96.0987L40.6789 97.9688C40.5162 97.9893 40.3524 97.9993 40.1884 97.9988Z" fill="#023E8A"/>
<path d="M40.1884 95.4312C39.285 95.4314 38.4138 95.1003 37.744 94.5023C37.0742 93.9042 36.6537 93.0818 36.5641 92.1949L36.2755 89.328L35.2876 91.8389C35.0653 92.4037 34.7018 92.9038 34.231 93.2928C33.7602 93.6818 33.1973 93.9471 32.5947 94.0639L28.4449 94.8693C27.6562 95.0214 26.8386 94.9122 26.1192 94.5588C25.3998 94.2053 24.8188 93.6274 24.4666 92.9147L21.6215 87.1297L21.1794 92.1449C21.1006 93.0405 20.6844 93.8745 20.0128 94.4821C19.3411 95.0897 18.463 95.4268 17.5517 95.4267C17.3808 95.4275 17.2101 95.4159 17.0409 95.3922L3.13228 93.4531C2.63954 93.3844 2.16628 93.2167 1.74176 92.9606C1.31724 92.7044 0.950458 92.3652 0.663996 91.9637C0.377534 91.5623 0.177483 91.1071 0.0762116 90.6265C-0.0250601 90.1458 -0.0254012 89.6498 0.0751792 89.169L7.34071 54.4112C7.51046 53.6023 7.95738 52.8758 8.60638 52.3539C9.25537 51.8319 10.0668 51.5464 10.9041 51.5454C11.1166 51.5459 11.3286 51.5645 11.5379 51.6011L20.8422 53.2086C21.3993 53.305 21.926 53.5281 22.3805 53.8603C22.835 54.1924 23.2048 54.6245 23.4607 55.1222L29.2117 66.3038L34.6437 54.9764C34.8876 54.467 35.2494 54.0214 35.6999 53.6753C36.1504 53.3292 36.677 53.0924 37.2373 52.9839L45.7501 51.3519C45.9807 51.3067 46.2153 51.2843 46.4504 51.2851C47.2815 51.2862 48.0872 51.5676 48.7339 52.0826C49.3806 52.5976 49.8294 53.3152 50.0059 54.1165L57.7281 89.2023C57.8349 89.6869 57.8389 90.188 57.7398 90.6741C57.6406 91.1603 57.4405 91.6209 57.1521 92.027C56.8636 92.4331 56.4931 92.7759 56.0638 93.0338C55.6344 93.2917 55.1556 93.459 54.6575 93.5254L40.6745 95.3945C40.5136 95.4182 40.3511 95.4304 40.1884 95.4312Z" fill="#00B4D8"/>
<path d="M17.5517 94.9183C17.3932 94.9188 17.235 94.9077 17.0781 94.8849L3.16837 92.947C2.71079 92.883 2.27136 92.7272 1.87718 92.4892C1.48299 92.2512 1.14238 91.936 0.876428 91.5631C0.610472 91.1903 0.424811 90.7676 0.330835 90.3212C0.236858 89.8748 0.236547 89.4141 0.330009 88.9675L7.59672 54.2132C7.75242 53.4607 8.16646 52.7841 8.76898 52.2977C9.3715 51.8113 10.1256 51.5448 10.9041 51.5432C11.1015 51.5438 11.2984 51.561 11.4928 51.5944L20.7972 53.2042C21.3149 53.2941 21.8043 53.5017 22.2265 53.8106C22.6487 54.1196 22.9921 54.5214 23.2295 54.9842L29.2197 66.6331L34.8772 54.8318C35.104 54.3584 35.4404 53.9442 35.8594 53.6228C36.2785 53.3014 36.7683 53.0818 37.2892 52.9817L45.8031 51.3485C46.6706 51.1849 47.5685 51.3618 48.3057 51.8416C49.0429 52.3214 49.5611 53.0662 49.7499 53.9173L57.4722 89.002C57.5712 89.452 57.5747 89.9173 57.4826 90.3686C57.3905 90.82 57.2048 91.2476 56.937 91.6247C56.6693 92.0018 56.3253 92.3202 55.9268 92.5598C55.5283 92.7994 55.0839 92.9551 54.6215 93.017L40.6384 94.886C40.489 94.9074 40.3383 94.9178 40.1874 94.9172C39.3489 94.9169 38.5404 94.6095 37.9187 94.0545C37.2969 93.4995 36.9062 92.7365 36.8224 91.9134L36.4243 87.9786L35.044 91.4885C34.8378 92.0133 34.5003 92.4782 34.063 92.8398C33.6257 93.2014 33.1028 93.4479 32.5429 93.5566L28.3942 94.3598C28.1789 94.4026 27.9598 94.4243 27.7402 94.4244C27.1048 94.4245 26.4822 94.2481 25.9438 93.9154C25.4053 93.5827 24.9728 93.1071 24.6955 92.5431L21.4388 85.9305L20.9167 91.8701C20.8436 92.7021 20.457 93.4768 19.8332 94.0413C19.2094 94.6059 18.3937 94.9192 17.5472 94.9194L17.5517 94.9183Z" fill="#0077B6"/>
<path d="M19.1339 74.8845L17.5551 92.8658L3.64532 90.9266L10.912 56.1712L20.2164 57.7799L29.329 75.5008L37.9387 57.544L46.4526 55.9098L54.1738 90.9968L40.1907 92.8658L38.3909 75.0458L31.8911 91.5608L27.7424 92.3651L19.1339 74.8845Z" fill="#124DAC"/>
<path d="M19.1339 74.1179L17.5551 92.0992L3.64536 90.1589L10.9121 55.4035L20.2164 57.0122L29.329 74.7331L37.9388 56.7764L46.4526 55.1432L54.1738 90.2291L40.1907 92.0992L38.3932 74.2837L31.8934 90.7976L27.7447 91.603L19.1339 74.1179Z" fill="#ADB8B4"/>
<path d="M19.1339 73.8619L17.5551 91.842L3.64536 89.9019L10.9121 55.1475L20.2164 56.7562L29.329 74.4771L37.9388 56.5192L46.4526 54.886L54.1738 89.9719L40.1907 91.842L38.3932 74.0265L31.8934 90.5404L27.7447 91.3459L19.1339 73.8619Z" fill="#ADB8B4"/>
<path d="M19.1339 73.5995L17.5551 91.5807L3.64536 89.6416L10.9121 54.8861L20.2164 56.4948L29.329 74.2157L37.9388 56.259L46.4526 54.6258L54.1738 89.7117L40.1907 91.5807L38.3932 73.7663L31.8911 90.2869L27.7424 91.0901L19.1339 73.5995Z" fill="#ADB8B4"/>
<path d="M19.1339 73.3468L17.5551 91.327L3.64536 89.3879L10.9121 54.6336L20.2164 56.2422L29.329 73.9632L37.9388 56.0053L46.4526 54.3721L54.1738 89.458L40.1907 91.327L38.3932 73.5126L31.8934 90.0265L27.7447 90.8319L19.1339 73.3468Z" fill="#ADB8B4"/>
<path d="M19.1339 73.0899L17.5551 91.069L3.64536 89.131L10.9121 54.3744L20.2164 55.9842L29.329 73.7051L37.9388 55.7483L46.4526 54.1163L54.1738 89.2011L40.1907 91.069L38.3932 73.2568L31.8934 89.7695L27.7447 90.5739L19.1339 73.0899Z" fill="#ADB8B4"/>
<path d="M19.1339 72.8328L17.5551 90.8141L3.64536 88.875L10.9121 54.1184L20.2164 55.7271L29.329 73.448L37.9388 55.4912L46.4526 53.8582L54.1738 88.9429L40.1907 90.8141L38.3932 72.9975L31.8911 89.508L27.7424 90.3135L19.1339 72.8328Z" fill="#ADB8B4"/>
<path d="M19.1339 72.5737L17.5552 90.5571L3.64204 88.6181L10.9088 53.8637L20.2131 55.4712L29.3257 73.1933L37.9355 55.2365L46.4493 53.6034L54.1704 88.6892L40.1874 90.5594L38.3899 72.7438L31.89 89.2577L27.7414 90.062L19.1339 72.5737Z" fill="#ADB8B4"/>
<path d="M19.1339 72.3178L17.5551 90.2979L3.64536 88.3589L10.9121 53.6046L20.2164 55.2144L29.329 72.9342L37.9388 54.9774L46.4526 53.3431L54.1738 88.429L40.1907 90.2979L38.391 72.487L31.8911 88.9997L27.7424 89.8051L19.1339 72.3178Z" fill="#ADB8B4"/>
<path d="M19.1339 72.0619L17.5551 90.042L3.64536 88.1041L10.9121 53.3453L20.2164 54.9573L29.329 72.676L37.9388 54.7203L46.4526 53.0872L54.1704 88.1731L40.1874 90.042L38.3899 72.2277L31.89 88.7415L27.7413 89.5447L19.1339 72.0619Z" fill="#ADB8B4"/>
<path d="M19.134 71.8049L17.5552 89.785L3.64548 87.8459L10.9122 53.0905L20.2165 54.6992L29.3292 72.4201L37.9389 54.4633L46.4528 52.829L54.1739 87.916L40.1909 89.785L38.3934 71.9706L31.8935 88.4846L27.7448 89.2888L19.134 71.8049Z" fill="#ADB8B4"/>
<path d="M19.1339 71.805L17.5551 89.7851L3.64532 87.8461L10.912 53.0907L20.2164 54.6993L29.329 72.4203L37.9387 54.4634L46.4526 52.8292L54.1738 87.9161L40.1907 89.7851L38.3932 71.9707L31.8934 88.4847L27.7447 89.289L19.1339 71.805Z" fill="#FFFFFE"/>
<path d="M39.4261 72.3836C39.4029 72.1539 39.302 71.9385 39.1399 71.7721C38.9777 71.6056 38.7636 71.4978 38.5319 71.4658C38.4845 71.4658 38.436 71.4569 38.3898 71.4569C38.18 71.4574 37.9752 71.5203 37.8022 71.6374C37.6291 71.7544 37.496 71.9203 37.42 72.1133L31.1287 88.0998L28.3288 88.6427L20.0697 71.8707C19.9852 71.6969 19.8526 71.5501 19.6872 71.4474C19.5218 71.3446 19.3304 71.2901 19.1349 71.29C19.071 71.2904 19.0072 71.2964 18.9443 71.3078C18.7205 71.3492 18.5165 71.4615 18.3634 71.6278C18.2103 71.7941 18.1165 72.0052 18.0963 72.229L16.609 89.1311L4.88121 87.4969L11.7182 54.7895L19.5161 56.1389L28.3931 73.4015C28.4801 73.5706 28.6129 73.7127 28.7766 73.812C28.9404 73.9114 29.1289 73.9641 29.3211 73.9645H29.3358C29.5305 73.962 29.7206 73.9054 29.8843 73.8014C30.0481 73.6973 30.1788 73.5498 30.2616 73.3759L38.6458 55.8898L45.6373 54.5469L52.9039 87.5636L41.1086 89.1433L39.4261 72.3836Z" fill="#EAECEB"/>
<path d="M76.213 93.2458C75.7193 93.2449 75.2307 93.1475 74.7756 92.9592C74.3204 92.7709 73.9077 92.4955 73.5615 92.1488C71.7932 92.8108 69.9193 93.1568 68.0277 93.1708C60.3208 93.1708 54.9381 87.761 54.9381 80.0132C54.953 77.9402 55.5422 75.9105 56.6421 74.1431C57.742 72.3757 59.311 70.9377 61.1797 69.984L59.1103 65.7688C58.6975 64.9299 58.6248 63.9674 58.9071 63.0776C59.1894 62.1877 59.8054 61.4372 60.6298 60.979C63.789 59.4244 67.2667 58.6003 70.7981 58.5695C76.5243 58.5695 81.507 60.4704 84.8249 63.9224C86.1096 65.2323 87.1069 66.7886 87.7546 68.4945C88.4024 70.2004 88.6868 72.0193 88.5902 73.8381L87.8547 88.4515C87.8137 89.2891 87.4827 90.0875 86.9168 90.714C86.3509 91.3404 85.5841 91.7571 84.7442 91.8944L76.8252 93.2003C76.6229 93.2326 76.418 93.2478 76.213 93.2458Z" fill="#023E8A"/>
<path d="M76.2133 90.6248C75.7195 90.624 75.2308 90.5266 74.7756 90.3381C74.3204 90.1495 73.9078 89.8738 73.5618 89.5267C71.7935 90.1887 69.9196 90.5348 68.028 90.5488C60.3211 90.5488 54.9384 85.1367 54.9384 77.3889C54.9534 75.3161 55.5426 73.2866 56.6425 71.5193C57.7425 69.7521 59.3113 68.3142 61.18 67.3608L59.1106 63.1456C58.698 62.3065 58.6254 61.344 58.9077 60.454C59.1899 59.564 59.8058 58.8133 60.6301 58.3547C63.7897 56.8015 67.2672 55.9782 70.7983 55.9474C76.5246 55.9474 81.5073 57.8483 84.8252 61.3004C86.1098 62.6098 87.1071 64.1658 87.7549 65.8713C88.4026 67.5767 88.6871 69.3953 88.5905 71.2137L87.855 85.8294C87.8128 86.6651 87.482 87.4616 86.9173 88.0867C86.3527 88.7119 85.5881 89.1282 84.7503 89.2667L76.8313 90.5714C76.6271 90.6056 76.4204 90.6234 76.2133 90.6248Z" fill="#00B4D8"/>
<path d="M76.2132 90.1012C75.725 90.101 75.2424 89.9991 74.7971 89.802C74.3519 89.6049 73.954 89.3172 73.6296 88.9578C71.844 89.6497 69.9444 90.0127 68.0256 90.0286C60.4755 90.0286 55.2011 84.7256 55.2011 77.131C55.2206 75.0631 55.8224 73.0411 56.9394 71.29C58.0565 69.539 59.6449 68.1277 61.528 67.2132L59.348 62.7743C58.9651 61.9949 58.898 61.1012 59.1601 60.2748C59.4222 59.4484 59.9939 58.7513 60.7591 58.3252C63.8779 56.7925 67.3106 55.9808 70.7959 55.9518C76.4449 55.9518 81.3631 57.8233 84.6303 61.222C85.8891 62.5061 86.8663 64.0316 87.501 65.7037C88.1356 67.3757 88.4142 69.1585 88.3195 70.9411L87.5862 85.559C87.5472 86.3349 87.2401 87.0743 86.7159 87.6547C86.1917 88.235 85.4819 88.6215 84.7041 88.75L76.785 90.0547C76.596 90.0853 76.4048 90.1008 76.2132 90.1012Z" fill="#0077B6"/>
<path d="M84.8677 72.0676L84.1322 86.7015L76.2131 88.0051L75.0844 85.6851C73.0099 87.1085 70.5521 87.8912 68.0243 87.9335C62.2139 87.9335 58.6584 83.9239 58.6584 78.4415C58.6584 73.4451 63.4152 69.8942 70.3024 69.8942C72.4302 69.7825 74.5603 70.0692 76.5797 70.739C75.5998 68.7836 72.8041 67.1654 69.5473 67.1654C68.0156 67.1967 66.4931 67.4071 65.0119 67.7923L62.4617 62.5994C65.0641 61.364 67.9095 60.7052 70.7981 60.669C79.4976 60.6667 85.2055 65.8596 84.8677 72.0676ZM73.1234 79.3352C75.3058 79.3352 76.0655 78.2473 76.0655 77.474C76.0655 76.1227 75.1087 75.7593 72.5101 75.7593C70.5975 75.7593 69.2498 76.2135 69.2498 77.1129C69.2498 78.8752 70.7451 79.3375 73.1234 79.3375V79.3352Z" fill="#124DAC"/>
<path d="M84.8676 71.284L84.1321 85.9189L76.2131 87.2226L75.0844 84.9038C73.0092 86.3254 70.5517 87.1072 68.0243 87.1499C62.2138 87.1499 58.6584 83.1402 58.6584 77.6601C58.6584 72.6637 63.4151 69.1105 70.3024 69.1105C72.4302 68.9982 74.5604 69.2849 76.5797 69.9554C75.5997 68 72.8041 66.3818 69.5472 66.3818C68.0156 66.4136 66.4932 66.624 65.0118 67.0086L62.4617 61.818C65.064 60.5826 67.9095 59.9237 70.7981 59.8876C79.4976 59.8853 85.2054 65.0771 84.8676 71.284ZM73.1234 78.5515C75.3058 78.5515 76.0655 77.4648 76.0655 76.6915C76.0655 75.339 75.1086 74.9779 72.5101 74.9779C70.5975 74.9779 69.2498 75.4322 69.2498 76.3304C69.2498 78.0939 70.745 78.5526 73.1234 78.5526V78.5515Z" fill="#ADB8B4"/>
<path d="M84.8676 71.0207L84.1321 85.6545L76.2131 86.9593L75.0844 84.6428C73.0088 86.0635 70.5515 86.8449 68.0243 86.8877C62.2138 86.8877 58.6584 82.8781 58.6584 77.3979C58.6584 72.4015 63.4151 68.8472 70.3024 68.8472C72.4303 68.7364 74.5604 69.0239 76.5797 69.6944C75.5997 67.7378 72.8041 66.1197 69.5472 66.1197C68.0156 66.1509 66.4931 66.3613 65.0118 66.7465L62.4617 61.5547C65.0642 60.3198 67.9096 59.6609 70.7981 59.6243C79.4976 59.622 85.2054 64.8149 84.8676 71.0207ZM73.1234 78.2882C75.3058 78.2882 76.0655 77.2003 76.0655 76.427C76.0655 75.0757 75.1086 74.7123 72.5101 74.7123C70.5975 74.7123 69.2498 75.1665 69.2498 76.0659C69.2498 77.8317 70.745 78.2916 73.1234 78.2916V78.2882Z" fill="#ADB8B4"/>
<path d="M84.8676 70.7594L84.1321 85.3943L76.2131 86.698L75.0844 84.378C73.0098 85.801 70.552 86.5833 68.0243 86.6253C62.2138 86.6253 58.6584 82.6145 58.6584 77.1344C58.6584 72.1379 63.4151 68.587 70.3024 68.587C72.4302 68.4747 74.5604 68.7614 76.5797 69.4319C75.5997 67.4754 72.8041 65.8572 69.5472 65.8572C68.0156 65.889 66.4932 66.0994 65.0118 66.484L62.4617 61.2934C65.0638 60.0575 67.9094 59.3985 70.7981 59.363C79.4976 59.3607 85.2054 64.5525 84.8676 70.7594ZM73.1234 78.0269C75.3058 78.0269 76.0655 76.9402 76.0655 76.168C76.0655 74.8144 75.1086 74.4533 72.5101 74.4533C70.5975 74.4533 69.2498 74.9075 69.2498 75.8046C69.2498 77.5681 70.745 78.028 73.1234 78.028V78.0269Z" fill="#ADB8B4"/>
<path d="M84.8676 70.496L84.1321 85.131L76.2131 86.4368L75.0844 84.1169C73.0094 85.539 70.5518 86.3208 68.0243 86.363C62.2138 86.363 58.6584 82.3545 58.6584 76.8721C58.6584 71.8757 63.4151 68.3226 70.3024 68.3226C72.4304 68.2112 74.5605 68.4986 76.5797 69.1696C75.5997 67.2131 72.8041 65.5961 69.5472 65.5961C68.0156 65.6273 66.4931 65.8378 65.0118 66.2229L62.4617 61.0312C65.0636 59.7947 67.9094 59.1357 70.7981 59.1007C79.4976 59.0973 85.2054 64.2913 84.8676 70.496ZM73.1234 77.7635C75.3058 77.7635 76.0655 76.6756 76.0655 75.9034C76.0655 74.551 75.1086 74.1888 72.5101 74.1888C70.5975 74.1888 69.2498 74.643 69.2498 75.5412C69.2498 77.3059 70.745 77.7669 73.1234 77.7669V77.7635Z" fill="#ADB8B4"/>
<path d="M84.8677 70.2348L84.1322 84.8686L76.2131 86.1733L75.0845 83.8546C73.0104 85.2763 70.5542 86.0589 68.0278 86.1029C62.2173 86.1029 58.6619 82.0922 58.6619 76.6109C58.6619 71.6145 63.4186 68.0625 70.3059 68.0625C72.4338 67.9513 74.5638 68.2383 76.5832 68.9085C75.6033 66.9519 72.8076 65.3348 69.5507 65.3348C68.0192 65.3664 66.4968 65.5765 65.0154 65.9606L62.4652 60.7711C65.0674 59.5352 67.9129 58.8762 70.8016 58.8406C79.4976 58.8361 85.2055 64.0278 84.8677 70.2348ZM73.1235 77.5023C75.3058 77.5023 76.0656 76.4156 76.0656 75.6423C76.0656 74.2887 75.1087 73.9276 72.5101 73.9276C70.5975 73.9276 69.2498 74.3818 69.2498 75.28C69.2498 77.0435 70.7451 77.5034 73.1235 77.5034V77.5023Z" fill="#ADB8B4"/>
<path d="M84.8676 69.9781L84.1321 84.6119L76.2131 85.9098L75.0844 83.5921C73.0092 85.0138 70.5517 85.7956 68.0243 85.8383C62.2138 85.8383 58.6584 81.8287 58.6584 76.3485C58.6584 71.3521 63.4151 67.7978 70.3024 67.7978C72.4303 67.6859 74.5604 67.973 76.5797 68.6437C75.5997 66.6895 72.8041 65.0702 69.5472 65.0702C68.0156 65.1015 66.4931 65.3119 65.0118 65.697L62.4617 60.5064C65.0638 59.2704 67.9094 58.6115 70.7981 58.576C79.4976 58.5726 85.2054 63.7655 84.8676 69.9781ZM73.1234 77.2455C75.3058 77.2455 76.0655 76.1611 76.0655 75.3855C76.0655 74.0342 75.1086 73.672 72.5101 73.672C70.5975 73.672 69.2498 74.1262 69.2498 75.0244C69.2498 76.7822 70.745 77.2399 73.1234 77.2399V77.2455Z" fill="#ADB8B4"/>
<path d="M84.8676 69.7103L84.1321 84.3429L76.2131 85.6488L75.0844 83.3312C73.0092 84.7528 70.5517 85.5346 68.0243 85.5773C62.2138 85.5773 58.6584 81.5665 58.6584 76.0864C58.6584 71.0899 63.4151 67.5379 70.3024 67.5379C72.4302 67.4262 74.5602 67.7129 76.5797 68.3828C75.5997 66.4274 72.8041 64.8092 69.5472 64.8092C68.0157 64.8408 66.4933 65.0508 65.0118 65.4349L62.4617 60.2432C65.0642 59.0083 67.9096 58.3494 70.7981 58.3127C79.4976 58.3105 85.2054 63.5056 84.8676 69.7103ZM73.1234 76.9778C75.3058 76.9778 76.0655 75.8899 76.0655 75.1178C76.0655 73.7653 75.1086 73.4031 72.5101 73.4031C70.5975 73.4031 69.2498 73.8573 69.2498 74.7555C69.2498 76.519 70.745 76.9789 73.1234 76.9789V76.9778Z" fill="#ADB8B4"/>
<path d="M84.8677 69.4479L84.1322 84.0818L76.2131 85.3865L75.0845 83.0666C73.0099 84.4864 70.5536 85.2667 68.0278 85.3082C62.2173 85.3082 58.6619 81.2996 58.6619 75.8172C58.6619 70.8208 63.4186 67.2699 70.3059 67.2699C72.4338 67.1581 74.564 67.4452 76.5832 68.1159C75.6033 66.1582 72.8076 64.5401 69.5507 64.5401C68.0191 64.5722 66.4967 64.783 65.0154 65.168L62.4652 59.9774C65.0674 58.7415 67.9129 58.0826 70.8016 58.047C79.4976 58.0549 85.2055 63.2421 84.8677 69.4479ZM73.1235 76.7154C75.3058 76.7154 76.0656 75.6287 76.0656 74.8554C76.0656 73.503 75.1087 73.143 72.5101 73.143C70.5975 73.143 69.2498 73.5972 69.2498 74.4931C69.2498 76.2566 70.7451 76.7166 73.1235 76.7166V76.7154Z" fill="#ADB8B4"/>
<path d="M84.8676 69.1833L84.1321 83.8182L76.2131 85.1219L75.0844 82.803C73.0098 84.226 70.552 85.0083 68.0243 85.0503C62.2138 85.0503 58.6584 81.0418 58.6584 75.5583C58.6584 70.5618 63.4151 67.0098 70.3024 67.0098C72.4303 66.8986 74.5603 67.1856 76.5797 67.8558C75.5997 65.9004 72.8041 64.2822 69.5472 64.2822C68.0155 64.3137 66.493 64.5246 65.0118 64.9102L62.4617 59.7173C65.0638 58.4813 67.9094 57.8224 70.7981 57.7869C79.4976 57.7857 85.2054 62.9786 84.8676 69.1833ZM73.1234 76.4507C75.3058 76.4507 76.0655 75.364 76.0655 74.5907C76.0655 73.2371 75.1086 72.8772 72.5101 72.8772C70.5975 72.8772 69.2498 73.3314 69.2498 74.2296C69.2498 75.9965 70.745 76.4507 73.1234 76.4507Z" fill="#ADB8B4"/>
<path d="M84.8677 68.9233L84.1322 83.556L76.2131 84.8619L75.0844 82.5431C73.0088 83.9638 70.5515 84.7452 68.0243 84.788C62.2139 84.788 58.6584 80.7796 58.6584 75.2983C58.6584 70.3018 63.4152 66.7487 70.3024 66.7487C72.4303 66.6374 74.5603 66.9245 76.5797 67.5947C75.5998 65.6381 72.8041 64.02 69.5473 64.02C68.0157 64.0524 66.4933 64.2628 65.0119 64.6468L62.4617 59.4561C65.0641 58.2208 67.9095 57.5619 70.7981 57.5258C79.4976 57.5246 85.2055 62.7107 84.8677 68.9233ZM73.1234 76.1907C75.3058 76.1907 76.0655 75.1052 76.0655 74.3307C76.0655 72.9783 75.1087 72.6172 72.5101 72.6172C70.5975 72.6172 69.2498 73.0714 69.2498 73.9708C69.2498 75.732 70.7451 76.1907 73.1234 76.1907Z" fill="#ADB8B4"/>
<path d="M84.8677 68.9233L84.1322 83.556L76.2131 84.8619L75.0844 82.5431C73.0088 83.9638 70.5515 84.7452 68.0243 84.788C62.2139 84.788 58.6584 80.7796 58.6584 75.2983C58.6584 70.3018 63.4152 66.7487 70.3024 66.7487C72.4303 66.6374 74.5603 66.9245 76.5797 67.5947C75.5998 65.6381 72.8041 64.02 69.5473 64.02C68.0157 64.0524 66.4933 64.2628 65.0119 64.6468L62.4617 59.4561C65.0641 58.2208 67.9095 57.5619 70.7981 57.5258C79.4976 57.5246 85.2055 62.7107 84.8677 68.9233ZM73.1234 76.1907C75.3058 76.1907 76.0655 75.1052 76.0655 74.3307C76.0655 72.9783 75.1087 72.6172 72.5101 72.6172C70.5975 72.6172 69.2498 73.0714 69.2498 73.9708C69.2498 75.732 70.7451 76.1907 73.1234 76.1907Z" fill="#FFFFFE"/>
<path d="M68.0277 84.2645C62.9839 84.2645 59.7271 80.951 59.7271 75.8217C59.7271 71.4055 64.078 68.3202 70.3081 68.3202H70.5824C72.4916 68.2298 74.401 68.4945 76.2108 69.1004C76.4106 69.1743 76.6283 69.1873 76.8357 69.1377C77.0432 69.0882 77.2307 68.9783 77.3739 68.8224C77.5171 68.6666 77.6094 68.4718 77.6388 68.2636C77.6682 68.0554 77.6334 67.8433 77.5388 67.6548C76.311 65.2054 73.0254 63.4952 69.5483 63.4952C68.2191 63.5196 66.8955 63.6717 65.5963 63.9495L63.8855 60.4656C66.0898 59.6061 68.4323 59.1412 70.8027 59.0928C75.202 59.0928 78.9488 60.4702 81.3537 62.9729C82.1942 63.8145 82.8471 64.8196 83.2705 65.924C83.694 67.0284 83.8786 68.2078 83.8127 69.3865L83.121 83.1823L76.8356 84.2179L76.0539 82.61C75.9865 82.4729 75.8898 82.3519 75.7704 82.2551C75.651 82.1582 75.5117 82.088 75.3622 82.0491C75.2725 82.0267 75.1804 82.0149 75.0879 82.0139C74.8716 82.0149 74.6606 82.0802 74.4826 82.2012C72.5867 83.505 70.3396 84.2233 68.0277 84.2645ZM72.5135 72.0926C68.6111 72.0926 68.1891 73.772 68.1891 74.4931C68.1891 77.7657 71.9059 77.7657 73.1268 77.7657C75.8799 77.7657 77.133 76.2566 77.133 74.8564C77.1353 72.0925 74.2382 72.0926 72.51 72.0926H72.5135Z" fill="#EAECEB"/>
<path d="M88.7666 92.663C88.0918 92.6627 87.4299 92.4827 86.8525 92.1424C86.275 91.8021 85.804 91.3145 85.4902 90.7322C85.1763 90.1499 85.0317 89.4951 85.0719 88.8385C85.112 88.1819 85.3355 87.5485 85.718 87.0067L93.2246 76.3845C92.5478 76.2273 91.9302 75.8874 91.4424 75.4037C90.9547 74.92 90.6167 74.312 90.4672 73.6496L88.7849 66.2137C88.6728 65.7159 88.67 65.2006 88.7768 64.7017C88.8836 64.2028 89.0977 63.7317 89.4047 63.3192C89.7117 62.9067 90.1048 62.5622 90.5581 62.3084C91.0115 62.0546 91.5148 61.8972 92.0351 61.8466L114.19 59.7083C114.312 59.6971 114.434 59.6904 114.554 59.6904C115.193 59.6901 115.821 59.851 116.377 60.1574C116.933 60.4637 117.398 60.9051 117.727 61.4387C118.056 61.9722 118.238 62.5797 118.255 63.2021C118.272 63.8245 118.123 64.4406 117.824 64.9904L113.631 72.6989H113.653C114.166 72.5904 114.696 72.5894 115.209 72.6959C115.722 72.8024 116.206 73.014 116.628 73.3167C117.051 73.6194 117.403 74.0062 117.661 74.4515C117.918 74.8968 118.076 75.3904 118.123 75.8996L119.317 88.7294C119.363 89.2289 119.303 89.7324 119.138 90.2077C118.974 90.683 118.71 91.1197 118.363 91.49C118.016 91.8603 117.594 92.1561 117.123 92.3584C116.652 92.5608 116.143 92.6652 115.629 92.6652L88.7666 92.663Z" fill="#023E8A"/>
<path d="M88.7668 90.0845C88.0923 90.0841 87.4305 89.904 86.8533 89.5637C86.276 89.2235 85.805 88.7361 85.4912 88.154C85.1774 87.5719 85.0328 86.9172 85.0728 86.2608C85.1128 85.6044 85.336 84.9711 85.7183 84.4293L93.2249 73.8071C92.5478 73.6504 91.9299 73.3106 91.4421 72.8268C90.9543 72.343 90.6164 71.7349 90.4674 71.0722L88.7852 63.6352C88.6732 63.1374 88.6706 62.6222 88.7775 62.1234C88.8844 61.6246 89.0983 61.1534 89.4053 60.741C89.7123 60.3285 90.1054 59.984 90.5587 59.7301C91.0119 59.4763 91.5151 59.3189 92.0353 59.2681L114.19 57.1309C114.311 57.1189 114.432 57.1129 114.554 57.113C115.193 57.1125 115.821 57.2732 116.377 57.5794C116.933 57.8857 117.398 58.327 117.727 58.8605C118.056 59.394 118.238 60.0014 118.255 60.6237C118.272 61.2461 118.124 61.8621 117.824 62.4118L113.632 70.1204H113.653C113.91 70.0675 114.171 70.0406 114.433 70.04C115.356 70.0399 116.247 70.3766 116.929 70.9839C117.611 71.5913 118.036 72.4253 118.12 73.3222L119.314 86.1531C119.36 86.6524 119.299 87.1556 119.134 87.6307C118.97 88.1057 118.706 88.5422 118.359 88.9123C118.012 89.2823 117.59 89.5779 117.119 89.7801C116.649 89.9823 116.14 90.0867 115.626 90.0867L88.7668 90.0845Z" fill="#00B4D8"/>
<path d="M88.7667 89.5684C88.1405 89.5679 87.5263 89.4005 86.9904 89.0846C86.4546 88.7686 86.0174 88.316 85.7262 87.7755C85.4349 87.2351 85.3006 86.6274 85.3378 86.018C85.375 85.4086 85.5821 84.8207 85.937 84.3177L93.6752 73.3693C92.9668 73.2868 92.3022 72.9914 91.7736 72.5242C91.245 72.0569 90.8787 71.441 90.7253 70.7617L89.0451 63.3246C88.9406 62.8624 88.9377 62.3839 89.0366 61.9205C89.1355 61.4571 89.334 61.0194 89.619 60.6361C89.904 60.2529 90.2689 59.9329 90.6899 59.6971C91.1109 59.4613 91.5785 59.3151 92.0616 59.2682L114.216 57.1299C114.331 57.1187 114.445 57.1142 114.56 57.1142C115.152 57.1148 115.734 57.2645 116.249 57.5488C116.764 57.833 117.196 58.2421 117.501 58.7366C117.807 59.231 117.976 59.794 117.993 60.371C118.01 60.9479 117.873 61.5193 117.597 62.0298L113.137 70.2288L113.71 70.1082C114.186 70.0082 114.679 70.0078 115.155 70.1071C115.631 70.2064 116.08 70.4032 116.472 70.6844C116.864 70.9655 117.191 71.3247 117.43 71.738C117.669 72.1514 117.815 72.6095 117.859 73.0821L119.054 85.9119C119.097 86.3757 119.041 86.8432 118.889 87.2846C118.736 87.7261 118.491 88.1316 118.169 88.4754C117.847 88.8192 117.454 89.0935 117.017 89.281C116.58 89.4684 116.107 89.5648 115.629 89.5639L88.7667 89.5684Z" fill="#0077B6"/>
<path d="M100.199 71.327H94.082L92.3996 63.8921L114.553 61.7538L106.634 76.3164L114.427 74.6786L115.62 87.5082H88.761L100.199 71.327Z" fill="#124DAC"/>
<path d="M100.199 70.5583H94.0821L92.3997 63.1213L114.553 60.9819L106.634 75.5466L114.427 73.9088L115.62 86.7374H88.761L100.199 70.5583Z" fill="#ADB8B4"/>
<path d="M100.199 70.2992H94.0821L92.3997 62.8632L114.553 60.7249L106.634 75.2885L114.427 73.6496L115.62 86.4794H88.761L100.199 70.2992Z" fill="#ADB8B4"/>
<path d="M100.199 70.0412H94.0821L92.3997 62.6052L114.553 60.4658L106.634 75.0305L114.427 73.3916L115.62 86.2202H88.761L100.199 70.0412Z" fill="#ADB8B4"/>
<path d="M100.199 69.782H94.0821L92.3997 62.346L114.553 60.2088L106.634 74.7724L114.427 73.1324L115.62 85.9644H88.761L100.199 69.782Z" fill="#ADB8B4"/>
<path d="M100.199 69.5249H94.0821L92.3997 62.0901L114.553 59.9496L106.634 74.5155L114.427 72.8754L115.62 85.704H88.761L100.199 69.5249Z" fill="#ADB8B4"/>
<path d="M100.199 69.2669H94.0821L92.3997 61.831L114.553 59.6915L106.634 74.2562L114.427 72.6174L115.62 85.4471H88.761L100.199 69.2669Z" fill="#ADB8B4"/>
<path d="M100.199 69.0088H94.0821L92.3997 61.5729L114.553 59.4346L106.634 73.9982L114.427 72.3592L115.62 85.1879H88.761L100.199 69.0088Z" fill="#ADB8B4"/>
<path d="M100.199 68.7497H94.0821L92.3997 61.3148L114.553 59.1754L106.634 73.739L114.427 72.1001L115.62 84.931H88.761L100.199 68.7497Z" fill="#ADB8B4"/>
<path d="M100.199 68.4916H94.0821L92.3997 61.0556L114.553 58.9185L106.634 73.4821L114.427 71.8421L115.62 84.6729H88.761L100.199 68.4916Z" fill="#ADB8B4"/>
<path d="M100.199 68.2402H94.082L92.3996 60.8031L114.553 58.6648L106.634 73.2284L114.427 71.5906L115.62 84.4193H88.761L100.199 68.2402Z" fill="#ADB8B4"/>
<path d="M100.199 68.2402H94.082L92.3996 60.8031L114.553 58.6648L106.634 73.2284L114.427 71.5906L115.62 84.4193H88.761L100.199 68.2402Z" fill="#FFFFFE"/>
<path d="M90.7812 83.8987L101.071 69.3328C101.179 69.1779 101.243 68.997 101.254 68.8095C101.265 68.622 101.223 68.4351 101.134 68.2689C101.044 68.1027 100.91 67.9636 100.745 67.8664C100.58 67.7692 100.391 67.7177 100.198 67.7174H94.9323L93.6899 62.2253L112.696 60.3898L105.698 73.2575C105.613 73.4147 105.571 73.5906 105.576 73.7683C105.582 73.9459 105.634 74.1193 105.728 74.2716C105.822 74.4238 105.955 74.5498 106.113 74.6373C106.272 74.7249 106.451 74.771 106.634 74.7713C106.709 74.771 106.783 74.7636 106.857 74.749L113.487 73.3547L114.468 83.8987H90.7812Z" fill="#EAECEB"/>
<path d="M134.026 93.2508C125.841 93.2508 117.555 87.6948 117.555 77.0701C117.555 66.1808 125.166 58.5727 136.056 58.5727C138.174 58.5218 140.28 58.8984 142.248 59.68C144.217 60.4615 146.008 61.6319 147.514 63.1212C149.063 64.7945 150.255 66.766 151.017 68.9154C151.779 71.0647 152.094 73.3468 151.944 75.6221C151.22 76.6628 150.835 77.9012 150.84 79.1687C150.846 80.4363 151.242 81.6713 151.975 82.7056C150.158 85.8716 147.547 88.5093 144.399 90.3585C141.252 92.2078 137.677 93.2046 134.026 93.2508Z" fill="#023E8A"/>
<path d="M134.027 90.6292C125.841 90.6292 117.556 85.0721 117.556 74.4508C117.556 63.5592 125.167 55.9521 136.057 55.9521C138.174 55.9005 140.28 56.2762 142.248 57.0568C144.217 57.8373 146.008 59.0067 147.515 60.495C149.064 62.1683 150.256 64.1399 151.018 66.2893C151.779 68.4386 152.095 70.7206 151.945 72.9959C151.221 74.0366 150.836 75.275 150.841 76.5425C150.847 77.81 151.243 79.045 151.975 80.0794C150.159 83.2465 147.549 85.8854 144.401 87.7355C141.254 89.5856 137.678 90.5829 134.027 90.6292Z" fill="#00B4D8"/>
<path d="M134.026 90.1071C125.971 90.1071 117.816 84.6398 117.816 74.19C117.816 63.4529 125.313 55.9537 136.055 55.9537C138.137 55.9032 140.209 56.2728 142.145 57.0404C144.082 57.8081 145.843 58.958 147.325 60.4216C148.851 62.0704 150.024 64.0126 150.773 66.1296C151.523 68.2467 151.833 70.4942 151.685 72.7352C150.869 73.7153 150.427 74.9532 150.438 76.2285C150.45 77.5038 150.913 78.7338 151.746 79.6994C149.953 82.8251 147.375 85.4291 144.268 87.2544C141.16 89.0796 137.63 90.0628 134.026 90.1071Z" fill="#0077B6"/>
<path d="M148.739 79.4131C147.245 82.0008 145.102 84.1546 142.522 85.6622C139.943 87.1698 137.014 87.9792 134.026 88.0106C127.383 88.0106 121.223 83.6868 121.223 75.4994C121.223 67.6254 126.128 60.6714 136.055 60.6714C143.422 60.6714 148.497 65.7652 148.28 73.9594L131.901 76.399C133.146 77.325 134.675 77.7862 136.224 77.7027C138.405 77.7761 140.55 77.1383 142.337 75.8856L148.739 79.4131ZM130.765 70.8373L139.292 70.3319C138.713 68.81 137.601 68.2047 135.597 68.2047C134.641 68.2293 133.704 68.4808 132.864 68.9385C132.024 69.3962 131.304 70.047 130.765 70.8373Z" fill="#124DAC"/>
<path d="M148.739 78.6296C147.245 81.2175 145.103 83.3716 142.523 84.8794C139.943 86.3872 137.014 87.1967 134.026 87.2281C127.383 87.2281 121.223 82.9033 121.223 74.7158C121.223 66.8419 126.128 59.8868 136.055 59.8868C143.423 59.8868 148.497 64.9827 148.28 73.1747L131.901 75.6131C133.145 76.5401 134.675 77.0015 136.224 76.9169C138.404 76.9914 140.549 76.3561 142.337 75.1066L148.739 78.6296ZM130.765 70.0537L139.292 69.5472C138.713 68.0265 137.601 67.4222 135.597 67.4222C134.641 67.4463 133.704 67.6975 132.864 68.1551C132.023 68.6126 131.304 69.2634 130.765 70.0537Z" fill="#ADB8B4"/>
<path d="M148.739 78.3662C147.245 80.9541 145.103 83.1081 142.523 84.616C139.943 86.1238 137.014 86.9333 134.026 86.9647C127.383 86.9647 121.223 82.6421 121.223 74.4536C121.223 66.5808 126.128 59.6245 136.055 59.6245C143.423 59.6245 148.497 64.7216 148.28 72.9124L131.901 75.3428C133.146 76.2688 134.675 76.7301 136.224 76.6466C138.404 76.7211 140.549 76.0858 142.337 74.8363L148.739 78.3662ZM130.765 69.7914L139.292 69.2861C138.713 67.7642 137.601 67.1611 135.597 67.1611C134.641 67.1854 133.704 67.4366 132.864 67.8939C132.024 68.3512 131.305 69.0016 130.765 69.7914Z" fill="#ADB8B4"/>
<path d="M148.739 78.1037C147.245 80.6919 145.103 82.8463 142.523 84.3543C139.943 85.8624 137.015 86.672 134.026 86.7034C127.383 86.7034 121.223 82.3797 121.223 74.1922C121.223 66.3171 126.128 59.362 136.055 59.362C143.423 59.362 148.497 64.458 148.28 72.65L131.901 75.0895C133.145 76.0164 134.675 76.4781 136.224 76.3944C138.405 76.4673 140.55 75.8296 142.337 74.5773L148.739 78.1037ZM130.765 69.529L139.292 69.0224C138.713 67.5017 137.601 66.8986 135.597 66.8986C134.641 66.9228 133.704 67.1739 132.864 67.6313C132.024 68.0886 131.304 68.7391 130.765 69.529Z" fill="#ADB8B4"/>
<path d="M148.739 77.8413C147.245 80.429 145.102 82.5827 142.523 84.0904C139.943 85.598 137.014 86.4074 134.026 86.4387C127.383 86.4387 121.223 82.1151 121.223 73.9276C121.223 66.0537 126.128 59.0985 136.055 59.0985C143.423 59.0985 148.497 64.1934 148.28 72.3865L131.901 74.8271C133.146 75.7527 134.675 76.2136 136.224 76.1298C138.405 76.2033 140.55 75.5655 142.337 74.3126L148.739 77.8413ZM130.765 69.2666L139.292 68.7601C138.713 67.2383 137.601 66.634 135.597 66.634C134.641 66.6585 133.704 66.91 132.863 67.368C132.023 67.8259 131.304 68.4771 130.765 69.2677V69.2666Z" fill="#ADB8B4"/>
<path d="M148.739 77.579C147.245 80.1669 145.103 82.321 142.523 83.8289C139.943 85.3367 137.014 86.1462 134.026 86.1776C127.383 86.1776 121.223 81.8539 121.223 73.6653C121.223 65.7925 126.128 58.8362 136.055 58.8362C143.423 58.8362 148.497 63.9333 148.28 72.1241L131.901 74.5637C133.145 75.4906 134.675 75.9523 136.224 75.8686C138.405 75.9409 140.55 75.3033 142.337 74.0515L148.739 77.579ZM130.765 69.0043L139.292 68.4967C138.713 66.976 137.601 66.3729 135.597 66.3729C134.641 66.3973 133.704 66.6486 132.864 67.1061C132.024 67.5636 131.304 68.2142 130.765 69.0043Z" fill="#ADB8B4"/>
<path d="M148.739 77.3178C147.245 79.9055 145.102 82.0593 142.523 83.5669C139.943 85.0745 137.014 85.8839 134.026 85.9152C127.383 85.9152 121.223 81.5916 121.223 73.4041C121.223 65.5302 126.128 58.575 136.055 58.575C143.423 58.575 148.497 63.671 148.28 71.863L131.901 74.3025C133.146 75.2285 134.675 75.6898 136.224 75.6063C138.405 75.6798 140.55 75.042 142.337 73.7891L148.739 77.3178ZM130.765 68.742L139.292 68.2354C138.713 66.7158 137.601 66.1105 135.597 66.1105C134.641 66.1346 133.704 66.3858 132.864 66.8434C132.023 67.3009 131.304 67.9517 130.765 68.742Z" fill="#ADB8B4"/>
<path d="M148.739 77.0532C147.245 79.6416 145.103 81.7961 142.523 83.3043C139.943 84.8126 137.015 85.6224 134.026 85.654C127.383 85.654 121.223 81.3292 121.223 73.1418C121.223 65.2667 126.128 58.3126 136.055 58.3126C143.423 58.3126 148.497 63.4086 148.28 71.6006L131.901 74.039C133.146 74.9646 134.675 75.4255 136.224 75.3417C138.405 75.4145 140.55 74.7772 142.337 73.5256L148.739 77.0532ZM130.765 68.4796L139.292 67.9731C138.713 66.4524 137.601 65.8482 135.597 65.8482C134.641 65.8725 133.704 66.1238 132.864 66.5813C132.024 67.0389 131.304 67.6895 130.765 68.4796Z" fill="#ADB8B4"/>
<path d="M148.739 76.7919C147.245 79.3799 145.103 81.534 142.523 83.0418C139.943 84.5496 137.014 85.3591 134.026 85.3905C127.383 85.3905 121.223 81.068 121.223 72.8805C121.223 65.0054 126.128 58.0503 136.055 58.0503C143.423 58.0503 148.497 63.1462 148.28 71.3325L131.901 73.7732C133.146 74.6992 134.675 75.1605 136.224 75.077C138.405 75.1494 140.55 74.5117 142.337 73.2598L148.739 76.7919ZM130.765 68.2184L139.292 67.7107C138.713 66.1889 137.601 65.5869 135.597 65.5869C134.641 65.611 133.704 65.8622 132.864 66.3198C132.023 66.7773 131.304 67.4281 130.765 68.2184Z" fill="#ADB8B4"/>
<path d="M148.739 76.5308C147.245 79.1184 145.102 81.2722 142.523 82.7798C139.943 84.2874 137.014 85.0968 134.026 85.1282C127.383 85.1282 121.223 80.8034 121.223 72.6171C121.223 64.7431 126.128 57.788 136.055 57.788C143.423 57.788 148.497 62.8828 148.28 71.0759L131.901 73.5166C133.145 74.4431 134.675 74.9045 136.224 74.8204C138.405 74.8939 140.55 74.256 142.337 73.0032L148.739 76.5308ZM130.765 67.9561L139.292 67.4484C138.713 65.9277 137.601 65.3223 135.597 65.3223C134.64 65.3471 133.703 65.5993 132.863 66.0581C132.022 66.5168 131.303 67.169 130.765 67.9606V67.9561Z" fill="#ADB8B4"/>
<path d="M148.739 76.2672C147.245 78.8549 145.102 81.0087 142.522 82.5163C139.943 84.0239 137.014 84.8333 134.026 84.8647C127.383 84.8647 121.223 80.5421 121.223 72.3535C121.223 64.4807 126.128 57.5244 136.055 57.5244C143.422 57.5244 148.497 62.6204 148.28 70.8124L131.901 73.253C133.145 74.1796 134.675 74.6409 136.224 74.5569C138.404 74.6309 140.549 73.9952 142.337 72.7453L148.739 76.2672ZM130.765 67.6914L139.292 67.1848C138.713 65.6641 137.601 65.0611 135.597 65.0611C134.641 65.0854 133.704 65.3366 132.864 65.7939C132.024 66.2512 131.304 66.9015 130.765 67.6914Z" fill="#ADB8B4"/>
<path d="M148.739 76.2672C147.245 78.8549 145.102 81.0087 142.522 82.5163C139.943 84.0239 137.014 84.8333 134.026 84.8647C127.383 84.8647 121.223 80.5421 121.223 72.3535C121.223 64.4807 126.128 57.5244 136.055 57.5244C143.422 57.5244 148.497 62.6204 148.28 70.8124L131.901 73.253C133.145 74.1796 134.675 74.6409 136.224 74.5569C138.404 74.6309 140.549 73.9952 142.337 72.7453L148.739 76.2672ZM130.765 67.6914L139.292 67.1848C138.713 65.6641 137.601 65.0611 135.597 65.0611C134.641 65.0854 133.704 65.3366 132.864 65.7939C132.024 66.2512 131.304 66.9015 130.765 67.6914Z" fill="#FFFFFE"/>
<path d="M134.026 84.3411C128.365 84.3411 122.272 80.7534 122.272 72.8794C122.272 66.5194 125.882 59.0985 136.055 59.0985C137.543 59.0421 139.027 59.2897 140.415 59.8264C141.804 60.363 143.069 61.1773 144.132 62.2195C146.179 64.458 147.289 67.3962 147.233 70.4285L131.746 72.7306C131.547 72.7601 131.36 72.8467 131.208 72.98C131.056 73.1134 130.947 73.2877 130.892 73.482C130.837 73.6763 130.839 73.8823 130.899 74.0752C130.958 74.2681 131.072 74.4397 131.227 74.5693C132.66 75.6556 134.429 76.2039 136.225 76.1185C138.398 76.1459 140.538 75.5863 142.419 74.4989L147.292 77.186C145.824 79.3617 143.85 81.1491 141.54 82.3952C139.229 83.6413 136.651 84.309 134.026 84.3411ZM135.597 64.5375C134.459 64.5642 133.344 64.8638 132.347 65.411C131.349 65.9583 130.497 66.7372 129.863 67.6823C129.769 67.8414 129.718 68.0227 129.717 68.2076C129.715 68.3925 129.763 68.5745 129.854 68.7352C129.946 68.8958 130.079 69.0294 130.238 69.1224C130.398 69.2153 130.58 69.2643 130.765 69.2643C130.785 69.2643 139.355 68.7578 139.355 68.7578C139.519 68.7476 139.678 68.6991 139.82 68.616C139.962 68.5329 140.083 68.4177 140.172 68.2796C140.261 68.1415 140.317 67.9844 140.334 67.8208C140.352 67.6573 140.331 67.492 140.272 67.3382C139.316 64.8282 137.145 64.5375 135.597 64.5375Z" fill="#EAECEB"/>
</svg>
